<?xml version="1.0" encoding="utf-8"?>
<!-- Generator: Adobe Illustrator 22.0.1, SVG Export Plug-In . SVG Version: 6.00 Build 0)  -->
<svg version="1.1" id="图层_1" xmlns="http://www.w3.org/2000/svg" xmlns:xlink="http://www.w3.org/1999/xlink" x="0px" y="0px"
	 viewBox="0 0 100 100" style="enable-background:new 0 0 100 100;" xml:space="preserve">
<style type="text/css">
	.st0{fill:#231F20;}
	.st1{fill:#FFFFFF;}
	.st2{fill:#FFD520;}
	.st3{fill:#E13A3E;}
</style>
<g id="surface1">
	<path class="st0" d="M30.7,95.8c-5.9-2.5-11.2-6.1-15.8-10.7c-4.6-4.6-8.2-9.9-10.7-15.8C1.6,63.2,0.3,56.7,0.3,50
		s1.3-13.2,3.9-19.3c2.5-5.9,6.1-11.2,10.7-15.8c4.6-4.6,9.9-8.2,15.8-10.7C36.8,1.6,43.3,0.3,50,0.3s13.2,1.3,19.3,3.9
		c5.9,2.5,11.2,6.1,15.8,10.7c4.6,4.6,8.1,9.9,10.7,15.8c2.6,6.1,3.9,12.6,3.9,19.3s-1.3,13.2-3.9,19.3c-2.5,5.9-6.1,11.2-10.7,15.8
		c-4.6,4.6-9.9,8.2-15.8,10.7c-6.1,2.6-12.6,3.9-19.3,3.9S36.8,98.4,30.7,95.8 M30.5,3.9c-6,2.5-11.3,6.1-15.9,10.7
		c-4.6,4.6-8.2,9.9-10.7,15.9C1.3,36.7,0,43.2,0,50s1.3,13.3,3.9,19.5c2.5,6,6.1,11.3,10.7,15.9c4.6,4.6,9.9,8.2,15.9,10.7
		c6.2,2.6,12.7,3.9,19.5,3.9s13.3-1.3,19.5-3.9c6-2.5,11.3-6.1,15.9-10.7c4.6-4.6,8.2-9.9,10.7-15.9c2.6-6.2,3.9-12.7,3.9-19.5
		s-1.3-13.3-3.9-19.5c-2.5-6-6.1-11.3-10.7-15.9c-4.6-4.6-9.9-8.2-15.9-10.7C63.3,1.3,56.8,0,50,0S36.7,1.3,30.5,3.9"/>
	<path class="st0" d="M31,95c-5.8-2.5-11-6-15.5-10.5C11,80,7.5,74.8,5,69c-2.5-6-3.8-12.4-3.8-19c0-6.6,1.3-13,3.8-19
		c2.5-5.8,6-11,10.5-15.5C20,11,25.2,7.5,31,5c6-2.5,12.4-3.8,19-3.8S63,2.5,69,5c5.8,2.5,11,6,15.5,10.5C89,20,92.5,25.2,95,31
		c2.5,6,3.8,12.4,3.8,19c0,6.6-1.3,13-3.8,19c-2.5,5.8-6,11-10.5,15.5C80,89,74.8,92.5,69,95c-6,2.5-12.4,3.8-19,3.8S37,97.5,31,95
		 M30.9,4.9c-5.8,2.5-11.1,6-15.6,10.5c-4.5,4.5-8,9.7-10.5,15.6C2.3,37,1.1,43.4,1.1,50s1.3,13,3.8,19.1c2.5,5.8,6,11.1,10.5,15.6
		c4.5,4.5,9.7,8,15.6,10.5c6,2.5,12.4,3.8,19.1,3.8c6.6,0,13-1.3,19.1-3.8c5.8-2.5,11.1-6,15.6-10.5c4.5-4.5,8-9.7,10.5-15.6
		C97.7,63,99,56.6,99,50s-1.3-13-3.8-19.1c-2.5-5.8-6-11.1-10.5-15.6c-4.5-4.5-9.7-8-15.6-10.5C63,2.3,56.6,1.1,50,1.1
		C43.4,1.1,37,2.3,30.9,4.9"/>
	<path class="st0" d="M36.5,82c-4.1-1.8-7.9-4.3-11-7.4c-3.2-3.2-5.7-6.9-7.4-11c-1.8-4.3-2.7-8.8-2.7-13.5c0-4.7,0.9-9.2,2.7-13.5
		c1.8-4.1,4.3-7.9,7.4-11s6.9-5.7,11-7.4c4.3-1.8,8.8-2.7,13.5-2.7s9.2,0.9,13.5,2.7c4.1,1.7,7.9,4.3,11,7.4c3.2,3.2,5.7,6.9,7.4,11
		c1.8,4.3,2.7,8.8,2.7,13.5c0,4.7-0.9,9.2-2.7,13.5c-1.8,4.1-4.3,7.9-7.4,11c-3.2,3.2-6.9,5.7-11,7.4c-4.3,1.8-8.8,2.7-13.5,2.7
		S40.8,83.8,36.5,82 M36.4,17.9c-4.2,1.8-7.9,4.3-11.1,7.5s-5.7,6.9-7.5,11.1c-1.8,4.3-2.7,8.9-2.7,13.6c0,4.7,0.9,9.3,2.7,13.6
		c1.8,4.2,4.3,7.9,7.5,11.1c3.2,3.2,6.9,5.7,11.1,7.5c4.3,1.8,8.9,2.7,13.6,2.7c4.7,0,9.3-0.9,13.6-2.7c4.2-1.8,7.9-4.3,11.1-7.5
		c3.2-3.2,5.7-6.9,7.5-11.1c1.8-4.3,2.7-8.9,2.7-13.6c0-4.7-0.9-9.3-2.7-13.6c-1.8-4.2-4.3-7.9-7.5-11.1s-6.9-5.7-11.1-7.5
		c-4.3-1.8-8.9-2.7-13.6-2.7C45.3,15.1,40.7,16,36.4,17.9"/>
	<path class="st0" d="M36.8,81.1c-4-1.7-7.6-4.1-10.7-7.2c-3.1-3.1-5.5-6.7-7.2-10.7c-1.8-4.2-2.7-8.6-2.7-13.2s0.9-9,2.7-13.2
		c1.7-4,4.1-7.6,7.2-10.7c3.1-3.1,6.7-5.5,10.7-7.2c4.2-1.8,8.6-2.7,13.2-2.7s9,0.9,13.2,2.7c4,1.7,7.6,4.1,10.7,7.2
		c3.1,3.1,5.5,6.7,7.2,10.7c1.8,4.2,2.7,8.6,2.7,13.2s-0.9,9-2.7,13.2c-1.7,4-4.1,7.6-7.2,10.7c-3.1,3.1-6.7,5.5-10.7,7.2
		c-4.2,1.8-8.6,2.7-13.2,2.7S41,82.9,36.8,81.1 M36.7,18.6c-4.1,1.7-7.7,4.2-10.8,7.3s-5.6,6.8-7.3,10.8c-1.8,4.2-2.7,8.7-2.7,13.3
		s0.9,9.1,2.7,13.3c1.7,4.1,4.2,7.7,7.3,10.8c3.1,3.1,6.8,5.6,10.8,7.3c4.2,1.8,8.7,2.7,13.3,2.7s9.1-0.9,13.3-2.7
		c4.1-1.7,7.7-4.2,10.8-7.3c3.1-3.1,5.6-6.8,7.3-10.8c1.8-4.2,2.7-8.7,2.7-13.3s-0.9-9.1-2.7-13.3c-1.7-4.1-4.2-7.7-7.3-10.8
		c-3.1-3.1-6.8-5.6-10.8-7.3c-4.2-1.8-8.7-2.7-13.3-2.7S40.9,16.8,36.7,18.6"/>
	<path class="st1" d="M18.1,50c0,17.6,14.3,31.9,31.9,31.9c17.6,0,31.9-14.3,31.9-31.9S67.6,18.1,50,18.1
		C32.4,18.1,18.1,32.4,18.1,50"/>
	<path class="st2" d="M81.9,49.3c0,0.1-0.6,0.6-1.2,1c0,0,0,0,0,0c-0.8,0.4-2,0.9-3.4,1.2c-1.5,0.4-3.3,0.7-5.3,1.1
		c-2,0.3-4.3,0.5-6.7,0.8c0,0,0,0,0,0c-3.1,0.3-5.1,0.4-7.5,0.5c-2.6,0.1-5.4,0.2-8.1,0.2c0,0.4,0,0.7,0,1.1c0,2.5,0,4.9,0,7.1
		c0.1,12.2,0.1,12.2,0.4,19.7c17.6,0,31.9-14.3,31.9-31.9C81.9,50,81.9,49.5,81.9,49.3"/>
	<path class="st0" d="M49.5,55.1c0,2.5,0,4.9,0,7.1c5.1,4.8,5.1,4.8,7.2,7c0.6-4,0.9-8.9,0.9-14.2c0-0.4,0-0.7,0-1.1
		c-3.2,0.1-5.4,0.2-8.1,0.2C49.5,54.4,49.5,54.8,49.5,55.1"/>
	<path class="st0" d="M61.2,74.6c-1.1-1.8-2.1-3-4.4-5.4c-1.1,7.8-3,12.5-5.4,12.6c0.2,0,0.5,0,0.7,0c0.3,0,0.6,0,0.8-0.1
		C56.2,81.4,59,78.9,61.2,74.6"/>
	<path class="st0" d="M64.8,61.6c0,0-1.8,9.6-3.6,13c1,1.9,1,2.7,0.6,4c3.1-2.3,5.6-5.9,7.4-10.3C68.1,66,67.4,64.8,64.8,61.6"/>
	<path class="st0" d="M55.7,81.4c0.7-0.1,0.7-0.1,1.9-0.4l0.8-0.2c2.4-0.7,2.8-1.1,3.5-2.2c-2.1,1.6-4.3,2.5-6.9,2.9L55.7,81.4z"/>
	<path class="st0" d="M69.8,73.6c4.6-5.2,7.4-12.6,7.4-20.9c0-0.4,0-0.7,0-1.1c-1.5,0.4-3.3,0.7-5.3,1.1c0,0.4,0,0.7,0,1.1
		c0,5.5-0.9,10.4-2.6,14.6C70.3,70.7,70.3,71.7,69.8,73.6"/>
	<path class="st0" d="M65.2,53.4c-3.1,0.3-5.1,0.4-7.5,0.5c4.4,4.5,5.3,5.6,7.1,7.7c0.3-2.3,0.4-4.6,0.4-7.1
		C65.2,54.1,65.2,53.7,65.2,53.4"/>
	<path class="st0" d="M43,19.8c1.8-0.7,3.5-1.5,6.9-1.7C47.6,18.3,45.2,19,43,19.8"/>
	<path class="st3" d="M71.3,52.6c-1.7-0.2-3-3-2.3-5.9c-2.3,1.6-5-1.7-4.6-4.8c0.2-1.6,1.3-3.1,3.1-2.4c-0.8-2.6-1.7-5-2.8-7.3
		c-1.6,0.2-3.5,0.4-5.4,0.5c1.7,2.6,0,5-2.3,4.6c-1.7-0.3-3.3-2.1-2.9-4.2c-1.4,1-4.3,0.6-4.5-2.5c-0.1,6.5-0.1,14.8-0.1,23.4
		c8.5,0.1,18.4-0.8,22.3-1.4c0,0,0,0,0,0C71.7,52.6,71.5,52.6,71.3,52.6"/>
	<path class="st3" d="M29.4,59c2.4-0.9,5.3,3.2,4.3,5.9c-0.5,1.3-1.7,1.6-3,0.9c0.7,2.4,1.6,4.6,2.7,6.5c1.7,0.2,3.6,0.4,5.6,0.6
		c-1.7-2-0.3-3.7,1.9-3.6c1.9,0.1,4.4,1.7,3.9,3.8c1.7-0.8,4.6-0.1,4.9,2.1c-0.1-4.8-0.1-11.8-0.2-20.1c0-0.4,0-0.7,0-1.1
		c-2.7,0-5.4-0.1-8.1-0.2c-5.8-0.2-9.7-0.6-14.5-1.4c0,0,0,0,0,0C29.4,53.3,30,57,29.4,59"/>
	<path class="st3" d="M65.1,29.6C65.1,29.6,65.1,29.6,65.1,29.6L65.1,29.6C65.1,29.6,65.1,29.6,65.1,29.6c0.4-0.1,0.6-0.1,0.9-0.2
		c1.8-0.3,6-1.3,6-2.5c0,0,1.6,1.6,2.8,3.9c0.1,0.2,0.2,0.5,0.4,0.8c0.1,0.4,0.2,0.9,0.2,1.1c-0.1,0.7-0.5,0.7-0.9,0.5
		c0,0-0.1,0-0.1-0.1c-1.6-0.7-2.2-2.2-2.5-2.9c-0.8,0.3-2.2,0.9-3.4,1.1c-0.1,0-0.4,0.1-0.5,0.1c1.3,2.2,2.6,4.9,3.6,7.4
		c1.6-1.6,4.1,1.4,4.2,4.4c0.1,1.7-0.7,3.3-2.3,2.7c1.3,2.3,0.9,5.8-1.5,6.6C71.5,44.9,70.2,38,65.1,29.6L65.1,29.6"/>
	<path class="st3" d="M65.1,29.7c-4.1-6.2-7.3-8.5-11.4-10.1c-0.8-0.3-3.6-1.4-3.8-1.5l0,0c0.7,1.1,2.2,1.7,2.5,1.8
		c-0.1,0.4,0,1.2,1.3,2.1c0.2,0.2,0.4,0.3,0.6,0.4c2.1,1.1,2.5,0.2,2.6-0.1c0,0,0,0,0,0c0.6,0.5,1.9,1.5,3.2,3
		c0.8,0.9,1.5,1.8,2.1,2.6c-1.3,0.2-3,0.3-4.7,0.4c-0.1-2-1.6-3-2.5-3.4c-2-0.8-2.7,1.6-1.8,3.3c-1.6-0.9-3.5-0.1-3.8,2.4
		C55.9,30.6,60.3,30.3,65.1,29.7L65.1,29.7L65.1,29.7"/>
	<path class="st3" d="M65.5,23.9c0,0,0-0.1,0-0.2c0-0.1,0.1-0.2,0.1-0.2s0-0.1,0.2-0.2c0.3-0.2,1.3-0.3,4,1.6
		c-5.5-4.3-11.5-6.1-16.5-6.6c-0.7-0.1-2-0.1-2-0.1c1.6,0.1,2.7,0.6,3,0.7c0.2,0.1,0.4,0.2,0.5,0.3c0,0,0,0,0,0
		c0.3,0,0.7,0.1,1.1,0.2c0.5,0.1,1.3,0.4,2,0.8c0.7,0.3,1.8,1.1,1.8,1.6c-0.2,0.1-0.2,0.1-0.7,0c1.9,1.3,4.6,3.9,6.2,5.7
		c1.1-0.2,2.7-0.4,3.5-0.7C68.4,26.8,66,24.9,65.5,23.9"/>
	<path class="st3" d="M33.1,74c-2.7-0.5-4.3-0.9-5.3-1.4c-0.2-0.1-0.2-0.1-0.3-0.1c0,0-1.6-1.6-2.9-3.3c-1-1.3-1.8-2.7-1.9-2.8
		c0,0,0.2,0,0.4,0c1.4,0.5,3.7,4.4,3.7,4.4c0.9,0.3,2,0.6,3.4,0.9c-1.3-2-2.4-4.2-3.2-6.6c-2,1-4.5-4.2-3.7-6.5
		c0.2-0.5,0.7-1.4,2-0.4c-1-2.3-0.7-5.9,1.7-5.8C27,60.2,28,66.9,33.1,74"/>
	<path class="st3" d="M49.6,75.6c-0.3,1.1-1.8,2.2-4,1.3c1,1.4,0.1,2.5-1.7,2.2c-1.4-0.3-3.1-1.4-3.2-2.5c-1.7-0.1-3.3-0.3-4.7-0.5
		c1.3,1.6,2.8,2.8,4.4,3.8c0.2-0.1,0.5-0.1,1.4,0.3c1.2,0.4,2.4,1,3.6,1.4c0,0-0.3,0-0.3,0c-0.9-0.1-1.2-0.2-1.7-0.3
		c-2.3-0.5-6.4-1.8-10.5-7.2h0h0c4.9,0.8,9.8,1.1,16.6,1.1C49.7,75.3,49.7,75.5,49.6,75.6"/>
	<path class="st2" d="M49.9,18.1c-17.1,0-31.5,14-31.8,31.3l0,0c0,0,0.2,0.4,0.8,0.8c0.7,0.4,1.7,0.9,3,1.2c1.6,0.4,3.3,0.8,4.9,1
		l0,0c4.8,0.8,8.7,1.2,14.5,1.4c2.7,0.1,5.4,0.2,8.1,0.2c0-1.6,0-10.9,0.1-19.8c0-1.2,0-2.4,0-3.6C49.7,24.8,49.8,18.9,49.9,18.1"/>
	<path class="st0" d="M65.2,78c-1.8,1-2.1,1-4.6,2c-0.7,0.3-1.3,0.4-2,0.6c4.3-1.2,10.2-6,11.2-7.1c-0.5,1.2-0.9,1.9-2.2,3
		C67.3,76.8,65.8,77.7,65.2,78"/>
	<path class="st0" d="M22,51.4c-1.3-0.3-2.3-0.8-3-1.2c0.4-11.5,6.8-21.8,16.1-27.4c-2.2,2-3.2,3.1-4.3,5.8
		C25.5,34.6,22.2,42.7,22,51.4"/>
	<path class="st0" d="M35.1,22.8c2.3-1.7,3.7-2.9,7.4-3.8c2.6-0.6,4.9-0.9,7.4-0.9C44.6,18.4,39.5,20.2,35.1,22.8"/>
	<path class="st0" d="M33.4,53.3c-2.3-0.2-4.5-0.5-6.5-0.9c0.1-5.8,1.3-11.3,3.4-16.2c0.8,3.2,1.5,5,3.8,8.8
		C33.7,47.7,33.5,50.5,33.4,53.3"/>
	<path class="st0" d="M49.6,30.7c0,3.5-0.1,7.1-0.1,9.9c0,2.8,0,4.8,0,5.1c-3.1-3.3-4.8-5.1-7.1-8c1.5-9.9,4.3-17.7,7.5-19.5
		C49.8,19.1,49.7,24.7,49.6,30.7"/>
	<path class="st0" d="M38.4,30.3c-2,4.2-3.5,9.3-4.3,14.7c1.9,2.9,3.2,4.6,7,8.8c0-5.7,0.5-11.2,1.3-16.2
		C40.1,34.5,39.4,32.9,38.4,30.3"/>
	<path class="st0" d="M80.6,50.3c0,0.4,0,0.7,0,1.1c0,11.3-5.5,20.6-14.1,25.8l-0.2,0.2c4-2.5,9.2-6.7,12.4-13.6
		c3.5-6.9,3.1-14.4,3.1-14.4C81.7,49.6,81.2,50,80.6,50.3"/>
	<path class="st0" d="M43,19.8c-4.6,1.8-8.8,4.9-12.2,8.8c-0.9,2.9-0.9,4.5-0.5,7.6c2.1-4.8,5-9,8.4-12.1
		C39.8,22.3,40.4,21.2,43,19.8"/>
	<path class="st0" d="M38.4,30.3c-0.6-2.6-0.6-3.9,0.3-6.2c3.3-3.1,7.2-5.3,11.2-6C45.5,19.3,41.4,24,38.4,30.3"/>
	<path class="st0" d="M11.6,26.4l0.2,0.1c-0.3,0.6-0.2,1,0.5,1.3l2.6,1.3c1.2,0.6,2.1,2,1.1,4.1c-0.9,1.8-2.4,2.3-3.8,1.6l-2.8-1.4
		c-0.6-0.3-0.8-0.2-1.1,0.5l-0.2-0.1l1.2-2.5l0.2,0.1l0,0.1c-0.3,0.5-0.2,0.8,0.3,1.1l2.7,1.3c1.3,0.6,2.5,0.3,3.2-1.2
		c0.5-1.1,0.6-2.4-1-3.2l-2.2-1.1c-0.9-0.5-1.2-0.4-1.6,0.4l-0.2-0.1L11.6,26.4z"/>
	<path class="st0" d="M22.7,23.2l-8,0.5l3.5,3c0.6,0.5,0.8,0.5,1.4-0.2l0.2,0.1l-1.6,1.9L18,28.3l0,0c0.4-0.5,0.4-0.8,0-1.1l-4-3.4
		c-0.3,0.1-0.5,0.2-0.8,0.5l-0.2-0.1l1.1-1.3l7.3-0.5l-3.3-2.8c-0.5-0.4-0.7-0.4-1.3,0.3l-0.2-0.1l1.6-1.9l0.2,0.1
		c-0.5,0.6-0.5,0.8-0.2,1.1l4.6,3.9L22.7,23.2z"/>
	<path class="st0" d="M26.6,19.7l-2,1.7l-0.1-0.2c0.5-0.4,0.5-0.7,0-1.2l-2.9-3.5c-0.4-0.4-0.6-0.4-1.1-0.1l-0.1-0.2l2-1.7l0.1,0.2
		c-0.5,0.4-0.6,0.7-0.1,1.3l2.9,3.5c0.4,0.5,0.7,0.5,1.2,0.1L26.6,19.7z"/>
	<path class="st0" d="M30.6,17.3l-4.9-3.8c-0.6-0.4-0.8-0.5-1.3-0.2l-0.1-0.2l2.5-1.5l0.1,0.2c-0.8,0.5-0.9,0.8-0.5,1.2l4.1,3.2
		l-0.8-4.7c-0.1-0.3-0.1-0.5-0.2-0.7c-0.2-0.3-0.5-0.3-1.1,0.1l-0.1-0.2l2.1-1.3l0.1,0.2c-0.5,0.3-0.6,0.7-0.5,1.4l1,6.1L30.6,17.3z
		"/>
	<path class="st0" d="M38.4,11L38.2,11c-0.3-0.7-0.5-0.7-1-0.6l-1.7,0.6l0.7,2.2c0.2,0.5,0.4,0.5,0.7,0.4l1.6-0.5
		c0.7-0.2,0.8-0.6,0.8-1.6l0.2-0.1l0.4,1.6l-5.4,1.9l-0.1-0.2l0.3-0.1c0.8-0.3,0.9-0.6,0.7-1.2L34,9.1c-0.2-0.6-0.4-0.8-1.1-0.5
		l-0.2,0.1l-0.1-0.2l4.9-1.7L38,8.2l-0.2,0.1c-0.4-0.8-0.7-0.9-1.1-0.8l-2.1,0.7l0.9,2.5l1.8-0.6c0.4-0.1,0.5-0.4,0.3-1L37.8,9
		L38.4,11z"/>
	<path class="st0" d="M43,9.5c0.2,0,0.3,0,0.5,0c0.3,0,0.5-0.1,0.7-0.1c0.3,0.1,0.7,0.4,1.2,0.8l0.8,0.6c1.1,0.8,1.6,1.2,3.4,0.9
		l0-0.2c-0.8,0-1.5-0.3-2.2-0.8l-0.9-0.7c-0.6-0.4-0.9-0.7-1.3-1C46,8.6,46.4,7.8,46.3,7c-0.1-1.1-1.1-1.8-3.1-1.6
		c-0.7,0.1-0.9,0.1-1.3,0.2c-0.4,0.1-1.1,0.2-1.3,0.2l0,0.2l0.2,0c0.6-0.1,0.8,0.1,0.9,0.8l0.5,4.5c0.1,0.7-0.1,0.9-0.7,1l-0.2,0
		l0,0.2l3-0.4l0-0.2l-0.2,0c-0.6,0.1-0.9-0.1-0.9-0.7L43,9.5z M42.5,5.8c0.2,0,0.3-0.1,0.5-0.1c1.6-0.2,2.2,0.5,2.3,1.5
		c0.2,1.3-0.6,1.9-1.8,2c-0.2,0-0.4,0.1-0.7,0.1L42.5,5.8z"/>
	<path class="st0" d="M51.2,10.1c0.2,1,0.9,1.6,1.7,1.6c0.7,0.1,1.5-0.3,1.6-1.1c0.1-1.5-3.3-2.3-3.1-4.2c0.1-0.9,0.9-1.5,2-1.4
		c0.9,0.1,1.1,0.4,1.4,0.4c0.1,0,0.1,0,0.2-0.1l0.2,0l0.1,1.4l-0.2,0c-0.2-0.8-0.9-1.3-1.6-1.4c-0.7-0.1-1.2,0.3-1.3,0.9
		c-0.1,1.5,3.3,2.2,3.1,4.2c-0.1,1-1.1,1.8-2.3,1.7c-0.6,0-1.3-0.4-1.5-0.4c-0.1,0-0.2,0-0.2,0.1l-0.2,0L51,10.1L51.2,10.1z"/>
	<path class="st0" d="M59.5,12.9l-2.5-0.6l0-0.2c0.7,0.1,0.8,0,1-0.7l1-4.5c0.1-0.6,0-0.8-0.6-0.9l0-0.2l2.5,0.6l0,0.2
		c-0.7-0.1-0.9,0-1.1,0.7l-1,4.4c-0.1,0.6,0,0.9,0.7,1L59.5,12.9z"/>
	<path class="st0" d="M64.9,13.7c-0.2,0.5-0.1,0.8,0.5,1l0.4,0.1l-0.1,0.2l-3.1-1.2l0.1-0.2l0.4,0.1c0.6,0.2,0.9,0.1,1.1-0.4l2-4.9
		l-1.7-0.7c-0.4-0.2-0.7,0-1.2,0.8l-0.2-0.1l0.8-1.6L63.9,7c0,0.1,0,0.1,0.1,0.2c0.1,0,0.1,0.1,0.2,0.1l4.8,1.9
		c0.1,0.1,0.3,0.1,0.4,0l0.2,0.1L69,10.9l-0.2-0.1C69,9.9,69,9.6,68.6,9.5l-1.7-0.7L64.9,13.7z"/>
	<path class="st0" d="M75.8,14.4c0.6-0.3,0.5-0.6,0-0.9l0.1-0.2l2,1.3l-0.1,0.2c-0.6-0.4-1.1-0.3-1.6,0L73,16.3l-0.9,1.3
		c-0.3,0.5-0.3,0.8,0.3,1.1l0.1,0.1L72.4,19L70,17.4l0.1-0.2l0.2,0.1c0.6,0.4,0.8,0.3,1.1-0.2l0.8-1.3l0.1-3.5c0-1-0.1-1.2-0.7-1.6
		l0.1-0.2l2.4,1.6L74,12.3c-0.7-0.5-0.9-0.3-0.9,0.3l0,3.2L75.8,14.4z"/>
	<path class="st0" d="M85.6,27.8c1.5-1.2,1.6-3.4,0.4-5c-1.4-1.8-3.6-2.2-5.3-0.9C79,23.1,79,25.3,80.3,27
		C81.6,28.6,83.8,29.1,85.6,27.8 M84.7,27.2c-1.2,0.9-2.9,1.2-4-0.2c-1-1.4-0.7-3.3,0.8-4.5c1-0.8,2.9-1.3,4,0.2
		C86.6,24.1,86.2,26,84.7,27.2"/>
	<path class="st0" d="M87.8,34.5l-0.1-0.2c0.6-0.3,0.6-0.6,0.4-1l-0.9-1.8l-2.1,1c-0.5,0.3-0.7,0.5-0.3,1.2l-0.2,0.1l-1.1-2.4
		l0.2-0.1c0.3,0.6,0.5,0.6,1.3,0.3l3.8-1.8c0.6-0.3,0.9-0.5,0.6-1.2l0.2-0.1l2.1,4.3l-1.1,0.5l-0.1-0.2c0.6-0.3,0.7-0.6,0.4-1.2
		l-0.9-1.8l-2.3,1.1l0.9,1.9c0.2,0.4,0.5,0.4,0.9,0.3l0.1,0.2L87.8,34.5z"/>
	<path class="st0" d="M12.7,76.5l3.9-7.1l0,0l-5.2,3.3c-0.6,0.4-0.4,0.9-0.1,1.4L11,74.2l-1.7-2.3l0.2-0.2c0.6,0.8,0.8,0.8,1.9,0.1
		L16,69c0.8-0.5,0.9-0.7,0.5-1.4l0.2-0.1l1.2,1.7l-3.7,6.7l7.5-1.4l1.2,1.6l-0.2,0.1c-0.4-0.5-0.6-0.7-1-0.4l-4.8,4
		c-1,0.8-0.9,0.9-0.3,1.7l-0.2,0.2l-2.1-2.9l0.2-0.2c0.4,0.5,0.9,0.9,1.4,0.5l4.7-3.9l0,0l-7.9,1.5L12.7,76.5z"/>
	<path class="st0" d="M26.1,84.5l-0.7,2.6c0,0.1-0.1,0.4-0.2,0.5c-0.2,0.3-0.5,0.2-1.1-0.3l-0.3-0.2l-0.2,0.2l3,2.2l0.2-0.2
		C26.2,89,26,88.7,26.3,88l2.2-7.8l-1-0.7l-0.1,0.3l-6.1,4c-1.1,0.7-1.3,0.7-2,0.2l-0.2,0.2l2.6,1.9l0.2-0.2l-0.2-0.1
		c-0.6-0.4-0.8-0.8-0.6-1.1c0.1-0.2,0.5-0.4,0.7-0.5l1.9-1.3L26.1,84.5z M26.3,83.9l-1.9-1.4l2.8-1.9L26.3,83.9z"/>
	<path class="st0" d="M33.3,88.8c0.2,0.1,0.4,0.2,0.6,0.3c0.3,0.1,0.6,0.2,0.9,0.3c0.2,0.3,0.6,0.9,0.9,1.6l0.6,1.2
		c0.7,1.6,1.1,2.3,3.4,3l0.1-0.2c-1-0.4-1.6-1.2-2.1-2.2l-0.7-1.4c-0.4-0.8-0.7-1.3-1-1.9c1.2,0.1,2.1-0.5,2.5-1.5
		c0.5-1.3-0.3-2.7-2.6-3.5c-0.8-0.3-1.1-0.4-1.6-0.5c-0.5-0.2-1.3-0.4-1.7-0.5l-0.1,0.2l0.3,0.1c0.8,0.3,0.9,0.6,0.6,1.4l-1.9,5.4
		c-0.3,0.9-0.7,1-1.4,0.7l-0.2-0.1l-0.1,0.2l3.7,1.3l0.1-0.2l-0.3-0.1c-0.7-0.3-1-0.6-0.7-1.3L33.3,88.8z M34.9,84.3
		c0.2,0.1,0.4,0.1,0.7,0.2c2,0.7,2.2,1.8,1.8,3c-0.6,1.6-1.7,1.8-3.1,1.3c-0.3-0.1-0.5-0.2-0.8-0.3L34.9,84.3z"/>
	<path class="st0" d="M48.8,88.5c0.5-0.7,0.3-1-0.6-1l0-0.3l3.1,0.3l0,0.3c-0.9,0-1.4,0.3-1.8,0.9l-2.6,3.6l-0.2,2
		c-0.1,0.7,0.2,1,1,1.1l0.2,0l0,0.3l-3.8-0.3l0-0.3l0.3,0c0.8,0.1,1.1-0.2,1.2-0.9l0.2-1.9l-2.1-4c-0.6-1.1-0.9-1.3-1.8-1.4l0-0.3
		l3.6,0.3l0,0.3c-1.1-0.1-1.2,0.2-0.8,0.8l1.9,3.6L48.8,88.5z"/>
	<path class="st0" d="M60.2,94.7l-6,1l0-0.3l0.4-0.1c0.6-0.1,0.8-0.3,0.7-1l-1-6c-0.1-0.7-0.4-1-1.2-0.8l-0.2,0l0-0.3l4-0.7l0,0.3
		L56.4,87c-0.9,0.1-1.1,0.3-1,1.1l1.1,6.2c0.1,0.4,0.2,0.5,0.6,0.4l2-0.3c0.8-0.1,1-0.5,1.6-1.8l0.2,0L60.2,94.7z"/>
	<path class="st0" d="M67.2,88.3l1.8,2c0.1,0.1,0.3,0.3,0.4,0.5c0.1,0.4-0.1,0.5-0.8,0.8l-0.3,0.1l0.1,0.2l3.5-1.5l-0.1-0.2
		c-0.6,0.3-1,0.2-1.5-0.3L64.7,84l-1.1,0.5l0.2,0.2l0.3,7.3c0.1,1.3,0,1.5-0.8,1.8l0.1,0.2l2.9-1.2l-0.1-0.2L66,92.6
		c-0.7,0.3-1.1,0.3-1.2,0c-0.1-0.2-0.1-0.6-0.1-0.9l-0.1-2.3L67.2,88.3z M66.8,87.8l-2.2,0.9l-0.2-3.4L66.8,87.8z"/>
	<path class="st0" d="M82.1,83l-10.2-1.2l3.7,4.5c0.6,0.8,0.9,0.8,1.8,0l0.2,0.2l-2.5,2L75,88.4l0,0c0.7-0.5,0.7-0.9,0.3-1.4
		L71,81.7c-0.4,0-0.7,0.2-1.1,0.5L69.7,82l1.7-1.4l9.3,1.1l-3.5-4.2c-0.5-0.6-0.8-0.6-1.7,0.1l-0.2-0.2l2.5-2l0.2,0.2
		c-0.8,0.7-0.9,0.9-0.5,1.3l4.9,5.9L82.1,83z"/>
	<path class="st0" d="M85.4,77.2c0.7,0.4,0.7,0.8,0.3,1.5l-0.1,0.2l0.2,0.1l2.4-3.7c1.9-2.9,0.7-5.6-1.1-6.7
		c-1.9-1.2-4.3-0.9-6.3,2.2c-0.4,0.6-0.8,1.3-1.2,2c-0.4,0.7-0.7,1.2-1,1.7l0.2,0.1l0.1-0.2c0.4-0.7,0.8-0.8,1.5-0.3L85.4,77.2z
		 M80.1,72.4c0.1-0.1,0.2-0.5,0.5-1c1-1.6,2-2.2,2.8-2.4c1.1-0.2,2.2,0.1,3.1,0.7c1.2,0.8,1.7,1.9,1.9,2.6c0.3,1.2,0.1,2-0.9,3.5
		c-0.6,0.9-0.8,0.8-1.2,0.5L80.1,72.4z"/>
	<path class="st0" d="M6,47.3v5.9c0,0.3,0.1,0.4,0.4,0.4H7v0.2H4.4v-0.2H5c0.3,0,0.4-0.1,0.4-0.4v-5.1C5,48.4,4.5,48.8,4.1,49
		L4,48.8c0.6-0.4,1.4-1.2,1.7-1.5H6z"/>
	<path class="st0" d="M11.7,48.8c0,0.6-0.3,1-0.8,1.4c-1.3-0.6-1.6-1-1.6-1.5c0-0.6,0.5-1.1,1.2-1.1C11.2,47.5,11.7,48,11.7,48.8
		 M12.3,48.8c0-0.8-0.8-1.5-1.8-1.5c-1,0-1.8,0.8-1.8,1.6c0,0.7,0.4,1.2,1.4,1.6c-1,0.4-1.5,1-1.5,1.7c0,0.9,0.9,1.7,2,1.7
		c1.1,0,2-0.8,2-1.9c0-0.8-0.5-1.3-1.5-1.8C11.9,49.9,12.3,49.4,12.3,48.8 M11.9,52.3c0,0.8-0.6,1.4-1.3,1.4c-0.8,0-1.3-0.6-1.3-1.5
		c0-0.7,0.3-1.2,1-1.5C11.4,51.2,11.9,51.7,11.9,52.3"/>
	<path class="st0" d="M87.6,48.1H90c0.2,0,0.2,0,0.3-0.1h0.2l-0.1,0.8h-2.6l-0.1,1.8c0.3-0.2,0.7-0.3,1.1-0.3c1.1,0,2.1,0.9,2.1,2.1
		c0,1.2-1,2.2-2.4,2.2c-0.8,0-1.5-0.3-1.5-0.6c0-0.2,0.2-0.3,0.3-0.3c0.5,0,0.7,0.7,1.4,0.7c0.7,0,1.4-0.8,1.4-1.7
		c0-0.9-0.6-1.6-1.5-1.6c-0.4,0-0.8,0.1-1.1,0.4l-0.1-0.1L87.6,48.1z"/>
	<path class="st0" d="M95.4,47.9c-2.1,0.6-3.4,2.1-3.4,4c0,1.6,0.9,2.6,2.1,2.6c1.1,0,2-0.9,2-2c0-1-0.8-1.9-1.8-1.9
		c-0.5,0-0.9,0.2-1.4,0.6c0.2-1.5,1.1-2.5,2.6-3.1L95.4,47.9z M95.3,52.6c0,1.1-0.5,1.8-1.2,1.8c-0.6,0-1.4-0.6-1.4-2.3
		c0-0.3,0-0.5,0-0.6c0.6-0.5,1.1-0.6,1.3-0.6C94.8,50.9,95.3,51.5,95.3,52.6"/>
</g>
</svg>
