<?xml version="1.0" encoding="utf-8"?>
<!-- Generator: Adobe Illustrator 22.0.1, SVG Export Plug-In . SVG Version: 6.00 Build 0)  -->
<svg version="1.1" id="图层_1" xmlns="http://www.w3.org/2000/svg" xmlns:xlink="http://www.w3.org/1999/xlink" x="0px" y="0px"
	 viewBox="0 0 100 100" style="enable-background:new 0 0 100 100;" xml:space="preserve">
<style type="text/css">
	.st0{fill:#1E407A;}
	.st1{fill:#FFFFFF;}
</style>
<title>ethz_logo_white</title>
<rect x="0" class="st0" width="100" height="100"/>
<path class="st1" d="M36.5,48h-3.6l1.3-6.2H3.7L0.5,57.9h12.2l0.8-4.2H6.3l0.4-2.1h7.2l0.7-3.6H7.5l0.4-2.1h11.4l-2.4,12h5l2.4-12
	h4.2l-2.4,12h5l1.2-6.2h3.6l-1.2,6.2h5l3.2-16.1h-5L36.5,48z M57.8,43.9h1.7l0.4-2.1h-1.6L57.8,43.9z M62.1,43.9h1.7l0.4-2.1h-1.6
	L62.1,43.9z M77.6,43.9h1.7l0.4-2.1H78L77.6,43.9z M85.9,46.9c-2.9,0-4.9,2-5.6,5.6c-0.1,0.6-0.2,1.1-0.2,1.7c0,2.4,1.5,4,3.8,4
	c1.4,0,2.7-0.6,3.6-1.5l0,0l-0.9-1.1l0,0l0,0c-0.6,0.8-1.6,1.3-2.6,1.3c-1.1,0-2.3-0.7-2.3-2.6c0-0.6,0.1-1.1,0.2-1.6
	c0.2-1.2,0.7-2.2,1.4-3.1c0.6-0.7,1.5-1.1,2.4-1.1c0.9,0,1.7,0.4,2.1,1.2l0,0l1.2-1l0,0l0,0C88.3,47.5,87.1,46.9,85.9,46.9
	L85.9,46.9z M96.4,46.7c-1.2-0.1-2.3,0.4-3.1,1.2l1.2-6.2h-1.6l-3.2,16.1h1.6l1.3-6.8c0.6-2.9,2.8-3,3.2-3c1-0.1,1.9,0.6,2,1.6
	c0,0.1,0,0.2,0,0.3c0,0.3,0,0.7-0.1,1l-1.4,6.8H98l1.4-7c0.1-0.4,0.1-0.7,0.1-1.1c0.1-1.6-1.1-3-2.7-3.1
	C96.7,46.7,96.6,46.7,96.4,46.7L96.4,46.7z M74.8,57.9L74.8,57.9l1.6,0L78.6,47H77L74.8,57.9z M45.8,48.5L45.8,48.5l5.4,0l-7.1,8
	l0,0l-0.3,1.3h7.6l0.3-1.6h-5.7l7.1-8l0,0l0.3-1.3h-7.3L45.8,48.5z M72.2,46.9c-1.2,0-2.3,0.5-3,1.4l0.2-1.2l0,0h-1.6l-2.2,10.9l0,0
	h1.6l1.3-6.7c0.3-1.7,1.6-3,3.1-3c0.6,0,1.2,0.3,1.5,0.8l0,0l1.3-1.2l0,0C74,47.2,73.1,46.8,72.2,46.9z M62.6,47h1.6l0,0l-2.2,10.9
	h-1.6l0,0l0.2-1.1c-0.8,0.9-2,1.3-3.1,1.3c-1.6,0.1-2.9-1.2-3-2.8c0-0.1,0-0.2,0-0.3c0-0.3,0-0.7,0.1-1l0-0.1l1.4-6.9h1.6l0,0
	l-1.3,6.7c-0.1,0.3-0.1,0.7-0.1,1c-0.1,1,0.7,1.8,1.6,1.9c0.1,0,0.2,0,0.3,0c0.4,0,2.6-0.1,3.2-3L62.6,47z"/>
</svg>
