<?xml version="1.0" encoding="utf-8"?>
<!-- Generator: Adobe Illustrator 22.0.1, SVG Export Plug-In . SVG Version: 6.00 Build 0)  -->
<svg version="1.1" id="图层_1" xmlns="http://www.w3.org/2000/svg" xmlns:xlink="http://www.w3.org/1999/xlink" x="0px" y="0px"
	 viewBox="0 0 44.5 100.1" style="enable-background:new 0 0 44.5 100.1;" xml:space="preserve">
<style type="text/css">
	.st0{fill:#1E407A;}
</style>
<g>
	<path class="st0" d="M0.1,47.2c0-4.2-0.2-8.3,0.1-12.5c0.4-5.2,5-9.4,10.2-9.7c1.9-0.1,3.6,0.4,5.1,1.6c1.3,1,2.6,2,4,3
		c1.9,1.2,4,1.3,5.9,0.1c1.4-0.8,2.7-1.7,3.9-2.8c2-1.9,4.2-2.2,6.7-1.6c4.9,1.2,8.4,5.5,8.4,10.7c0.1,7.5,0.1,14.9,0,22.4
		c-0.1,4.8-2.5,8.2-7,10.1c-0.7,0.3-0.9,0.6-1,1.4c-1,8.5-2.1,16.9-3.1,25.4c-0.3,2.5-2.6,4.6-5.2,4.7c-3.9,0.1-7.8,0.1-11.7,0
		c-2.7,0-4.9-2.3-5.2-4.9c-0.7-6.3-1.6-12.5-2.4-18.8C8.5,74.1,8.2,72,8,69.8c-0.1-0.6-0.3-0.9-0.9-1.2C2.7,66.8,0,62.9,0,58.1
		c0-3.6,0-7.3,0-10.9C0,47.2,0.1,47.2,0.1,47.2z"/>
	<path class="st0" d="M11.4,11.1C11.4,4.9,16.5,0,22.7,0c6,0,11,5.1,11,11.1c0,6.1-5,11.1-11,11.1C16.4,22.2,11.4,17.2,11.4,11.1z"
		/>
</g>
</svg>
