<?xml version="1.0" encoding="utf-8"?>
<!-- Generator: Adobe Illustrator 22.0.1, SVG Export Plug-In . SVG Version: 6.00 Build 0)  -->
<svg version="1.1"
	 id="图层_1" xmlns:cc="http://creativecommons.org/ns#" xmlns:dc="http://purl.org/dc/elements/1.1/" xmlns:rdf="http://www.w3.org/1999/02/22-rdf-syntax-ns#"
	 xmlns="http://www.w3.org/2000/svg" xmlns:xlink="http://www.w3.org/1999/xlink" x="0px" y="0px" viewBox="0 0 100 100"
	 style="enable-background:new 0 0 100 100;" xml:space="preserve">
<style type="text/css">
	.st0{fill:#E87722;}
	.st1{fill:#F46F1B;}
	.st2{fill:#FFFFFF;}
</style>
<g transform="translate(-387.25 -562.7)">
	<g transform="matrix(.5 0 0 .5 213.21 306.35)">
		<g>
			<g transform="matrix(2.2589 0 0 -2.2589 372.58 651.47)">
				<path class="st0" d="M9.6,0l23.8,22.9L57.2-0.1c4,7.1,7,14.8,8.8,23c0.1,0.4,0.2,0.8,0.2,1.2H0.5C2.3,15.6,5.4,7.5,9.6,0"/>
			</g>
			<path d="M483.9,563.3h-2.9v-5.5h2.9V563.3z M483.9,579.6h-2.9v-5.5h2.9V579.6z M480,586c-1.5,0.2-6.9,0.9-11.8,0.9
				c-4,0-7.1-0.3-9.9-0.6l-6.4-0.5l0,0.6v1.6c-0.6,0.2-2.1,0.7-3.9,0.7c-1.8,0-3.2-0.5-3.8-0.7v-2.2l-6.4,0.5
				c-2.7,0.3-5.8,0.6-9.9,0.6c-5,0-10.3-0.7-11.9-0.9v-33.3c0.4-0.1,1.3-0.4,2-0.5l0,30.2l0.2,0.2c0.1,0.1,2.6,1.7,9.1,1.7
				c3.3,0,5.8-0.5,8.2-1.1c2.1-0.4,4-0.9,6.3-0.9c4.2,0,5.6,2.2,5.6,2.3l0.1,0h1l0.1,0c0.1-0.1,1.4-2.3,5.6-2.3
				c2.2,0,4.2,0.4,6.3,0.9c2.4,0.5,4.9,1.1,8.2,1.1c6.5,0,9-1.7,9.1-1.7l0.2-0.2v-30.2c0.7,0.2,1.6,0.4,1.9,0.5L480,586L480,586z
				 M415.1,563.3h-2.9v-5.5h2.9V563.3z M415.1,579.6h-2.9v-5.5h2.9V579.6z M419.2,548.2c1.2,0.5,3.7,1.3,8.3,1.3
				c3.3,0,5.8-0.5,8.2-1.1c2.1-0.4,4-0.9,6.3-0.9c4.2,0,5.6,2.2,5.6,2.3h0v33c-0.9-0.8-2.7-1.8-5.6-1.8c-2.3,0-4.3,0.4-6.5,0.9
				c-2.4,0.5-4.8,1-8,1c-5.4,0-7.8-1.1-8.3-1.4L419.2,548.2L419.2,548.2z M448.6,550L448.6,550c0.1-0.1,1.4-2.3,5.6-2.3
				c2.2,0,4.2,0.4,6.3,0.9c2.4,0.5,4.9,1.1,8.2,1.1c4.6,0,7.1-0.8,8.3-1.3v33.4c-0.5,0.3-2.9,1.4-8.3,1.4c-3.2,0-5.6-0.5-8-1
				c-2.1-0.5-4.2-0.9-6.5-0.9c-3,0-4.7,1-5.6,1.8L448.6,550L448.6,550z M525.7,541.9c-6.3,1.9-13,3-20,3
				c-24.6,0-46.1-12.9-57.7-32.2c-11.6,19.2-33.1,32.2-57.7,32.2c-7,0-13.7-1-20-3c-1.7,18.8-0.4,37.3,3.3,55.1h148.6
				C526.3,578.4,527.3,559.9,525.7,541.9"/>
			<g transform="matrix(2.2589 0 0 -2.2589 389.73 677.02)">
				<path class="st0" d="M9.6,0c4.7-5.9,10.1-11.2,16.2-15.8C31.9-11.3,37.4-6,42.1,0L25.8,15.8C25.8,15.8,9.6,0,9.6,0z"/>
			</g>
		</g>
		<g transform="matrix(2.2589 0 0 -2.2589 372.58 651.47)">
			<path class="st1" d="M9.6,0c2.2-4,4.8-7.7,7.6-11.3L33.4,4.5l16.3-15.8C52.5-7.8,55-4,57.2-0.1L33.4,22.9C33.4,22.9,9.6,0,9.6,0z
				"/>
		</g>
		<g transform="matrix(2.2589 0 0 -2.2589 372.58 651.47)">
			<path d="M9.6,0c2.2-4,4.8-7.7,7.6-11.3L33.4,4.5l16.3-15.8C52.5-7.8,55-4,57.2-0.1L33.4,22.9C33.4,22.9,9.6,0,9.6,0z"/>
		</g>
		<path class="st2" d="M481.1,579.6h2.9v-5.5h-2.9V579.6z"/>
		<g transform="matrix(2.2589 0 0 -2.2589 456.43 582.25)">
			<path class="st2" d="M9.6,0L9.5-0.1c0,0-1.2-0.8-4-0.8C4-0.8,2.9-0.6,1.8-0.4C0.9-0.2,0,0-1,0c-1.9,0-2.5-1-2.5-1l0,0h-0.4l0,0
				c0,0-0.6,1-2.5,1c-1,0-1.8-0.2-2.8-0.4c-1.1-0.2-2.2-0.5-3.6-0.5c-2.9,0-4,0.7-4,0.8L-17,0l0,13.4c-0.3-0.1-0.7-0.2-0.9-0.2V-1.6
				c0.7-0.1,3-0.4,5.2-0.4c1.8,0,3.2,0.2,4.4,0.3l2.8,0.2v-1c0.3-0.1,0.9-0.3,1.7-0.3c0.8,0,1.5,0.2,1.7,0.3v0.7l0,0.2l2.8-0.2
				C2-1.9,3.4-2.1,5.2-2.1c2.2,0,4.6,0.3,5.2,0.4v14.8c-0.2,0-0.6,0.1-0.8,0.2C9.6,13.4,9.6,0,9.6,0z"/>
		</g>
		<path class="st2" d="M481.1,563.3h2.9v-5.5h-2.9V563.3z"/>
		<path class="st2" d="M412.2,563.3h2.9v-5.5h-2.9V563.3z"/>
		<g transform="matrix(2.2589 0 0 -2.2589 413.82 582.08)">
			<path class="st2" d="M9.6,0c0.9,0.2,1.8,0.4,2.9,0.4c1.3,0,2.1-0.4,2.5-0.8v14.6l0,0c0,0-0.6,1-2.5,1c-1,0-1.9-0.2-2.8-0.4
				c-1.1-0.2-2.2-0.5-3.6-0.5c-2,0-3.2,0.4-3.7,0.6V0.2C2.6,0,3.7-0.5,6.1-0.5C7.4-0.5,8.5-0.2,9.6,0"/>
		</g>
		<path class="st2" d="M412.2,579.6h2.9v-5.5h-2.9V579.6z"/>
		<g transform="matrix(2.2589 0 0 -2.2589 439.08 582.08)">
			<path class="st2" d="M9.6,0c1.1-0.2,2.1-0.5,3.5-0.5c2.4,0,3.4,0.5,3.7,0.6V15c-0.5-0.2-1.6-0.6-3.7-0.6c-1.4,0-2.6,0.2-3.6,0.5
				c-0.9,0.2-1.8,0.4-2.8,0.4c-1.9,0-2.5-1-2.5-1l0,0V-0.4C4.6,0,5.4,0.4,6.7,0.4C7.7,0.4,8.6,0.2,9.6,0"/>
		</g>
		<g transform="matrix(2.2589 0 0 -2.2589 407.83 554.54)">
			<path d="M9.6,0C9.4,0,9.2-0.1,9.1-0.3l-1-2.1c0,0,0,0-0.1,0c0,0-0.1,0-0.1,0.1c0,0.1-0.1,0.4-0.4,0.9L7.3-0.7
				C7.2-0.4,7.1-0.3,7.1-0.2C7,0,6.8,0,6.7,0c0,0,0,0,0,0.1c0,0,0,0,0,0.1h0.2c0.2,0,0.3,0,0.5,0c0.2,0,0.4,0,0.6,0H8c0,0,0,0,0-0.1
				c0,0,0,0,0-0.1C7.9,0,7.6,0,7.6-0.2c0,0,0-0.1,0-0.1l0.6-1.5l0.5,1.2c0.1,0.1,0.1,0.3,0.1,0.3C8.9-0.1,8.8,0,8.5,0c0,0,0,0,0,0.1
				c0,0,0,0.1,0,0.1h0.1c0.1,0,0.2,0,0.5,0c0,0,0.2,0,0.3,0h0.2C9.6,0.1,9.6,0.1,9.6,0C9.6,0.1,9.6,0,9.6,0"/>
		</g>
		<g transform="matrix(2.2589 0 0 -2.2589 413.87 559.78)">
			<path d="M9.6,0C8.8,0,8.4,0,8.3,0C8.2,0,8,0,7.9,0C7.8,0,7.6,0,7.3,0L7.2,0c0,0,0,0,0,0.1c0,0,0,0.1,0,0.1c0.2,0,0.3,0,0.4,0.1
				c0,0.1,0.1,0.2,0.1,0.4c0,0.1,0,0.2,0,0.4c0,0.2,0,0.4,0,0.7c0,0.2,0,0.3,0,0.4c0,0.3-0.1,0.3-0.4,0.3c0,0,0,0,0,0.1
				c0,0,0,0.1,0,0.1h0.1c0.1,0,0.3,0,0.8,0c0.4,0,0.9,0,1,0c0.1,0,0.2,0,0.3,0c0.1,0,0.1,0,0.1-0.1l0-0.6c0,0,0,0-0.1,0
				c0,0,0,0-0.1,0C9.2,2.1,9.1,2.1,9,2.2c0,0-0.1,0.1-0.2,0.1c0,0-0.1,0-0.3,0c-0.2,0-0.3,0-0.3,0c0,0,0,0,0-0.1c0-0.1,0-0.2,0-0.5
				V1.4h0.1c0.1,0,0.2,0,0.3,0c0.1,0,0.2,0.1,0.3,0.2c0,0,0,0.2,0.1,0.2c0,0,0.1,0,0.1,0c0,0,0.1,0,0.1,0c0-0.1,0-0.3,0-0.5
				c0-0.1,0-0.4,0-0.5c0,0,0,0-0.1,0c0,0-0.1,0-0.1,0c0,0.2-0.1,0.4-0.2,0.4c-0.1,0-0.2,0-0.3,0c-0.1,0-0.1,0-0.2,0V0.6
				c0-0.1,0-0.2,0-0.3c0,0,0.1-0.1,0.2-0.1c0,0,0.1,0,0.2,0h0.4c0.1,0,0.2,0,0.3,0c0.1,0.1,0.3,0.3,0.4,0.5c0,0,0.1,0,0.1,0
				c0,0,0,0,0.1,0V0.1C9.7,0,9.7,0,9.6,0"/>
		</g>
		<g transform="matrix(2.2589 0 0 -2.2589 420.73 555.99)">
			<path d="M9.6,0C9.6,0,9.5,0,9.6,0C9.5,0.2,9.4,0.3,9.3,0.4C9.2,0.5,9.1,0.6,8.9,0.6c-0.1,0-0.2,0-0.2,0l0-1.1c0-0.2,0-0.4,0-0.7
				c0-0.3,0.1-0.3,0.4-0.3c0,0,0,0,0-0.1c0,0,0,0,0-0.1H9c-0.2,0-0.5,0-0.6,0c-0.1,0-0.5,0-0.6,0c0,0,0,0,0,0.1c0,0,0,0,0,0.1
				c0.4,0,0.4,0.1,0.5,0.2c0,0.1,0,0.4,0,0.7v0.9c0,0.1,0,0.2,0,0.3c-0.1,0-0.3,0-0.4,0C7.5,0.5,7.4,0.3,7.2,0c0,0-0.1,0-0.1,0
				c0,0,0,0-0.1,0v0.6c0,0.1,0,0.1,0.1,0.1c0.1,0,0.2,0,0.3,0c0.1,0,0.5,0,0.9,0c0.6,0,1.1,0,1.2,0c0.1,0,0.1,0,0.1,0
				c0,0,0-0.1,0-0.1L9.6,0C9.6,0,9.6,0,9.6,0"/>
		</g>
		<g transform="matrix(2.2589 0 0 -2.2589 407.59 564.67)">
			<path d="M9.6,0C9.6,0,9.5,0,9.6,0C9.5,0.2,9.4,0.3,9.3,0.4C9.2,0.5,9.1,0.6,8.9,0.6c-0.1,0-0.2,0-0.2,0l0-1.1c0-0.2,0-0.4,0-0.7
				c0-0.3,0.1-0.3,0.4-0.3c0,0,0,0,0-0.1s0,0,0-0.1H9c-0.2,0-0.5,0-0.6,0c-0.1,0-0.5,0-0.6,0c0,0,0,0,0,0.1c0,0,0,0,0,0.1
				c0.4,0,0.4,0.1,0.5,0.2c0,0.1,0,0.4,0,0.7v0.9c0,0.1,0,0.2,0,0.3c-0.1,0-0.3,0-0.4,0C7.5,0.5,7.4,0.3,7.2,0c0,0-0.1,0-0.1,0
				c0,0,0,0-0.1,0v0.6c0,0.1,0,0.1,0.1,0.1c0.1,0,0.2,0,0.3,0c0.1,0,0.5,0,0.9,0c0.6,0,1.1,0,1.2,0c0.1,0,0.1,0,0.1,0
				c0,0,0-0.1,0-0.1L9.6,0C9.6,0,9.6,0,9.6,0"/>
		</g>
		<g transform="matrix(2.2589 0 0 -2.2589 414.12 568.46)">
			<path d="M9.6,0C8.8,0,8.4,0,8.3,0C8.2,0,8,0,7.9,0C7.8,0,7.6,0,7.3,0L7.2,0c0,0,0,0,0,0.1c0,0,0,0,0,0.1c0.2,0,0.4,0,0.4,0.1
				c0,0,0.1,0.2,0.1,0.4c0,0.1,0,0.2,0,0.4c0,0.2,0,0.4,0,0.7c0,0.2,0,0.3,0,0.4c0,0.3-0.1,0.3-0.4,0.3c0,0,0,0,0,0.1
				c0,0,0,0.1,0,0.1h0.1c0.1,0,0.3,0,0.8,0c0.4,0,0.9,0,1,0c0.1,0,0.2,0,0.3,0c0.1,0,0.1,0,0.1-0.1l0-0.6c0,0,0,0-0.1,0
				c0,0,0,0-0.1,0C9.2,2.1,9.1,2.1,9,2.2c0,0-0.1,0.1-0.2,0.1c0,0-0.1,0-0.3,0c-0.2,0-0.3,0-0.3,0c0,0,0,0,0-0.1c0-0.1,0-0.2,0-0.5
				V1.4h0.1c0.1,0,0.2,0,0.3,0c0.1,0,0.2,0.1,0.3,0.2c0,0,0,0.2,0.1,0.2c0,0,0.1,0,0.1,0c0,0,0.1,0,0.1,0c0-0.1,0-0.3,0-0.5
				c0-0.1,0-0.4,0-0.5c0,0,0,0-0.1,0c0,0-0.1,0-0.1,0c0,0.2-0.1,0.4-0.2,0.4c-0.1,0-0.2,0-0.3,0c-0.1,0-0.1,0-0.2,0V0.6
				c0-0.1,0-0.2,0-0.3c0,0,0.1-0.1,0.2-0.1c0,0,0.1,0,0.2,0h0.4c0.1,0,0.2,0,0.3,0c0.1,0.1,0.3,0.3,0.4,0.5c0,0,0.1,0,0.1,0
				c0,0,0,0,0.1,0V0.1C9.7,0,9.7,0,9.6,0"/>
		</g>
		<g transform="matrix(2.2589 0 0 -2.2589 418.13 568.59)">
			<path d="M9.6,0C9.4,0,9.1,0.1,9,0.1c0,0-0.1,0-0.1,0c0,0-0.1,0-0.2-0.1c-0.1,0-0.1,0-0.1,0.1c0,0,0,0.2,0,0.3c0,0.1,0,0.3,0,0.4
				c0,0,0.1,0.1,0.1,0.1c0,0,0,0,0,0C8.8,0.8,8.9,0.5,9,0.4c0.2-0.2,0.4-0.3,0.6-0.3c0.2,0,0.3,0,0.4,0.1c0.1,0.1,0.1,0.2,0.1,0.3
				c0,0.1,0,0.2-0.1,0.2C10,0.9,9.9,0.9,9.8,1C9.7,1,9.3,1.1,9.1,1.2C8.9,1.3,8.9,1.3,8.8,1.4C8.7,1.6,8.6,1.7,8.6,1.9
				c0,0.4,0.3,0.7,0.8,0.7c0.2,0,0.4,0,0.6-0.2c0,0,0.1,0.1,0.1,0.1c0.1,0,0.1,0,0.1-0.1c0-0.1,0-0.2,0-0.3c0-0.1,0-0.3,0-0.4
				c0,0-0.1,0-0.1,0c0,0,0,0,0,0C10.1,1.9,10,2.1,9.9,2.2C9.8,2.3,9.6,2.4,9.4,2.4C9.2,2.4,9,2.2,9,2c0-0.2,0.2-0.3,0.3-0.4
				c0.1,0,0.2-0.1,0.4-0.1c0.2-0.1,0.3-0.1,0.4-0.1c0.3-0.1,0.4-0.4,0.4-0.6C10.5,0.3,10.1,0,9.6,0"/>
		</g>
		<g transform="matrix(2.2589 0 0 -2.2589 409.87 577.15)">
			<path d="M9.6,0C8.8,0,8.4,0,8.3,0C8.2,0,8,0,7.9,0C7.8,0,7.6,0,7.3,0L7.2,0c0,0,0,0,0,0.1s0,0,0,0.1c0.2,0,0.3,0,0.4,0.1
				c0,0.1,0.1,0.2,0.1,0.4c0,0.1,0,0.2,0,0.4c0,0.2,0,0.4,0,0.7c0,0.2,0,0.3,0,0.4c0,0.3-0.1,0.3-0.4,0.3c0,0,0,0,0,0.1
				c0,0,0,0.1,0,0.1h0.1c0.1,0,0.3,0,0.8,0c0.4,0,0.9,0,1,0c0.1,0,0.2,0,0.3,0c0.1,0,0.1,0,0.1-0.1l0-0.6c0,0,0,0-0.1,0
				c0,0,0,0-0.1,0C9.2,2.1,9.1,2.1,9,2.2c0,0-0.1,0.1-0.2,0.1c0,0-0.1,0-0.3,0c-0.2,0-0.3,0-0.3,0c0,0,0,0,0-0.1c0-0.1,0-0.2,0-0.5
				V1.4h0.1c0.1,0,0.2,0,0.3,0c0.1,0,0.2,0.1,0.3,0.2c0,0,0,0.2,0.1,0.2c0,0,0.1,0,0.1,0c0,0,0.1,0,0.1,0c0-0.1,0-0.3,0-0.5
				c0-0.1,0-0.4,0-0.5c0,0,0,0-0.1,0c0,0-0.1,0-0.1,0c0,0.2-0.1,0.4-0.2,0.4c-0.1,0-0.2,0.1-0.3,0.1c-0.1,0-0.1,0-0.2,0V0.6
				c0-0.1,0-0.2,0-0.3c0,0,0.1-0.1,0.2-0.1c0,0,0.1,0,0.2,0h0.4c0.1,0,0.2,0,0.3,0c0.1,0.1,0.3,0.3,0.4,0.5c0,0,0.1,0,0.1,0
				c0,0,0,0,0.1,0V0.1C9.7,0,9.7,0,9.6,0"/>
		</g>
		<g transform="matrix(2.2589 0 0 -2.2589 418.18 571.88)">
			<path d="M9.6,0C9.3,0,9.1-0.1,9.1-0.5l0-1.3c0,0,0-0.4,0-0.5c0,0-0.1,0-0.1,0c0,0,0,0-0.1,0L7.2-0.5l0-0.4l0-0.7
				c0-0.1,0-0.2,0-0.3C7.2-2,7.3-2,7.3-2.1c0.1-0.1,0.2-0.1,0.3-0.1c0,0,0,0,0-0.1c0,0,0,0,0-0.1H7.5c-0.2,0-0.3,0-0.5,0
				c-0.1,0-0.3,0-0.4,0H6.6c0,0,0,0,0,0.1c0,0,0,0,0,0.1C6.7-2.2,6.9-2.1,7-2C7-2,7-1.9,7-1.7v0.9c0,0.1,0,0.2,0,0.4
				c0,0.1,0,0.2-0.1,0.3c0,0-0.1,0.1-0.1,0.1C6.7-0.1,6.6,0,6.5,0c0,0,0,0,0,0.1c0,0,0,0,0,0.1h0.1c0.1,0,0.3,0,0.5,0h0.1
				c0,0,0.1,0,0.1,0l1.3-1.4c0.1-0.1,0.2-0.3,0.3-0.3v1c0,0.1,0,0.2,0,0.3c0,0.1,0,0.2-0.1,0.3C8.8-0.1,8.6,0,8.4,0c0,0,0,0.1,0,0.1
				c0,0,0,0,0,0.1h0.1c0.1,0,0.3,0,0.4,0c0.3,0,0.4,0,0.5,0h0.1C9.6,0.1,9.6,0.1,9.6,0C9.6,0,9.6,0,9.6,0"/>
		</g>
		<g transform="matrix(2.2589 0 0 -2.2589 438.35 554.51)">
			<path d="M9.6,0C9.3,0,9.1-0.1,9.1-0.5l0-1.3c0,0,0-0.4,0-0.5c0,0-0.1,0-0.1,0c0,0,0,0-0.1,0L7.2-0.5l0-0.4l0-0.7
				c0-0.1,0-0.2,0-0.3C7.2-2,7.3-2,7.3-2.1c0.1-0.1,0.2-0.1,0.3-0.1c0,0,0,0,0-0.1c0,0,0,0,0-0.1H7.5c-0.2,0-0.3,0-0.5,0
				c-0.1,0-0.3,0-0.4,0H6.6c0,0,0,0,0,0.1c0,0,0,0,0,0.1C6.7-2.2,6.9-2.1,7-2C7-2,7-1.9,7-1.7v0.9c0,0.1,0,0.2,0,0.4
				c0,0.1,0,0.2-0.1,0.3c0,0-0.1,0.1-0.1,0.1C6.7-0.1,6.6,0,6.5,0c0,0,0,0.1,0,0.1c0,0,0,0,0,0.1h0.1c0.1,0,0.3,0,0.5,0h0.1
				c0,0,0.1,0,0.1,0l1.3-1.4c0.1-0.1,0.2-0.3,0.3-0.3v1c0,0.1,0,0.2,0,0.3c0,0.1,0,0.2-0.1,0.3C8.8-0.1,8.6,0,8.4,0c0,0,0,0.1,0,0.1
				c0,0,0,0,0,0.1h0.1c0.1,0,0.3,0,0.4,0c0.3,0,0.4,0,0.5,0h0.1C9.6,0.1,9.6,0.1,9.6,0C9.6,0,9.6,0,9.6,0"/>
		</g>
		<g transform="matrix(2.2589 0 0 -2.2589 443.35 555.04)">
			<path d="M9.6,0C9.5,0.2,9.3,0.3,9.1,0.3C8.9,0.3,8.7,0.2,8.6,0C8.5-0.2,8.4-0.5,8.4-0.9c0-0.4,0.1-0.7,0.2-0.9
				C8.7-1.9,8.9-2,9.1-2c0.3,0,0.4,0.1,0.6,0.3c0.1,0.2,0.2,0.4,0.2,0.8C9.8-0.5,9.7-0.2,9.6,0 M10-1.8C9.7-2,9.4-2.2,9.1-2.2
				C8.8-2.2,8.5-2,8.2-1.8C8-1.6,7.8-1.2,7.8-0.9c0,0.4,0.1,0.7,0.4,0.9c0.3,0.3,0.6,0.4,0.9,0.4c0.2,0,0.4-0.1,0.7-0.2
				c0.4-0.2,0.6-0.6,0.6-1.1C10.4-1.2,10.2-1.5,10-1.8"/>
		</g>
		<g transform="matrix(2.2589 0 0 -2.2589 452.38 554.54)">
			<path d="M9.6,0C9.4,0,9.2-0.1,9.1-0.3l-1-2.1c0,0,0,0-0.1,0c0,0-0.1,0-0.1,0.1c0,0.1-0.1,0.4-0.4,0.9L7.3-0.7
				C7.2-0.4,7.1-0.3,7.1-0.2C7,0,6.8,0,6.7,0c0,0,0,0,0,0.1c0,0,0,0,0,0.1h0.2c0.2,0,0.3,0,0.5,0c0.2,0,0.4,0,0.6,0H8c0,0,0,0,0-0.1
				c0,0,0,0,0-0.1C7.9,0,7.6,0,7.6-0.2c0,0,0-0.1,0-0.1l0.6-1.5l0.5,1.2c0.1,0.1,0.1,0.3,0.1,0.3C8.9-0.1,8.8,0,8.5,0c0,0,0,0,0,0.1
				c0,0,0,0.1,0,0.1h0.1c0.1,0,0.2,0,0.5,0c0,0,0.2,0,0.3,0h0.2C9.6,0.1,9.6,0.1,9.6,0C9.6,0.1,9.6,0,9.6,0"/>
		</g>
		<g transform="matrix(2.2589 0 0 -2.2589 436.47 564.67)">
			<path d="M9.6,0C9.6,0,9.5,0,9.6,0C9.5,0.2,9.4,0.3,9.3,0.4C9.2,0.5,9.1,0.6,8.9,0.6c-0.1,0-0.2,0-0.2,0l0-1.1c0-0.2,0-0.4,0-0.7
				c0-0.3,0.1-0.3,0.4-0.3c0,0,0,0,0-0.1s0,0,0-0.1H9c-0.2,0-0.5,0-0.6,0c-0.1,0-0.5,0-0.6,0c0,0,0,0,0,0.1c0,0,0,0,0,0.1
				c0.4,0,0.4,0.1,0.5,0.2c0,0.1,0,0.4,0,0.7v0.9c0,0.1,0,0.2,0,0.3c-0.1,0-0.3,0-0.4,0C7.5,0.5,7.4,0.3,7.2,0c0,0-0.1,0-0.1,0
				c0,0,0,0-0.1,0v0.6c0,0.1,0,0.1,0.1,0.1c0.1,0,0.2,0,0.3,0c0.1,0,0.5,0,0.9,0c0.6,0,1.1,0,1.2,0c0.1,0,0.1,0,0.1,0
				c0,0,0-0.1,0-0.1L9.6,0C9.6,0,9.6,0,9.6,0"/>
		</g>
		<g transform="matrix(2.2589 0 0 -2.2589 439.72 564.07)">
			<path d="M9.6,0L9.6,0C9.5-0.1,9.4-0.3,9.4-0.4C9.3-0.7,9.2-0.8,9.2-0.9h0.8C9.9-0.7,9.7-0.3,9.6,0 M11.2-1.9H11
				c-0.1,0-0.3,0-0.4,0c-0.2,0-0.5,0-0.7,0c0,0,0,0,0,0.1c0,0,0,0,0,0.1c0.2,0,0.3,0,0.3,0.1c0,0,0,0.1-0.1,0.3
				C10.1-1.2,10-1.1,10-1.1c0,0,0,0-0.1,0H9.2C9.1-1.1,9-1.3,9-1.5c0-0.1,0-0.1,0-0.1C9-1.7,9-1.8,9.3-1.8c0,0,0,0,0-0.1
				c0,0,0,0,0-0.1H9.3c-0.2,0-0.2,0-0.4,0c-0.1,0-0.4,0-0.5,0c0,0,0,0,0,0c0,0,0,0,0,0.1c0.1,0,0.3,0.1,0.4,0.2C8.7-1.6,8.8-1.4,9-1
				c0.1,0.3,0.3,0.7,0.4,0.9c0.1,0.2,0.1,0.3,0.2,0.4c0.1,0.1,0.1,0.2,0.1,0.3c0,0,0.1,0,0.1,0c0,0,0.1,0,0.1-0.1
				c0,0,0.1-0.1,0.1-0.1c0.1-0.3,0.3-0.6,0.4-1.1c0.1-0.2,0.1-0.3,0.2-0.6c0.1-0.1,0.1-0.2,0.2-0.4c0.1-0.2,0.2-0.2,0.4-0.2
				C11.2-1.9,11.2-1.9,11.2-1.9C11.2-1.9,11.2-1.9,11.2-1.9"/>
		</g>
		<g transform="matrix(2.2589 0 0 -2.2589 452.13 568.45)">
			<path d="M9.6,0l-1,0H8.3c0,0,0,0,0,0.1c0,0,0,0,0,0.1c0.1,0,0.2,0,0.3,0c0.1,0,0.1,0.1,0.1,0.3v1.4c0,0,0,0.3,0,0.3h0L8.1,1.1
				C8.1,0.9,8,0.8,8,0.7C7.8,0.4,7.8,0.2,7.7,0.1c0,0-0.1,0-0.1,0c0,0-0.1,0-0.1,0.1C7.5,0.3,7.5,0.4,7.4,0.4L6.6,2.2h0V1.8l0-1.1
				c0-0.4,0.2-0.5,0.5-0.5c0,0,0,0,0-0.1c0,0,0,0,0-0.1c0,0-0.1,0-0.1,0c0,0-0.2,0-0.5,0C6.4,0,6.2,0,6.1,0H5.9c0,0,0,0,0,0.1
				c0,0,0,0,0,0.1c0.1,0,0.3,0.1,0.4,0.1c0.1,0,0.1,0.2,0.1,0.4l0,0.6l0,0.7c0,0.2,0,0.3-0.1,0.3c0,0-0.2,0-0.3,0.1c0,0,0,0,0,0.1
				c0,0,0,0,0,0.1c0.1,0,0.3,0,0.4,0H7c0,0,0,0,0.1-0.1l0.8-1.7L7.9,1c0.1,0.3,0.3,0.7,0.5,1.1c0.1,0.1,0.1,0.2,0.2,0.3l1,0
				c0,0,0,0,0-0.1c0,0,0,0,0-0.1c-0.1,0-0.3,0-0.4-0.2c0,0-0.1-0.1-0.1-0.3V0.7c0-0.5,0.1-0.5,0.2-0.5c0,0,0.2,0,0.3,0
				C9.6,0.1,9.6,0.1,9.6,0C9.6,0,9.6,0,9.6,0"/>
		</g>
		<g transform="matrix(2.2589 0 0 -2.2589 436.34 573.36)">
			<path d="M9.6,0C9.6,0,9.5,0,9.6,0C9.5,0.2,9.4,0.3,9.3,0.4C9.2,0.5,9.1,0.6,8.9,0.6c-0.1,0-0.2,0-0.2,0l0-1.1c0-0.2,0-0.4,0-0.7
				c0-0.3,0.1-0.3,0.4-0.3c0,0,0,0,0-0.1c0,0,0,0,0-0.1H9c-0.2,0-0.5,0-0.6,0c-0.1,0-0.5,0-0.6,0c0,0,0,0,0,0.1c0,0,0,0,0,0.1
				c0.4,0,0.4,0.1,0.5,0.2c0,0.1,0,0.4,0,0.7v0.9c0,0.1,0,0.2,0,0.3c-0.1,0-0.3,0-0.4,0C7.5,0.5,7.4,0.3,7.2,0c0,0-0.1,0-0.1,0
				c0,0,0,0-0.1,0v0.6c0,0.1,0,0.1,0.1,0.1c0.1,0,0.2,0,0.3,0c0.1,0,0.5,0,0.9,0c0.6,0,1.1,0,1.2,0c0.1,0,0.1,0,0.1,0
				c0,0,0-0.1,0-0.1L9.6,0C9.6,0,9.6,0,9.6,0"/>
		</g>
		<g transform="matrix(2.2589 0 0 -2.2589 443.43 571.91)">
			<path d="M9.6,0C9.4,0,9.2-0.1,9.1-0.3l-1-2.1c0,0,0,0-0.1,0c0,0-0.1,0-0.1,0.1c0,0.1-0.1,0.4-0.4,0.9L7.3-0.7
				C7.2-0.4,7.1-0.3,7.1-0.2C7,0,6.8,0,6.7,0c0,0,0,0,0,0.1s0,0,0,0.1h0.2c0.2,0,0.3,0,0.5,0c0.2,0,0.4,0,0.6,0H8c0,0,0,0,0-0.1
				c0,0,0,0,0-0.1C7.9,0,7.6,0,7.6-0.2c0,0,0-0.1,0-0.1l0.6-1.5l0.5,1.2c0.1,0.1,0.1,0.3,0.1,0.3C8.9-0.1,8.8,0,8.5,0c0,0,0,0,0,0.1
				c0,0,0,0.1,0,0.1h0.1c0.1,0,0.2,0,0.5,0c0,0,0.2,0,0.3,0h0.2C9.6,0.1,9.6,0.1,9.6,0C9.6,0.1,9.6,0,9.6,0"/>
		</g>
		<g transform="matrix(2.2589 0 0 -2.2589 452.25 577.14)">
			<path d="M9.6,0l-1,0H8.3c0,0,0,0,0,0.1c0,0,0,0,0,0.1c0.1,0,0.2,0,0.3,0c0.1,0,0.1,0.1,0.1,0.3v1.4c0,0,0,0.3,0,0.3h0L8.1,1.1
				C8.1,0.9,8,0.8,8,0.7C7.8,0.4,7.8,0.2,7.7,0.1c0,0-0.1,0-0.1,0c0,0-0.1,0-0.1,0.1C7.5,0.3,7.5,0.4,7.4,0.4L6.6,2.2h0V1.8l0-1.1
				c0-0.4,0.2-0.5,0.5-0.5c0,0,0,0,0-0.1c0,0,0,0,0-0.1c0,0-0.1,0-0.1,0c0,0-0.2,0-0.5,0C6.4,0,6.2,0,6.1,0H5.9c0,0,0,0,0,0.1
				c0,0,0,0,0,0.1c0.1,0,0.3,0.1,0.4,0.1c0,0.1,0.1,0.2,0.1,0.4l0,0.6l0,0.7c0,0.2,0,0.3-0.1,0.3c0,0-0.2,0-0.3,0.1c0,0,0,0,0,0.1
				c0,0,0,0,0,0.1c0.1,0,0.3,0,0.5,0H7c0,0,0,0,0.1-0.1l0.8-1.7L7.9,1c0.1,0.3,0.3,0.7,0.5,1.1c0,0.1,0.1,0.2,0.2,0.3l1,0
				c0,0,0,0,0-0.1c0,0,0,0,0-0.1c-0.1,0-0.3,0-0.4-0.2c0,0-0.1-0.1-0.1-0.3V0.7c0-0.5,0.1-0.5,0.2-0.5c0,0,0.2,0,0.3,0
				C9.6,0.1,9.6,0.1,9.6,0C9.6,0,9.6,0,9.6,0"/>
		</g>
	</g>
</g>
</svg>
