<?xml version="1.0" encoding="utf-8"?>
<!-- Generator: Adobe Illustrator 22.0.1, SVG Export Plug-In . SVG Version: 6.00 Build 0)  -->
<svg version="1.1" id="Layer_1" xmlns="http://www.w3.org/2000/svg" xmlns:xlink="http://www.w3.org/1999/xlink" x="0px" y="0px"
	 viewBox="0 0 100 99.2" style="enable-background:new 0 0 100 99.2;" xml:space="preserve">
<style type="text/css">
	.st0{fill:#002D6A;}
	.st1{fill:#DFBA03;}
	.st2{fill:#221E1F;}
	.st3{fill:#DEB408;}
	.st4{fill:none;stroke:#DEB408;stroke-width:0.607;}
	.st5{fill:#FFFFFF;}
</style>
<g>
	<path class="st0" d="M15.5,83.8C6.3,74.6,1.2,62.5,1.2,49.5c0-12.9,5.1-25.1,14.3-34.2C24.7,6.2,37,1.1,50,1.1
		c13,0,25.3,5,34.5,14.2c9.2,9.1,14.3,21.3,14.3,34.2c0,12.9-5.1,25.1-14.3,34.2C75.3,92.9,63.1,98,50,98C37,98,24.7,92.9,15.5,83.8
		"/>
	<path class="st1" d="M15.5,83.8C6.2,74.7,1.2,62.5,1.2,49.6c0-12.9,5.1-25.1,14.3-34.2C24.7,6.2,37,1.2,50,1.2
		c13,0,25.3,5,34.5,14.2c9.2,9.1,14.3,21.3,14.3,34.2c0,12.9-5.1,25.1-14.3,34.2C75.3,93,63,98,50,98C37,98,24.7,93,15.5,83.8
		 M14.6,14.5C5.2,23.9,0,36.3,0,49.6c0,13.2,5.2,25.7,14.6,35.1c9.4,9.4,22,14.5,35.4,14.5c13.4,0,25.9-5.2,35.4-14.5
		c9.4-9.4,14.6-21.8,14.6-35.1c0-13.2-5.2-25.7-14.6-35.1C75.9,5.2,63.4,0,50,0C36.6,0,24.1,5.2,14.6,14.5"/>
	<path class="st2" d="M18.2,15.6c0.1,0,0.1,0,0.1,0c0.4,0.1,0.6,0.6,0.9,0.9c0.8,0.7,1.6,1.5,2.3,2.4c0.2,0.3,0.8,0.5,0.9,1.1
		c-0.2,0.2-0.4,0.5-0.7,0.6v0c0,0,0,0,0,0c-0.4-0.1-1-1-1.3-1.3c-0.2-0.2-0.4-0.4-0.6-0.6c-0.7-0.7-1.3-1.5-2.1-2.3v-0.2
		C17.7,16,18,15.8,18.2,15.6"/>
	<path class="st3" d="M50.9,10.9c-0.1-0.1-0.2-0.2-0.3-0.2c-0.2-0.3-0.3-1-0.7-1.1c-0.3,0.4-0.5,0.9-0.7,1.4
		C28.1,11.3,11,28.5,11,49.6C11,70.9,28.5,88.2,50,88.2c21.5,0,38.9-17.3,38.9-38.7C88.9,28.6,72,11.4,50.9,10.9"/>
	<path class="st4" d="M50.9,10.9c-0.1-0.1-0.2-0.2-0.3-0.2c-0.2-0.3-0.3-1-0.7-1.1c-0.3,0.4-0.5,0.9-0.7,1.4
		C28.1,11.3,11,28.5,11,49.6C11,70.9,28.5,88.2,50,88.2c21.5,0,38.9-17.3,38.9-38.7C88.9,28.6,72,11.4,50.9,10.9z"/>
	<path class="st5" d="M48.1,12.2c-0.3,0.2-0.9,0-1.3,0.1c-1.1,0.3-2.2,0.1-3.3,0.4c-0.7,0.2-1.5,0.3-2.2,0.5c-0.2,0-0.4,0.1-0.6,0.1
		c-1.7,0.6-3.5,1-5.1,1.7c-0.3,0.1-0.7,0.3-0.9,0.5c-0.4,0.2-0.7,0.3-1.1,0.4c-0.4,0.2-0.9,0.5-1.3,0.7c-0.2,0.1-0.4,0.1-0.6,0.2
		c-0.8,0.5-1.6,1-2.3,1.5c-0.6,0.4-1.2,0.7-1.8,1.1c-0.9,0.6-1.7,1.4-2.6,2.1c-0.2,0.2-0.4,0.5-0.7,0.7c-0.9,0.7-1.8,1.6-2.5,2.6
		c-0.2,0.2-0.3,0.3-0.5,0.5c-0.3,0.4-0.7,0.8-0.9,1.3c-0.2,0.4-0.7,0.7-0.9,1.1c-0.6,0.9-1.2,1.9-1.9,2.8c-0.2,0.4-0.3,0.7-0.6,1.1
		c-0.3,0.6-0.7,1.2-1,1.8c-0.6,1.1-1,2.3-1.5,3.5c-0.1,0.3-0.1,0.6-0.2,0.9c-0.3,0.7-0.6,1.7-0.8,2.4c-0.2,0.7-0.3,1.5-0.5,2.2
		c-0.1,0.3,0,0.5-0.1,0.8c-0.2,0.7-0.2,1.5-0.4,2.2c-0.1,0.5,0,1-0.2,1.5c-0.1,0.3,0,0.7,0,1c-0.1,0.2,0,0.6,0,0.8
		c0,0.3,0,0.6,0,0.9c-0.1,0.6-0.1,2,0.1,2.6v0.5c0.1,0.3,0.1,0.8,0.2,1c0,0.2-0.1,0.4,0,0.6c0.1,0.5,0.1,1.1,0.2,1.6
		c0.5,1.7,0.7,3.4,1.3,5c0.1,0.2,0,0.4,0.1,0.6c0.5,1.2,0.9,2.4,1.4,3.6c0,0.1,0.2,0.2,0.2,0.3c0.2,0.3,0.3,0.6,0.5,0.9
		c0.3,0.5,0.5,1.2,0.8,1.7c0.2,0.4,0.5,0.7,0.7,1.1c0.1,0.1,0,0.2,0.1,0.3c0.1,0.1,0.2,0.2,0.4,0.4c0.3,0.5,0.6,1,0.9,1.5
		c0.1,0,0.1,0.1,0.2,0.1c0,0.1,0.1,0.2,0.1,0.3c0.2,0.3,0.5,0.5,0.7,0.7c0.2,0.3,0.4,0.6,0.6,0.9c0.1,0.2,0.4,0.3,0.5,0.5
		c0.6,0.9,1.5,1.8,2.3,2.4c0,0.1,0.1,0.2,0.2,0.3c0.6,0.5,1.2,1,1.8,1.5c0.1,0.1,0.1,0.2,0.2,0.3c1.2,0.9,2.4,1.8,3.6,2.6
		c1.5,1,3.1,1.8,4.8,2.6c0.2,0.1,0.3,0.2,0.5,0.3c0.3,0.2,0.7,0.2,1,0.4c0.1,0,0.2,0.2,0.3,0.2c0.3,0.1,0.5,0.1,0.8,0.2
		c1,0.4,2.2,0.8,3.2,1.1c0.2,0.1,0.4,0,0.6,0.1c1.1,0.4,2.4,0.5,3.6,0.8c0.4,0.1,0.9,0.1,1.3,0.2h0.5c0.6,0.1,1.6,0.1,2.3,0.2
		c0.2,0,0.5-0.1,0.7,0c0.5,0.1,1.3,0.1,1.7,0c0.2,0,0.3,0,0.5,0c0.2,0,0.7-0.1,0.9-0.1c0,0,0.2,0.1,0.3,0c0.5-0.1,1.3-0.1,1.8-0.2
		c0.1,0,0.2,0,0.2,0c0.2,0,0.6,0,0.8-0.1c0.8-0.2,1.7-0.3,2.4-0.5H58c1.1-0.3,2.2-0.5,3.2-0.9c2-0.6,4-1.5,5.8-2.4
		c0.1-0.1,0.2,0,0.3-0.1c0.1,0,0.2-0.2,0.3-0.2h0.2c0.1-0.1,0.2-0.2,0.2-0.2c0.1,0,0.2-0.1,0.3-0.1c0.3-0.2,0.7-0.4,0.9-0.7
		c0.3-0.3,0.7-0.3,1.1-0.5c0.1-0.1,0.3-0.3,0.4-0.4c1-0.6,1.9-1.2,2.8-1.9c0.2-0.2,0.3-0.3,0.5-0.5c0.2-0.2,0.5-0.3,0.7-0.5
		c0.1-0.1,0.4-0.4,0.5-0.5c0.1-0.1,0.1-0.2,0.2-0.2c0.6-0.5,1.1-0.9,1.6-1.5c0-0.1,0.1,0,0.2-0.1c0.2-0.2,0.3-0.3,0.5-0.5
		c0.1-0.1,0.2-0.2,0.4-0.3c0.2-0.2,0.3-0.5,0.4-0.6c0.6-0.6,1-1.2,1.5-1.8c0.1-0.1,0.2-0.2,0.3-0.2c2-2.7,3.6-5.7,5-9
		c0.8-1.8,1.2-3.9,1.8-6c0-0.2,0-0.4,0-0.6c0.1-0.2,0.1-0.6,0.2-0.8c0.3-1,0.1-2.3,0.4-3.2v-0.7c0.2-0.9,0.1-2,0.1-3.2
		c0-0.2,0-0.5,0-0.7c0.1-0.6,0-1.6-0.2-2.2c0-0.3,0-0.6,0-0.9c-0.1-0.4-0.2-0.9-0.3-1.3c0-0.2,0-0.4,0-0.6c-0.3-1.3-0.6-2.6-1-3.8
		c-0.1-0.3-0.1-0.5-0.2-0.7c-0.5-1.4-1-2.9-1.7-4.3c-0.1-0.3-0.4-0.7-0.6-1c-0.1-0.2-0.2-0.5-0.3-0.7c-0.4-0.8-0.9-1.6-1.4-2.3
		c-0.1-0.1-0.1-0.3-0.2-0.4c-0.1,0-0.1-0.1-0.2-0.1c-0.1-0.2-0.1-0.3-0.2-0.5c-0.1-0.1-0.2-0.2-0.2-0.2c-0.1-0.1-0.1-0.3-0.2-0.4
		c-0.4-0.4-0.6-0.8-0.9-1.3c-0.1-0.1-0.3-0.2-0.4-0.4c-2.3-3.1-5.2-5.7-8.4-7.9c-0.2-0.1-0.4-0.1-0.6-0.3c-0.2-0.1-0.4-0.3-0.6-0.5
		c-0.5-0.3-0.9-0.5-1.4-0.8c-0.4-0.2-0.8-0.5-1.2-0.7c-0.2-0.1-0.4-0.1-0.6-0.2c-0.4-0.3-1-0.6-1.5-0.8c-0.2-0.1-0.4-0.1-0.6-0.2
		c-1.3-0.6-2.7-1-4.1-1.5c-0.4-0.1-0.8-0.1-1.2-0.3c-2.3-0.8-5.3-1.3-8-1.3c0,0.1,0,0,0,0.1c0.1,0.6,0.6,1.1,0.8,1.6
		c0.1,0.2,0.2,0.4,0.3,0.5c0.3,0.2,0.9,0.1,1.2,0.2c1.2,0.2,2.5,0.4,3.7,0.7v0.2c-0.3,0.2-0.6,0.6-0.8,0.9c-0.5,0.7-1.2,1.2-1.7,1.9
		c-0.2,0.3-0.7,0.6-0.9,1c-0.1,0.4,0.1,0.9,0.2,1.3c0.1,0.6,0.1,1,0.2,1.6c0.2,0.6,0.4,1.3,0.4,2c-0.1,0-0.1,0-0.2,0
		c-0.3-0.3-0.9-0.3-1.3-0.5c-0.2-0.1-0.5-0.3-0.8-0.4c-0.6-0.3-1.1-0.4-1.6-0.7c-0.3-0.1-0.9-0.7-1.3-0.6c-0.4,0.1-0.8,0.5-1.2,0.7
		c-1.2,0.5-2.1,1.1-3.4,1.5v-0.1c-0.1-0.2,0-0.9,0-1.1c0.1-0.6,0.1-1.2,0.2-1.8v-0.7c0.1-0.3,0.2-0.6,0.1-0.9
		c-0.1-0.4-0.5-0.7-0.7-1c-0.5-0.9-1.2-1.6-1.8-2.5c-0.2-0.3-0.6-0.5-0.7-1C42.7,15,42.8,15,43,15c0.3-0.2,0.9,0,1.3-0.1
		c1.1-0.2,2.4-0.2,3.5-0.4c0.3-0.4,0.9-1.6,0.9-2.2h-0.1C48.5,12.2,48.3,12.2,48.1,12.2"/>
	<path class="st5" d="M49.8,12.3h-0.1c-0.3,0.9-1.1,1.9-1.2,2.9c0.3,0.4,0.9,1.5,1.4,1.6v-0.1c0.2-0.3,0-0.8,0-1.1
		c0.1-0.4,0.1-0.9,0-1.3v-0.8C49.9,13.1,49.9,12.7,49.8,12.3"/>
	<path class="st5" d="M52.2,17.3c0-0.1,0-0.1,0-0.1c0.2-0.1,0.4-0.1,0.6-0.2c0.5-0.2,1-0.5,1.5-0.7c0.3-0.1,0.8-0.2,0.9-0.5
		c0,0-0.1,0-0.1,0c-0.3-0.2-1.8-0.3-2.1-0.4c-0.3,0-0.8-0.1-1,0c-0.3,0.1-0.4,0.4-0.5,0.6c-0.3,0.4-0.9,0.8-1,1.5
		c0.5,0.3,1.1,0.4,1.7,0.6c0.4,0.2,0.9,0.4,1.4,0.5c0.3-0.3,1-0.8,1.1-1.2c0,0,0,0,0,0c-0.1-0.1,0,0-0.1-0.1c-0.2-0.1-0.7,0-0.9,0
		C53.3,17.2,52.7,17.3,52.2,17.3"/>
	<path class="st5" d="M44.4,16c0,0.1,0,0.1,0,0.2c0.1,0.1,0.1,0.3,0.2,0.4c0.2,0.3,0.5,0.5,0.7,0.8c0.2,0.3,0.4,0.6,0.6,0.9
		c0.2,0.3,0.7,0.7,0.8,1.1c0.1,0.2-0.1,0.4-0.1,0.6c0.1,0.6-0.1,1.4-0.2,2.1c0,0,0,0,0,0h0.1c0.3-0.5,0.7-1,1.1-1.5
		c0.4-0.5,0.7-1.1,1-1.7c0.3-0.4,0.8-0.8,0.8-1.5c-0.3-0.1-0.7-0.3-1-0.4c-0.5-0.2-1-0.2-1.6-0.4C46.2,16.4,45.3,16.1,44.4,16"/>
	<path class="st1" d="M42.8,17.4c0.4,0.1,0.7,0.5,0.7,0.9c0,0-0.1,0-0.1,0c-0.2,0.1-0.6,0-0.9,0.1c-1,0.2-2.1,0.2-3,0.4
		c-1.1,0.3-2.7,0.3-3.9,0.6c-0.3,0.1-0.5,0-0.9,0.1c-0.9,0.2-2,0.2-3,0.5h-0.4c-0.6,0.2-1.4,0.3-2.3,0.3c0-0.1,0-0.1,0-0.2
		c0.3-0.3,0.5-0.8,0.9-0.9c0.3-0.1,0.6,0,1-0.1c0.3-0.1,0.8-0.1,1.1-0.2c0.3,0,0.5,0,0.8,0c0.5-0.1,1-0.1,1.6-0.2
		c1.5-0.3,3.2-0.4,4.7-0.7h0.5c0.7-0.2,1.5-0.2,2.2-0.4C42,17.5,42.5,17.6,42.8,17.4"/>
	<path class="st5" d="M50.3,18c0,0.1-0.1,0.1-0.1,0.2c-0.1,0.2,0,0.7,0,0.9c0,0.5,0,1.3,0.1,1.9c0.4,0.2,0.8,0.5,1.2,0.7
		c0.3,0.2,0.6,0.2,1,0.4c0.4,0.2,0.9,0.6,1.5,0.6c0,0,0-0.1,0-0.1c-0.4-0.3-0.8-1-1.1-1.4c-0.1-0.1-0.2-0.1-0.2-0.2
		c-0.4-0.5-0.7-1.1-1.1-1.6c-0.1-0.1-0.3-0.2-0.4-0.4C50.9,18.7,50.7,18.2,50.3,18"/>
	<path class="st1" d="M56.3,18c0.8,0,1.6,0.2,2.3,0.4H59c0.6,0.2,1.5,0.2,2.1,0.4c0.5,0.1,1,0.1,1.4,0.2H63c1.4,0.4,3.1,0.5,4.4,0.7
		c0.4,0.1,0.6,0,1,0.1c0.4,0.1,0.9,0.2,1.3,0.3H70c0.3,0.1,0.5,0.4,0.6,0.6c0.1,0.2,0.3,0.2,0.4,0.6c-0.1,0-0.1,0-0.2,0
		c-0.4-0.2-0.9-0.1-1.3-0.2c-0.5-0.1-1.2-0.2-1.8-0.4h-0.4c-2.5-0.6-5.1-0.6-7.6-1.2c-0.3,0-0.6-0.1-0.9-0.1
		c-0.6-0.1-1.3-0.2-1.9-0.4c-0.4-0.1-1,0-1.3-0.2c0-0.1,0-0.1,0-0.2C55.9,18.5,56.1,18.2,56.3,18"/>
	<path class="st1" d="M33.3,71.2c0,0.4,0.8,1.5,1.1,1.9c0.3,0.4,0.4,1,0.6,1.5c0.4,1,1.2,3.2,1,4.6h-0.2c-0.6-0.9-1.6-1.7-2.3-2.5
		c-0.2-0.3-0.5-0.7-0.9-0.8c-0.1,0.3-0.2,0.8-0.3,1.1v0.5c-0.2,0.8-0.4,1.9-0.5,2.8c-0.1,0.1-0.2,0.1-0.4,0.1
		c-0.5-0.9-1-1.9-1.6-2.8c-0.5-0.7-1-1.3-1.5-2.1c-0.1-0.2-0.4-0.3-0.6-0.5c-0.6-0.9-1.5-1.6-2.2-2.3c-0.5-0.5-1-1-1.5-1.4
		c-0.1-0.1-0.2-0.3-0.3-0.4c-0.1-0.1-0.3-0.2-0.5-0.4c0,0,0-0.1-0.1-0.2c-0.6-0.5-1.3-1.1-1.6-1.9c-0.2-0.5-0.2-1-0.3-1.6
		c-0.1-0.4,0.2-1.4,0.4-1.9c0.1-0.3,0-0.6,0.2-1c0.4-1.2,0.4-2.6,1.1-3.5c0.4-0.5,1.2-0.8,1.7-1.1c0-0.9,0-1.7,0-2.8
		c0-0.5,0-1.1,0-1.5c0-0.2,0-0.4,0-0.5c0.1-0.4,0-1.4,0-1.6c0-0.2,0-0.4,0-0.6c-0.1-0.7,0.1-1.4-0.1-2.1h-0.2
		c-0.1,0.1-0.3,0.4-0.4,0.5c-0.1,0-0.1,0-0.2,0.1c-0.1,0.1-0.1,0.2-0.1,0.3c-0.1,0.1-0.2,0.2-0.3,0.3c-0.1,0.1-0.1,0.3-0.2,0.4
		c-0.2,0.3-0.6,0.6-0.9,0.9c-0.6,0.8-1.3,1.6-2,2.4c-0.1,0.1-0.2,0.2-0.4,0.3c-0.4,0.5-0.9,1-1.3,1.6c-0.2,0.3-0.6,0.5-0.8,0.8
		c-0.3,0.4-0.7,0.9-1,1.3c-0.1,0.1-0.2,0.2-0.4,0.3c-0.2,0.2-0.3,0.5-0.6,0.5c-0.1-0.2-0.5-0.9-0.4-1.1c0.1-0.3,0.4-0.5,0.6-0.7
		c0.1-0.1,0.1-0.2,0.2-0.3c0.3-0.4,0.8-0.7,1.1-1.1c0.4-0.6,0.9-1,1.3-1.6c0.1-0.1,0.2-0.2,0.3-0.3c1.1-1.5,2.4-2.8,3.6-4.3
		c0.1-0.1,0.3-0.2,0.4-0.4c0.4-0.5,0.8-1,1.1-1.5c0.2-0.3,0.6-0.5,0.7-0.8c0.1-0.4,0-0.7,0-1.1c0-0.4,0.1-1.3,0-1.8
		c-0.1-0.3,0.1-0.5,0-0.7c-0.1-0.3,0-0.6,0-1c-0.1-0.5,0-1,0-1.6c0-0.4,0.1-1.2-0.1-1.5c0,0,0,0-0.1,0c-0.1,0.1-0.3,0.2-0.4,0.3
		c-0.3,0.2-0.6,0.6-0.9,0.8c-0.2,0.1-0.3,0.2-0.5,0.3c-0.1,0.1-0.3,0.3-0.4,0.4c-0.3,0.3-0.7,0.5-1.1,0.8c-0.4,0.3-0.8,0.8-1.2,1.1
		c-0.6,0.5-1.2,0.9-1.8,1.4c-0.1,0.1-0.2,0.3-0.3,0.4c-0.4,0.3-0.8,0.5-1.1,0.8c-0.7,0.6-1.4,1.3-2.2,1.8c-0.3,0.2-0.4,0.5-0.8,0.6
		c-0.1-0.1-0.1-0.3-0.1-0.5c-0.1-0.2,0-0.6,0-0.7c0.2-0.2,0.4-0.4,0.6-0.6c0.3-0.2,0.5-0.4,0.8-0.6c0.2-0.2,0.4-0.5,0.7-0.6
		c1.8-1.3,3.4-2.9,5.2-4.2c0.3-0.2,0.6-0.6,0.9-0.8c0.8-0.6,1.5-1.1,2.1-1.8c0.2-0.2,0.6-0.3,0.7-0.7c0.1-0.3,0.1-1,0-1.3
		c0-0.2,0-0.4,0-0.6c0-0.1-0.1-0.2,0-0.4c0.1-0.4-0.1-1,0-1.3c0.1-0.8,0-2.1,0-2.9c-0.1,0-0.1-0.1-0.2-0.1c-0.3,0.2-0.7,0.3-1.1,0.6
		c-1.1,0.7-2.3,1.3-3.4,2c-0.3,0.2-0.5,0.2-0.8,0.4c-0.4,0.2-0.8,0.6-1.2,0.8c-0.3,0.2-0.7,0.3-1,0.5c-0.3,0.2-0.6,0.4-0.9,0.5
		c-0.1-0.1-0.1-0.3-0.1-0.5c0.1-0.1,0.2-0.6,0.2-0.8c0.3-0.1,0.5-0.3,0.8-0.5c0.6-0.4,1.3-0.7,1.9-1.1c0.1-0.1,0.2,0,0.3-0.1
		c0.3-0.2,0.7-0.3,1-0.6c0.8-0.5,1.8-1,2.6-1.5c0.4-0.3,1.8-0.8,1.9-1.2c0.3-0.4,0-1.1,0.1-1.7c0.1-1.1,0-2.2,0-3.2
		c0.1,0,0.1-0.1,0.2-0.1c0.6,0,1.4,0.1,1.9,0c0.1-0.2,0.2-0.3,0.3-0.4c0.6,0,1.2,0.1,1.8,0c0.1-0.3,0.1-0.4,0.5-0.4
		c0.3,0.2,1,0.1,1.5,0.2c0.6,0.1,2.2,0.3,3,0.2h0.5c0.3-0.1,0.5-0.3,0.7-0.4c0.7-0.4,1.5-0.8,2.1-1.2c0.3-0.2,0.6-0.2,0.9-0.4
		c0.4-0.2,0.8-0.5,1.1-0.7c0.1,0,0.2-0.1,0.4-0.1c0.1-0.1,0.1-0.2,0.2-0.2c0.1-0.1,0.2,0,0.3-0.1c0.4-0.2,0.8-0.6,1.2-0.8
		c0.6-0.4,1.2-0.6,1.8-0.9c0.3-0.1,0.8-0.6,1.1-0.7c0.3-0.1,0.8,0.5,0.8,0.7c-0.9,0.5-1.8,1-2.7,1.5c-0.8,0.5-1.8,1.2-2.6,1.6
		c-0.6,0.3-1.1,0.6-1.6,0.9c-0.2,0.1-0.5,0.2-0.6,0.4h0c0.1,0.1,0.2,0,0.4,0c0.2-0.1,0.9,0,1.2-0.1c0.6-0.1,1.4-0.1,2.1-0.2
		c0.3,0,0.6,0,0.9,0c0.2-0.1,0.3-0.2,0.4-0.4c0.4-0.3,0.7-0.6,1.2-0.9c0.3-0.2,0.4-0.5,0.8-0.5c0.1,0.3,0.4,0.5,0.4,1
		c-0.3,0.2-0.7,0.5-0.7,0.9h0.1c0.1,0.1,0.3,0.1,0.4,0.1c0.5,0.2,1.1,0.3,1.6,0.5c0.9,0.4,1.8,0.9,2.5,1.4c0.4,0.3,1.3,1.3,1.8,1.3
		c0.2-0.3,0.6-0.6,0.9-0.8c0.1-0.1,0.3-0.3,0.4-0.4c0.3-0.2,0.7-0.3,1.1-0.5c0.3-0.2,0.7-0.4,1-0.5c0.8-0.3,1.8-0.1,2.7-0.1
		c0-0.1,0.1-0.1,0.1-0.2c-0.2-0.2-0.3-0.3-0.5-0.5c0-0.3,0.1-0.7,0.2-1.1c0.1,0,0,0,0.1,0c0.4,0.1,0.6,0.4,0.8,0.6
		c0.4,0.4,0.8,0.7,1.3,1c0.1,0.1,0.2,0.2,0.3,0.3c0.2,0.1,0.4,0,0.7,0.1c0.9,0.2,2,0.1,2.8-0.1v-0.1c-0.6-0.3-1.2-0.7-1.7-1.1
		c-0.2-0.1-0.3-0.1-0.5-0.2c-0.1-0.1-0.3-0.2-0.4-0.3c-0.2-0.2-0.5-0.2-0.7-0.4c-0.5-0.3-1-0.6-1.5-0.9c-0.4-0.3-1.6-0.7-1.7-1.1
		c-0.2-0.2-0.2-0.8-0.1-1.1c0.1,0,0.1,0,0.2,0c0.4,0.3,0.9,0.5,1.3,0.7c1.3,0.7,2.5,1.4,3.8,2.2c0.3,0.2,0.7,0.4,0.9,0.6
		c0.5,0.3,0.9,0.4,1.4,0.7c0.3,0.2,0.7,0.5,1.1,0.7c0.4,0.1,1-0.1,1.3-0.2c0.5-0.1,1-0.1,1.5-0.3c0.4-0.1,0.7-0.2,1.2-0.2
		c0,0,0,0.1,0,0.1c0.1,0.1,0.1,0.3,0.1,0.4c0.2,0.1,0.5,0,0.7,0c0.3-0.2,1-0.1,1.5-0.1c0.1,0.2,0.2,0.3,0.6,0.3
		c0.3-0.2,1.3-0.1,1.7-0.1c0.2,0.4,0.2,1.1,0.2,1.7v3.3c2.5,1.6,5.2,3,7.7,4.5c0.7,0.4,1.4,0.8,2.1,1.2c0.2,0.1,0.4,0.1,0.5,0.3
		c0.1,0.2,0.3,0.9,0.1,1.1c0,0-0.1,0-0.2,0c-0.1-0.1-0.3-0.1-0.4-0.2c-0.1-0.1-0.1-0.2-0.2-0.2c-0.1-0.1-0.3,0-0.4-0.1
		c-0.2-0.1-0.5-0.4-0.7-0.5c-0.1-0.1-0.3,0-0.4-0.1c-1.1-0.7-2.3-1.3-3.4-2c-0.4-0.3-0.9-0.5-1.3-0.7c-0.2-0.1-0.4-0.1-0.5-0.2
		c-0.5-0.4-1.2-0.7-1.8-1.1c-0.3-0.2-0.6-0.4-1-0.5c0,0,0,0.1,0,0.1c-0.2,0.2,0,0.6,0,0.9c0,0.7-0.1,1.2,0,1.7c0,0.2,0,0.6,0,0.7
		c0,0.5,0,1,0,1.5c0,0.3-0.1,0.7,0,0.9c0.2,0.4,1.2,1.1,1.5,1.3c0.2,0.2,0.3,0.3,0.5,0.5c0.7,0.5,1.3,1.1,2,1.6
		c0.3,0.2,0.5,0.6,0.8,0.8c0.3,0.2,0.5,0.4,0.8,0.6c0.2,0.2,0.4,0.5,0.8,0.5c0.2-0.4,0.5-0.8,0.8-1.2c0,0,0,0,0,0
		c0.1,0.1,0.1,0.3,0.1,0.5c-0.1,0.2-0.1,1.3,0,1.5c0.3,0.2,0.5,0.5,0.8,0.7c0.6,0.5,1.2,0.9,1.8,1.5c0.3,0.3,0.7,0.3,0.7,0.8
		c-0.2,0.2-0.2,0.7-0.6,0.8c-0.1-0.1-0.2-0.1-0.3-0.2c-0.1-0.1-0.1-0.2-0.2-0.3c-0.6-0.4-1.1-0.9-1.7-1.3c-0.3-0.2-0.5-0.5-0.9-0.5
		c-0.1,0.9-0.3,1.7-0.4,2.6c0,0,0.1,0,0.1,0c0.3,0.2,1.1,0,1.5,0c0.5,0,1.1-0.1,1.5-0.1c0.3,0,0.7,0,1,0c0.4-0.1,0.8-0.3,1.1-0.3
		v0.1c-0.3,0.3-0.5,0.6-0.7,0.9c-0.3,0.4-0.8,0.7-1.2,1c-0.1,0.1-0.3,0.3-0.4,0.4c-0.8,0.6-1.7,1.3-2.5,1.9
		c-0.4,0.3-0.8,0.6-1.3,0.8c-0.3,0.2-0.6,0.2-0.7,0.5c1.3,0.9,1.7,3.2,2.4,4.8c0.1,0.3,0.5,0.5,0.7,0.8c0.1,0.2,0.2,0.4,0.4,0.6
		c0.1,0.1,0.2,0.1,0.2,0.2c0.2,0.2,0.2,0.4,0.4,0.6c0.3,0.3,0.6,0.6,0.8,1c0,0,0.1,0,0.2,0.1c0.2,0.2,0.2,0.5,0.4,0.7
		c0,0.5-0.2,0.8-0.4,1.1c-0.1,0,0,0-0.1,0c-0.2-0.1-0.3-0.3-0.5-0.5c-0.1-0.2-0.9-1-1.1-1.1v0c-0.1,0.2,0,0.4,0,0.6
		c0,0.2-0.2,0.4-0.2,0.6v0.2c-0.1,0.2-0.3,0.4-0.4,0.6c-0.4,0.7-0.7,1.4-1.1,2.1c-0.4,0.5-1.7,1.5-1.8,2.2c0.2,0.3,0.4,0.7,0.5,1.1
		c0.2,0.6,0.9,1.2,0.9,1.9C79.1,70.6,79,71,78.6,71c-0.4-0.6-0.8-1.3-1.1-2c-0.2-0.3-0.4-1-0.7-1.1c-0.1-0.1-0.6,0.2-0.7,0.3
		c-0.6,0.4-1.4,0.7-2.1,0.9c-0.3,0.1-0.7,0-0.9,0.2c-0.2,0.3,0,1.3-0.1,1.7c-0.7,0.3-2.2,0.1-3.1,0.1c-0.4,0-1.2-0.1-1.3,0.2
		c-0.1,0.3,0.4,1.3,0.5,1.6c0.1,0.2,0,0.3,0.1,0.4c0,0.1,0.2,0.3,0.2,0.4c0.2,0.4,0.2,0.8,0.3,1.2c0.1,0.4,0.3,0.8,0.5,1.1
		c0.1,0.3,0.1,0.5,0.2,0.8c0.1,0.3,0.6,1.2,0.5,1.5c-0.1,0.3-0.7,0.6-1,0.7c-0.4-0.8-0.6-1.7-0.9-2.6c-0.2-0.6-0.5-1.3-0.8-1.9
		C68,74.2,68.1,74,68,73.8c0-0.1-0.2-0.3-0.2-0.4v-0.3c-0.1-0.4-0.4-0.9-0.6-1.3c-0.1-0.2-0.1-0.4-0.2-0.5c-0.1-0.1-0.2-0.1-0.3-0.2
		c-0.5,0-1.1,0-1.6,0c-0.3,0-0.7-0.1-0.9,0c-0.5,0.1-1.4,0-1.8,0c-0.4,0.1-0.8-0.1-1.1,0c0,0.1-0.1,0.1-0.1,0.2
		c0.1,0.1,0.2,0.3,0.3,0.4c0.5,0.4,0.9,0.8,1.3,1.3c0.1,0.1,0.2,0.2,0.3,0.2c0.1,0.1,0.1,0.3,0.2,0.4c0.1,0.1,0.2,0.2,0.2,0.2
		c0.2,0.3,0.4,1,0.2,1.4c-0.1,0.2-0.4,0.4-0.6,0.6c-0.2,0.3-0.4,0.7-0.7,1c-0.2,0.2-0.4,0.3-0.4,0.6c0,0.2,0.2,1,0.2,1.2v0.4
		c0.1,0.4,0.2,0.9,0.3,1.3V81c0.1,0.4,0.3,1.1,0.2,1.7c-0.2,0.1-0.9,0.7-1.2,0.5c-0.2-0.3-0.1-0.7-0.2-1.1c-0.2-0.7-0.3-1.5-0.4-2.2
		c-0.1-0.5,0.1-1.2-0.4-1.2c-0.3,0.3-0.7,0.4-1,0.6c-1.4,0.9-3.1,1.3-5.2,1.6c-0.1,0-0.2-0.1-0.4,0c-0.4,0.1-1,0-1.4,0.1
		c-0.1,0-0.2,0.1-0.4,0.1c-0.4,0-0.8-0.1-1.2,0c0,0,0,0.1,0,0.1c-0.1,0.2,0,0.5,0,0.7c-0.1,0.9,0.1,2.1-0.1,2.8
		c-0.3,0.1-0.6,0.1-1.1,0.1c-0.1-0.1-0.1-0.2-0.1-0.5c-0.1-0.2,0-0.7,0-1c-0.1-0.7,0.1-1.8-0.1-2.5c-0.6-0.2-1.5-0.3-2-0.5
		c-0.3-0.1-0.6,0-0.9-0.1c-0.6-0.2-1.3-0.4-2-0.6c-0.5-0.2-0.9-0.4-1.4-0.6c-0.5-0.2-0.9-0.4-1.3-0.6c-0.1-0.1-0.5-0.2-0.5-0.2
		c-0.4,0.2-0.3,0.8-0.4,1.3c-0.2,0.9-0.3,2-0.5,2.9c-0.1,0.4-0.1,1-0.2,1.4c-0.1,0-0.1,0.1-0.3,0.1c-0.3-0.2-0.7,0-0.9-0.4
		c-0.1-0.2,0.1-1.3,0.2-1.7c0.1-0.5,0-0.9,0.2-1.4c0.2-0.9,0.5-2.4,0.3-3.3c-0.5-0.1-1.1-0.9-1.4-1.3c0,0-0.1,0-0.2-0.1
		c0,0-0.4-0.4-0.4-0.5c-0.1-0.2-0.2-0.4-0.3-0.6c-0.8-1.1-1.3-2.4-2.2-3.4C34.5,71.2,33.9,71.2,33.3,71.2"/>
	<path class="st5" d="M42,25.6c-0.2,0.1-0.6,0-0.9,0c-0.6,0-1.1,0.1-1.7,0.1c-1.1,0.2-2.5,0.1-3.6,0.4h-0.6c-0.4,0.1-0.9,0-1.3,0.1
		h-0.7c-0.6,0-1.2-0.1-1.7-0.2c-0.1,0-0.2,0-0.2,0c-0.3,0-0.6-0.1-0.9-0.1c0,0.1-0.1,0.1-0.1,0.2c-0.2,0.3,0.1,1.1,0,1.5
		c-0.1,0.2-0.1,0.7,0,1c0,0.1,0,0.2,0,0.3c-0.1,0.5,0,1.1,0,1.7c0,0.8-0.1,1.6,0,2.2c0.1,0.4-0.1,1,0,1.5c0,3.6,0,7.2,0,10.8v0.8
		c0,0.9-0.1,2.1,0,2.8c0,0.3,0,0.6,0,0.9c0.2,0.8-0.1,2,0,2.8c0,0.3,0,0.6,0,0.9c0,0.2,0,0.6,0,0.8c0,0.3,0,0.6,0,0.8
		c0,0.6,0,1.3,0.1,1.7c0.1,0.7-0.1,1.3,0.1,1.8c0.5,0.3,1.2,0.2,1.7,0.4c0.3,0.1,0.7,0.3,0.9,0.4c0.2,0.1,0.3,0,0.5,0.1
		c0.4,0.2,0.8,0.4,1.2,0.6c0.1,0.1,0.2,0,0.4,0.1c1.2,0.7,2.3,1.6,3.2,2.6c0.2,0.2,0.5,0.3,0.6,0.6c0.7,0.8,1.3,1.7,2.1,2.4
		c0.5,0,0.9-0.1,1.4-0.1c0.9,0.2,2,0.1,2.9,0.4c0.6,0.2,1.3,0.4,1.9,0.6c0.2,0.1,0.4,0.3,0.6,0.4c0.3,0.1,1.5,0.9,1.5,0.1
		c0.1-0.2,0-0.5,0-0.7c0.1-0.5-0.1-0.9,0-1.5c0.1-0.4,0-0.9,0-1.4c0-0.3,0-0.7,0-0.9c0-0.2,0-0.4,0-0.6c0-0.2-0.1-0.8,0-1
		c0.1-0.4,0.1-1.1,0-1.6c0-0.1,0-0.2,0-0.3c0-0.3,0.1-1,0.1-1.3c0-0.3,0-0.8-0.1-0.9c0-0.1,0-0.2,0-0.3c0-0.1-0.1-0.4-0.1-0.6
		c0-0.2,0.1-0.9,0.1-1.1c0-0.1-0.1-0.4,0-0.6c0-0.2,0.1-0.6,0-0.7c0-0.3-0.1-0.9,0-1.3c0.1-0.4-0.1-1,0-1.6c0.1-0.4,0.1-1,0-1.3
		c-0.1-0.3,0.1-0.5,0-0.8c-0.1-0.4,0-1.1,0-1.4c0-0.3,0-0.6,0-0.9v-2.5c0-0.5,0.1-0.9,0-1.3c-0.1-0.3,0.1-1,0-1.4c0-0.2,0-0.5,0-0.7
		c-0.1-0.7-0.1-1.6,0-2.3c0-0.2,0-0.4,0-0.6c0-0.3,0-0.9,0-1.3c0-0.1,0-0.2,0-0.2c0-0.3,0-0.8,0-1c-0.1-0.4,0-0.7,0-1
		c0-0.4,0-0.7,0-1c-0.1-0.4,0-0.9,0-1.1c-0.1-0.5,0.1-1,0-1.4c-0.1-0.6,0.2-1.5-0.1-1.9c-0.1-0.1-0.2-0.1-0.3-0.2
		c-0.1-0.1-0.2-0.2-0.2-0.4c-0.4-0.3-0.7-0.5-1.1-0.8C46.1,26.5,44.4,25.6,42,25.6"/>
	<path class="st5" d="M62.8,56.6c0-1-0.2-2.1-0.4-3c0-0.3,0.1-0.6,0.1-0.9c-0.1-1.1,0.6-2.5,1.1-3.2c0.5-0.7,1.4-1.2,2.1-1.7
		c0.2-0.2,1-0.4,1.1-0.6c0.3-0.3,0-0.8,0.1-1.2c0.1-0.3,0.1-0.9,0-1.3c0-0.7,0-1.4,0-2.1c0-0.4,0-0.7,0-1.1c0.1-0.3,0-0.8,0-1.1
		c0.1-0.7,0-1.3,0-2c0-0.2,0.1-0.6,0-0.8c0-0.4-0.1-1-0.1-1.5c0.1-0.8,0.1-2.1,0-3c-0.1-0.7,0.1-1.6,0-2.2c0-0.1,0-0.3,0-0.4
		c0-0.5,0-1,0-1.3c0-0.2,0-0.5,0-0.8c0-0.7,0-1.8-0.1-2.4h-0.5c-0.4,0.2-1.5,0.2-2.1,0.4c-1,0.3-2.9,0.6-4,0.4c-0.4,0-0.7,0-1.1,0
		c-0.4-0.1-1.1-0.1-1.5-0.2h-0.7c-0.3-0.1-1-0.2-1.4-0.1c-0.4,0.1-0.9,0.1-1.3,0.2c-1,0.3-1.7,0.9-2.4,1.5c-0.3,0.2-1,1-1.1,1.3
		c-0.1,0.2,0,0.7,0,0.8c0,0.1,0,0.2,0,0.3c0,0.4,0,0.9,0,1.2c0,0.1-0.1,0.3,0,0.5c0.1,0.8-0.1,1.9,0,2.6c0,0.2,0,0.3,0,0.5v2.7
		c0.1,0.3-0.1,0.9,0,1.2c0.2,1,0,2.3,0.1,3.3c0,0.3-0.1,0.7,0,1c0,0.2,0.1,0.5,0,0.8c0,0-0.1,0.2,0,0.3c0.1,0.3,0,1,0,1.2
		c-0.1,0.5,0,1.3,0,1.7c0,0.5,0,1,0,1.5c0,0.2,0.1,0.5,0,0.7c-0.1,0.6,0,1.4,0,2.1c0,1.2-0.1,2.5,0,3.6c0,0.2,0,1.1-0.1,1.3
		c0,0.5,0.1,1,0.1,1.5c0,0.2,0,0.4,0,0.6c0,0.4,0.1,0.9,0,1.3c0,0.4-0.1,0.9,0,1.2c0,0.4,0,0.9,0,1.3c0.3,1.2-0.2,3.1,0.1,4.4H51
		c0.6-0.5,1.7-0.6,2.4-0.9c0-0.8,0.2-1.7,0.2-2.5h0C53.3,64,52,64.1,51.6,64c0-0.2-0.1-0.4-0.1-0.6c0.6-0.3,1.6-0.3,2.2-0.2
		c0.3-1.1,0.7-2.2,1.2-3.2c0.1-0.2,0.2-0.6,0.4-0.7c0.3-0.2,1.1-0.5,1.7-0.3c0.1,0,0.3,0.1,0.4,0.1c0.7-0.1,1.9,0.2,2.6,0.4
		c0.4,0.1,0.8,0.1,1.2,0.2c1,0.3,2,0.7,3,1c0.7,0.2,1.6,0.8,2.4,0.6c0-0.1,0-0.2,0-0.3c0.1-0.2,0-0.6,0-0.7c-0.9-0.2-2.2,0.1-3-0.7
		c-0.5-0.5-0.5-2-0.9-2.5c-0.3,0.5-2,0.1-2.5,0c-0.3-0.1-0.6,0-0.8-0.2c-0.2-0.1,0-0.6,0.2-0.7c0.2-0.1,0.6,0.1,0.8,0.1
		C61.3,56.4,62,56.5,62.8,56.6"/>
	<path class="st5" d="M28.3,26.4c0,0.1,0,0-0.1,0.1c-0.2,0.2-0.1,0.6-0.1,0.9c0,0.4,0,0.9,0,1.3c0,0.2,0,0.3,0,0.5
		c0,0.3-0.1,1.2,0,1.6c0,0.1,0,0.3,0,0.4c0,0.1,0,0.3,0,0.4c0,0.3,0,0.4,0,0.7c0,0.4,0,0.6,0,0.8v1.7c0,0.1,0.1,0.2,0,0.3
		c-0.1,0.5,0,1.1,0,1.4c0,0.2-0.1,0.6,0,0.9c0.1,0.2-0.1,0.5,0,0.8c0.1,0.5,0,0.8,0,1.4v2.9c0,0.5,0,1.1,0,1.5c0,0.3,0,0.5,0,0.8
		c0,0.9-0.1,1.9,0,2.6c0,0.2-0.1,0.5,0,0.7c0.1,0.6-0.1,1.6,0.1,2.3c0,0.2,0,0.4,0,0.7c0,0.3,0.1,1.1,0,1.5c-0.1,0.5,0,1.2,0,1.6
		c0,0.1,0,0.2,0,0.3c0.1,0.5,0,1,0,1.3c0,0.2,0,0.6,0,0.7c0,0.2,0,0.8,0.1,1c0,0.2,0,0.6,0,0.9c0.2,0.1,0.2,0.2,0.6,0.2
		c0.1-0.1,0.2-0.1,0.3-0.1c0.2-0.3,0-1.4,0-1.8c0-1-0.1-2.3,0-3.1c0-0.1,0-1.3,0-1.3c0,0-0.1-0.2,0-0.3c0.1-0.5,0.1-1.7,0-2.2
		c0-0.3,0-0.6,0-0.9c-0.1-0.4-0.1-1.2,0-1.7c0-0.2,0-0.5,0-0.8c0.1-0.6,0-1.4,0-2.1c0-0.2-0.1-0.5,0-0.6c0.1-0.4,0.1-0.8,0-1.3
		c0-0.1,0-0.2,0-0.4c0.1-0.3,0-0.7,0-1.2V38v-4.1v-5.5c0-0.4,0-1.9-0.2-2L28.3,26.4L28.3,26.4z"/>
	<path class="st5" d="M68.8,26.4c-0.1,0.1-0.4,0.1-0.5,0.1c0,0,0,0.1,0,0.1c-0.2,0.3,0,0.9-0.1,1.2c-0.1,0.3-0.1,0.8,0,1.2
		c0,0.1,0,0.2,0,0.3c-0.1,0.5-0.1,1.4,0,1.9c0.1,0.3-0.1,1,0,1.4c0,0.2-0.1,0.7,0,1.1c0,0.1,0,0.3,0,0.4c0.1,0.8,0.1,2.1,0.1,2.7
		c0,0.6-0.1,1.4,0,2c0,0.1,0,0.2,0,0.2c-0.1,0.3,0,0.8,0,0.9c0,0.2,0,0.5,0,0.7c-0.1,0.5-0.1,2.5,0,3c0,0.2,0,0.6,0,0.8
		c0,0.2,0,0.4,0,0.6c-0.1,0.5-0.1,1.1,0,1.6c0,0,0.1,0,0.1,0c0.1,0.1,0.9-0.1,0.9-0.3v-0.6c0.2-0.3,0-1,0-1.4c0.1-1.1-0.1-2.1,0-3.2
		c0.1-0.6,0-1.3,0-2.1c0-0.7,0-1.6,0-2.2c-0.1-0.4,0.1-0.9,0-1.1c-0.1-0.3,0-0.8,0-1.1c0-0.3,0-1.5-0.1-1.8c-0.1-0.4,0.1-1.3,0-1.8
		c-0.1-0.3,0-0.7,0-1.1c0-0.7,0-1.3,0-1.9c0-0.5,0-1.3-0.1-1.8h-0.1C69.1,26.4,68.9,26.4,68.8,26.4"/>
	<path class="st5" d="M71.2,26.5c-0.1,0.1-0.3,0.1-0.4,0.1c-0.1,0.1-0.1,0.2-0.1,0.4c-0.1,0.3,0.1,0.9,0,1.3c-0.1,0.7,0,1.6,0,2.3
		c0,0.6-0.1,1.3,0,1.8c0.1,0.4-0.1,1,0,1.4c0.1,0.6,0.1,2,0,2.7c-0.1,0.4,0.2,1.4,0.1,1.8c-0.1,0.3-0.1,0.9,0,1.2c0,0,0.1,0.1,0,0.2
		c-0.2,0.8,0,2.1,0,3.2c0,1.5-0.3,5,0.7,5.3c0.1,0.1,0.2,0,0.3,0c0.2-0.2,0.1-1.1,0.1-1.5c0-1.2,0.1-2.5,0-3.5v-2c0-0.2,0-0.3,0-0.5
		c-0.1-0.6,0-1.2,0-1.9c0-0.5,0-1.1,0-1.6c0-0.2,0-0.4,0-0.7v-2.2c0-0.2,0-0.4,0-0.6c0.1-0.6-0.1-1.2,0-1.9c0.1-0.5,0-1.8,0-2.4
		c0-0.2,0-0.6,0-0.9c0-0.6,0-1.3-0.1-1.9c-0.1,0-0.1-0.1-0.2-0.1L71.2,26.5L71.2,26.5z"/>
	<path class="st5" d="M26.1,26.6c-0.1,0.1-0.1,0-0.1,0.1c-0.3,0.3,0,1.1,0,1.5c-0.1,0.5-0.1,1.2,0,1.7c0,0.1,0,0.2,0,0.4
		c-0.1,0.6-0.1,1.4,0,2c0.1,0.5-0.1,1.1,0,1.7c0,0.1-0.1,0.4,0,0.6c0,0.4,0,1,0,1.5c0,0.2,0,0.3,0,0.5c0.1,0.3,0.1,1.2,0,1.5
		c0,0.2,0.1,0.3,0.1,0.4c0,0.1,0,0.6,0,0.8c0,0.7-0.1,2.2,0,2.8c0,0.2,0,0.3,0,0.5c0.1,0.7-0.1,1.6,0,2.1c0.1,0.4,0,1,0,1.3
		c0,0.2,0,0.9,0,1.3c0,0.9-0.1,2,0,2.8c0,0.3,0,0.7,0,1c0,0.7-0.1,1.3,0,1.9c0,0.3,0,0.6,0,0.8c0.1,0.3,0,0.8,0,1c0,0.2,0,0.3,0,0.5
		c0,0.5,0,1,0,1.5c0,0.1,0,0.2,0,0.2c0,0.5,0,0.9,0,1.2c0.1,0.3-0.2,0.9,0.1,1.1c0.2,0.1,0.5,0,0.6,0c0.1-0.1,0.1-0.2,0.1-0.4
		c0.1-0.2,0-0.4,0-0.6c0-0.2,0-0.8,0.1-1.2c0-0.2-0.1-0.4,0-0.6c0.1-0.5,0-1.3,0-1.8c0-0.5,0-1.2,0-1.4c-0.1-0.4,0.1-0.7,0-1.1
		c-0.1-0.4-0.1-1.9,0-2.3c0.1-0.4-0.1-1.2,0-1.7c0.1-0.6,0.1-1.5,0-1.9c0-0.2,0.1-0.5,0.1-0.6c0-0.5-0.2-1.2-0.1-1.7
		c0-0.3,0-0.9,0-1.3c0-0.1,0-0.3,0-0.4c0.1-0.6,0-1.2,0-1.9c0-0.9,0.1-2.2,0-2.9v-2.6v-3.1c0-0.3-0.1-0.8,0-0.9
		c0.1-0.5,0.1-1.4,0-1.9c-0.1-0.2,0.1-0.3,0-0.5c0-0.4,0-0.9-0.1-1.4C26.5,26.7,26.3,26.6,26.1,26.6"/>
	<path class="st1" d="M34.1,29.1c0.5,0,1,0,1.4,0c0.2,0.1,0.6-0.1,0.8,0c0.4,0.1,0.8,0,1,0.1c0.2,0.4,0,1.3,0,1.9c0,1.2,0,2.4,0,3.5
		c-0.1,0.1-0.1,0.1-0.2,0.1c-0.2,0.2-1,0-1.5,0c-0.8,0.1-2.3,0.2-3.1,0V31c0.1-0.2,0-1.3,0-1.7c0,0,0.1,0,0.1,0
		C33.2,29,33.8,29.3,34.1,29.1"/>
	<path class="st5" d="M36,30c-0.3,0.2-1.6,0-2.1,0.1c-0.3,0.5-0.2,2.8,0,3.5c0.4,0.2,1.9,0.2,2.5,0c0-0.1,0-0.2,0-0.4
		c-0.1-0.2,0.1-0.7,0-1c-0.1-0.6,0-1.5-0.1-2.1c-0.1-0.1-0.1-0.1-0.2-0.1C36.1,30,36,30,36,30"/>
	<path class="st1" d="M34.8,30.4h0.5c0.3,0.5,0.3,1.2,0.6,1.8c0.1,0.4,0.4,0.8,0.4,1.2c-0.1,0.1-0.1,0.1-0.4,0.1
		c-0.1,0-0.2-0.1-0.2-0.1c-0.1-0.1-0.2-0.4-0.3-0.5C35.3,33,35.1,33,35,33c-0.1,0.1-0.3,0.1-0.3,0.2c0,0.1,0,0.2,0,0.2
		c-0.1,0.1-0.2,0.2-0.2,0.2c-0.2,0-0.3,0-0.5-0.1c0-0.1,0-0.1,0-0.2c0.1-0.2,0.1-0.3,0.2-0.5C34.2,32.2,34.4,30.8,34.8,30.4"/>
	<path class="st5" d="M73.1,39.3c-0.1,0.3,0,0.6,0,0.9c0,0.4,0,1.1,0,1.5c0,0.5,0,1.1,0,1.6c0,0.3,0.1,0.6,0,0.8
		c-0.1,0.6-0.1,1.6,0,2.2c0.1,0.4-0.2,1.5,0,1.8c0.3,0.2,1.6-0.2,1.8-0.4c1.3-0.7,2.1-1.6,2.9-2.8c0.3-0.3,0.8-0.6,0.8-1.2
		c-0.1-0.1-0.2-0.3-0.3-0.4c-0.2-0.2-0.4-0.2-0.6-0.4c-0.1-0.1-0.2-0.2-0.3-0.4c-0.9-0.6-1.6-1.4-2.5-2
		C74.5,40.4,73.7,39.4,73.1,39.3"/>
	<path class="st5" d="M78.3,46.6c-0.2,0.3-0.5,0.4-0.7,0.6c-0.1,0.1-0.3,0.3-0.4,0.4c-0.7,0.5-1.6,1.3-2.5,1.6
		c-0.6,0.2-1.2,0.2-1.8,0.3c-0.3,0.1-0.7-0.1-0.8,0.2c-0.1,0.1,0.2,0.4,0.2,0.6c0.3,0.5,0.6,1.2,0.9,1.7c0.1,0.2,0,0.5,0.3,0.6
		c0.2,0.2,1.5,0.1,1.9,0.2c0.4,0.1,1.3-0.5,1.6-0.7c0.6-0.4,1.2-0.6,1.7-0.9c0.5-0.3,1-0.8,1.5-1.2c0.3-0.2,0.7-0.4,0.9-0.7
		c0,0,0,0,0,0H81c-0.2-0.1-0.5,0-0.9,0c-0.6,0-1.3,0-1.9,0c-0.1-0.1-0.1-0.1-0.1-0.3c0.1-0.2,0-0.4,0.1-0.6c0.1-0.4,0.2-1,0.2-1.5
		C78.4,46.6,78.4,46.6,78.3,46.6"/>
	<path class="st5" d="M69,47.7c-0.1,0.1-0.4,0-0.5,0.1c-0.3,0.1-0.7,0.2-1,0.4c-0.9,0.4-2.7,1.5-3.1,2.3c-0.4,0.7-0.4,1.3,0,2
		c0.1,0.2,0.1,0.5,0.5,0.5c0.2-0.3,0.4-0.4,0.7-0.6c0.3-0.2,0.7-0.6,1.1-0.7c0.2-0.1,0.4,0,0.6-0.1c0.1,0,0.3-0.2,0.4-0.2
		c0.5-0.1,1-0.1,1.4-0.2c0.1,0,0.3,0,0.4,0c0.3,0,0.7,0,1,0c0.3,0.1,0.6,0.2,0.9,0.2c0-0.1,0-0.1,0-0.2c-0.3-0.4-0.4-0.9-0.6-1.3
		c-0.2-0.4-0.5-0.8-0.8-1.2C69.7,48.2,69.5,47.7,69,47.7"/>
	<path class="st5" d="M68.7,51.9c-0.1,0-0.2,0-0.2,0.1c-0.2,0.1-0.2,0.2-0.2,0.4c-0.1,0.1,0,0.7,0,0.9c0.2,0.2,0.3,0.2,0.7,0.2
		c0.1,0,0.2,0,0.3,0c0.1-0.1,0.1-0.1,0.1-0.2c0.1-0.1,0.1-1,0-1.1C69.2,51.9,69,51.9,68.7,51.9"/>
	<path class="st5" d="M70.7,52.3c-0.1,0.3-0.1,0.5,0,0.7h0.1c0.1,0.1,0.5,0,0.6-0.1c0-0.1,0.1-0.1,0.1-0.2c0-0.1,0,0,0-0.1
		C71.5,52.5,71,52.3,70.7,52.3"/>
	<path class="st5" d="M66.6,52.8c-0.1,0.2-0.2,0.2-0.3,0.5c0,0.1,0,0,0,0.1c0.1,0,0.1,0.1,0.3,0.1v0c0,0,0,0,0,0
		c0,0,0.1-0.1,0.1-0.1c0-0.2,0.1-0.4,0-0.5C66.7,52.8,66.7,52.8,66.6,52.8"/>
	<path class="st5" d="M63.7,53.8c-0.2,1.1,0.4,3.2,0.7,4.1c0.1,0.3,0.2,0.8,0.5,0.9c0.6,0.5,2.5,0.1,3-0.1c0.2,0,0.4,0,0.6,0
		c0.6-0.2,1.4-0.3,2-0.5c0.6-0.3,1.3-0.7,1.9-0.9c0.3-0.1,0.6-0.2,0.9-0.3c0.4-0.2,0.9-0.6,1.5-0.7c0.3-0.1,0.7-0.1,0.9,0
		c0.4,0.1,0.6-0.1,0.9,0c0.7,0.2,1.4,0.5,2,0.9c0.3,0.2,0.4,0.5,0.7,0.6v-0.2c-0.1-0.2-0.1-0.4-0.2-0.7c-0.1-0.2-0.2-0.4-0.3-0.5
		c-0.3-0.6-0.4-1.4-0.9-1.8c-0.3-0.2-1-0.3-1.4-0.4c-1.8-0.5-4.8,0-6.3,0.5c-0.2,0-0.4,0-0.5,0c-0.5,0.1-1,0.2-1.4,0.3
		c-0.2,0.1-0.5,0-0.7,0c-0.9,0-2.1-0.4-2.9-0.7C64.3,54.1,64.1,53.8,63.7,53.8"/>
	<path class="st5" d="M75.4,57.3c-0.1,0.1-0.4,0-0.5,0.1c-0.4,0.1-1.5,0.5-1.7,0.8c-0.1,0.2,0,0.5,0,0.7c-0.1,0.8-0.1,1.8,0,2.7
		c0.2,0.1,0.5,0.1,0.9,0.1c0.2-0.1,0.4-0.1,0.6-0.2c0.3-0.1,0.5-0.4,0.8-0.6c0.8-0.6,0.9-2.5,0.5-3.6C75.7,57.4,75.5,57.4,75.4,57.3
		"/>
	<path class="st5" d="M77.2,57.9c-0.1,0.4,0.1,0.7,0,1.1c-0.2,1.1-0.5,2-1,2.7c-0.1,0.2-0.4,0.3-0.6,0.4c-0.2,0.2-0.4,0.4-0.7,0.5
		c-0.7,0.3-1.5,0.3-2.3,0.4c-0.4-0.2-1,0.1-1.6-0.1C70.8,63,70.4,63,70.1,63c-0.2,0-0.7,0-1-0.1h-0.7c-0.6-0.1-1.2-0.2-1.7-0.3
		c-0.2,0-0.4,0-0.6,0c-1.2-0.3-2.4-0.8-3.5-1.2c-0.3-0.1-0.5-0.1-0.8-0.2c-0.2-0.1-0.6-0.2-0.8-0.3c-0.2,0-0.3,0-0.5,0
		c-1.1-0.4-2.8-0.9-4.3-0.6c-0.1,0.1-0.3,0.3-0.3,0.4c0,0.1,0,0.3-0.1,0.4c-0.3,0.6-0.4,1.2-0.6,1.9c-0.2,0.5-0.5,1.2-0.4,1.8H55
		c0.3,0.2,1.1,0.1,1.5,0.2c1,0.2,2.1,0.4,3,0.7c2.1,0.7,4.3,1.3,6.4,2h0.4c1.4,0.4,3.3,0.7,4.9,0.4c0.2,0,0.4,0.1,0.7,0
		c0.8-0.2,1.7,0,2.4-0.2c0.4-0.1,0.8-0.3,1.1-0.5c0.1-0.1,0.1-0.1,0.2-0.2c0.4-0.2,0.9-0.4,1.3-0.6c0.1,0,0-0.1,0.1-0.2
		c0.1-0.1,0.2-0.1,0.3-0.1c0.2-0.2,0.4-0.4,0.6-0.6c0.2-0.1,0.4-0.2,0.5-0.4c0.1-0.1,0.1-0.2,0.1-0.3c0-0.1,0.2-0.1,0.2-0.1
		c0-0.1,0-0.2,0-0.2c0.1-0.1,0.1-0.1,0.2-0.2c0.2-0.2,0.2-0.4,0.4-0.7c0,0,0.1-0.1,0.2-0.1c0-0.1,0-0.2,0-0.2
		c0.1-0.1,0.2-0.2,0.3-0.3c0-0.1,0.1-0.2,0.1-0.4c0.2-0.3,0.7-0.9,0.6-1.4c-0.2-1-0.7-1.6-1.4-2.2C78.5,58.7,78.1,58,77.2,57.9"/>
	<path class="st5" d="M71.3,59c-0.1,0.2-0.5,0.1-0.6,0.3c-0.1,0.2-0.1,0.5-0.1,0.8c0,0.5-0.1,1.2,0,1.7c0.2,0,0.6,0.1,0.8,0
		c0.1,0,0.1,0,0.1-0.1c0.1-0.2,0-0.5,0-0.7c0.1-0.5,0.1-1.4,0-2C71.5,59,71.4,59,71.3,59"/>
	<path class="st5" d="M69,59.8c-0.3,0.2-0.7,0-0.7,0.5c-0.2,0.2,0,1,0,1.2c0.1,0.1,0.2,0.1,0.4,0.1c0.1,0.1,0.4,0,0.5,0
		c0,0,0-0.1,0-0.1c0.2-0.2,0-1.4,0-1.6h-0.1C69.1,59.8,69.1,59.8,69,59.8"/>
	<path class="st5" d="M29,60c-0.2,0.1-1,0.1-1.3,0.2c-0.1,0-0.3,0-0.4,0c0,0-0.1,0.1-0.1,0.1c-0.2,0-0.4-0.1-0.6,0
		c-0.5,0.1-1.1,0.2-1.6,0.4c-0.3,0.1-0.9,0.4-1.1,0.6c-0.5,0.7-0.7,2-1,3c0,0.2,0,0.4,0,0.6c-0.2,0.7-0.4,1.6-0.2,2.5
		c0.2,0.1,0.6,0,0.9,0c0.1-0.1,0.3,0,0.5-0.1c0.7-0.2,1.6-0.1,2.3-0.3c0.8-0.2,2.2-0.5,3-0.4c0.3,0,0.5-0.1,0.8,0
		c0.3,0,0.7,0.1,1,0.2c1.5,0.5,3.5,1.8,4.3,3c0.2,0.3,0.5,0.5,0.7,0.8c0.6,0.9,1.1,2,1.7,2.9c0.1,0.2,0.3,0.4,0.5,0.5
		c0.2,0.3,0.4,0.6,0.6,1c0.1,0.1,0.2,0.2,0.3,0.3c0,0.1,0,0.1,0,0.2c0,0,0.1,0,0.2,0.1c0.1,0.1,0.2,0.3,0.4,0.4
		c0.1,0.1,0.3,0.2,0.4,0.3c0.4,0.3,0.7,0.6,1.1,0.9c0.1,0,0.3,0.1,0.4,0.1c0.5,0.3,1.1,0.6,1.6,0.9c0.2,0.1,0.4,0.1,0.6,0.2
		c0.2,0.1,0.6,0.3,0.9,0.4c0.1,0,0.2,0,0.3,0c2.8,1.2,7.3,1.7,10.6,0.8c0.5-0.1,1.1-0.1,1.5-0.4c1.2-0.5,2.1-1.2,3-1.9
		c0.3-0.3,0.6-0.6,0.9-0.9c0.1-0.1,0.3-0.1,0.4-0.2c0-0.1,0-0.1,0-0.2c0.2-0.3,0.4-0.6,0.7-0.8c0-1-0.8-1.5-1.3-2
		c-0.2-0.2-0.4-0.5-0.6-0.6c-0.1-0.1-0.2-0.1-0.3-0.2c-0.1-0.1-0.9-0.8-1-0.7c-0.5,0.2-0.9,1-1.3,1.3c-0.9,0.6-1.8,1.1-3.1,1.5h-0.4
		c-0.6,0.1-1.4,0.1-2.1,0.1c-2.9,0-5.3-1-7.1-2.3c-1.8-1.3-2.8-2.6-4-4.4c-0.1-0.1-0.3-0.3-0.4-0.4c-0.4-0.5-0.7-1-1.1-1.5
		c-0.1-0.1-0.2-0.2-0.3-0.2C37.2,62.9,33.9,60,29,60"/>
	<path class="st3" d="M65.3,29c0.1,0,0.2,0,0.3,0.1v0.4c-0.1,0.1-0.1,0.2-0.1,0.3c-0.9,0.4-2.2,0.6-3.4,0.5C62,30.1,62,30,62,29.9
		c0.1-0.2,0-0.4,0.4-0.4c0.2-0.1,0.5,0,0.8,0C63.7,29.3,64.9,29.3,65.3,29"/>
	<path class="st3" d="M55,29.4c0.6,0,1,0,1.5,0.1c0,0.1,0,0.1,0.1,0.1c0,0.1,0,0.1,0,0.2c-0.1,0.1-0.1,0.2-0.3,0.3
		c-0.2,0.1-1-0.1-1.3-0.1c-0.1-0.1-0.1-0.1-0.1-0.3c-0.1-0.1,0-0.2,0-0.4C54.9,29.4,55,29.4,55,29.4"/>
	<path class="st3" d="M60.8,29.5H61c0.1,0.1,0.1,0.2,0.1,0.4c-0.1,0.1,0,0.2-0.2,0.3c-0.2,0.2-1.1,0.1-1.4,0.1v-0.1
		c-0.1-0.2,0.1-0.5,0.2-0.6C59.9,29.6,60.7,29.5,60.8,29.5"/>
	<path class="st3" d="M53.1,29.5c0.3,0,0.6,0,0.8,0.1c0,0.2,0.1,0.3,0.1,0.5c-0.3,0.2-0.8,0.1-1.2,0.3c-0.4,0.1-0.7,0.4-1.2,0.3
		c0-0.1-0.1-0.1-0.1-0.3c-0.1-0.1,0-0.2,0-0.4c0.4-0.1,0.7-0.3,1.1-0.4C52.7,29.6,53,29.6,53.1,29.5"/>
	<path class="st3" d="M57.3,29.5c0.6,0,1.3,0,1.8,0.1V30c-0.1,0.1-0.1,0.2-0.2,0.3c-0.3,0.3-1.4,0-1.8-0.1c0-0.1,0-0.2,0-0.3
		C57.2,29.8,57.2,29.6,57.3,29.5"/>
	<path class="st3" d="M65,30.6c0.2,0,0.3,0,0.5,0c0,0.1,0,0.3,0,0.5c0,0-0.1,0.1-0.1,0.2c-0.4,0.1-0.9,0.1-1.3,0.2
		c-0.9,0.2-2.6,0.5-3.7,0.3c-0.1-0.1-0.1-0.1-0.1-0.3c0.1-0.1,0.1-0.3,0.2-0.4c0.3-0.2,0.8,0,1.1-0.1c0.6-0.2,1.5-0.2,2.2-0.3
		C64.3,30.7,64.8,30.8,65,30.6"/>
	<path class="st3" d="M54.3,30.7c0.5,0,0.9,0,1.3,0.1c0,0.1,0,0.1,0,0.2c-0.1,0.1-0.1,0.2-0.2,0.3c-0.3,0.2-0.8,0-1.1,0.1
		c-0.2,0-0.6,0-0.8,0.1c-0.5,0.1-1.3,0.4-1.9,0.3c0,0,0,0,0,0c0-0.2,0-0.5,0-0.7c0.6-0.1,1.3-0.3,1.9-0.4
		C53.7,30.7,54,30.9,54.3,30.7"/>
	<path class="st3" d="M56.6,30.9c0.4,0,0.8,0.1,1.3,0.2h1.7c0.1,0.1,0.1,0.2,0.1,0.4c0,0-0.1,0.1-0.1,0.2c-0.6,0.3-1.8,0.1-2.5,0
		c-0.3-0.1-0.6,0-0.7-0.3c0.1-0.1,0.1-0.2,0.1-0.4C56.5,30.9,56.6,30.9,56.6,30.9"/>
	<path class="st3" d="M53.8,32.3c0.3,0.1,1.8,0,1.9,0.3c0.1,0.1,0,0.3,0,0.5c-0.1,0.1-0.1,0.1-0.3,0.1c-0.2,0.1-1.4-0.1-1.8-0.1
		c0-0.1-0.1-0.1-0.1-0.2c0-0.2,0-0.4,0.1-0.5C53.6,32.4,53.8,32.3,53.8,32.3"/>
	<path class="st3" d="M52.5,32.4h0.3c0.1,0.1,0.1,0.1,0.1,0.4c0.1,0.1,0,0.2-0.1,0.2c-0.1,0.2-1.3,0.4-1.7,0.4
		C51,33.3,51,33.3,51,33.1c0-0.1,0-0.1,0-0.3c0.2-0.1,0.6-0.2,0.9-0.3C52.1,32.4,52.3,32.5,52.5,32.4"/>
	<path class="st3" d="M64.7,32.6c0.3,0,0.7,0,0.9,0.1c0.1,0.1,0.1,0.1,0.1,0.3c-0.1,0.1-0.1,0.2-0.3,0.3c-0.2,0.1-1.1,0.1-1.4,0.1
		c-0.1-0.1-0.1-0.2-0.1-0.4c0.1-0.2,0.1-0.3,0.4-0.4C64.4,32.6,64.7,32.6,64.7,32.6"/>
	<path class="st3" d="M56.6,32.7c0.7,0,1.5,0.1,2,0.2c0.7,0.1,1.4,0,2.1,0.1v0.4c-0.7,0.7-3.2,0.3-4.1,0v-0.5
		C56.6,32.8,56.6,32.7,56.6,32.7"/>
	<path class="st3" d="M62.6,32.8h0.6c0.1,0.1,0.1,0.1,0.1,0.2c0.1,0.1,0,0.3,0,0.4c-0.7,0.1-1.3,0.2-2,0c-0.1-0.1-0.1-0.3-0.1-0.5
		c0.1-0.1,0.2-0.1,0.4-0.1C61.8,32.7,62.4,32.9,62.6,32.8"/>
	<path class="st3" d="M52.1,34.2c0.3,0,0.6,0,0.8,0.1c0.1,0.1,0.1,0.3,0,0.4h-0.1c-0.2,0.1-1.4,0.3-1.5,0.3c0-0.1,0-0.2,0-0.4
		c0.1-0.1,0.1-0.2,0.2-0.3C51.7,34.3,52,34.3,52.1,34.2"/>
	<path class="st3" d="M53.9,34.2c1.1,0,2.3,0.1,3.4,0.4c0,0,0,0.1,0,0.1c0.4,0.6-0.6,0.5-1,0.5c-0.9-0.1-1.6-0.3-2.4-0.4
		c0-0.1-0.1-0.1-0.2-0.2C53.8,34.4,53.8,34.3,53.9,34.2"/>
	<path class="st3" d="M64.7,34.2c0.4,0,0.8,0,1.1,0.1c0,0,0,0.1,0,0.1c0.1,0.1,0,0.2,0,0.4c-0.2,0.1-0.5,0.1-0.8,0.1
		c-0.2,0.1-0.5,0-0.7,0c-0.1-0.1-0.1-0.3-0.1-0.6c0,0,0.1,0,0.1,0C64.4,34.3,64.6,34.3,64.7,34.2"/>
	<path class="st3" d="M63.2,34.3h0.2c0.1,0.1,0.1,0.2,0.1,0.5c-0.5,0.3-1.1,0.2-1.7,0.4c-0.4,0.1-0.9,0-0.9-0.3
		c-0.1-0.1-0.1-0.3,0-0.4H61c0.1-0.1,0.4,0,0.6,0C62,34.5,63,34.5,63.2,34.3"/>
	<path class="st3" d="M58.7,34.4c0.4,0.2,1.1,0,1.5,0c0,0.1,0.1,0.2,0.1,0.4c0,0,0,0.1-0.1,0.1c-0.3,0.3-1.7,0.2-2.2,0.2
		c0-0.2-0.1-0.3-0.1-0.6C58.1,34.5,58.5,34.5,58.7,34.4"/>
	<path class="st3" d="M65,35.8c0.4,0.1,0.5,0.1,0.5,0.6c-0.1,0.1-0.1,0.1-0.3,0.1c-0.1,0.1-0.3,0-0.5,0c-0.1-0.1-0.1-0.2-0.1-0.4
		c0.1-0.1,0.1-0.1,0.2-0.2C64.9,35.8,65,35.8,65,35.8"/>
	<path class="st3" d="M52.8,35.9c0.5,0,1,0,1.1,0.4c0,0,0,0,0,0.1c0,0-0.1,0-0.1,0c-0.2,0.1-0.6,0-0.9,0c-0.4,0.1-0.9,0.2-1.3,0.3
		c-0.1-0.1-0.1-0.3-0.1-0.5c0,0,0,0,0-0.1c0.2-0.1,0.5-0.2,0.8-0.2C52.4,35.9,52.7,36,52.8,35.9"/>
	<path class="st3" d="M62.9,36.6c0-0.2,0-0.4,0-0.5H63c0.2-0.1,1.2-0.2,1.3,0c0,0.1,0,0.1,0,0.2c-0.1,0.1-0.1,0.3-0.4,0.3
		C63.7,36.7,63.2,36.6,62.9,36.6"/>
	<path class="st3" d="M54.8,36c0.5,0,1,0.1,1.5,0.2c0.5,0,1,0,1.5,0v0.1c0.1,0.1,0,0.3,0,0.4c0,0-0.1,0.1-0.1,0.1
		c-0.4,0.3-1.8,0-2.2-0.1c-0.3-0.1-0.6,0-0.7-0.3C54.7,36.2,54.8,36.1,54.8,36"/>
	<path class="st3" d="M61.9,36.1c0.1,0,0.2,0,0.2,0.2c0.1,0.1,0,0.2,0,0.4c-0.7,0.4-2.5,0.4-3.4,0.2c-0.1-0.2-0.1-0.2-0.1-0.5
		c0.4-0.2,1.8,0,2.3-0.1C61.3,36.1,61.7,36.2,61.9,36.1"/>
	<path class="st3" d="M53.4,37.3c1,0,2,0.3,2.8,0.5c0,0.2,0,0.2,0,0.4c-0.1,0.1-0.1,0.1-0.3,0.1c-0.2-0.1-0.5-0.1-0.8-0.1
		c-0.6-0.1-1.6-0.3-2.3-0.2c-0.4,0.1-0.7,0.2-1.2,0.2c0-0.1-0.1-0.1-0.1-0.3c0-0.1,0-0.2,0-0.3c0.3-0.1,0.7-0.2,1.1-0.2
		C53,37.3,53.3,37.4,53.4,37.3"/>
	<path class="st3" d="M64.8,37.4h0.4c0.1,0.2,0.2,0.2,0.2,0.5C65.2,38,65.2,38,65,38c-0.2,0.1-0.6,0-0.9,0.1
		c-0.8,0.2-1.7,0.2-2.6,0.2c-0.1-0.1-0.1-0.2-0.1-0.4c0,0,0,0,0-0.1c0.1,0,0.1-0.1,0.2-0.1c0.3-0.2,0.8,0,1.1-0.1
		C63.3,37.5,64.5,37.6,64.8,37.4"/>
	<path class="st3" d="M59.8,37.8c0.2,0.1,0.5,0,0.7,0c0.1,0.1,0.1,0.2,0.1,0.4c0,0,0,0,0,0.1c-0.8,0.4-2.6,0.3-3.6,0.1
		c-0.1-0.1-0.1-0.1-0.1-0.3c0.1-0.1,0.1-0.1,0.2-0.2c0.5,0,1.6,0.1,2.2,0C59.3,37.8,59.6,37.9,59.8,37.8"/>
	<path class="st3" d="M64.7,38.7c0.3,0,0.7,0,0.9,0.1c0.1,0.1,0.1,0.2,0.1,0.4c-0.4,0.2-1.6,0.4-2.1,0.4c-0.1-0.1-0.3-0.5,0-0.6
		C63.8,38.6,64.3,38.9,64.7,38.7"/>
	<path class="st3" d="M52.8,38.9c0.5,0,1.6-0.1,1.7,0.2c0.1,0.1,0.1,0.3,0,0.4c-0.1,0.1-0.2,0-0.4,0c-0.2-0.1-0.6,0-0.8,0
		c-0.7,0.1-1.3,0.3-2,0.3c-0.1-0.2-0.2-0.3-0.1-0.6C51.4,39.3,52.7,39,52.8,38.9"/>
	<path class="st3" d="M55.3,39c0.6,0,1.2,0.1,1.7,0.2c0.4,0.1,0.7,0,1,0c1,0.2,1.9-0.3,2.7-0.1c0,0,0,0.1,0,0.1c0.1,0.1,0,0.3,0,0.4
		c-0.5,0.3-0.8,0.2-1.6,0.3c-0.7,0.1-2.3,0-3-0.2c-0.6-0.1-1.1,0-1.1-0.7C55.2,39,55.3,39,55.3,39"/>
	<path class="st3" d="M62.2,39c0.3,0,0.5,0,0.6,0.2c0.1,0.1,0,0.3,0,0.4c0,0-0.1,0-0.1,0c-0.2,0.2-1.1,0.2-1.2,0.1h0
		c0-0.2,0-0.3,0-0.5c0.1,0,0.1-0.1,0.2-0.1C61.8,39,62.1,39,62.2,39"/>
	<path class="st3" d="M64.4,40.1c0.3,0.1,1,0,1.4,0c0.1,0.1,0.1,0.2,0.1,0.5c-0.1,0-0.1,0.1-0.1,0.2c-0.6,0.1-1.1,0.2-1.7,0.1v-0.1
		c-0.1-0.1,0-0.5,0-0.6C64.2,40.2,64.3,40.1,64.4,40.1"/>
	<path class="st3" d="M53.6,40.4c0.6,0,2.1-0.1,2.1,0.6c-0.1,0.1-0.1,0.1-0.2,0.1c-0.3,0.2-0.8-0.1-1.2,0c-0.2,0-0.7-0.1-1.1,0
		c-0.5,0.1-1.3,0.4-1.9,0.3c0-0.1-0.1-0.1-0.1-0.2c-0.1-0.1,0-0.2,0-0.4c0.3-0.2,0.9-0.2,1.3-0.3C52.9,40.4,53.4,40.5,53.6,40.4"/>
	<path class="st3" d="M62.7,40.4c0.2,0,0.3,0,0.6,0c0.1,0.2,0.1,0.2,0.1,0.6c-0.1,0-0.1,0.1-0.2,0.1c-0.4,0-0.8,0-1.1,0v-0.4
		c0,0,0.1,0,0.1,0C62.3,40.4,62.6,40.5,62.7,40.4"/>
	<path class="st3" d="M56.8,40.6c1,0.3,2.6,0,3.9,0.1c0.3,0,0.6-0.1,0.9-0.1c0,0,0,0,0,0c0,0.2,0,0.3,0,0.5
		c-0.1,0.1-0.1,0.1-0.4,0.2c-0.3,0.2-0.9,0.1-1.4,0.2c-0.7,0.1-2.6-0.1-3.3-0.2c0-0.1,0-0.3,0-0.5C56.6,40.7,56.7,40.7,56.8,40.6"/>
	<path class="st3" d="M65,41.5c0.3,0,0.6,0.1,0.8,0.2c0,0.1,0,0.3,0,0.4c-0.4,0.2-1,0-1.5,0.2c-1,0.2-2,0.4-3.1,0.4
		c-0.1-0.2-0.2-0.3-0.2-0.6c0.1,0,0.1-0.1,0.3-0.1c0.3-0.2,0.6,0,1-0.1c0.5-0.1,1.2-0.2,1.7-0.3C64.4,41.5,64.8,41.6,65,41.5"/>
	<path class="st3" d="M54,41.9c0.5,0,1,0,1.4,0c0.3,0,0.8,0,1.1,0c0.4,0.1,0.7,0,0.9,0.1c0.1,0.1,0.1,0.3,0.1,0.5c0,0-0.1,0-0.1,0
		c-0.2,0.1-1.4,0.1-1.7,0c-0.3-0.1-0.9,0.1-1.2,0c-0.3,0-1.3,0-1.8,0.1c-0.3,0.1-0.8,0.2-1.1,0.2c-0.1-0.1-0.1-0.3-0.1-0.5
		c0,0,0,0,0-0.1c0.4-0.2,1.1-0.3,1.7-0.4C53.4,42,53.8,42.1,54,41.9"/>
	<path class="st3" d="M59.8,42.1h0.8c0,0.1,0.1,0.1,0.1,0.2c0.1,0.1,0,0.2,0,0.4c-0.5,0.3-1.6,0.3-2.3,0.2c-0.1-0.1-0.1-0.1-0.1-0.3
		c0-0.1,0-0.1,0-0.2c0.1,0,0.1,0,0.2,0C58.8,42,59.5,42.2,59.8,42.1"/>
	<path class="st3" d="M64.9,43.2h0.8c0.1,0.1,0.1,0.1,0.1,0.3c-0.1,0.1-0.1,0.2-0.1,0.4c-0.1,0-0.1,0.1-0.3,0.1
		c-0.3,0.2-0.7-0.1-0.9,0c-0.6,0.1-2.5,0.3-3,0.1c0-0.1,0-0.3,0-0.5c0.1-0.1,0.2-0.1,0.4-0.1c0.4-0.2,1.8-0.2,2.2-0.2
		C64.3,43.2,64.7,43.3,64.9,43.2"/>
	<path class="st3" d="M59.9,43.6c0.3,0,0.6,0,0.8,0.1c0,0.1,0,0.3,0,0.4c0,0,0,0,0,0.1c-0.8,0.3-3.5,0.4-4.2,0.2
		c-0.5-0.1-0.9,0.1-1.1-0.3c-0.1-0.1-0.1-0.3,0-0.4c0.2-0.2,0.8,0,1.2,0c0.9,0,1.8,0.2,2.7,0C59.5,43.6,59.8,43.7,59.9,43.6"/>
	<path class="st3" d="M53.8,43.6c0.2,0,0.5,0,0.9,0c0,0.1,0.1,0.1,0.2,0.1c0,0.2,0.1,0.4,0,0.6c-0.1,0.1-0.5,0-0.7,0
		c-0.3,0.1-0.9,0.1-1.3,0.2c-0.4,0.1-0.9,0.3-1.5,0.3c0,0,0-0.1,0-0.1c-0.1-0.1-0.1-0.4,0-0.6c0.1-0.1,0.1-0.1,0.2-0.1
		c0.2-0.2,1.3-0.2,1.7-0.3C53.4,43.6,53.6,43.7,53.8,43.6"/>
	<path class="st3" d="M63.6,44.7c0.7,0,2.1-0.1,2.2,0.4c0,0.1-0.1,0.2-0.1,0.4c-0.4,0.2-0.9-0.1-1.3,0c-0.7,0-1.5,0-2.1,0.2
		c-0.3,0-0.7,0-1,0c-0.3,0.1-0.8,0.1-1.1,0.1C60,45.6,60,45.4,60,45.1c0,0,0,0,0,0c0.9-0.1,2-0.1,2.8-0.3
		C63.1,44.7,63.4,44.8,63.6,44.7"/>
	<path class="st3" d="M56,45.1c0.2,0.1,0.7,0,0.9,0.1c0.1,0.1,0.1,0.1,0.1,0.2c0,0.1,0,0.3-0.1,0.4C56.4,45.9,56,46,55.3,46
		c0-0.1-0.1-0.1-0.1-0.2c-0.1-0.1,0-0.4,0-0.6c0.1,0,0.1-0.1,0.2-0.1C55.5,45.2,55.9,45.2,56,45.1"/>
	<path class="st3" d="M58.8,45.1c0.4,0.1,0.5,0.3,0.4,0.7h-0.1c-0.2,0.1-1.4,0.1-1.5,0c-0.1-0.2,0-0.3,0-0.5c0,0,0.1,0,0.1,0
		C57.9,45,58.5,45.3,58.8,45.1"/>
	<path class="st3" d="M54,45.2c0.2,0,0.4,0,0.5,0.1c0.1,0.1,0.1,0.2,0.1,0.5c-0.4,0.2-2.6,0.4-3.2,0.3c-0.1-0.1-0.1-0.1-0.1-0.3
		c0-0.1,0-0.1,0-0.2c0.4-0.2,1.1-0.2,1.5-0.3C53.2,45.1,53.8,45.3,54,45.2"/>
	<path class="st3" d="M63,46.1c1.1,0,2,0.1,2.9,0.3c0,0.1,0,0.1,0,0.2c-0.1,0.1-0.1,0.2-0.1,0.3c-0.3,0.1-0.9,0-1.2-0.1
		c-0.3-0.1-0.7,0-0.9,0c-0.3,0.1-0.6,0-0.9,0c-0.1,0-0.5,0.1-0.6,0.1c-0.1,0-0.2-0.1-0.3-0.1v-0.1c0,0,0-0.1,0-0.2
		C62.1,45.9,62.5,46.4,63,46.1"/>
	<path class="st3" d="M58.9,46.3c0.4,0,0.7,0.1,1.1,0.1c0.4-0.1,0.9-0.1,1.3,0v0.1c0.1,0.2,0,0.4-0.1,0.5c-0.3,0.2-0.7,0-1.1,0.1
		c-0.6,0.1-1.4,0-2.1,0c-0.3,0-0.8,0.1-0.9,0c-0.2-0.1-0.1-0.4-0.1-0.6c0.4-0.1,0.9-0.1,1.4-0.1C58.4,46.4,58.8,46.4,58.9,46.3"/>
	<path class="st3" d="M55.3,46.5c0.2,0,0.5,0.1,0.7,0.1c0,0.1,0,0.1,0.1,0.2c0.1,0.1,0,0.2,0,0.4c0,0-0.1,0-0.1,0
		c-0.3,0.2-0.5,0-0.9,0.1c-0.4,0.1-0.9,0-1.4,0.1c-0.6,0.1-1.4,0.2-2,0.2c0,0,0-0.1,0-0.1c-0.1-0.1-0.1-0.2-0.1-0.4
		c0.1-0.1,0.1-0.1,0.3-0.1c0.4-0.2,1.9-0.2,2.4-0.3C54.6,46.4,55.1,46.6,55.3,46.5"/>
	<path class="st3" d="M62,47.6c0.5,0,0.9,0,1.2,0c0.2,0,0.5,0.1,0.7,0.1c0.2,0.3,0.2,0.8-0.4,0.8c-0.5-0.3-1.6,0-2.1-0.1
		c-0.2,0-0.5,0.1-0.6-0.1c-0.1-0.2,0-0.4,0.1-0.6C61.2,47.6,61.8,47.7,62,47.6"/>
	<path class="st3" d="M56.7,47.8c0.2,0,0.3,0,0.5,0c0.1,0.2,0.2,0.2,0.2,0.6c0,0-0.1,0.1-0.1,0.2c-0.2,0.1-0.8,0.1-1.1,0.1
		c-0.1,0-0.2,0-0.3,0c-0.3,0.1-0.6,0.1-1,0.1h-0.8c-0.7,0.2-1.8,0.4-2.5,0.2c0-0.1-0.1-0.2-0.1-0.3c0.1-0.1,0.1-0.3,0.2-0.4
		c0.2-0.2,0.7-0.1,1.1-0.1c0.7-0.1,2.1-0.1,2.9-0.2C56,47.8,56.5,47.9,56.7,47.8"/>
	<path class="st3" d="M59.3,47.8h1c0.1,0.1,0.1,0.2,0.1,0.4c0,0.1-0.1,0.1-0.1,0.2c-0.1,0-0.2,0.1-0.2,0.2c-0.6-0.1-1.3,0.1-1.9,0
		c-0.1-0.2,0-0.3,0-0.6c0.1,0,0.2-0.1,0.4-0.1C58.8,47.8,59.2,47.9,59.3,47.8"/>
	<path class="st3" d="M56.2,49.3c0.4,0,0.7,0,1.3,0c0.1,0.2,0.1,0.3,0.1,0.6c-0.1,0-0.1,0-0.2,0.1c-0.2,0.2-0.6,0-1,0.1
		c-0.5,0.1-1,0.1-1.5,0c-0.1-0.1-0.1-0.2-0.1-0.4c0.1-0.1,0-0.2,0.2-0.3C55.3,49.2,55.9,49.5,56.2,49.3"/>
	<path class="st3" d="M60.2,49.3c0.8,0,1.7,0.1,2.5,0.3c0,0.1,0,0.2,0,0.4c-0.1,0.1-0.2,0.3-0.4,0.3c-0.3,0.1-1.2,0-1.5-0.1
		c-0.4-0.1-0.9,0-1.3,0c-0.4-0.1-1,0.2-1.1-0.2c-0.1-0.1,0-0.4,0-0.5h0.1C58.9,49.1,59.8,49.5,60.2,49.3"/>
	<path class="st3" d="M53.4,49.3c0.3,0,0.7,0,0.9,0.1c0.1,0.1,0.1,0.3,0,0.6c-0.4,0.3-1.9,0.5-2.6,0.4v-0.1c-0.1-0.1,0-0.5,0-0.6
		c0,0,0.1,0,0.1,0C52.3,49.3,53.1,49.6,53.4,49.3"/>
	<path class="st3" d="M55.6,50.7c0.1,0,0.3,0.1,0.4,0.1c0.1,0.2,0,0.3,0,0.6c0,0-0.1,0-0.1,0c-0.3,0.2-0.9,0.1-1.3,0.2
		c-0.3,0.1-0.6,0-0.9,0.1C53,51.8,52.3,52,51.6,52c0-0.1-0.1-0.1-0.1-0.2v-0.6c0.8-0.4,2-0.3,2.8-0.5C54.7,50.7,55.3,50.9,55.6,50.7
		"/>
	<path class="st3" d="M57.2,50.8c0.4,0.1,1,0.1,1.5,0.2c0.1,0.6-0.3,0.7-1,0.6c-0.1,0.1-0.5,0-0.7,0c-0.1-0.1-0.2-0.4-0.2-0.6
		c0-0.1,0-0.1,0.1-0.1C56.9,50.8,57.1,50.8,57.2,50.8"/>
	<path class="st3" d="M59.7,50.9c0.8,0,1.5,0.1,2.1,0.3c0,0.1,0,0.3,0,0.5c-0.1,0.2-0.1,0.2-0.4,0.2c-0.1-0.1-0.3,0-0.4,0
		c-0.4-0.1-1.1-0.1-1.5-0.2c0-0.1-0.1-0.1-0.1-0.3C59.6,51.2,59.6,51.1,59.7,50.9"/>
	<path class="st3" d="M55.4,52.4c0.3,0,0.5,0,0.7,0.1c0.2,0.3,0,0.7-0.5,0.7c-0.3,0.1-0.8-0.1-1.1,0c-0.5,0.1-1.2,0.1-1.8,0.2
		c-0.4,0.1-0.9,0.3-1.3,0.2c-0.1-0.2-0.1-0.5,0-0.8h0.1c0.5-0.3,2.3-0.3,2.9-0.4C54.7,52.4,55.2,52.5,55.4,52.4"/>
	<path class="st3" d="M56.9,52.5c1,0.2,2,0,2.8,0.2h0.7c0.4,0.1,0.8,0.2,1.2,0.2c0,0.1,0.1,0.1,0.1,0.2c0.1,0.1,0,0.3,0,0.4
		c-0.1,0.1-0.1,0.1-0.2,0.1c-0.1,0.1-0.7-0.1-1-0.1c-0.8-0.2-1.7-0.1-2.5-0.2c-0.5,0-1.2,0.1-1.3-0.2c-0.1-0.1,0-0.4,0-0.5
		C56.8,52.5,56.9,52.5,56.9,52.5"/>
	<path class="st3" d="M55,54c0.6,0,1.5,0,2.1,0.2c0.3,0.1,0.5,0,0.6,0.2c0.1,0.1,0,0.3-0.1,0.4c-0.7,0.3-1.4-0.1-2.2,0.1
		c-0.5,0.1-1.2,0-1.8,0.1c-0.6,0.1-1.3,0.3-1.9,0.3c0,0,0-0.1,0-0.1c-0.1-0.1,0-0.4,0-0.6c0.6-0.3,1.6-0.3,2.4-0.5
		C54.4,54,54.7,54.2,55,54"/>
	<path class="st3" d="M58.3,54.2c0.3,0,1.1,0.1,1.2,0.3c0.1,0.2,0,0.4-0.1,0.6C59,55.2,58.6,55,58.2,55c0-0.1-0.1-0.2-0.1-0.4
		c0-0.1,0.1-0.2,0.1-0.3C58.3,54.3,58.3,54.3,58.3,54.2"/>
	<path class="st3" d="M60.4,54.5c0.4,0.1,0.9,0.1,1.3,0.2c0.1,0.2,0.2,0.2,0.2,0.6c-0.1,0.1-0.1,0.1-0.2,0.1
		c-0.2,0.2-1.3-0.1-1.5-0.2c0-0.1-0.1-0.1-0.1-0.3c0-0.1,0.1-0.2,0.1-0.3C60.3,54.6,60.3,54.6,60.4,54.5"/>
	<path class="st3" d="M54,55.8c0.6,0,1.2,0.1,1.7,0.1c0.1,0.1,0.1,0.1,0.1,0.4c0,0,0,0.1,0,0.2c-0.1,0.1-0.1,0.1-0.2,0.1
		c-0.3,0.2-0.8,0-1.2,0c-0.2,0-0.7,0-1,0.1c-0.5,0.1-1.5,0.3-2,0.3c-0.1-0.1-0.1-0.4-0.1-0.6c0,0,0,0,0-0.1c0.4-0.2,1-0.2,1.5-0.4
		C53.3,55.8,53.7,55.9,54,55.8"/>
	<path class="st3" d="M56.6,55.9c0.4,0,0.7,0.1,1,0.2c0,0.1,0,0.2,0,0.3c-0.1,0.1-0.1,0.2-0.1,0.3c-0.1,0-0.1,0.1-0.2,0.1
		c-0.4,0-0.7-0.1-0.9-0.2c0-0.1,0-0.2,0-0.4c0,0,0-0.1,0-0.2C56.4,56,56.5,55.9,56.6,55.9"/>
	<path class="st3" d="M58.1,56.2c0.4,0,1,0,1,0.4c0.1,0.2-0.2,0.4-0.4,0.4c-0.1-0.1-0.5-0.1-0.8-0.2c0-0.1,0-0.2,0-0.4
		C58,56.4,58,56.2,58.1,56.2"/>
	<path class="st3" d="M55.3,57.4c0.5,0,1.1-0.1,1.1,0.3c-0.1,0.2-0.1,0.4-0.3,0.5c-0.2,0.1-0.8,0-1,0C55,58.1,55,58,55,57.8
		c0.1-0.1,0.1-0.3,0.2-0.4C55.2,57.4,55.3,57.4,55.3,57.4"/>
	<path class="st3" d="M56.9,57.4c0.9,0,1.8,0.2,2.5,0.4c0.2,0.1,0.6,0.1,0.7,0.3c0.1,0.1,0,0.4,0,0.5c0,0-0.1,0-0.1,0
		c-0.3,0.2-0.7-0.1-1-0.1c-0.6-0.1-1.4-0.3-2.2-0.4c-0.1-0.1-0.1-0.2-0.1-0.4C56.8,57.7,56.8,57.5,56.9,57.4"/>
	<path class="st3" d="M53.8,57.4c0.3,0,0.5,0,0.8,0.1c0.1,0.1,0.1,0.2,0.1,0.4c0,0,0,0.1,0,0.2c-0.1,0.1-0.1,0.1-0.3,0.1
		c-0.9,0.1-1.8,0.2-2.8,0.3c0-0.1-0.1-0.1-0.2-0.2c0-0.9,1.2-0.6,2-0.8C53.5,57.4,53.7,57.5,53.8,57.4"/>
	<path class="st3" d="M61,58.1c0.4,0.1,0.9,0.2,1.4,0.2c0,0.1,0.1,0.1,0.1,0.2c0,0.2,0,0.3-0.1,0.5c-0.5,0.2-1.1,0-1.6-0.1
		c0-0.1-0.1-0.2-0.1-0.4c0-0.1,0.1-0.2,0.1-0.2C60.9,58.1,61,58.1,61,58.1"/>
	<path class="st3" d="M53.7,59.1c0.4,0,0.9-0.1,1,0.3c-0.1,0.1-0.1,0.2-0.1,0.3c-0.1,0.1-0.1,0.1-0.2,0.1c-0.2,0.1-0.5,0-0.7,0.1
		c-0.3,0.1-2,0.2-2.2,0.1c-0.1-0.1-0.1-0.3,0-0.5c0,0,0.1,0,0.1,0C52,59.1,53.3,59.4,53.7,59.1"/>
	<path class="st3" d="M53.2,60.5c0.4,0,0.7,0,1,0.1v0.3c0,0.1-0.1,0.2-0.1,0.4c-0.7,0.2-1.8,0.4-2.6,0.2c0-0.1,0-0.1,0-0.2
		c0-0.1,0-0.2,0-0.3c0.1-0.1,0.1-0.1,0.2-0.2C52,60.5,52.8,60.8,53.2,60.5"/>
	<path class="st3" d="M52.9,61.9c0.2,0,0.6-0.1,0.8,0c0.1,0,0.1,0.1,0.2,0.2c0.1,0.1,0,0.3-0.1,0.4c-0.1,0.1-0.3,0-0.5,0.1
		c-0.6,0.1-1.4,0.3-1.9,0.2v-0.1c-0.1-0.2,0-0.5,0.2-0.6C51.9,61.9,52.6,62.1,52.9,61.9"/>
	<path class="st3" d="M41.7,28.5c0.3,0,0.6,0,0.7,0.2c0.1,0.1,0.1,0.2,0,0.4c-0.1,0.1-0.2,0.1-0.4,0.1c-0.2,0.1-0.7,0-0.9,0
		C41,29.1,41,29.1,41,29c-0.2-0.2,0-0.5,0.3-0.5C41.3,28.5,41.6,28.5,41.7,28.5"/>
	<path class="st3" d="M43.5,28.5c0.2,0,1,0.2,1.1,0.3v0.4c0,0-0.1,0.1-0.1,0.2c-0.1,0-0.1,0-0.2,0c-0.2-0.1-0.9-0.1-1.1-0.2
		c0-0.1,0-0.3,0-0.4c0.1,0,0.1-0.1,0.2-0.1C43.2,28.6,43.4,28.5,43.5,28.5"/>
	<path class="st3" d="M39.6,28.6h0.6c0.1,0.1,0.1,0.1,0.1,0.2c0.1,0.1,0,0.2,0,0.4c0,0-0.1,0-0.1,0c-0.2,0.1-1.3,0.2-1.7,0.2
		c0-0.1-0.1-0.2-0.1-0.4c0-0.1,0.1-0.1,0.1-0.2c0.1-0.1,0.1-0.1,0.3-0.1C39.1,28.6,39.5,28.7,39.6,28.6"/>
	<path class="st3" d="M45,28.9c1,0.1,1.9,0.6,2.6,1c0.3,0.2,0.8,0.3,1,0.6c0.2,0.2,0.1,0.7-0.2,0.7c-0.3-0.4-1.9-1-2.5-1.3
		c-0.3-0.1-0.9-0.1-1.1-0.5c-0.1-0.1,0-0.3,0-0.4C45,29,45,29,45,28.9"/>
	<path class="st3" d="M39.5,30c0.2,0,0.4,0,0.6,0c0,0.1,0,0.1,0.1,0.2c0.1,0.1,0,0.3,0,0.4c-0.2,0.1-0.5,0-0.7,0
		c-0.1,0.1-0.3,0-0.6,0c-0.1-0.1-0.1-0.2-0.1-0.4c0.1-0.1,0.1-0.1,0.1-0.2C39,30.1,39.4,30,39.5,30"/>
	<path class="st3" d="M41.1,30c0.5,0,2,0.1,2.1,0.4c0.1,0.1,0,0.3,0,0.4c-0.3,0.1-1.9-0.1-2.3-0.2c0-0.1,0-0.3,0-0.4
		C41,30.1,41.1,30,41.1,30"/>
	<path class="st3" d="M43.9,30.4c0.5,0,1.8,0.4,1.9,0.7c0.1,0.1,0,0.3,0,0.4c-0.1,0-0.2,0-0.3,0c-0.3-0.2-1.2-0.4-1.6-0.5
		c0-0.1-0.1-0.1-0.1-0.2C43.8,30.7,43.8,30.5,43.9,30.4"/>
	<path class="st3" d="M46.7,31.3c0.5,0,1.8,0.8,1.9,1.2c0.1,0.1,0.1,0.3-0.1,0.4c0,0,0,0-0.2,0c-0.1-0.2-0.8-0.6-1.1-0.7
		C47,32,46.7,32,46.6,31.8C46.5,31.7,46.6,31.4,46.7,31.3"/>
	<path class="st3" d="M39.4,31.9c0.3,0,1-0.1,1.2,0.1c0.1,0.1,0.1,0.4,0.1,0.6h-0.1c-0.1,0.1-0.5,0-0.7,0c-0.6,0-1,0.2-1-0.5
		c0.1-0.1,0.1-0.1,0.2-0.1C39.1,31.9,39.3,32,39.4,31.9"/>
	<path class="st3" d="M41.5,32c0.3,0.1,0.6,0,0.9,0.1c0.2,0.1,0.5,0.1,0.7,0.2c0.1,0.1,0.1,0.2,0.1,0.4c0.1,0.1,0,0.2,0,0.3
		c-0.1,0-0.3,0-0.5,0c-0.5-0.1-0.9-0.2-1.4-0.2v-0.1c-0.1-0.1-0.2-0.5,0-0.6C41.4,32,41.5,32,41.5,32"/>
	<path class="st3" d="M43.7,32.3c0.4,0,0.9,0.1,1.3,0.2c0.1,0.2,0.1,0.3,0.1,0.6c-0.1,0.1-0.2,0.1-0.4,0.1c-0.2-0.1-0.7-0.2-0.9-0.2
		c0-0.1-0.1-0.1-0.1-0.2C43.6,32.7,43.6,32.4,43.7,32.3"/>
	<path class="st3" d="M45.7,32.7c0.9,0.1,1.6,0.6,2.2,1c0.4,0.2,0.8,0.3,0.8,0.9c-0.1,0.1-0.1,0.1-0.4,0.1c-0.1-0.1-0.2-0.1-0.4-0.2
		c-0.5-0.3-1.1-0.6-1.6-0.9c-0.5-0.2-1-0.1-0.9-0.9C45.6,32.8,45.7,32.7,45.7,32.7"/>
	<path class="st3" d="M40.1,33.7c0.4,0.1,0.5,0.1,0.4,0.6c-0.1,0-0.1,0.1-0.2,0.2c-0.7,0-1.3,0.1-1.8,0c0,0,0,0,0,0
		c0-0.2,0-0.4,0-0.6c0,0,0.1,0,0.1,0C39,33.6,39.8,33.9,40.1,33.7"/>
	<path class="st3" d="M41.5,33.9c0.9,0,1.9,0.2,2.6,0.5c0.3,0.1,0.8,0.1,0.9,0.4c0.1,0.1,0.1,0.2,0.1,0.4c-0.1,0-0.1,0-0.2,0.1
		c-0.2,0.1-0.6-0.1-0.8-0.2c-0.6-0.2-1.3-0.2-1.9-0.4c-0.3-0.1-0.6,0-0.8-0.2C41.3,34.4,41.4,34.2,41.5,33.9
		C41.5,34,41.5,34,41.5,33.9"/>
	<path class="st3" d="M45.7,34.8c0.7,0,1.4,0.4,1.9,0.6c0.2,0.1,0.5,0.2,0.6,0.4c0.1,0.1,0.1,0.4,0,0.6c0,0-0.1,0-0.1,0.1
		c-0.8-0.3-1.6-0.8-2.4-1C45.7,35.3,45.6,35.1,45.7,34.8"/>
	<path class="st3" d="M39.9,35.4c0.2,0.1,0.6,0,0.8,0c0.6,0,1.2,0.2,1.7,0.2c0,0.1,0.1,0.1,0.2,0.2c0,0.2,0,0.2,0,0.5h-0.1
		c-0.1,0.1-0.5,0.1-0.8,0c-0.6-0.2-1.4-0.1-2.1-0.3c-0.1-0.1-0.1-0.3-0.1-0.6C39.6,35.5,39.8,35.5,39.9,35.4"/>
	<path class="st3" d="M37.8,35.6c0.3,0.1,0.7,0,0.9,0.1c0,0.2,0,0.4,0,0.6h-0.1c-0.1,0.1-0.3,0.1-0.5,0.1c-0.3,0-2,0.1-2.2,0
		c-0.1-0.1-0.1-0.3-0.1-0.5c0.1-0.1,0.1-0.1,0.4-0.1C36.6,35.4,37.4,35.8,37.8,35.6"/>
	<path class="st3" d="M33.6,35.8c0.4,0,1.3-0.1,1.5,0.1c0.1,0.1,0.1,0.3,0,0.4c-0.2,0.1-2,0.3-2.2,0.1h0c0-0.2,0-0.3,0-0.6h0.1
		C33.1,35.8,33.3,36,33.6,35.8"/>
	<path class="st3" d="M43.4,36c0.5,0,1.7,0.3,1.9,0.6V37c0,0,0,0,0,0.1c-0.3,0.1-1.4-0.3-1.8-0.4C43.4,36.5,43.3,36.3,43.4,36
		C43.4,36,43.4,36.1,43.4,36"/>
	<path class="st3" d="M46,36.8c0.6,0,1.5,0.5,1.9,0.7c0.3,0.2,0.6,0.2,0.6,0.6c0,0.1-0.1,0.1-0.1,0.2c-0.1,0-0.1,0-0.2,0
		c-0.3-0.3-0.9-0.3-1.3-0.6c-0.1,0-0.1-0.1-0.2-0.2c-0.2-0.1-0.6-0.1-0.7-0.4C45.9,37.2,46,36.9,46,36.8"/>
	<path class="st3" d="M37.1,37.2c0.8,0.1,2.4-0.2,3.1,0.2c0,0.2,0,0.3,0,0.5C40,38,39.8,38,39.4,38c0,0-0.3,0-0.5,0
		c-0.8-0.2-2.2,0.1-3.2,0.1c0-0.1-0.1-0.1-0.1-0.2c0-0.2,0-0.4,0-0.5c0.1-0.1,0.4,0,0.6,0C36.4,37.3,36.9,37.3,37.1,37.2"/>
	<path class="st3" d="M41.2,37.3c1.1,0,2.4,0.4,3.4,0.7c0.4,0.1,1.1,0.2,1.3,0.5c0.1,0.1,0.1,0.3,0,0.5c-0.1,0-0.2,0-0.3,0
		c-0.3-0.2-0.8-0.2-1.3-0.4c-1-0.3-2.1-0.5-3.2-0.7c-0.1-0.2-0.1-0.3-0.1-0.6C41.1,37.4,41.1,37.4,41.2,37.3"/>
	<path class="st3" d="M34.4,37.4c0.1,0,0.2,0,0.4,0.1c0.1,0.1,0.1,0.3,0.1,0.6c-0.2,0.1-0.4,0.1-0.6,0.1c-0.3,0.2-1.5,0.2-1.8,0.1
		c0-0.1-0.1-0.2-0.1-0.3c0-0.1,0.1-0.2,0.1-0.2c0.3-0.1,0.7-0.1,1-0.2C33.7,37.4,34.2,37.6,34.4,37.4"/>
	<path class="st3" d="M46.6,38.6c0.5,0.1,1,0.4,1.5,0.5c0.3,0.1,0.6,0.2,0.7,0.4c0.1,0.2,0.1,0.4,0,0.6h-0.2
		c-0.3-0.3-1.1-0.6-1.5-0.8c-0.2-0.1-0.4,0-0.5-0.2C46.3,39,46.5,38.8,46.6,38.6"/>
	<path class="st3" d="M37.5,38.9h0.8c0.2,0.2,0.2,0.4,0.1,0.7h-0.1c-0.2,0.2-0.6,0-1,0.1c-0.2,0-0.4-0.1-0.6,0c-0.2,0.1-0.6,0-1,0
		c-0.1-0.2-0.1-0.3-0.1-0.6c0,0,0.1,0,0.1,0C35.9,38.9,37.1,39.1,37.5,38.9"/>
	<path class="st3" d="M39.3,39c1,0,2.3,0.1,3.2,0.4c0.4,0.1,1,0.1,1.2,0.4c0.1,0.1,0.1,0.4,0,0.6c-0.1,0-0.1,0.1-0.2,0.1
		c-0.3-0.3-0.9-0.2-1.3-0.4c-0.5-0.2-1.3-0.3-1.9-0.4c-0.3,0-0.8,0-1.1-0.1v-0.1c-0.1-0.2,0-0.3,0-0.5C39.2,39,39.2,39,39.3,39"/>
	<path class="st3" d="M33.4,39.1c0.5,0,1,0,1.3,0.1v0.2c0,0.1,0,0.2,0,0.3c-0.4,0.2-1.4,0.2-2.1,0.2c-0.1-0.1-0.1-0.3-0.1-0.6
		c0.1,0,0.1-0.1,0.2-0.1C32.9,39.2,33.3,39.1,33.4,39.1"/>
	<path class="st3" d="M48.7,42c-0.5,0-0.9-0.3-1.3-0.5c-0.5-0.2-1.1-0.5-1.6-0.7c-0.3-0.1-1.1-0.2-1.3-0.4c-0.1-0.1-0.1-0.4-0.1-0.6
		c0.2-0.1,0.6-0.1,0.9,0c0.8,0.3,1.7,0.6,2.4,0.9c0.3,0.1,0.8,0.2,0.9,0.5C48.8,41.5,48.7,41.8,48.7,42"/>
	<path class="st3" d="M38.8,40.5c0.3,0.1,0.8,0,1.2,0.2c0,0.1,0,0.1,0.1,0.1c0,0.2,0,0.3,0,0.5H40c-0.4,0.2-1.6-0.1-2.1,0
		c-1.7,0.2-3.5,0.2-5.1,0c-0.1-0.1-0.1-0.2-0.1-0.5c0,0,0-0.1,0-0.2c0.1-0.1,0.3-0.1,0.6-0.1c0.3,0.1,0.7,0,1.1,0.1
		c0.7,0.1,1.7,0,2.6,0C37.4,40.6,38.6,40.7,38.8,40.5"/>
	<path class="st3" d="M41,40.7c1.3,0,2.5,0.2,3.5,0.6c0.1,0.1,0.1,0.1,0.1,0.3c0,0.1-0.1,0.2-0.1,0.3c-0.1,0-0.3,0-0.4,0
		c-0.4-0.3-1.6-0.4-2.2-0.5C41.4,41.3,40.7,41.6,41,40.7"/>
	<path class="st3" d="M45.4,41.6c0.9,0,1.6,0.4,2.3,0.7c0.3,0.1,0.8,0.2,0.9,0.5c0.2,0.3-0.1,0.5-0.4,0.5c-0.1-0.1-0.2,0-0.4-0.1
		c-0.5-0.3-1.2-0.5-1.8-0.7c-0.3-0.1-0.6-0.1-0.7-0.4C45.2,41.9,45.3,41.7,45.4,41.6"/>
	<path class="st3" d="M37.5,41.9c0.5,0,0.9,0.1,1.4,0.1c0,0.1,0.1,0.1,0.1,0.2c0.1,0.1,0,0.2,0,0.4c-0.1,0-0.1,0.1-0.3,0.1
		c-0.3,0.1-1.7,0-2.1,0.1c-0.2,0-0.8,0-0.9,0c-0.2-0.1-0.2-0.3-0.2-0.6c0.1,0,0.1-0.1,0.2-0.1C36.2,41.9,37.1,42.2,37.5,41.9"/>
	<path class="st3" d="M39.7,42c0.2,0,0.4,0,0.7,0c0.6,0.1,1.7,0.1,2.4,0.4c0.4,0.1,0.9,0.1,0.9,0.6c0,0.1,0,0.2-0.2,0.3
		c-0.2-0.1-0.4-0.1-0.6-0.1c-0.6-0.2-1.3-0.2-1.9-0.4c-0.4-0.1-1,0.1-1.3-0.1c-0.1-0.1-0.1-0.2-0.1-0.3C39.6,42.3,39.6,42.2,39.7,42
		C39.7,42,39.7,42.1,39.7,42"/>
	<path class="st3" d="M32.8,42.1c0.8,0,1.6,0,2.2,0.2c0,0.3,0.1,0.3,0,0.6h-0.1c-0.4,0.2-2.1,0-2.2-0.2
		C32.6,42.4,32.7,42.2,32.8,42.1"/>
	<path class="st3" d="M44.5,42.9c0.4,0,0.6,0.1,0.8,0.2c0.8,0.2,1.5,0.5,2.2,0.7c0.4,0.1,0.9,0.2,1,0.5c0.1,0.1,0,0.4,0,0.5
		c-0.4,0.2-0.8-0.2-1.1-0.3c-0.9-0.4-1.9-0.7-2.9-0.9c-0.1-0.1-0.2-0.2-0.2-0.5C44.4,43,44.5,42.9,44.5,42.9"/>
	<path class="st3" d="M38,43.5c0.7,0,1.1,0,1.6,0.2v0.2c0.1,0.1,0,0.2,0,0.3c-0.2,0.1-0.5,0.1-0.8,0.1c-0.4-0.1-1.4,0.1-1.9,0.1
		c-0.5,0-0.9,0-1.3,0.1c-0.4,0.1-0.7-0.1-1.2,0c-0.2,0.1-0.8,0.1-1.1,0c-0.3-0.1-0.6-0.1-0.8-0.2c0-0.1-0.1-0.1-0.1-0.2
		c0-0.2,0-0.4,0.1-0.5v0c0.3,0,0.5,0,0.8,0.1c0.1,0,0.2,0,0.3,0c0.2,0,0.6,0.1,0.7,0.1c0.1,0,0.2,0,0.4,0c0.5,0,1.2,0,1.6-0.1
		C36.7,43.5,37.8,43.6,38,43.5"/>
	<path class="st3" d="M40.6,43.6c1.3,0,3.1,0.4,4.1,0.8c0.3,0.1,0.8,0.1,0.9,0.4c0,0.1,0,0.2,0,0.4c-0.1,0.1-0.1,0.1-0.3,0.1
		c-0.3-0.2-0.8-0.2-1.1-0.3c-0.8-0.3-1.7-0.4-2.6-0.6c-0.5-0.1-1.3,0.2-1.3-0.5c0-0.1,0-0.2,0-0.3C40.4,43.6,40.6,43.6,40.6,43.6"/>
	<path class="st3" d="M46.1,44.8c0.7,0,1.5,0.3,2,0.6c0.1,0.1,0.4,0.1,0.4,0.2v0.5c0,0,0,0,0,0.1c-0.1,0.1-0.1,0.1-0.3,0.1
		c-0.4-0.4-2-0.6-2.2-1.1C45.9,45.1,46,44.9,46.1,44.8"/>
	<path class="st3" d="M38.5,44.9c0.8,0.1,3.1-0.2,3.6,0.4c0.1,0.1,0.1,0.4,0,0.6h-0.2c-0.2-0.2-0.6-0.1-1-0.2
		c-0.8-0.2-1.7-0.1-2.7-0.1c-0.4,0-1.1,0.2-1.3,0c0,0,0,0,0-0.1c-0.1-0.1,0-0.4,0-0.5c0,0,0.1,0,0.1,0
		C37.3,44.8,38.1,45.2,38.5,44.9"/>
	<path class="st3" d="M32.4,45c0.3,0,0.5,0.2,0.8,0.2c1,0,1.8,0,2.9,0c0.1,0.1,0.1,0.1,0.1,0.3c0.2,0.2-0.1,0.4-0.4,0.4
		c-0.3,0.2-0.5-0.1-0.9,0c-0.8,0.2-2.1,0-2.5-0.4C32.2,45.3,32.3,45.2,32.4,45C32.4,45,32.3,45,32.4,45"/>
	<path class="st3" d="M42.9,45.4c0.4,0.1,0.9,0.2,1.2,0.3c0.2,0,0.3,0,0.5,0c0.8,0.3,1.6,0.5,2.4,0.8c0.3,0.1,1.2,0.3,1.4,0.6
		c0.1,0.1,0.1,0.2,0.1,0.4c-0.1,0.1-0.2,0.1-0.4,0.1c-0.3-0.3-0.8-0.3-1.2-0.4c-0.9-0.4-1.8-0.6-2.8-0.9c-0.5-0.2-1.4,0-1.5-0.6
		c0,0,0.1-0.2,0.1-0.3c0,0,0,0,0,0C42.9,45.4,42.9,45.5,42.9,45.4"/>
	<path class="st3" d="M37.7,46.3c0.2,0,0.5,0,0.8,0c0.1,0.1,0.1,0.1,0.2,0.2c0.1,0.1,0,0.3,0,0.5c-0.1,0-0.1,0.1-0.2,0.1
		c-0.8,0-1.6,0-2.4,0.2c-0.1,0-0.4,0-0.4,0c-0.1,0-0.2,0.1-0.3,0.1c-0.4,0.1-1.4,0.1-1.8,0c-0.4-0.1-1.1,0-1.3-0.3
		c0-0.1,0-0.2,0-0.4c0.4-0.2,0.8,0.1,1.2,0c0.3-0.1,0.8,0.1,1.2,0c0.2,0,0.5,0,0.7,0c0.5-0.1,1-0.2,1.4-0.3c0.1,0,0.2,0,0.2,0
		C37.1,46.4,37.6,46.4,37.7,46.3"/>
	<path class="st3" d="M39.4,46.5c1.1,0,2.1,0.2,3,0.4c0.5,0.1,1.3,0.1,1.5,0.5c0.1,0.1,0,0.4,0,0.5h-0.1c-0.2,0.1-0.9-0.1-1.1-0.2
		c-0.6-0.2-1.3-0.4-1.9-0.4c-0.3,0-1,0-1.4-0.1c-0.1-0.1-0.1-0.3-0.1-0.6C39.3,46.5,39.3,46.5,39.4,46.5"/>
	<path class="st3" d="M44.6,47.5c0.6,0,0.9,0.2,1.3,0.4c0.2,0.1,0.4,0,0.6,0.1c0.3,0.1,0.7,0.2,1,0.4c0.3,0.1,0.8,0.2,0.9,0.6
		c0.1,0.1,0,0.3,0,0.5c-0.1,0-0.2,0-0.3,0c-0.2-0.2-0.4-0.2-0.7-0.3c-0.5-0.2-1.1-0.4-1.5-0.6c-0.4-0.2-1.1-0.2-1.3-0.5
		C44.4,47.9,44.6,47.6,44.6,47.5"/>
	<path class="st3" d="M38.7,47.9c0.4,0,0.8,0.1,1.2,0.1c0.1,0.1,0.1,0.1,0.1,0.2c-0.1,0.1-0.1,0.3-0.1,0.4c-0.3,0.2-0.4,0-0.8,0.1
		c-0.4,0.1-1,0-1.3,0c-0.2,0-0.5,0.1-0.8,0.1c-0.3,0-0.9,0.1-1.1,0c-0.1-0.1-0.1-0.3,0-0.5c0.1-0.1,0.2-0.1,0.5-0.1
		C36.5,48,37.6,48,38,48C38.2,47.9,38.5,48,38.7,47.9"/>
	<path class="st3" d="M32.5,48c0.4,0,0.6,0.1,0.9,0.2c0.6,0,1.1,0.1,1.7,0.1c0,0.2,0.1,0.3,0.1,0.6c0,0,0,0,0,0.1
		c-0.5,0.2-2.5,0.1-2.7-0.2c-0.1-0.1,0-0.4,0-0.6C32.4,48,32.4,48,32.5,48"/>
	<path class="st3" d="M40.8,48c0.8,0,1.4,0.2,2,0.4c0.5,0.2,1,0.2,1.4,0.4c0.3,0.1,0.8,0.2,0.9,0.4c0.1,0.1,0.1,0.3,0.1,0.5
		c-0.1,0.1-0.1,0.1-0.3,0.1c-0.3-0.2-0.8-0.2-1.2-0.3c-0.5-0.2-1.1-0.4-1.7-0.5c-0.5-0.1-0.9-0.1-1.4-0.2c0,0,0-0.1,0-0.1
		c-0.1-0.2,0-0.6,0.2-0.6C40.7,48,40.7,48,40.8,48"/>
	<path class="st3" d="M45.8,49.4c0.8,0,1.4,0.4,2,0.6c0.2,0.1,0.5,0.1,0.6,0.3c0.1,0.1,0,0.4,0,0.6c-0.1,0.1-0.1,0.1-0.3,0.1
		c-0.3-0.2-0.7-0.2-1-0.4c-0.4-0.2-0.8-0.3-1.3-0.5C45.7,49.9,45.7,49.7,45.8,49.4"/>
	<path class="st3" d="M32.4,49.5c0.6,0,1.1,0.2,1.6,0.2c0.1,0,0.2,0,0.4,0c0.7,0,1.3,0,1.9-0.2c0.3,0,0.6,0,0.9,0
		c0.1,0.2,0.2,0.6-0.1,0.7c-0.2,0.2-0.6,0.1-0.9,0.1c-0.3,0.1-0.8,0-1.1,0c-0.5,0.1-1.3,0.1-1.7,0c-0.4-0.1-0.8,0-0.9-0.3
		C32.2,49.9,32.3,49.6,32.4,49.5"/>
	<path class="st3" d="M38.9,49.6c0.8,0,1.7,0,2.4,0.2c0.6,0.2,1.3-0.1,1.3,0.7c-0.2,0.1-0.2,0.2-0.5,0.2c-0.4-0.2-2.3-0.3-2.7-0.2
		c-0.4,0-1.2,0.1-1.4-0.2c-0.1-0.1,0-0.4,0-0.6c0.1,0,0.1-0.1,0.3-0.1C38.4,49.6,38.8,49.7,38.9,49.6"/>
	<path class="st3" d="M43.3,50.2c0.4,0,0.7,0.1,1,0.2c1,0.3,1.8,0.6,2.6,1c0.6,0.2,1.2,0.1,1.2,0.9c0,0,0,0,0,0.1
		c-0.1,0-0.2,0-0.3,0c-0.2-0.2-0.6-0.2-0.9-0.3c-1.1-0.4-2.3-0.9-3.6-1.2C43.3,50.7,43.2,50.4,43.3,50.2"/>
	<path class="st3" d="M32.6,51.1c0.5,0,1.6,0.1,2.1,0.2v0.1c0.1,0.2,0,0.5-0.2,0.6c-0.1,0.1-0.5,0-0.7,0c-0.4,0-1.3,0-1.4-0.3
		c-0.1-0.1,0-0.3,0-0.5C32.5,51.2,32.5,51.1,32.6,51.1"/>
	<path class="st3" d="M36.6,51.2c0.6,0,1.4-0.1,2,0v0.1c0.1,0.1,0,0.4,0,0.6c-0.5,0.3-2.5,0.3-3.1,0.2v-0.1c-0.1-0.1,0-0.3,0-0.5
		c0.1,0,0.2-0.1,0.2-0.2C36,51.2,36.4,51.3,36.6,51.2"/>
	<path class="st3" d="M39.7,51.3c1.4,0,2.7,0.2,3.7,0.5c0.3,0.1,0.8,0.1,0.9,0.4c0,0.2-0.1,0.5-0.2,0.5c-0.1,0.1-0.9-0.1-1.1-0.2
		c-0.5-0.1-1.2-0.2-1.7-0.4C40.7,52,40,52.1,39.6,52c-0.1-0.1-0.1-0.1-0.1-0.3c0-0.1,0.1-0.2,0.1-0.4C39.6,51.4,39.7,51.3,39.7,51.3
		"/>
	<path class="st3" d="M45.4,52.4c0.9,0.3,1.7,0.5,2.5,0.8c0.3,0.1,0.8,0.2,0.9,0.5v0.5c0,0,0,0,0,0.1h-0.1c-0.1,0.1-0.8-0.2-0.9-0.2
		c-0.2-0.1-0.5-0.2-0.7-0.3c-0.7-0.3-1.5-0.3-2-0.7C45.2,52.7,45.2,52.6,45.4,52.4"/>
	<path class="st3" d="M32.2,52.6c0.7,0,1.5,0,2.1,0.2v0.1c0.1,0.1,0,0.4,0,0.5c-0.6,0.3-1.5,0.2-2.1,0c0-0.1,0-0.1-0.1-0.1
		C32.1,52.9,32.1,52.8,32.2,52.6"/>
	<path class="st3" d="M37.2,52.7c0.4,0,2-0.1,2.1,0.2v0.4c-0.2,0.2-0.2,0.3-0.7,0.3c-0.1-0.1-0.9,0-1.1,0h-0.6
		c-0.6,0.1-1.6,0.1-2.2,0c0,0,0-0.1-0.1-0.1c0-0.2,0.1-0.4,0.1-0.5C35.3,52.7,36.8,53,37.2,52.7"/>
	<path class="st3" d="M40.2,52.9c0.9,0,1.8,0.2,2.5,0.4c0.3,0.1,0.6,0,0.8,0.2c0.2,0.1,0.3,0.6,0,0.7c-0.3,0.2-0.8-0.1-1-0.1h-0.4
		c-0.6-0.2-1.4-0.3-2-0.3C40,53.6,40,53.3,40,53.1C40.1,53,40.1,53,40.2,52.9"/>
	<path class="st3" d="M44.3,53.7c1.1,0.2,2.3,0.6,3.3,1c0.3,0.1,0.9,0.2,1.1,0.6c0.1,0.1,0,0.3,0,0.5c-0.1,0.1-0.1,0.1-0.3,0.1
		c-0.2-0.2-0.6-0.2-0.9-0.3c-1-0.4-2.2-0.7-3.3-1c0-0.1-0.1-0.1-0.1-0.2c0-0.2,0.1-0.5,0.1-0.6C44.3,53.8,44.3,53.7,44.3,53.7"/>
	<path class="st3" d="M32.1,54.5c0.3,0,0.6,0.1,0.9,0.1c0.3,0,0.9,0,1.3,0.1c0.2,0,0.3,0,0.4,0h1.5c0.1,0.1,0.1,0.1,0.1,0.3
		c0.1,0.1,0,0.3,0,0.4c-0.8,0.2-2,0.3-2.9,0.1c-0.4-0.1-0.9,0-1.2-0.2C32,55,32,54.7,32.1,54.5"/>
	<path class="st3" d="M38,54.6c0.6,0.1,1.1,0,1.7,0.1h0.4c0.3,0.1,0.7,0.2,1.1,0.2c0,0.1,0.1,0.1,0.2,0.2c0,0.1,0,0.3,0,0.4
		c-0.1,0.1-0.1,0.1-0.2,0.2c-0.2,0.1-0.9-0.1-1.3-0.1c-0.2,0-0.3-0.1-0.4-0.1c-0.1,0-0.3,0-0.4,0c-0.6-0.1-1.2-0.1-2-0.1
		C37,55.3,37,55.2,37,54.9c0,0,0.1-0.1,0.1-0.2C37.3,54.6,37.8,54.7,38,54.6"/>
	<path class="st3" d="M42.5,55.1c1.9,0,3.5,0.7,4.9,1.3c0.6,0.2,1.3,0.2,1.3,1.1c0,0.1,0,0.1,0,0.2c-0.1,0-0.1,0.1-0.2,0.1
		c-0.3-0.2-1-0.5-1.4-0.6c-0.1,0-0.2,0-0.3,0c-0.4-0.2-0.9-0.4-1.3-0.5c-0.5-0.2-1-0.1-1.5-0.3C43.4,56.1,43,56,42.5,56
		c0-0.1-0.1-0.1-0.2-0.2C42.3,55.5,42.4,55.3,42.5,55.1C42.5,55.1,42.4,55.1,42.5,55.1"/>
	<path class="st3" d="M37,56.2c0.3,0,0.8,0,1,0.2c0.3,0.3,0,0.7-0.4,0.7c-0.1,0.1-0.6,0-0.9,0c-0.1-0.2-0.2-0.6,0-0.7
		C36.8,56.3,36.9,56.2,37,56.2"/>
	<path class="st3" d="M32.5,56.2c0.6,0,1.1,0.1,1.6,0.2c0.2,0,0.3,0,0.5,0c0.6,0,1,0,1.6,0c0,0.1,0.1,0.1,0.1,0.2
		c0,0.1-0.1,0.3-0.1,0.4c-0.6,0.4-2.8,0.1-3.7,0.1c-0.2-0.2-0.2-0.2-0.2-0.7c0,0,0,0,0-0.1c0,0,0,0,0,0
		C32.4,56.3,32.4,56.3,32.5,56.2"/>
	<path class="st3" d="M38.8,56.2c0.6,0,1.1,0.1,1.5,0.2v0.1c0.1,0.1,0,0.5-0.1,0.6c-0.2,0.1-1.5,0-1.6-0.1c-0.1-0.1,0-0.4,0-0.6
		C38.7,56.3,38.7,56.3,38.8,56.2"/>
	<path class="st3" d="M41.3,56.3c0.4,0,0.9,0.1,0.9,0.5c0.1,0.1,0,0.2,0,0.4c-0.3,0.2-0.9,0-1.5-0.1c-0.1-0.1-0.1-0.3-0.1-0.5
		c0-0.1,0.1-0.1,0.1-0.2c0,0,0.1,0,0.1,0C41,56.4,41.2,56.4,41.3,56.3"/>
	<path class="st3" d="M42.9,56.8c0.9,0,1.9,0.4,2.6,0.7c0.1,0,0.2,0,0.4,0c0.5,0.2,1.1,0.4,1.5,0.6c0.4,0.2,1,0.2,1.2,0.6
		c0.1,0.1,0,0.3,0,0.5c0,0-0.1,0-0.1,0c-0.1,0.1-1.2-0.4-1.4-0.5c-0.3-0.1-0.5-0.1-0.8-0.2c-1-0.4-2.2-0.9-3.3-1
		c0-0.1-0.1-0.1-0.2-0.2c0-0.2,0-0.4,0-0.6C42.8,56.8,42.8,56.8,42.9,56.8"/>
	<path class="st3" d="M32.4,57.7c0.3,0,0.6,0.1,0.9,0.1c0.7,0.1,1.3,0,1.9,0.1c0,0.1,0.1,0.1,0.1,0.2c0.1,0.7,0,0.5-0.6,0.7
		c-0.1,0-0.2,0.2-0.3,0.1c-0.5-0.3-1.4-0.3-2-0.5C32.4,58.2,32.4,58,32.4,57.7C32.4,57.7,32.4,57.7,32.4,57.7"/>
	<path class="st3" d="M36.9,57.8c0.5,0,1,0.1,1.5,0.2c0.1,0.1,0.1,0.3,0.1,0.6c-0.1,0-0.1,0.1-0.2,0.1c-0.2,0.1-0.5,0-0.8,0
		c-0.6,0-1.2,0-1.7-0.1c0-0.2-0.1-0.3-0.1-0.5c0.2-0.1,0.3-0.2,0.6-0.2C36.5,57.8,36.8,57.9,36.9,57.8"/>
	<path class="st3" d="M39.1,58c1,0,1.8,0.1,2.4,0.3c0.7,0.2,1.3-0.1,1.3,0.9c0,0,0,0,0,0.1c0,0-0.1,0-0.1,0
		c-0.2,0.1-0.5-0.1-0.7-0.2c-0.7-0.2-1.4-0.2-2-0.3c-0.3-0.1-0.9,0.1-1-0.2C38.8,58.4,39,58.1,39.1,58"/>
	<path class="st3" d="M43.7,58.8c0.6,0,1.1,0.3,1.5,0.4c0.8,0.3,1.7,0.5,2.5,0.8c0.4,0.2,0.9,0.1,0.9,0.7c0.1,0.1,0,0.2,0,0.3
		c-0.1,0-0.2,0-0.4,0c-0.3-0.2-1.1-0.3-1.5-0.4c-1-0.4-2-0.8-3-1c-0.1-0.2-0.1-0.4-0.1-0.7C43.6,58.8,43.6,58.8,43.7,58.8"/>
	<path class="st3" d="M36.9,59.6c1.2,0,2.2,0.1,3.2,0.4c0,0.1,0.1,0.2,0.1,0.4c-0.1,0.1-0.1,0.1-0.2,0.2c-0.1,0-0.6,0-0.7-0.1
		c-0.5-0.1-2.1,0-2.5-0.2c-0.1-0.1-0.1-0.4-0.1-0.6c0,0,0.1,0,0.1,0C36.8,59.6,36.8,59.6,36.9,59.6"/>
	<path class="st3" d="M40.7,59.9c0.4,0,0.6,0.1,1,0.2c0,0.1,0.1,0.1,0.1,0.2c0,0.2,0,0.3-0.1,0.4c-0.4,0.2-0.8,0-1.2-0.1v-0.1
		c-0.1-0.1,0-0.3,0-0.4C40.6,60,40.6,60,40.7,59.9"/>
	<path class="st3" d="M42.4,60.1c0.3,0,0.9,0.1,1,0.4c0.1,0.1,0.1,0.3,0.1,0.5c0,0-0.1,0.1-0.1,0.1c-0.2,0.2-1.1-0.1-1.2-0.4
		c0.1-0.1,0.1-0.4,0.1-0.5C42.3,60.2,42.4,60.1,42.4,60.1"/>
	<path class="st3" d="M44.1,60.5c0.4,0,0.8,0.2,1.1,0.3c0.5,0.2,1,0.2,1.5,0.4c0.1,0.1,0.3,0.2,0.5,0.2c0.4,0.2,1.1,0.4,1.3,0.7
		c0.1,0.1,0.1,0.4,0.1,0.6c-0.1,0.1-0.2,0.1-0.4,0.1c-0.2-0.2-0.6-0.3-0.9-0.4c-0.7-0.3-1.4-0.6-2.1-0.8c-0.6-0.2-1.2-0.1-1.2-1
		C44.1,60.6,44.1,60.6,44.1,60.5"/>
	<path class="st3" d="M38.8,61.3c0.3,0.1,0.6,0,1,0c0.5,0.1,1,0.1,1.4,0.2c0.1,0.2,0.3,0.7-0.2,0.7c-0.1,0.1-0.5,0-0.7,0
		c-0.7,0-1.5-0.1-2.1-0.2c-0.1-0.2-0.2-0.3-0.3-0.6c0,0,0,0,0-0.1h0.1C38.4,61.3,38.7,61.3,38.8,61.3"/>
	<path class="st3" d="M42.4,61.6c0.7,0,1.6,0.2,2.2,0.4c0.2,0,0.4,0.1,0.7,0.1c0.3,0.1,0.6,0.2,0.9,0.2c0.1,0,0.8,0.4,0.9,0.4
		c0.4,0.2,1,0.3,1.2,0.7c0.1,0.1,0.1,0.3,0.1,0.4c0,0.1,0,0.1-0.1,0.2c-0.2,0.1-1.3-0.5-1.5-0.6c-1.2-0.5-3.2-1-4.7-1.1
		c0-0.1-0.1-0.1-0.1-0.2c0-0.3,0.1-0.4,0.2-0.5C42.3,61.6,42.4,61.6,42.4,61.6"/>
	<path class="st3" d="M40.5,63c0.4,0,1,0.1,1.3,0.2c0,0.1,0.1,0.2,0.1,0.2c0,0.1-0.1,0.3-0.1,0.4c0,0,0,0,0,0
		c-0.3,0-1.5,0.1-1.6-0.1v-0.3c0-0.1,0-0.2,0-0.3c0,0,0.1,0,0.1,0C40.3,63.1,40.4,63.1,40.5,63"/>
	<path class="st3" d="M42.5,63.2c0.6,0,1.9,0.1,2,0.5c0.1,0.2-0.1,0.4-0.1,0.6h-0.2c-0.2-0.1-1.4-0.3-1.7-0.4c0,0,0-0.1,0-0.1
		c-0.1-0.1,0-0.3,0-0.4C42.4,63.3,42.4,63.3,42.5,63.2"/>
	<path class="st3" d="M45.2,63.7c0.7,0,2.4,0.5,2.8,0.8c0.1,0.1,0.2,0.2,0.2,0.3v0.5c-0.1,0.1-0.1,0.1-0.3,0.1
		c-0.5-0.4-1.3-0.6-1.9-0.8c-0.3-0.1-0.8-0.1-0.9-0.4C45,64.1,45.1,63.8,45.2,63.7"/>
	<path class="st5" d="M55.2,66.1c-0.1,0-0.2,0-0.3,0c0,0.1,0,0.1-0.1,0.2c0.6,1.4,1.7,2.2,2.9,3c0.4,0.2,0.7,0.6,1.2,0.6
		c0,0,0,0,0,0c0-0.7,0.1-1.4,0.4-1.9c0.2-0.3,0.6-0.5,0.7-1c0,0,0,0,0,0c-0.6,0-1-0.2-1.4-0.4c-0.4-0.1-0.8-0.1-1.2-0.2
		C56.7,66.2,56,66.1,55.2,66.1"/>
	<path class="st5" d="M42.8,67.1c-0.1,0.1-0.4,0.1-0.5,0.1c0,0.1-0.1,0.1-0.1,0.2c0.1,0.2,0.2,0.4,0.4,0.5c0.3,0.2,1.6,0,2.1,0.1
		c0.6,0.1,1.4,0.3,1.9,0.5c0.3,0.1,0.7,0.4,1.1,0.4c0.1-0.1,0.2-0.1,0.2-0.4c-0.3-0.1-0.5-0.2-0.8-0.3c-0.2-0.1-0.5-0.3-0.7-0.4
		c-0.6-0.3-1.2-0.4-1.9-0.6C43.9,67,43.3,67.2,42.8,67.1"/>
	<path class="st5" d="M53.6,67.6c-0.2,0.1-0.6,0-0.9,0.2c-0.2,0.1-0.9,0.4-0.9,0.6h0c0.1,0.2,0.4,0.4,0.7,0.4
		c0.3-0.3,1.3-0.6,1.7-0.7c0-0.1,0-0.1,0-0.2c-0.1-0.1-0.1-0.1-0.2-0.2C54,67.6,53.7,67.6,53.6,67.6"/>
	<path class="st5" d="M62.3,67.6c-0.4,0.2-0.9-0.1-1.1,0.4c-0.1,0.1-0.1,0.1,0,0.2c0.8,0,1.6,0,2.3,0c0.2,0,0.5,0,0.6-0.1
		c0,0,0,0,0,0c-0.3,0-0.5-0.2-0.7-0.2C63,67.7,62.7,67.7,62.3,67.6"/>
	<path class="st5" d="M29.8,67.6c-0.4,0.2-1,0-1.3,0.2c0,0,0,0.1,0,0.2h0.1c0.2,0.1,0.3,0,0.5,0c0.3,0.1,2,0.1,2.2,0c0,0,0,0,0,0
		C30.9,67.8,30.3,67.7,29.8,67.6"/>
	<path class="st5" d="M26.5,68c-0.4,0.4-0.2,0.9-0.2,1.7c0.6,0.3,1.7,0,2.5,0.2c0.3,0.1,1.1,0.1,1.5,0c0.1,0,0.3,0,0.3,0
		c0.1,0,1.1,0,1.2,0c0.7-0.1,1.5,0.1,2.1,0c0-0.1,0-0.1,0-0.2c-0.1-0.1-0.2-0.3-0.4-0.4c-0.3-0.1-1.2,0-1.7,0c-0.6,0-1.2,0-1.9,0
		c-0.1,0-0.3-0.1-0.4,0c-0.6,0.1-1.7,0.1-2.4,0c0,0,0-0.1,0-0.1c-0.2-0.3,0-0.8-0.1-1.1C26.7,68,26.6,68,26.5,68"/>
	<path class="st5" d="M24.7,70.1c0.1-0.6,0.1-1.4,0-1.8h-0.1c-0.2-0.1-1.2,0-1.3,0.1c-0.1,0.1-0.1,0.1-0.1,0.3
		c0.2,0.3,0.4,0.6,0.6,0.8c0.2,0.2,0.5,0.4,0.7,0.6C24.6,70.1,24.7,70.1,24.7,70.1z"/>
	<path class="st5" d="M44.3,68.9c-0.1,0.1-0.5,0.1-0.6,0.1c0,0.1,0,0,0,0.1c0.1,0.3,0.4,0.7,0.6,0.8c0.2,0.1,0.5,0,0.6,0
		c0.5,0.1,1.4,0.1,1.8-0.1c0,0,0-0.1,0-0.1h0c-0.1-0.4-1.3-0.7-1.8-0.7C44.7,68.9,44.5,69,44.3,68.9"/>
	<path class="st5" d="M49.7,69c-0.1,0.1-0.3,0.1-0.4,0.2c-0.3,0.2-0.7,0.6-0.8,0.9c0.7,0.5,1.8,0.8,2.8,0.4c0.3-0.1,0.6-0.1,0.6-0.4
		c-0.2-0.1-0.2-0.3-0.4-0.4C51.1,69.3,50.7,69,49.7,69"/>
	<path class="st5" d="M55.1,69c-0.3,0.3-1.3,0.2-1.5,0.6c-0.1,0.1,0,0.2,0,0.3c1,0.2,1.8,0.1,2.9,0.1c0-0.1,0-0.1,0-0.2
		C56.2,69.5,55.8,69,55.1,69"/>
	<path class="st5" d="M60.9,69.4c-0.1,0-0.2,0-0.3,0c0,0.1-0.1,0.1-0.1,0.2c0,0.1,0,0,0,0.1c0,0,0.1,0,0.1,0c0.2,0.1,0.8,0.1,1.1,0
		c0.2,0,0.4,0.1,0.5,0.1c0.3,0,0.8,0,1.2,0c0.6,0,1.5-0.1,2.1,0c0.3,0.1,0.6-0.1,0.9,0c0.1,0,0.4,0,0.4,0c0.2,0,1,0,1.1,0
		c0.4,0.1,1-0.1,1.4,0c0.4,0.1,0.8,0,1.1-0.1c0.4-0.1,1,0.2,1.1-0.2c0,0-0.1-0.1-0.1-0.1c-0.2-0.1-0.6-0.1-0.9-0.1
		c-0.4,0-1.3,0.1-2,0c-0.5,0-1.3,0-1.8,0c-0.1,0-0.2,0-0.4,0c-0.6-0.1-1,0-1.7,0C63.3,69.4,62.1,69.4,60.9,69.4"/>
	<path class="st5" d="M33.9,75.1c0-1-1.1-2.3-1.5-2.9c-0.2-0.4-0.6-0.9-1-1c-0.2-0.1-0.4,0-0.6,0c-0.3,0-0.9,0-1.4,0
		c-0.6,0-1.1,0-1.5,0c-0.1,0-0.3,0-0.4,0c-0.5-0.1-1,0-1.5,0c0,0.1,0,0.1,0,0.2c0.8,0.8,1.6,1.7,2.4,2.5c0.4,0.4,0.7,0.7,1,1.1
		c0.1,0.1,0.2,0.1,0.2,0.2c0.2,0.4,0.4,0.7,0.7,1.1c0.2,0.2,0.5,0.4,0.6,0.7c0,0,0,0,0,0c0.2-0.2,0.1-0.5,0.2-0.8
		c0.1-0.5,0.1-1.4,0.2-2c0-0.2,0.1-0.5,0.1-0.8h0.1c0.1,0,0.1,0,0.2,0c0.1,0.2,0.3,0.2,0.5,0.4c0.2,0.1,0.3,0.4,0.4,0.5
		c0.2,0.2,0.4,0.3,0.6,0.5C33.4,74.8,33.5,75.1,33.9,75.1"/>
	<path class="st5" d="M54.2,71.2c-0.3,0.2-0.9,0-1.3,0.1c-0.1,0-0.2,0.2-0.3,0.2c-0.6,0.3-1.4,0.5-2.1,0.6c-0.6,0.1-1.9-0.3-2.3-0.4
		c-0.2-0.1-0.5-0.4-0.7-0.4h-1.3c0,0,0,0,0,0v0.1c1.9,1.2,5.1,2.6,8.2,1.8c0.6-0.1,1-0.1,1.5-0.3c0.1-0.1,0.5-0.2,0.6-0.4
		c0.1-0.1,0.2-0.3,0.4-0.4c0.3-0.2,0.7-0.4,0.8-0.8h0c0,0,0,0,0,0c-0.2-0.2-0.8-0.1-1.2-0.1C55.6,71.2,54.9,71.2,54.2,71.2"/>
	<polygon class="st1" points="15.7,74.8 16.7,76.4 15.4,77.4 14.2,75.9 	"/>
	<path class="st1" d="M21.9,80.5c0.5-0.7,1.6,0,1.9,0.3c1.2,0.9,1.1,1.6,0.8,2l0,0l0.9,0.6l0,0c0.7-1,0.2-2.2-1.3-3.3
		c-1.3-1-2.7-1-3.3-0.1c-0.7,1,0.3,2.2,1.1,2.9c1.1,1.1,1.6,1.7,1.2,2.3c-0.1,0.2-0.3,0.3-0.5,0.3c-0.4,0.1-1-0.1-1.6-0.6
		c-0.3-0.2-1.2-1-1.2-1.8c0-0.3,0.1-0.5,0.2-0.6l0,0l-0.9-0.5l0,0c-0.1,0.1-0.2,0.4-0.3,0.7c-0.1,1,0.4,2,1.8,2.9
		c0.8,0.6,1.7,0.9,2.4,0.7c0.4-0.1,0.8-0.3,1-0.6c0.8-1.2-0.4-2.4-1.4-3.4C21.8,81.3,21.6,80.9,21.9,80.5"/>
	<path class="st1" d="M27.9,87c0.1-0.1,1.6-1.2,1.6-1.2c0.3-0.2,0.6-0.5,0.9-0.8c-0.1,0.5-0.1,0.9-0.2,1.3c0,0-0.1,1.7-0.1,1.9
		C30,88.2,28,87.1,27.9,87 M30.3,84.1l-5.7,4.1l1,0.6c0,0,1.6-1.2,1.7-1.3c0,0,2.7,1.5,2.8,1.5c0,0-0.1,2.1-0.1,2.1l1.1,0.6l0.3-7.1
		L30.3,84.1L30.3,84.1z"/>
	<path class="st1" d="M39.9,88.1c0,0-1.4,4.5-1.4,4.7C38.4,92.7,36,87,36,87L35,86.7l0,0l-1.8,6l1,0.3c0,0,1.4-4.5,1.4-4.7
		c0.1,0.1,2.4,5.8,2.4,5.8l1.1,0.3l1.8-6.1L39.9,88.1z"/>
	<path class="st1" d="M26,10.5l-0.5-0.7l0,0l-5,3.5l0.5,0.7c0,0,2-1.4,2.1-1.5c0,0.1,3.2,4.5,3.2,4.5l0.9-0.6c0,0-3.1-4.5-3.2-4.5
		C24,11.9,26,10.5,26,10.5"/>
	<polygon class="st1" points="18.1,15.4 17.3,16.1 21.6,20.8 22.4,20.1 18.2,15.3 	"/>
	<polygon class="st1" points="9.3,49.7 9.3,49.7 2.9,49.9 3,51 9.3,50.8 	"/>
	<path class="st1" d="M18.5,20.9c-1.2-0.8-2.4,0.4-3.4,1.4c-1,1-1.4,1.2-1.8,0.9c-0.1-0.1-0.2-0.2-0.3-0.4c-0.1-0.5,0.3-1.2,0.5-1.5
		c0.9-1.3,1.6-1.1,2-0.8l0,0l0.6-0.9l0,0c-1-0.6-2.2-0.2-3.3,1.3c-0.6,0.8-0.8,1.6-0.7,2.3c0.1,0.4,0.3,0.7,0.6,1
		c1.1,0.7,2.2-0.4,2.9-1.1c1.1-1.1,1.7-1.6,2.3-1.2c0.2,0.1,0.3,0.3,0.3,0.5c0.1,0.4-0.1,1-0.5,1.6c-0.2,0.3-0.9,1.3-1.8,1.2
		c-0.3,0-0.5-0.1-0.6-0.2l0,0l-0.5,0.9l0,0c0.1,0.1,0.4,0.2,0.7,0.3c1,0.1,2-0.4,2.9-1.8C19.4,22.9,19.5,21.5,18.5,20.9"/>
	<path class="st1" d="M9.8,31.1c-0.1,0-1.7-0.9-1.7-1c0-0.1,1.1-2.1,1.1-2.1c0.2-0.4,0.4-0.6,0.6-0.8c0.3-0.2,0.7-0.3,1-0.1
		c0.3,0.1,0.5,0.5,0.5,0.8c0,0,0,0.1,0,0.1c-0.1,0.4-0.2,0.7-0.5,1.1C10.9,29.3,10,30.9,9.8,31.1 M11.9,28.8
		c0.2-0.5,0.3-0.9,0.3-1.3c0-0.6-0.3-1.1-0.8-1.4c-0.6-0.3-1.4-0.2-2,0.3c-0.4,0.4-0.6,0.8-0.9,1.3l-1.7,3l5.6,3l0.5-1
		c0,0-2.4-1.3-2.4-1.3c0-0.1,0.5-1,0.5-1c0.4-0.7,0.6-1,2.4-1.3l1.6-0.3l0.7-1.2l-2.2,0.4C12.7,28.3,12.2,28.5,11.9,28.8"/>
	<path class="st1" d="M10.8,62.2c-0.8-0.4-1.7,0-2.1,0.2l-3.4,1.4l0.4,1l3.4-1.4c0.6-0.2,1.1-0.4,1.5-0.2c0.4,0.2,0.8,0.6,1.1,1.3
		c0.3,0.6,0.3,1.1,0.1,1.5c-0.2,0.6-0.8,0.8-1.2,1l-3.4,1.4l0.4,1l3.4-1.4c0.7-0.3,1.3-0.6,1.7-1.4c0.3-0.6,0.2-1.5-0.2-2.6
		C12,63.2,11.5,62.5,10.8,62.2"/>
	<path class="st1" d="M11.9,34.8l-0.8-0.2c0,0-1.3,4.5-1.3,4.6c-0.1,0-1.9-0.5-2-0.6c0-0.1,1.2-4.1,1.2-4.1l-0.8-0.2
		c0,0-1.1,4-1.2,4.1c-0.1,0-1.7-0.5-1.8-0.5c0-0.1,1.2-4.4,1.2-4.4l-0.8-0.2l0,0l-1.5,5.4l6.1,1.7L11.9,34.8z"/>
	<path class="st1" d="M9.8,44.3l-5.9-3.9l0,0.1l-0.1,1.1L8,44.3c0.3,0.2,0.6,0.3,0.9,0.5c-0.4,0.1-0.5,0.1-0.8,0.2l0,0
		c0,0-0.1,0-0.1,0l-4.8,1.4L3,47.6l6.7-2.1L9.8,44.3z"/>
	<path class="st1" d="M10.4,58.3c0,0-4.6,0.8-4.8,0.8c0.1-0.1,4.2-4.7,4.2-4.7l-0.2-1.1l0,0l-6.2,1l0.2,1c0,0,4.6-0.8,4.8-0.8
		c-0.1,0.1-4.2,4.7-4.2,4.7l0.2,1.1l6.3-1L10.4,58.3z"/>
	<path class="st1" d="M34,5.9L34,5.9l-1.2,0.5l-0.6,2.3c0,0.1-0.2,0.8-0.3,1.3c-0.4-0.2-0.6-0.3-1.1-0.6l-2.2-1.1l-1.2,0.6
		c0,0,4.3,2.1,4.3,2.1c0,0,1.1,2.4,1.1,2.4l1-0.5c0,0-1.1-2.4-1.1-2.4C32.7,10.5,34,5.9,34,5.9"/>
	<polygon class="st1" points="57.1,89.2 56,89.4 56.9,95.6 58,95.5 57.1,89.2 	"/>
	<path class="st1" d="M61.7,93.6c0-0.1-0.5-1.9-0.6-2c0.1,0,4.1-1.2,4.1-1.2L65,89.7c0,0-4,1.2-4.1,1.2c0-0.1-0.5-1.7-0.5-1.8
		c0.1,0,4.4-1.3,4.4-1.3L64.6,87l0,0l-5.4,1.6l1.8,6.1l5.6-1.6l-0.2-0.8C66.3,92.3,61.8,93.6,61.7,93.6"/>
	<path class="st1" d="M49.4,90.3H51c0.7,0,1.3,0,1.8,0.4c0.5,0.4,0.8,1,0.8,1.8v0.1c0,0.8-0.2,1.4-0.6,1.8C52.5,95,51.6,95,51,95
		h-1.6C49.4,95,49.4,90.3,49.4,90.3z M53.8,90.2c-0.8-0.8-1.9-0.8-2.8-0.8h-2.7h0v6.4h2.8c1.1,0,2-0.2,2.5-0.6
		c0.7-0.6,1.1-1.5,1.1-2.6C54.8,91.3,54.2,90.6,53.8,90.2"/>
	<path class="st1" d="M70.1,87.9l0.4,0.7c0,0,1.9-1,1.9-1.1c0,0.1,0.5,0.9,0.5,1c-0.1,0.1-0.5,1-1.6,1.6c-0.7,0.4-1.5,0.5-2.1,0.4
		c-0.6-0.2-1.1-0.6-1.4-1.3c-0.2-0.4-0.5-1.1-0.3-1.9c0.2-0.6,0.7-1.2,1.4-1.6c1.5-0.8,2.2-0.1,2.5,0.1l0,0l0,0l0.7-0.6l0,0
		c-0.3-0.3-1.4-1.4-3.6-0.2c-1.1,0.6-1.8,1.4-2,2.3c-0.3,1.1,0.1,2.1,0.3,2.5c0.4,0.8,1,1.3,1.8,1.5c0.9,0.3,2,0.1,3.1-0.5
		c1.5-0.8,2-2,2.2-2.4l0,0l-1.2-2.1L70.1,87.9z"/>
	<path class="st1" d="M79.7,83.7c-0.1,0.6-0.6,1.2-1.2,1.6c-1.3,0.8-2.6,0.5-3.4-0.7v0c-0.4-0.6-0.6-1.2-0.5-1.8
		c0.1-0.7,0.5-1.3,1.3-1.8c0.6-0.4,1.3-0.5,1.9-0.4c0.6,0.1,1.1,0.5,1.5,1.2C79.7,82.5,79.8,83.1,79.7,83.7 M80.2,81.2
		c-0.5-0.8-1.2-1.3-2-1.4c-0.9-0.2-1.9,0-2.9,0.6c-0.9,0.6-1.6,1.4-1.8,2.3c-0.2,0.8,0,1.7,0.5,2.5c0.4,0.7,1.1,1.2,1.9,1.4
		c0.9,0.2,1.9,0,2.9-0.6c0.9-0.6,1.6-1.4,1.8-2.3C80.9,82.8,80.7,82,80.2,81.2"/>
	<path class="st1" d="M47.6,8.1c-0.4,0.5-1.1,0.8-1.9,0.8c-0.8,0.1-1.5-0.1-2-0.6C43.3,8,43,7.4,43,6.8C42.9,6,43,5.4,43.4,5
		c0.4-0.5,1.2-0.9,2-1c0.8-0.1,1.5,0.2,2,0.6c0.5,0.4,0.7,1,0.8,1.7C48.2,7.1,48,7.7,47.6,8.1 M45.3,3.2c-1.2,0.1-2.2,0.5-2.8,1.2
		c-0.5,0.6-0.8,1.4-0.7,2.4c0.1,0.8,0.4,1.6,1,2.1c0.7,0.6,1.7,0.9,2.9,0.8c2.2-0.2,3.6-1.6,3.5-3.5C49.1,4.3,47.5,3.1,45.3,3.2"/>
	<path class="st1" d="M57.4,4.7l0.1-0.8l-5.2-0.8l0,0l-0.9,6.2l1.1,0.2c0,0,0.4-2.7,0.4-2.8c0.1,0,3.6,0.5,3.6,0.5l0.1-0.8
		c0,0-3.5-0.5-3.6-0.5c0-0.1,0.3-1.8,0.3-1.8C53.4,4.1,57.4,4.7,57.4,4.7"/>
	<path class="st1" d="M83.6,17.1l-0.8-0.9l0,0l-4.8,4.2l3.6,4.1l0.6-0.5c0,0-2.7-3.1-2.8-3.2C79.6,20.6,83.6,17.1,83.6,17.1"/>
	<path class="st1" d="M70,12c-0.4,0.5-1.2,1.2-2.6,0.6c-0.7-0.3-1.2-0.7-1.4-1.3c-0.3-0.7,0-1.7,0.1-2c0.3-0.7,1.1-2.2,3.3-1.3
		c1.3,0.5,1.4,1.4,1.4,1.9v0l1.1,0.2l0,0c0-1.3-0.7-2.3-2.2-2.9c-1.1-0.4-2.1-0.5-3-0.1c-0.7,0.3-1.3,0.9-1.6,1.7
		c-0.2,0.4-0.5,1.6,0,2.7c0.3,0.7,1.1,1.3,2.2,1.8c0.9,0.4,2.6,0.7,3.8-0.8l0,0L70,12L70,12z"/>
	<polygon class="st1" points="88,22.2 88,22.2 82.7,25.8 83.4,26.7 88.6,23.1 	"/>
	<polygon class="st1" points="89.5,59.4 89.3,60.4 95.4,62 95.7,60.9 89.5,59.4 	"/>
	<path class="st1" d="M96,46.1c0,0.3,0,0.5-0.1,0.6c-0.1,0.3-0.4,0.6-0.8,0.6c-0.4,0-0.7-0.2-0.9-0.5C94,46.4,94,46.1,94,45.7
		c0,0-0.2-1.8-0.2-2.1c0.1,0,1.9-0.2,2-0.2c0,0.1,0.2,2.3,0.2,2.3C96,45.9,96,46,96,46.1 M90.2,43.9c0,0,2.7-0.2,2.8-0.2
		c0,0.1,0.1,1.1,0.1,1.1c0,0.1,0,0.3,0,0.4c0,0.6-0.2,1-1.3,1.9l-1.2,1.1l0.1,1.3l1.7-1.5c0.7-0.6,0.9-1,1-1.4
		c0.3,1.3,0.9,1.9,1.9,1.9c0.7-0.1,1.3-0.6,1.5-1.3c0.1-0.5,0.1-1,0-1.5l-0.3-3.3l0,0l-6.3,0.6L90.2,43.9z"/>
	<path class="st1" d="M74.4,14.2c0.1-0.1,1.7-0.9,1.7-0.9c0.3-0.2,0.7-0.4,1-0.7c-0.2,0.5-0.3,0.9-0.3,1.3c0,0-0.3,1.5-0.4,1.8
		C76.3,15.6,74.5,14.2,74.4,14.2 M77.2,11.6L77.2,11.6L71,14.9l0.9,0.7c0,0,1.8-1,1.8-1c0,0,2.5,1.9,2.5,1.9c0,0.1-0.4,2.1-0.4,2.1
		l1,0.7l1.3-7L77.2,11.6z"/>
	<path class="st1" d="M92.2,67.7c-0.5-0.1-0.9-0.1-1.3-0.1c0,0-1.5,0-1.9,0c0.1-0.1,1.1-2.1,1.1-2.2c0.1,0.1,1.2,1.5,1.2,1.5
		C91.6,67.2,91.9,67.5,92.2,67.7 M88.7,62.2l-0.5,1c0,0,1.3,1.6,1.3,1.6c0,0-1.4,2.8-1.4,2.8c-0.1,0-2.1,0-2.1,0l-0.6,1.1l7.1,0
		l0.5-1L88.7,62.2L88.7,62.2z"/>
	<path class="st1" d="M97.2,51.9l-6.3-0.9l0,0l-0.1,1c0,0,4.7,0.7,4.8,0.7c-0.1,0.1-5.4,3.3-5.4,3.3L90,57l6.3,0.9l0.2-1
		c0,0-4.7-0.7-4.8-0.7c0.1-0.1,5.4-3.3,5.4-3.3L97.2,51.9z"/>
	<path class="st1" d="M94.2,36.2c0.3,0.7,0.4,1.3,0.2,1.9c-0.2,0.6-0.6,1.1-1.3,1.4c-0.7,0.3-1.3,0.4-1.9,0.2
		c-0.6-0.2-1.1-0.7-1.4-1.4c-0.3-0.7-0.4-1.4-0.2-2c0.2-0.6,0.6-1,1.2-1.3c0.7-0.3,1.3-0.4,1.8-0.3C93.2,34.9,93.8,35.4,94.2,36.2
		 M90.2,34c-0.7,0.4-1.3,1-1.6,1.8c-0.3,0.9-0.2,1.9,0.3,2.9c1,1.9,2.8,2.6,4.5,1.8c1.8-0.9,2.3-2.8,1.4-4.7
		C93.9,33.8,92.1,33.1,90.2,34"/>
	<path class="st1" d="M89.3,31.9l0.7-0.4c0,0-1.6-3.2-1.6-3.2c0.1,0,1.6-0.8,1.7-0.8c0,0.1,1.9,3.7,1.9,3.7l0.7-0.4l-2.4-4.7l0,0
		l-5.6,2.8l0.5,1c0,0,2.5-1.2,2.5-1.3C87.7,28.7,89.3,31.9,89.3,31.9"/>
	<polygon class="st1" points="82.9,76.4 84.1,75 85.4,76.1 84.2,77.6 	"/>
	<polygon class="st1" points="30.6,64.7 32.2,65.2 32,65.8 29.8,65 30.9,61.8 31.6,62 	"/>
	<polygon class="st1" points="36,64.9 34.5,63.9 34.1,64.6 35.5,65.5 35.2,66 33.8,65.1 33.3,65.8 34.9,66.8 34.6,67.3 32.4,65.9 
		34.3,63.1 36.4,64.4 	"/>
	<polygon class="st1" points="35.8,68.4 35.3,67.9 37.3,66 36.6,65.2 37,64.8 39,66.8 38.5,67.2 37.8,66.5 	"/>
	<polygon class="st1" points="39,72.3 38.5,71.8 40.5,69.8 39.8,69.1 40.2,68.7 42.1,70.7 41.7,71.1 41,70.3 	"/>
	<polygon class="st1" points="41.5,73.1 40.5,74.2 39.9,73.7 42.2,71.2 42.8,71.7 41.9,72.6 42.9,73.5 43.8,72.6 44.3,73 42,75.6 
		41.5,75.1 42.5,74 	"/>
	<polygon class="st1" points="46.4,74.9 44.8,74.1 44.4,74.7 45.9,75.5 45.6,76 44.1,75.2 43.7,76 45.4,76.9 45.1,77.5 42.8,76.2 
		44.4,73.2 46.6,74.4 	"/>
	<polygon class="st1" points="52,76.2 50.2,76.1 50.2,76.8 51.8,76.9 51.8,77.5 50.1,77.4 50.1,78.3 52,78.4 52,79 49.4,78.9 
		49.6,75.5 52.1,75.6 	"/>
	<polygon class="st1" points="59.2,73.9 57.7,74.9 58.1,75.5 59.5,74.6 59.9,75.1 58.5,76 59,76.7 60.5,75.7 60.9,76.2 58.7,77.6 
		56.8,74.8 58.9,73.4 	"/>
	<path class="st1" d="M54.9,76l0.8-0.2c0.3-0.1,0.5-0.1,0.6,0.2c0.1,0.3-0.1,0.4-0.4,0.5l-0.8,0.2L54.9,76z M54.9,78.9l1.4-0.4
		c0.7-0.2,0.8-0.3,1-0.6c0.1-0.2,0.2-0.5,0.1-0.8c-0.1-0.3-0.3-0.6-0.7-0.7c0.1-0.1,0.4-0.3,0.2-0.8c-0.1-0.3-0.4-0.8-1.2-0.6
		L54,75.6L54.9,78.9z M55.2,77.3l0.9-0.2c0.2-0.1,0.5,0,0.6,0.3c0.1,0.3-0.1,0.5-0.4,0.6l-0.8,0.2L55.2,77.3z"/>
	<path class="st1" d="M45.8,77.8l0.7,0.2l0.4-1.3l0.7,0.2c0.5,0.2,0.5,0.3,0.3,0.8c-0.1,0.3-0.1,0.5-0.1,0.7l0.7,0.3l0-0.1
		c-0.1-0.1-0.1-0.2,0.1-0.7c0.2-0.6,0.1-0.8-0.1-1c0.4,0,0.6-0.2,0.8-0.6c0.1-0.3,0.2-1-0.7-1.3l-1.6-0.6L45.8,77.8z M47.1,76.2
		l0.3-0.9l0.8,0.3c0.4,0.1,0.4,0.4,0.3,0.6c-0.1,0.3-0.3,0.4-0.7,0.3L47.1,76.2z"/>
	<polygon class="st1" points="60.5,64.4 62.1,64.8 62,65.4 59.6,64.9 60.4,61.5 61.1,61.7 	"/>
	<polygon class="st1" points="63.2,65.8 62.4,65.7 63.3,62.3 63.9,62.5 	"/>
	<path class="st1" d="M65.7,64.6l1.4,0.3l-0.4,1.8l-0.5-0.1l0-0.4c-0.2,0.2-0.6,0.4-1.2,0.3c-0.8-0.2-1.4-0.9-1.1-2.1
		c0.2-0.9,0.9-1.6,2.1-1.4c1,0.2,1.3,1,1.2,1.5l-0.7-0.2c0-0.1-0.1-0.6-0.6-0.7c-0.5-0.1-1,0.1-1.2,1c-0.2,0.9,0.2,1.3,0.7,1.4
		c0.2,0,0.7,0.1,1-0.5l-0.8-0.2L65.7,64.6z"/>
	<polygon class="st1" points="68.3,65.4 68.1,67 67.4,66.9 67.8,63.5 68.5,63.6 68.4,64.8 69.7,65 69.9,63.7 70.6,63.8 70.2,67.2 
		69.5,67.1 69.6,65.6 	"/>
	<polygon class="st1" points="72.7,67.4 72,67.4 72,64.6 71,64.6 71,64 73.8,64 73.8,64.6 72.7,64.6 	"/>
</g>
</svg>
