<?xml version="1.0" encoding="utf-8"?>
<!-- Generator: Adobe Illustrator 22.0.1, SVG Export Plug-In . SVG Version: 6.00 Build 0)  -->
<svg version="1.1" id="图层_1" xmlns="http://www.w3.org/2000/svg" xmlns:xlink="http://www.w3.org/1999/xlink" x="0px" y="0px"
	 viewBox="0 0 100 100" style="enable-background:new 0 0 100 100;" xml:space="preserve">
<style type="text/css">
	.st0{fill:#7C2E9A;}
</style>
<g id="surface1">
	<path class="st0" d="M69.2,21.3c0.4,0.2,1-0.1,1.3-0.4c0,0,1.2,0.1,1.5-0.1c0.3-0.1,0.6-0.4,0.4-0.7c-0.2-0.3-0.4-0.1-0.6-0.2
		c-0.3,0-0.6-0.1-0.7-0.2c-0.2-0.1-0.3-0.4-0.4-0.4c-0.1,0-0.8-0.2-0.9-0.1c-0.1,0.1-0.7,0.6-0.8,0.8C68.8,20.4,68.7,21.1,69.2,21.3
		z M72.9,17.4c0,0,0.4-0.1,0.6,0c0.1,0.1,0.6,0.6,1.1,0.5c0.5-0.1,0.7-0.3,0.7-0.8c0-0.5-0.5-0.5-0.5-0.5s-0.9-0.5-1-0.5
		c-0.1,0-0.2-0.3-0.6-0.2c-0.4,0.1-0.4,0.1-0.5,0.4C72.7,16.5,72.4,17.1,72.9,17.4z M71.5,19.2c0.2,0,0.8-0.1,1-0.1
		c0.2,0,0.3,0.1,0.4,0.1c0.1,0,0.2,0.1,0.6-0.1c0.4-0.2,0.4-0.5,0-0.8c-0.4-0.2-0.3,0.1-0.8-0.2c-0.5-0.3-0.5-0.4-1.1-0.5
		c0,0-0.3-0.2-0.4,0.1c-0.2,0.3-0.3,0.9-0.2,1.1C71.2,19.1,71.4,19.2,71.5,19.2z M83.3,33.9c0.5,0,1-0.4,1-1c0-0.5-0.4-1-1-1
		c-0.5,0-1,0.4-1,1C82.4,33.5,82.8,33.9,83.3,33.9z M77.9,24.3c0,0.3-0.1,0.4-0.3,0.4c-0.2,0-0.5-0.3-0.5-0.4c0-0.1-0.1-0.3-0.2-0.4
		c-0.1-0.1-0.4-0.2-0.5-0.3c-0.2,0-0.2,0-0.3-0.2c-0.1-0.2-0.2-0.4-0.2-0.6c0-0.2,0.2-0.3,0.2-0.3c0.2-0.1,0.4,0,0.5,0
		c0.1,0,0.7,0.8,0.9,0.9C77.6,23.7,77.9,24,77.9,24.3z M76.6,26.4c-0.1,0.1-0.3,0.1-0.3,0c0-0.1-0.3-0.3-0.4-0.4
		c-0.1-0.1-0.3-0.2-0.3-0.5c0-0.3,0.4-0.5,0.4-0.5c0.5-0.3,0.9,0.1,1,0.6C77.1,26,76.7,26.3,76.6,26.4z M75.2,24.4
		c-0.2,0.3-0.7,0.3-0.9,0.3c-0.2,0-0.2-0.4-0.2-0.5c0-0.2,0.5-0.4,0.5-0.4C75.3,23.7,75.4,24.1,75.2,24.4z M77.2,22.2
		c-0.2-0.1-1.1-0.8-1.4-0.9c-0.3-0.2-0.6-0.4-0.8-0.6c-0.2-0.1-0.6-0.3-0.8-0.3c-0.2,0-0.4,0.1-0.3,0.5c0,0.4,0.2,0.8,0.3,0.8
		c0.1,0,0.6,0.3,0.7,0.4c0.1,0.1,0.3,0.3-0.1,0.5c-0.3,0.2-0.6,0.4-1.1,0.5c-0.4,0.1-0.9,0.2-1.3,0.3c-0.4,0-1.1-0.2-1.2-0.3
		c-0.1-0.1-0.3,0-0.5,0.1c-0.2,0.1-0.4,0.2-0.3,0.6c0.1,0.4,0.6,1.1,1.1,1.2c0.5,0.1,1.3-0.2,1.7,0c0.4,0.1,1.1,0.7,1.7,1.5
		c0.6,0.8,0.7,0.9,0.6,1c-0.1,0.1-0.7,0.8-0.5,1.2c0.2,0.5,0.4,0.7,0.7,0.5c0.2-0.1,0.3-0.3,0.6-0.8c0.3-0.5,1.9-2.6,2.2-2.6
		c0.3-0.1,0.5,0,0.9,0.4c0.3,0.5,0.8,1.3,1.1,1.4c0.2,0.1,0.8,0.2,0.9,0.3c0.1,0,0.4-0.5,0.5-0.7c0-0.2,0-0.7-0.1-0.7
		c-0.1,0-0.3-0.1-0.4-0.1c0,0-2-2.1-2.4-2.5c-0.4-0.5-0.5-0.5-0.2-0.6c0.1-0.1,0.4,0.3,0.5,0.3c0,0,0.5,0.5,0.5,0.6
		c0,0.1,0.2,0.4,0.5,0.3c0.3-0.1,0.5-0.3,0.5-0.6c0-0.3-0.2-0.6-0.4-0.6c-0.2,0-0.7-0.5-0.9-0.8c-0.2-0.2-0.3-0.3-0.1-0.5
		c0.2-0.1,0.3-0.1,0.4,0c0.1,0.1,0.8,1.4,1.4,1.6c0.6,0.2,0.8,0,0.9-0.2c0.1-0.1,0.2-0.4,0.1-0.5c-0.2-0.1-0.8-0.6-1.1-1
		c-0.3-0.4-0.7-0.9-0.7-1.1c0,0,0.1-0.4,0.1-0.6c0-0.2-0.3-0.3-0.5-0.3c-0.3,0-0.4,0.2-0.5,0.2c-0.1,0-0.2-0.2-0.4-0.3
		c-0.2-0.1-0.4-0.1-0.5-0.3c-0.1-0.2,0-0.5-0.1-0.5c-0.1,0-0.8-0.3-1-0.1c-0.2,0.1-0.3,0.5-0.2,0.9c0.1,0.4,0.2,0.5,0.5,0.6
		c0.3,0.1,1.1,0.5,1.1,0.9c0,0.4-0.5,0.1-0.7,0.1c-0.2-0.1-0.6-0.4-0.7-0.9c-0.2-0.4-0.4-0.3-0.6-0.3c-0.1,0-0.5,0-0.4,0.4
		c0,0.3,0.3,0.3,0.3,0.5c0,0.2,0,0.3,0.1,0.3c0.1,0,0.4,0.1,0.5,0.2c0.2,0.1,0.6,0.6,0.6,0.7C77.6,22.2,77.4,22.3,77.2,22.2z
		 M25.4,23.5c0-0.3,0.5-0.4,0.5-0.4c0.3-0.1,0.5,0,0.5,0.2c0,0.3-0.4,0.6-0.7,0.6C25.5,23.9,25.3,23.9,25.4,23.5z M22.9,19.1
		c0.3,0,0.5-0.1,0.4,0c-0.1,0.1-0.2,0.7,0.1,0.7c0.3,0,0.7,0,0.7,0c0.1,0,0.2,0.2,0.3,0.6c0.1,0.3,0.1,0.7,0,0.9
		c-0.1,0.2-3.7,4.5-3.7,4.5s-0.2,0.1-0.4,0.2c-0.2,0.1-0.3,0.2-0.3,0.5s0,0.7,0.4,0.8c0.4,0.1,0.8,0.1,1,0c0,0,1.3,0.7,1.5,1.1
		c0.3,0.4,0.4,0.6,0.6,0.6c0.2,0,0.4-0.1,0.3-0.7c0-0.6-0.6-1-0.8-1.1c-0.2-0.1-1.1-0.6-1.2-0.7c-0.1,0,0-0.4,0.1-0.6
		c0.1-0.1,1.1-1.7,1.3-1.7c0.2,0,0.2,0.1,0.2,0.3c0,0.1-0.1,0.9,0.4,0.8c0.4,0,0.4-0.1,0.7-0.5c0.2-0.4,0.6-0.6,0.7-0.4
		c0.1,0.2,0.3,0.6,0.1,0.7c-0.1,0.2-0.8,1-1,1c-0.2,0.1-0.5,0.4-0.4,0.6c0.1,0.2,0.5,0.5,0.8,0.4c0.4-0.1,0.5-0.4,0.7-0.7
		c0.2-0.3,0.8-1.4,1.1-1.5c0.3-0.1,0.7-0.1,0.8,0.3c0.1,0.3-1.7,1.9-1.7,1.9s-0.2,0.4,0.6,0.6c0,0,0.6-0.5,0.9-0.6
		c0.3-0.1,0.5-0.2,0.7-0.4c0.2-0.2,0.8-1.4,0.5-1.8c-0.3-0.4-0.5-0.9-0.5-1.3c0.1-0.4,0.4-0.4,0.5-0.4c0.1,0,0.6-0.5,0.6-0.9
		c0-0.4-0.3-0.7-0.6-0.7c-0.3,0-0.5,0.5-0.6,0.6c-0.1,0.1-0.1,0.6-0.4,0.6c-0.3,0-0.3-0.3-0.4-0.6c-0.1-0.3-0.1-0.6-0.5-0.6
		c-0.4,0-0.9,0.3-1.3,0.8c-0.4,0.6-0.7,0.9-0.8,1.1c-0.1,0.2-0.4,0.4-0.6,0.3c-0.2,0-0.1-0.3,0-0.4c0.1-0.2,2.2-2.7,2.3-2.8
		c0.1,0,0.6-0.4,1-0.3c0.4,0.1,0.5,0.3,0.7,0.5c0.2,0.2,0.6,0.5,0.7,0.5c0.2,0,0.7-0.5,0.6-0.8c-0.1-0.3-0.5-0.7-0.8-0.9
		c-0.2-0.2-0.5-0.5-0.6-0.7c-0.1-0.2-0.1-0.3-0.3-0.3c-0.3,0-0.9,0.1-1,0.3c-0.1,0.1-0.9,1.1-0.9,1.1s-0.1,0.2-0.3-0.3
		c-0.2-0.5-0.6-1.1-0.8-1.2c-0.2-0.1-0.3-0.1-0.5-0.1c-0.2-0.1-0.2-0.2-0.2-0.4c0-0.2-0.3-0.4-0.4-0.4c-0.2,0-0.6-0.1-0.9,0.4
		c-0.3,0.5-0.6,0.9-0.3,1.1C22.5,19.1,22.6,19.1,22.9,19.1z M18.6,23.5c0.2,0.1,0.8,0.6,1.2,0.8c0.3,0.2,0.7,0.7,1,0.7
		c0.2,0.1,0.5-0.1,0.7-0.4c0.1-0.3,0.3-1.1,0.3-1.4c0-0.3-0.2-0.4-0.4-0.4c-0.2,0-0.3,0.3-0.4,0.5c-0.1,0.1-0.2,0.2-0.4,0.2
		c-0.1-0.1-0.1-0.3,0-0.5c0.1-0.1,0.2-0.4,0.2-0.5c-0.3-0.3-0.4-0.3-0.7-0.2c-0.2,0-0.4,0.5-0.6,0.6c-0.2,0.1-0.1-0.1,0-0.4
		c0.1-0.2,0.1-0.5,0.1-0.7c0-0.2-0.4-0.3-0.4-0.3s-0.4-0.1-0.5,0.1c-0.2,0.2-0.4,1-0.4,1.3C18.1,23.2,18.4,23.4,18.6,23.5z M15,41.9
		l1,0.3l1.1-3.8l-0.9-0.2l-0.4,1.2l-3.9-1.1l-0.4,1.3l3.9,1.2L15,41.9z M16.7,33.6c0.5,0,1-0.4,1-1c0-0.5-0.4-1-1-1
		c-0.5,0-1,0.4-1,1C15.7,33.2,16.1,33.6,16.7,33.6z M35.4,15.3c0.4-0.1,0.8-0.7,1.3-1.1c0.5-0.3,1.3-0.9,1.5-0.7
		c0.1,0.2,0.4,1.5-0.1,2.6c-0.5,1.1-1.1,1.6-1.6,1.7c-0.4,0.1-1,0.5-0.9,0.7c0.1,0.2,0.3,1,0.3,1.2c0.1,0.2,0.2,0.4,0.9,0.3
		c0.7-0.1,1.4-0.5,1.6-1.1c0.2-0.6,0.7-1.3,0.8-3.5c-0.1-1.5,0.8-0.6,0.8-0.6s3,2.1,4.2,2.2c1.3,0,2-0.3,2.6-1.8
		c0.2-0.5-0.1-0.5-0.3-0.4c-0.2,0-3.4-0.3-5.3-1.1c-1.9-0.7-1.1-1.1-0.8-1.2c0.3-0.1,2.2-0.5,2.4-0.6c0.2-0.1,0.7-0.7,0.4-1.3
		c-0.3-0.7-0.3-0.6-0.8-0.5c-0.5,0.1-1.9,0.4-2.2,0.6c-0.2,0.2-0.6,0.5-0.9,0.6c-0.3,0-0.7,0.2-0.8-0.2c-0.1-0.4-0.2-1.5-0.5-1.5
		c-0.3,0-0.8,0.1-1.1,0.6c0,0,0.3,1.3,0.4,1.6c0,0,0,0.2-0.7,0.6c-0.7,0.3-1.7,0.8-1.9,0.9c-0.3,0.1-0.7,0.6-0.6,1
		C34.3,14.7,35,15.4,35.4,15.3z M83.2,39.7l2.3,0.6l-1.8,1.6l0.4,1.4l2.6-2.5l1.9-0.5l-0.4-1.4l-1.8,0.5l-3.5-1L83.2,39.7z
		 M21.6,20.8c0.2-0.2,0.8,0,0.8,0.1c0.1,0.1,0,0.3-0.1,0.4c-0.1,0-0.3,0.1-0.5,0C21.7,21.2,21.6,20.9,21.6,20.8z M20.3,21.1
		c0.2,0,0.6,0.1,0.7,0.1c0.1,0,0.1,0.3,0.2,0.4c0.1,0.1,0.2,0.4,0.3,0.3c0.2,0,0.4,0,0.5,0c0.1,0.1,0.4,0.5,0.5,0.7
		c0.2,0.1,0.5,0,0.5-0.1c0-0.2-0.1-0.7,0.1-0.8c0.2-0.1,0.4-0.2,0.6-0.2c0.2,0,0.3-0.2,0.2-0.4c0-0.2-0.2-0.3-0.3-0.3
		c-0.2,0-0.4,0.1-0.4,0c-0.1-0.1-0.2-0.2-0.2-0.4c-0.1-0.2-0.3-0.3-0.4-0.3c-0.2,0-0.3,0-0.4-0.2c-0.1-0.2-0.1-0.2-0.2-0.4
		c0-0.2,0-0.5-0.3-0.5c-0.3,0-0.6,0.1-0.7,0.2c-0.1,0.1,0.1,0.4,0,0.5c-0.1,0.1-0.2,0.3-0.3,0.4c-0.1,0-0.4,0.1-0.5,0.1
		c0,0-0.3,0.2-0.2,0.4C19.9,20.9,20.1,21.1,20.3,21.1z M56.3,13.6c0.1-0.2,0.3-0.2,0.4-0.2c0.2,0,0.7-0.2,0.8-0.5
		c0.1-0.3,0.1-0.5-0.1-0.6c-0.2-0.1-0.4-0.3-0.3-0.5c0.1-0.2,0.3-0.2,0.9-0.1c0,0,0.4,0,0.4,0.2c0,0.2-0.2,1.7-0.6,2
		c-0.4,0.2-1.1,0-1.1,0S56.2,13.8,56.3,13.6z M58,10.4c0.2-0.3,1.4,0.1,1.8,0.3c0.4,0.2,0.2,0.3,0,0.3c-0.2,0-0.3-0.1-0.8-0.1
		c-0.5,0-1-0.4-1-0.4C58,10.5,58,10.4,58,10.4z M60.7,12.1c0.2,0,0.4,0.2,0.4,0.4c0,0.2-0.4,0.3-0.5,0.4c-0.2,0.1-0.4,0.1-0.5,0.2
		c-0.1,0.1,0,0.4,0.1,0.4c0.2,0.1,0.2,0.3,0.2,0.5c0,0.2-0.4,0.3-0.7,0.3c-0.3,0-0.5-0.2-0.6-0.3c-0.1-0.1,0.1-0.7,0.2-1
		c0.1-0.3,0.5-1.1,0.5-1.1C59.9,11.9,60.6,12.1,60.7,12.1z M53,14.5c0.4,0.1,2.2,0.2,2.5,0.2c0.2,0,2.2,0.2,2.3,0.5
		c0.1,0.3-0.4,0.5-0.8,0.5c-0.4,0-1.1-0.4-2-0.5c-0.9-0.1-1.8,0-1.9,0.4c0,0.4,0.5,0.6,0.7,0.7c0.2,0,1.6-0.2,3.2,0.6
		c0,0-0.3,1.5-0.2,1.7c0.1,0.2,0.5,0.2,0.7,0.1c0.1-0.1,0.3-0.5,0.4-1.1c0.1-0.6,0.3-0.4,0.5-0.3c0.1,0,0.6,0.5,1.7,0.6
		c1.1,0.1,1.4,0.3,1.6-0.2c0.2-0.5-0.4-0.6-0.6-0.7c-0.2,0-0.9-0.1-1.4-0.4c-0.5-0.2-1-0.5-1-0.7c0-0.2,0.1-0.3,0.3-0.3
		c0.2,0,1.5,0.3,2.4,0.9c0.9,0.6,1.9,1,2.2,0.9c0.3,0,0.9-0.3,1.1-0.8c0.1-0.4-0.5-0.8-0.8-1c-0.3-0.1-0.5-0.2-0.9-0.2
		c-0.3,0-1.3-0.3-1.6-0.4c-0.3-0.1-0.4-0.2-0.3-0.5c0.1-0.3,0.5-0.1,0.7-0.1c0.1,0,0.5,0.4,0.9,0.1c0.4-0.3,0.3-0.6,0.1-0.7
		c-0.2-0.2-0.3-0.3-0.3-0.5c-0.1-0.2-0.2-0.6-0.5-0.7c0,0,0.5-0.3,0.6-0.8c0,0-0.1-0.1-0.4-0.2c-0.4-0.1-0.4-0.5-0.3-0.4
		c0.2,0,1.2,0.6,1.4,0.3c0.2-0.2,0.3-0.7,0.1-0.9c-0.2-0.2-0.8-0.6-1.4-0.7c0,0,0.1-0.8-0.1-0.9c-0.2-0.1-0.4-0.2-0.5-0.1
		c-0.2,0.2-0.4,0.6-0.7,0.7c-0.4,0-0.9-0.3-1.2-0.4c-0.3,0-0.7-0.1-1-0.2c-0.2-0.1-0.1-0.5-0.3-0.6c-0.2-0.1-0.5-0.2-0.8,0.1
		c-0.3,0.3-0.5,0.1-0.7,0.1c-0.2,0-1.2-0.2-1.4,0.2c-0.2,0.3-0.4,0.7,0,1.2c0,0,0.4,0.1,0.6,0.1c0.2,0,1.1,0,0.9,0.2
		c-0.2,0.2-1.1,0.1-1.1,0.1s-0.2,0.2,0,0.6c0.2,0.4,0.2,0.3,0.5,0.4c0.3,0,0.4,0,0.2,0.3c-0.2,0.3-0.7,0.1-0.9,0.1
		c-0.2,0-0.9-0.1-1,0.4c-0.1,0.5,0.2,1,0.5,1c0.2,0,0.8-0.2,0.8,0c0,0.1,0.1,0.4-0.3,0.3c-0.4,0-1.8-0.4-2.1-0.4
		c-0.3,0-0.7,0-0.8,0.5C52.1,14.1,52.6,14.4,53,14.5z M85.2,43.7l-1,0.1l0.3,3.8l1-0.1l-0.1-1.3l4-0.4l-0.1-1.3l-4.1,0.4L85.2,43.7z
		 M73.6,74.7l-1,0.8l2,2.5c0.7,1,0.1,1.5-0.6,1.4c-0.3,0-0.6-0.3-0.6-0.3l-2.1-2.5l-1,0.8l2.4,2.9c0.4,0.5,0.7,0.5,1.2,0.4
		c0.9-0.1,2-0.8,2.2-1.7c0.3-1-0.5-2-0.5-2L73.6,74.7z M56.5,83.4l-1.4,1.4l0.7,0.7l0.8-0.8l0.7,3.5l1.2-0.2l-1-4.8L56.5,83.4z
		 M47.5,85.8c-0.1,0.2-0.4,0.5-0.8,0.4c-0.9-0.4-0.3-1.6,0.2-1.5c0.3,0,0.6,0.2,0.6,0.8C47.6,85.4,47.6,85.5,47.5,85.8z M48.3,84.4
		c-0.4-0.4-0.9-0.5-1.3-0.6c-1-0.1-1.6,0.8-1.6,1.6c0,0.3,0,0.5,0.2,0.8c0.4,0.5,0.8,0.6,1.1,0.7c0.8,0,1.3-0.8,0.9,0.3
		c-0.2,0.5-0.5,0.7-0.9,0.7c-0.4,0-0.7,0-1.2-0.3l-0.1,0.8c0,0.1,1.5,0.6,2.6-0.2c0.4-0.3,0.8-1.3,0.8-2.3
		C48.7,85.6,48.8,85,48.3,84.4z M52.2,84l-1.6,1.2l0.6,0.8l0.9-0.7l0.2,3.6l1.1-0.1l-0.3-4.9L52.2,84z M60.4,84.5l0.5,1.2l3.8-1.4
		l-0.4-1.2L60.4,84.5z M84.6,49.9h5.1v-1.4h-5L84.6,49.9z M87.7,50.7c-0.3,0.1-0.8,0.4-1,1.1c-0.5,2-1.2,1.4-1.4,0.7
		c-0.1-0.7,0.2-1.4,0.2-1.4l-1,0c-0.1,0.3-0.1,0.9-0.1,1.5c0,0.5,0.1,1.2,0.8,1.7c0.5,0.3,1.9,0.7,2.3-1c0.4-1.7,1.2-1.3,1.4-0.6
		c0.1,0.7-0.1,1.5-0.1,1.5l0.9,0.1c0.1,0,0.1-0.4,0-1.9C89.7,50.7,88.1,50.7,87.7,50.7z M85.9,57.6c-0.2,0.6-0.2,0.5-0.2,0.5
		l-1.3-0.3c0,0,0.1-1,0.6-1.2C85.5,56.3,86.1,57,85.9,57.6z M86.7,56.3C86.7,56.4,86.7,56.4,86.7,56.3
		C86.7,56.4,86.7,56.4,86.7,56.3c0-0.2-0.1-0.7-0.6-1c-0.6-0.4-1.6-0.4-2.1,0.8c-0.4,1.1-0.6,1.7-0.6,2.1c-0.1,0.4,0,0.5,0,0.5
		l4.9,1.3l0.4-1.3l-1.9-0.6c0,0,0-0.5,0.4-0.8c0.1-0.1,0.4-0.1,0.6-0.1c1.2,0,1.3,0,1.3,0l0.3-1.4c0,0-1.4,0.1-2.2,0.2
		C86.9,56.1,86.8,56.3,86.7,56.3z M80.9,64.9l2.9,2.9l-4-0.8l-0.7,1.2l5.2,0.9l0.8-1.5l-3.7-4L80.9,64.9z M86.1,63.3L85,62.9
		l0.7-1.9l-0.8-0.3l-0.8,1.9l-1-0.4l0.8-2l-0.8-0.4l-1.3,3.3l4.7,1.8l1.3-3.4L87,61.2L86.1,63.3z M78,69.7l4.1,2.9l0.8-1.1l-4.1-2.9
		L78,69.7z M76.6,71.5l2.8,2.5l-4.1-1.2l-1.1,1.3l3.8,3.4l0.8-0.9L76,74.1l4.1,1.2l1.1-1.2l-3.7-3.4L76.6,71.5z M68.3,60.2
		c0,0-0.1,0-0.2,0.3c-0.1,0.3-0.2,0.7-0.1,0.9c0.1,0.2,0.3,0.4,0.4,0.4c0.1,0,0.4-0.1,0.4-0.4c0-0.3,0-0.9-0.1-1
		C68.7,60.3,68.6,60.2,68.3,60.2z M70.5,56.5c0.1,0,0.2,0,0.3-0.1c0.1-0.1,0.2-0.2,0.3-0.3c0.1-0.1,0.4-0.2,0.6-0.4
		c0.1-0.2,0.1-0.3,0-0.5c-0.1-0.2,0-0.4-0.1-0.5s-0.2-0.2-0.4-0.1c-0.2,0-0.2,0-0.4,0.3c0,0-0.2,0.3-0.2,0.5
		c-0.1,0.1-0.3,0.4-0.3,0.6C70.2,56.3,70.4,56.5,70.5,56.5z M73,43.4c-0.1,0.2-0.3,0.1-0.4,0.1c-0.1,0-0.1-0.1-0.1-0.1
		c0,0-0.2,0-0.3-0.1C72.1,43.2,72,43.1,72,43c-0.1-0.1-0.2-0.3-0.3-0.5c-0.1-0.1-0.2-0.3-0.3-0.3c0-0.1,0-0.2,0.1-0.4
		c0.1-0.1,0.4-0.5,0.4-0.5c0.1-0.1,0.2,0,0.4,0.1c0.2,0,0.4,0.2,0.5,0.3c0.2,0.1,0.2,0.3,0.2,0.5c0,0.2,0,0.5,0.1,0.7
		C73.1,43.1,73.1,43.3,73,43.4z M70.6,45.8c0,0.2-0.2,0.3-0.3,0.4c-0.1,0-0.5,0-0.6-0.1c0,0-0.2-0.3-0.2-0.3c0-0.1-0.1-0.3-0.2-0.4
		c-0.1-0.1-0.3-0.3-0.4-0.5c-0.1-0.2-0.2-0.3,0-0.6c0.2-0.2,0.4-0.3,0.4-0.3c0.6,0,0.7,0.3,0.8,0.4c0,0.1,0,0.2,0.1,0.3
		c0.1,0.1,0.1,0.3,0.2,0.4c0.1,0.1,0.1,0,0.2,0.2C70.7,45.5,70.7,45.7,70.6,45.8z M68.4,43.5c-0.3,0-0.4-0.2-0.4-0.4
		c0-0.2,0-0.3,0.1-0.4c0.1-0.1,0.3-0.2,0.3-0.2c0,0,0.3-0.1,0.5,0c0.2,0.1,0.3,0.3,0.3,0.4c0,0.1,0.1,0.3-0.1,0.4
		C68.9,43.5,68.7,43.5,68.4,43.5z M67.7,44.7c0,0-0.3,0.2-0.5,0.4c-0.2,0.2-0.4,0.3-0.5,0.3c-0.1,0-0.6,0.1-0.7,0
		c-0.1-0.1-0.2-0.2-0.2-0.4c0-0.2-0.1-0.4,0.2-0.5c0.2,0,0.7-0.1,0.9-0.1C67.1,44.5,67.7,44.6,67.7,44.7
		C67.7,44.8,67.7,44.7,67.7,44.7z M74,43.8c0-0.1-0.2-0.6-0.2-0.7c-0.1-0.1-0.2-0.4-0.2-0.5c0-0.1,0-0.3-0.1-0.4
		c-0.1-0.1-0.4-1-0.5-1.1c0-0.1,0-0.3-0.1-0.4c-0.1-0.1-0.1,0-0.1-0.2c0-0.1,0-0.4-0.1-0.4c-0.1-0.1-0.6-0.1-0.9-0.1
		c-0.3,0.1-0.3,0-0.4,0.1c-0.1,0.1-0.2,0.3-0.4,0.5c-0.1,0.1-0.2,0.2-0.3,0.3c-0.1,0.1-0.2,0.2-0.3,0.2c-0.1,0.1-0.2,0.3-0.2,0.4
		c0,0.2,0.5,0.7,0.5,0.8c0,0.2,0,0.6-0.2,0.6c-0.2,0.1-0.4,0.1-0.5-0.2c-0.1-0.1-0.4-0.3-0.5-0.6c-0.1-0.2-0.2-0.8-0.2-1
		c0-0.2-0.1-0.3-0.2-0.4c-0.1,0-0.3-0.2-0.4-0.2c-0.1,0-0.2,0.1-0.2,0.1c0,0-0.3,0.5-0.6,0.7c-0.3,0.2-0.9,1-0.9,1.2
		c0,0.1,0.1,0.4,0.1,0.6c0,0.2,0,0.4-0.2,0.5c-0.2,0.2-0.7,0.2-0.9,0.1c-0.2-0.1-0.4-0.2-0.6-0.2c-0.2,0.1-0.4,0.3-0.4,0.5
		c0,0.2,0,0.6,0.1,0.7c0,0.1,0.1,0.3,0.1,0.4c0,0.1,0,0.4,0,0.5c0.1,0.1,0.2,0.1,0.1,0.2c0,0.1,0.1,0.3,0.1,0.5
		c0.1,0.1,0.2,0.3,0.3,0.4c0,0.1,0.2,0.4,0.3,0.5c0.1,0,0.3,0.1,0.5,0.1c0.2,0,0.3-0.1,0.3-0.3c0.1-0.2,0.1-0.5,0.2-0.6
		c0.1-0.1,0.6-0.3,0.6-0.5c0-0.2,0-0.5,0.1-0.7c0.1-0.2,0.2-0.3,0.3-0.3c0.1,0,0.3,0.2,0.3,0.3c0,0.1,0.2,0.5,0.2,0.6
		c0,0.1,0,0.2,0.1,0.3c0.1,0.1,0.2,0.4,0.3,0.4c0,0.1,0.1,0.1,0.2,0.1c0.1,0,0.2,0.1,0.2,0.1c0.1,0,1.1,0.1,1.4,0
		c0.3-0.1,0.5-0.2,0.5-0.4c0-0.2,0.1-0.5,0-0.7c-0.1-0.1-0.3-0.4-0.4-0.6c-0.2-0.3-0.3-0.6-0.3-0.8c0-0.3,0.1-0.6,0.2-0.7
		c0.1-0.1,0.3-0.1,0.5,0c0.1,0.1,0.9,0.7,1,0.8c0.1,0.1,0.3,0.2,0.6,0.2c0.3,0,0.9-0.3,1.1-0.5C74.3,43.9,74,43.8,74,43.8z
		 M65.3,42.3c0.5-0.3,1.5-0.6,1.6-0.7c0.2-0.3,0.3-0.9,0.2-1.3c0-0.3-0.2-0.3-0.2-0.6c0-0.2,0-0.5,0.1-0.6c0.2-0.2,0.5-0.2,0.7-0.2
		c0.3,0,0.6,0.3,0.8,0.5c0.4,0.5,0.8,0.5,1,0.4c0.4-0.2,0.3-0.5,0.7-0.4c0.3,0,0.5-0.1,0.7-0.4c0.1-0.3,0.1-0.7,0-0.9
		c-0.1-0.1-0.2-0.3-0.4-0.5c-0.1-0.1-0.2-0.2-0.2-0.4c-0.1-0.2-0.2-0.3-0.3-0.4c-0.2-0.4,0-0.4-0.2-0.4c-0.5-0.1-0.6,0.2-0.6,0.2
		c0,0,0,0.1,0.1,0.4c0,0.2,0,0.4,0.1,0.5c0.1,0.2,0.4,0.3,0.5,0.4c0.5,0.7-0.7,1-1.1,0.7c-0.7-0.5-0.7-2-2.2-0.6
		c-0.2,0.2-0.3,0.2-0.6,0.6c0,0-0.1,0.5,0,0.8c0.2,0.6,0.3,0.3,0.5,0.6c0.1,0.1,0.1,0.2,0,0.3c0,0.2-0.2,0.4-0.4,0.5
		c-0.5,0.1-1,0.3-1.6,0.3c-0.3,0-0.6-0.1-0.9-0.2c-0.7,0-0.7,0.7-0.4,1c0.3,0.3,0.4,0.4,0.8,0.5c0.2,0,0.9,0.1,1.1,0
		C65.1,42.5,65.1,42.4,65.3,42.3z M44.5,32.1c-0.3,0-0.3-0.1-0.4-0.2c0-0.1,0.5-0.3,0.5-0.3c0.2-0.1,0.3,0.1,0.3,0.2
		C45,32,44.8,32,44.5,32.1z M43.9,31c-0.2,0-0.2-0.2-0.2-0.2c0.1-0.1,0.3-0.3,0.3-0.3c0.5-0.2,0.7,0,0.7,0.2c0,0.1-0.2,0.3-0.4,0.4
		C44.2,31.1,44.1,31.1,43.9,31z M42.4,30.8c-0.2,0.1-0.3,0.1-0.6,0.1s-0.3-0.1-0.3-0.1c0-0.1,0-0.2,0.2-0.3c0.2,0,0.5-0.2,0.5-0.2
		c0.1-0.1,0.4-0.2,0.5-0.3c0.2-0.1,0.7-0.4,0.8-0.5c0.1,0,0.5,0,0.6,0c0.1,0,0.2,0.1,0.2,0.1c0,0.1-0.2,0.2-0.2,0.2
		C44,29.9,42.5,30.7,42.4,30.8z M41.3,30c-0.2,0-0.3-0.2-0.2-0.3c0-0.2,0.3-0.4,0.3-0.4c0.1-0.1,0.5-0.3,0.6-0.3
		c0.1-0.1,0.3-0.2,0.4-0.2c0.1,0,0.2-0.1,0.3-0.1c0.1,0,0.4-0.2,0.5-0.2s0.2,0,0.3,0c0.1,0,0.2-0.1,0.4-0.1c0.2,0,0.2,0.2,0.2,0.3
		c-0.1,0.1-0.3,0.1-0.4,0.1c-0.1,0-0.3,0.2-0.4,0.2c-0.1,0.1-0.4,0.2-0.4,0.3c-0.1,0.1-0.8,0.4-1,0.5C41.6,29.9,41.4,30,41.3,30z
		 M47.1,31.8c-0.2,0-1.1,0-1.2,0c-0.1,0-0.2-0.1-0.3-0.2c0-0.1,0-0.5,0-0.8c0-0.2,0-0.4-0.1-0.4c-0.2,0-0.3,0.1-0.3-0.1
		c0-0.2,0-3,0-3S45,27,44.8,27.1c-0.1,0-0.2,0.1-0.2,0.2c-0.1,0.1-0.2,0.1-0.3,0.1c-0.1,0-0.3,0.1-0.4,0.1c0,0.1-0.3,0.1-0.4,0.1
		c-0.1,0-0.2,0.1-0.3,0.2c-0.1,0.1-0.4,0-0.5,0.1c-0.2,0.1-0.6,0.3-0.7,0.3c-0.1,0-0.2,0.1-0.3,0c-0.1-0.1-0.1-0.2,0.1-0.5
		c0,0,1-0.5,1.2-0.6c0.3-0.1,0.5-0.3,0.7-0.3c0.1,0,0.4,0,0.6-0.1c0.2-0.1,0.5-0.3,0.6-0.6c0.1-0.3-0.1-0.4-0.2-0.4
		c-0.1,0-0.5,0-0.9,0.1c-0.4,0.1-2,0.8-2.7,1.1c-0.7,0.3-2.2,1.1-2.5,1.2c-0.3,0.1-1.1,0.7-1.2,0.9c-0.1,0.3,0,0.4,0.2,0.8
		c0.3,0.3,0.7,1.1,0.8,1.3c0.1,0.2,0.6,1,0.7,1.2c0.1,0.2,0.6,1.1,0.7,1.3c0.1,0.2,0.2,0.6,0.3,1c0,0.4,0,0.8,0,1
		c0,0.2-0.2,0.5,0,0.8c0.2,0.3,0.3,0.3,0.4,0.3c0.1,0,0.3-0.1,0.4-0.6c0.1-0.5,0.1-0.9,0.1-1.5c-0.1-0.6-0.2-1.4-0.5-1.9
		c-0.3-0.5-0.6-1.3-0.8-1.6c-0.2-0.3-0.5-0.7-0.7-0.8c-0.1-0.1-0.2-0.4-0.2-0.7c0-0.3,0.2-0.4,0.4-0.6c0.2-0.2,0.7-0.5,0.9-0.6
		c0.1,0,0.4-0.1,0.5,0.1c0.1,0.1,0.1,0.3,0,0.4c-0.1,0.1-0.4,0.3-0.4,0.5s-0.1,0.7,0,0.8c0.1,0.2,0.5,0.7,0.6,0.8
		c0.1,0.1,0.1,0.3,0.3,0.5c0.1,0.2,0.4,0.4,0.6,0.4c0.1,0,0.3,0,0.4-0.1c0.1-0.1,0.2-0.3,0.4-0.2c0.1,0,0.2,0.1,0.2,0.2
		c0,0.1,0,0.5,0,0.5c0.1,0.1,0.2,0.1,0.4,0.1c0.2,0,0.7,0,0.7,0.2c0,0.2-0.1,0.3-0.2,0.4c-0.2,0.1-0.4,0.1-0.5,0.2
		c-0.1,0.1-0.5,0.3-0.4,0.6c0.1,0.3,0.4,0.4,0.5,0.4c0.1,0,0.3-0.2,0.5-0.4c0.2-0.2,0.6-0.3,0.7-0.4c0.1,0,0.5-0.1,0.5,0.1
		c0,0.1,0,0.5,0,0.7c-0.1,0.2-0.2,0.3-0.3,0.5c-0.2,0.1-0.4,0.2-0.5,0.2c-0.1,0-0.3,0.1-0.4,0.3c-0.1,0.1-0.2,0.3-0.1,0.6
		c0.1,0.2,0.3,0.3,0.4,0.3c0.1,0,0.2,0.2,0.4,0.1c0.2-0.1,0.6-0.3,0.8-0.6c0.2-0.3,0.4-0.6,0.5-0.7c0.1-0.1,0.2-0.4,0.2-0.7
		c0-0.3-0.1-0.7,0-0.9c0-0.2,0.2-0.3,0.3-0.4s0.3-0.3,0.4-0.3c0.1,0,0.4,0,0.5,0s0.2,0,0.3-0.1c0.1-0.1,0.2-0.2,0.2-0.3
		c0-0.1,0.1-0.3,0-0.4C47.3,31.8,47.2,31.8,47.1,31.8z M59.6,65.1c0.2,0,0.4-0.3,0.3-0.4c-0.1-0.1-0.2-0.3-0.3-0.4
		c0-0.1-0.1-0.6-0.1-0.8c0-0.2-0.1-0.3-0.4-0.3c-0.3,0-0.3,0.2-0.3,0.3c0,0,0,0.5,0.1,0.9C59.2,64.8,59.4,65.1,59.6,65.1z
		 M55.5,66.5c0.1,0.1,0.2,0.2,0.3,0.2c0.1,0,0.4,0.1,0.5-0.1c0.1-0.2,0.1-0.5,0-0.6c-0.1-0.2-0.4-0.5-0.6-0.4c0,0-0.2,0.2-0.2,0.3
		C55.6,66,55.5,66.5,55.5,66.5z M53.3,66.2c0.2,0,0.4-0.4,0.4-0.4c0.5-0.6,0.9-0.8,1.1-0.8c0.2,0,0.4,0,0.6-0.1
		c0.2-0.2,1.1-0.1,1.2-0.1c0.2,0,0.4,0.4,0.7,0.6c0.3,0.1,0.4,0,0.5-0.1c0.1-0.1,0.1-0.5,0.1-0.6c0-0.2,0-0.3,0.1-0.4
		c0.1-0.1,0-0.4,0-0.6c0-0.2-0.2-0.2-0.3-0.2c-0.1,0-0.2,0.1-0.2,0.2c-0.1,0.1-0.3,0.3-0.4,0.3c-0.1,0-0.5-0.1-0.7-0.2
		c-0.2-0.1-0.9-0.2-1-0.2s-0.6,0.2-0.9,0.3c-0.3,0.1-0.5,0.3-0.6,0.3c-0.1,0.1-0.3,0.3-0.4,0.4c-0.1,0.1-0.2,0.2-0.2,0.3
		c-0.1,0.2-0.2,0.4-0.2,0.4c-0.1,0.1-0.2,0.2-0.1,0.4C53,66.1,53.2,66.2,53.3,66.2z M13.2,46.1c0.6-1.7,1.4-1.2,1.4-0.4
		c0.1,0.7-0.3,1.5-0.3,1.5l0.9,0.2c0.1,0,0.1-0.4,0.3-1.9c0.1-1.6-1.5-1.8-1.8-1.8c-0.3,0-0.9,0.3-1.1,1c-0.7,2-1.4,1.3-1.4,0.5
		c-0.1-0.7,0.3-1.3,0.3-1.3l-1-0.2c-0.1,0.3-0.2,0.9-0.3,1.5c0,0.5,0,1.2,0.6,1.8C11.2,47.3,12.6,47.8,13.2,46.1z M59.4,66.6
		c0.4,0,0.3,0.4,0.3,0.5c0,0.1-0.5,0.4-0.7,0.5c-0.2,0.2-1.4,0.8-1.7,1c-0.3,0.1-1.5,0.7-1.7,0.7c-0.2,0-0.3-0.2-0.2-0.5
		c0.1-0.3,0.5-0.6,0.8-0.7c0.3-0.1,1.1-0.6,1.5-0.8c0.4-0.2,0.7-0.2,0.9-0.4C58.9,66.8,59.4,66.6,59.4,66.6z M60.6,68.3
		c0.1,0.3-0.1,0.5-0.2,0.5c-0.1,0.1-0.3,0.1-0.4,0.2c-0.2,0.1-0.3,0.3-0.4,0.3c-0.1,0.1-0.3,0.1-0.6,0.3c-0.4,0.3-0.7,0.4-0.8,0.4
		c-0.1,0-0.2,0.1-0.5,0.2c-0.3,0.1-0.5,0.2-0.6,0.2c-0.2,0-0.3,0.1-0.4,0.3c-0.2,0.2-0.5,0.4-0.6,0.4s-0.2-0.1-0.2-0.3
		c0-0.3,0.2-0.6,0.3-0.7c0.1-0.1,0.4-0.1,0.4-0.1c0.1,0,0.2-0.2,0.3-0.3c0.2-0.1,0.4-0.2,0.5-0.2c0.1,0,1.2-0.6,1.4-0.7
		c0.1-0.1,0.3-0.3,0.4-0.4c0.1-0.1,0.6-0.4,0.6-0.4C60.3,67.8,60.5,67.9,60.6,68.3z M61.3,70.1c0,0.4-0.5,0.7-0.8,0.8
		c-0.3,0.1-1,0.4-1.2,0.5c-0.2,0.1-0.8,0.3-1,0.5c-0.2,0.1-0.6,0.5-1,0.6c-0.4,0.1-0.8,0.1-0.9-0.3c-0.1-0.4,0.4-0.6,0.5-0.6
		c0.1,0,0.5-0.2,0.7-0.2c0.2,0,0.4-0.2,0.4-0.3c0.1-0.1,0.3-0.2,0.5-0.3c0.2-0.1,0.7-0.4,0.9-0.5c0.2-0.1,0.8-0.4,0.8-0.4
		c0.5,0,0.6-0.2,0.8-0.3C61.3,69.5,61.3,69.6,61.3,70.1z M57,67c-0.2,0.1-0.6,0.1-0.7,0.1c0,0-0.2,0.2-0.4,0.5
		c-0.2,0.3-0.8,0.9-0.9,1c-0.1,0-0.2,0.1-0.3,0.2c0,0.1-0.1,0.4,0,0.6c0.1,0.2,0.2,0.3,0.2,0.4c0,0.2,0,0.5,0,0.6
		c0,0.1-0.1,0.4,0,0.5c0.1,0,0.3,0.3,0.3,0.4c0.1,0.1,0.1,0.4,0.2,0.5c0,0.1,0.1,0.6,0.2,0.8c0.1,0.3,0.5,1,0.9,1
		c0.3,0,0.9-0.3,1.1-0.3c0.2-0.1,1.7-0.6,1.8-0.6c0,0,0.7,0.4,0.8,0.4c0.1,0,0.2,0.1,0.2-0.1c0-0.2-0.1-0.8,0.1-1
		c0.2-0.2,1.8-1.7,2-1.8c0.1-0.2,0.1-0.2,0-0.4c-0.1-0.2-0.6-1-0.8-1.3c-0.1-0.3-0.4-0.7-0.5-0.9c-0.2-0.2-0.5-0.6-0.7-0.9
		c-0.2-0.3-0.4-0.9-0.6-1.1c-0.2-0.1-0.3-0.2-0.4-0.2c-0.1,0-0.2,0.2-0.3,0.3c-0.1,0.1-0.7,0.4-1.1,0.6C57.7,66.7,57.2,66.9,57,67z
		 M70.3,58.3c0-0.3-0.6-0.7-0.6-0.7c-0.1-0.1-0.3-0.3-0.4-0.3c-0.1,0-0.2-0.2-0.2-0.3c0-0.1-0.1-0.4-0.2-0.6
		c-0.1-0.2-0.5-0.8-0.7-1.5c-0.2-0.7-0.3-1.2-0.3-1.6c0-0.4-0.1-0.5-0.1-0.5s-0.6-0.2-0.9,0.1c-0.3,0.6-0.1,1.3,0.1,1.7
		c0.2,0.4,0.6,0.8,0.8,1.1c0.2,0.2,0.3,0.6,0.2,0.8c-0.1,0.2-0.7,0.2-0.9,0.1c-0.3-0.1-1.3-0.8-1.3-0.9c-0.1-0.1-0.5,0-0.5,0
		c-0.1,0-0.1-0.1-0.3-0.2c-0.1-0.1-0.3-0.1-0.3-0.2c-0.1,0-0.2,0-0.3,0.2c-0.1,0.1-0.3,0.3,0,0.8c0.3,0.5,0.6,0.6,1.1,0.7
		c0.5,0.1,1.1,0.3,1.4,0.4c0.3,0.1,0.7,0.1,0.8,0.1c0.2-0.1,0.2-0.1,0.5,0c0.2,0.1,0.2,0.4,0.2,0.6c0,0.2-0.3,0.4-0.4,0.3
		c-0.1,0-0.3-0.2-0.5-0.2c-0.1,0-0.4,0.1-0.5,0.1c-0.2,0.1-0.7,0-0.9,0c-0.3,0-0.8,0.1-1.3,0.3c-0.5,0.2-0.6,0.6-0.7,1
		c-0.1,0.4,0,0.7,0.2,0.8c0.2,0.1,0.2-0.1,0.4-0.2c0.2-0.1,0.3-0.4,0.6-0.5c0.3-0.1,1-0.3,1.2-0.4c0.2-0.1,0.7-0.2,1.1-0.2
		c0.3,0,0.9-0.1,1-0.2c0.1-0.1,0.4-0.2,0.5-0.3c0.1,0,0.7,0.1,0.9,0.1S70.3,58.5,70.3,58.3z M26.1,45.4c0,0,0.2,0.4,0.3,0.5
		c0.1,0.1,0.1,0.2,0.3,0.2c0.2,0,0.2,0,0.3-0.2c0.1-0.2,0.1-0.5,0.2-0.7c0-0.2,0.2-0.5,0.2-0.7c0-0.2,0.1-0.5-0.1-0.7
		c-0.2-0.2-0.4-0.3-0.8-0.1c0,0-0.2,0.1-0.1,0.2c0,0.1,0,0.4-0.1,0.6c-0.1,0.2-0.1,0.3-0.2,0.3c-0.1,0-0.2,0.1-0.2,0.2
		C25.9,45.1,26.1,45.4,26.1,45.4z M73.2,54.6c-0.1-0.1-0.5,0-0.5,0.2s-0.1,1.2-0.1,1.7c-0.1,0.5-0.2,0.8-0.4,1.1
		c-0.2,0.3-1,1.7-1.1,1.9c-0.1,0.2-0.4,0.8-0.5,0.9c-0.1,0.1-0.1,0.3-0.1,0.3s-0.2,0.4-0.2,0.5c0,0.1-0.1,0.4-0.2,0.5
		c-0.1,0.1-0.3,0.5-0.4,0.6c0,0.1,0,0.3,0.1,0.5s0.3,0.7,0.5,0.6c0.2,0,0.4-0.4,0.6-0.6c0.1-0.2,0.2-0.6,0.3-0.8
		c0.1-0.2,0.3-0.5,0.5-0.8c0.1-0.3,0.3-0.6,0.4-0.8c0-0.2,0.1-0.4,0.3-0.6c0.1-0.2,0.5-1.2,0.7-1.5c0.2-0.3,0.3-0.6,0.3-1
		c0.1-0.4,0.1-0.9,0.2-1.1c0.1-0.2,0.2-0.4,0.1-0.8C73.5,55.1,73.3,54.6,73.2,54.6z M15.1,61.7l-0.8,0.3l0.3,0.7l-1.1,0.4
		c0,0-0.3-0.5-0.4-1.1c0-0.2,0-0.4,0.1-0.7c0.4-1,1.8-1.3,2.7-0.7c1,0.6,0.8,2.3,0.8,2.3l1-0.2c0,0-0.1-1.4-0.6-2.2
		c-0.6-1.1-1.5-1.5-2.3-1.6c-0.5,0-1,0.2-1.5,0.4c-0.3,0.1-0.5,0.4-0.9,0.8c-0.1,0.1-0.9,1.1,0,3.1c0.5,1.2,0.7,1.3,0.7,1.3l2.7-1
		L15.1,61.7z M53.7,68.4c0.4-0.3,0.4-0.7,0.6-1.1c0.2-0.4,0.2-0.7,0.2-0.7c-0.1-0.2-0.4-0.1-0.5-0.1c-0.1,0-0.3,0.3-0.3,0.4
		c0,0.1-0.2,0.2-0.2,0.2c0,0-0.1,0.1-0.2,0.2c-0.1,0.1-0.1,0.2-0.1,0.3c0,0.1-0.2,0.3-0.3,0.5c-0.1,0.2,0.1,0.4,0.1,0.5
		C53.1,68.8,53.4,68.8,53.7,68.4z M15.8,55.8L12,56.5l3.6-2.4l-0.2-1.6l-5,0.8l0.2,1.1l3.7-0.6l-3.5,2.3l0.2,1.7l5-0.7L15.8,55.8z
		 M15.3,49.2l-5.1,0l0,1.4l5.1,0L15.3,49.2L15.3,49.2z M24.4,72.9l-0.8-1l-2.2,1.8c-1.4,1.1-2.2-0.2-1.8-0.8
		c0.7-0.9,1.9-1.5,2.8-2.3l-0.8-1.1c0,0-2.6,2.1-2.7,2.2c-0.1,0.1-1.2,0.9-0.4,2.4c1,1.8,2.6,1.2,3.3,0.7
		C22.5,74.4,24.4,72.9,24.4,72.9z M20,66.9l-1.7,0.9l-0.8-1.3l1.7-1.1l-0.6-1.2l-4.4,2.5l0.6,1.1l1.8-1l0.7,1.4l-1.8,1l0.6,1.2
		l4.4-2.5L20,66.9z M34,42.1c0,0.1,0,0.3,0.1,0.4c0,0.1,0,0.3-0.1,0.3c-0.1,0.1-0.1,0.2-0.3,0.3c-0.2,0-0.4,0-0.4,0.2
		c0,0.1-0.1,0.6-0.2,0.7c-0.1,0.1-0.2,0.3-0.2,0.4c0,0.1,0,0.5,0,0.6c0,0.1-0.1,0.2-0.4,0.2c-0.3,0-0.5-0.2-0.7-0.1
		c-0.2,0-0.7-0.1-0.7-0.1c-0.1,0-0.4,0-0.6,0c-0.2,0-0.4,0-0.5-0.1c-0.1-0.1-0.3-0.4-0.4-0.4c-0.1,0-0.7-0.2-0.8,0.2
		c0,0,0,0.1-0.1,0.2c-0.1,0.1-0.2,0.2-0.2,0.3c0,0.2-0.1,0.6-0.1,0.9c0.1,0.3,0.3,0.7,0.3,0.8c0,0.1,0.2,0.1,0.4,0.1
		c0.2,0,0.5,0,0.5-0.3c0-0.2,0-0.7,0-0.8c0.1-0.1,0.1-0.2,0.4-0.2c0.3,0,1.3,0,1.4,0c0.1,0,0.5,0.3,0.6,0.5c0.1,0.2,0.6,0.8,0.8,0.9
		c0.3,0.1,0.5,0.2,0.8,0.1c0.2-0.1,0.2-0.5,0.2-0.7c0-0.2-0.1-0.5-0.1-0.7c-0.1-0.2-0.2-0.3-0.1-0.4c0.1-0.1,0.2,0,0.3-0.1
		c0.1,0,0.3-0.2,0.3-0.3c0-0.1,0-0.3-0.1-0.5c-0.1-0.1-0.3-0.2-0.2-0.3c0-0.1,0.3-0.5,0.4-0.6c0.2,0,0.9,0.1,1.1,0
		c0.2-0.1,0.3-0.3,0.4-0.3c0.1-0.1,0.2,0,0.4-0.3c0.3-0.3,0.7-0.8,0.8-1.1c0.1-0.4,0-0.9-0.1-1.1c-0.1-0.2-0.2-0.3-0.4-0.4
		c-0.2-0.1-0.5-0.3-0.5-0.4s0-0.3-0.1-0.3c-0.1-0.1-0.2-0.2-0.5,0c-0.3,0.1-0.6,0.3-0.6,0.6c0,0.3,0.3,0.6,0.4,0.6
		c0.1,0,0.6,0,0.7,0.1c0.1,0.1,0.3,0.2,0.2,0.8c-0.1,0.6-0.3,0.7-0.4,0.9c-0.2,0.1-0.5,0.2-0.7,0.1c-0.2-0.1-0.3-0.2-0.2-0.4
		c0.1-0.1,0.4-0.4,0.5-0.5c0-0.1-0.1-0.3-0.3-0.3c-0.2,0-0.5-0.1-0.8,0.1C34,41.8,34,42,34,42.1z M25.1,77.8L24.2,77l1.7-0.9
		L25.1,77.8z M21.3,77.1l0.9,0.9l1-0.5l1.4,1.4l-0.5,1l1,1l2.1-5l-1.2-1.2L21.3,77.1z M27.2,58.1c0.3-0.2,0.4-0.4,0.1-0.6
		c-0.3-0.2-0.6-0.6-0.8-0.6c-0.3,0-0.6,0.1-0.6,0.3c0,0-0.1,0.4,0.4,0.7C26.6,58.2,26.9,58.2,27.2,58.1z M61,31.1
		c-0.1,0.1-0.3,0-0.4,0c-0.1,0-0.2-0.1-0.3-0.1c-0.1,0-0.4,0-0.5,0c-0.1,0-0.2,0-0.4,0c-0.1,0-0.5-0.4-0.6-0.5
		c-0.1-0.1-0.3-0.1-0.5-0.1c-0.2,0-0.3-0.1-0.4-0.1c-0.1-0.1-0.4,0-0.5,0c-0.2,0-0.4,0-0.5-0.1c-0.1-0.1-0.6-0.1-0.9-0.2
		c-0.2-0.1-0.4-0.3-0.5-0.4c-0.1-0.1-0.1-0.4,0.1-0.5c0.1-0.1,0.5-0.3,0.5-0.3c0.1-0.1,0.6,0,0.9,0c0.3,0,0.7,0.2,0.8,0.3
		c0.2,0,0.3,0.1,0.4,0c0.1-0.1,0.2-0.1,0.4,0c0.1,0,0.4,0.2,0.6,0.3c0.2,0.1,0.7,0.4,1,0.6c0.3,0.2,0.5,0.3,0.6,0.4
		c0.1,0.1,0.2,0.2,0.3,0.4C61.2,30.9,61,31,61,31.1z M60.4,32.6c0,0.1-0.4,0.5-0.5,0.5c-0.1,0.1-0.4,0-0.4,0s-0.1-0.1-0.4-0.2
		c-0.5,0-1-0.5-1.2-0.5c-0.1,0-0.6,0-0.8,0c-0.2,0-0.9,0-1-0.1c-0.2,0-0.5-0.3-0.6-0.4c-0.1-0.1-0.5-0.4-0.5-0.4s-0.1-0.1,0.1-0.3
		c0.2-0.2,0.7-0.3,0.7-0.3c0.1,0,0.8,0.1,0.8,0.1c0.1,0,0.3,0.2,0.4,0.3c0.1,0.1,0.2,0.1,0.3,0.2c0.1,0,0.3,0,0.5,0.1
		c0.2,0,0.5,0,0.7,0.1c0.2,0,0.5,0.2,0.6,0.3c0.2,0.1,0.5,0,0.6,0c0.1,0,0.3,0.1,0.4,0.2C60.5,32.4,60.5,32.5,60.4,32.6z M59.4,34.7
		c-0.1,0-0.1,0.1-0.1,0.2c0,0.1-0.1,0.2-0.3,0.3c-0.1,0.1-0.3,0.1-0.5,0.1c-0.2,0-0.4,0.1-0.6,0.1s-0.5-0.1-0.7-0.2
		c-0.2-0.1-1.7-0.8-1.9-0.9c-0.3-0.1-0.4-0.3-0.4-0.4c-0.1-0.1-0.2-0.4-0.1-0.6c0-0.2,0.4-0.4,0.4-0.4c0.3-0.1,0.5,0.1,0.6,0.1
		c0.1,0,0.1,0.1,0.2,0.1c0.1,0,0.2,0.1,0.3,0.1c0.1,0,0.6,0,0.7,0c0.1,0,0.6,0.1,0.7,0.1c0.1,0,0.2,0.2,0.3,0.2
		c0.1,0,0.3,0.1,0.3,0.1c0.1,0,0.1,0.1,0.3,0.1c0.2,0,0.5,0.1,0.7,0.2c0.2,0.1,0.2,0.2,0.2,0.5C59.6,34.6,59.5,34.7,59.4,34.7z
		 M61.3,29.4c-0.3-0.2-0.4-0.5-0.7-0.6c-0.3-0.1-0.4-0.2-0.7-0.2c-0.4,0-0.5-0.3-0.6-0.5c-0.1-0.2-0.2-0.3-0.2-0.5
		c0.1-0.1,0.2-0.3,0.2-0.4c0-0.1,0.3-0.2,0.2-0.4c-0.1-0.2-0.2-0.2-0.3-0.1c0,0-0.1,0.1-0.3,0.2c-0.2,0-0.3,0.2-0.4,0.2
		c0,0.1-0.2,0.4-0.4,0.5c-0.2,0.1-0.4,0.2-0.7,0.2c-0.3-0.1-0.4,0-0.5-0.1c-0.2-0.1-0.3-0.2-0.4-0.2c-0.2,0-0.8,0.1-1.3,0.3
		c-0.4,0.2-0.6,0.3-0.6,0.5c0,0.2-0.1,0.8-0.1,1.1c0,0.3-0.1,0.8-0.2,1c0,0.3-0.1,0.7-0.2,0.8C54,31.4,54,31.6,54,31.8
		c0,0.2,0,0.4,0.1,0.5c0,0.1,0,0.5-0.1,0.6c-0.1,0.2-0.2,0.7-0.2,0.9c0,0.2,0.2,0.5,0.3,0.6c0,0.1,0.2,0.3,0.3,0.4
		c0.1,0.1,0.3,0.4,0.3,0.5c0.1,0.1,0.1,0.2,0.2,0.2c0.1,0,0.3,0,0.5,0c0.2,0,0.4,0.1,0.5,0.1c0.1,0,0.6,0.2,0.7,0.3
		c0.1,0.1,0.2,0.1,0.3,0.1c0.1,0,0.3,0,0.3,0c0,0.1,0.1,0.2,0.4,0.2c0.3,0,0.7-0.1,0.7,0c0,0.1,0.1,0.2,0.4,0.1
		c0.2-0.1,1.2-0.7,1.3-0.9c0.2-0.2,0.3-0.6,0.2-0.9c0-0.3-0.1-0.4,0.1-0.5c0.1-0.1,0.5-0.3,0.6-0.8c0.1-0.4,0.1-0.6,0.3-0.7
		c0.2-0.1,0.5-0.2,0.5-0.4s0-0.5,0.1-0.7c0.1-0.2,0.3-0.5,0.3-0.6c0-0.1,0.1-0.6-0.2-1C61.6,29.7,61.6,29.6,61.3,29.4z M50.1,53.8
		l5.4,3.9l-2-6.3l5.5-4.1h-6.7L50.1,41l-2.2,6.3h-6.6l5.3,4l-2,6.3L50.1,53.8z M33.1,57.7c0.1,0.1,0.3,0.2,0.2,0.4
		c0,0.2-0.3,0.3-0.5,0.1c-0.3-0.1-0.3-0.5-0.3-0.5C32.8,57.3,33,57.6,33.1,57.7z M33.4,56.8c0.2-0.1,0.3,0,0.5,0.2
		c0.2,0.2,0.3,0.5,0.2,0.6c-0.1,0.1-0.4,0.1-0.7-0.2C33.2,57,33.4,56.8,33.4,56.8z M34.4,59.2c0,0.2-0.2,0.3-0.3,0.3
		s-0.4-0.2-0.4-0.5c0-0.2,0.3-0.3,0.3-0.3C34.1,58.6,34.4,59,34.4,59.2z M34.7,58c0.8,0,0.6,0.6,0.4,0.7c-0.2,0-0.4,0-0.5-0.3
		C34.4,58,34.7,58,34.7,58z M28.1,57.1c0.2,0.5,0.3,0.6,0.2,1c0,0-0.5,0.7-0.7,0.9c-0.2,0.1-0.2,0.7,0.1,0.7c0.2,0.1,0.3,0,0.5-0.3
		c0.1-0.3,0.5-0.7,0.7-0.7s0.5,0,0.7,0.3c0.2,0.2,1.1,1,0.8,1.4c-0.3,0.3-0.5,0.1-0.6,0.1c-0.1,0-0.3-0.3-0.5-0.4
		c-0.2,0-1,0.2-1,0.8c0,0.6,0.3,0.6,0.3,0.7c0,0.2,0.1,0.5,0.3,0.5c0.3,0,0.7-0.3,0.9-0.3c0.2,0,0.5,0,0.9,0.4
		c0.4,0.4,0.9,0.2,0.7,0c-0.1-0.1,0-0.3-0.2-0.5c-0.6-0.4-0.5-0.9-0.5-0.7c0-0.3,0.8,0,1.3,0.7c0.5,0.8,0.3,0.5,0.8,0.9
		c0.5,0.4,1-0.2,0.8-0.7c-0.2-0.6-0.2-0.1-0.8-0.6c-1-0.7-1.5-1.1-1.3-1.5c0.2-0.3,0.6,0.1,1.1,0.6c0.4,0.6,1,0.1,0.8-0.2
		c-0.2-0.3-0.5-1,0-0.5c0.2,0.2,0.2,0.4,0.3,0.5c0.3,0.3,0.5,0.2,0.5,0.1c0.1-0.1,1-1.3,1.3-1.5c0.3-0.2,0.3-0.6,0.3-0.7
		c0-0.1-0.4-0.5-0.4-0.5s0.2-0.3,0.3-0.2c0.2,0.1,0.8,0.7,0.8,0.7s0.6-0.3,0.5-0.5c-0.1-0.2-0.4-0.5-0.6-0.7
		c-0.2-0.2-0.3-0.3-0.1-0.4c0.2-0.1,0.5-0.3,0.5-0.7c0-0.4-0.1-0.6-0.4-0.5c-0.3,0-0.5,0.4-0.7,0.4c-0.3,0-0.5,0-0.7-0.2
		c-0.1-0.2-0.3-0.4-0.5-0.3c-0.2,0.1-0.5,0.3-0.4,0.4c0.1,0.1,0.6,0.5,0.4,0.7c-0.2,0.2-0.7,0-0.7-0.1c-0.1-0.2-0.3-0.3-0.7-0.2
		c-0.4,0.1-1,0.4-1.3,0.6c-0.3,0.2-0.7,0.4-0.5,0.7c0.2,0.3,0.6,0.7,0.6,0.9c0,0.2-0.1,0.3-0.3,0.2c-0.2-0.1-0.5-0.5-0.6-0.5
		c-0.1,0-0.4,0.4-0.3,0.4c0.1,0.1,0.6,0.5,0.5,0.8c-0.1,0.3-0.4,0.1-0.6-0.2c-0.2-0.3-0.5-0.9-0.7-1c-0.2-0.1,0.2-0.4,0.4-0.6
		c0.2-0.2,1.4-1.4,1.7-2c0,0,1.1,0.1,2-0.5c0.8-0.5,0.5-0.9,0.4-0.9s-0.4,0-0.7,0.2c-0.2,0.2-0.6,0.2-0.6,0c0-0.3,0.1-0.7,0.3-1.1
		c0.3-0.4,0.8-0.8,0.3-0.9c-0.4-0.1-1.1,0.2-1.1,0.2s-0.2,0-0.2,0.4c0,0.4,0,1.1-0.5,1.4c-0.5,0.3-0.8,0.3-1,0.2
		c-0.2,0-0.7-0.3-1-0.2c-0.3,0.1-0.7,0.3-0.6,0.6c0.1,0.3,0.3,0.3,0.7,0.3c0.4,0,1.2,0,0.8,0.6c-0.4,0.6-1.1,1.2-1.4,1.3
		c-0.2,0-0.3-0.2-0.5-0.6c-0.2-0.3-0.7-1.6-1.2-1.6c-0.5,0-0.7,0.3-0.5,0.6C27.2,56,27.8,56.7,28.1,57.1z M29.2,41.5
		c0-0.1,0.2-0.2,0.2-0.2c0.2,0,0.3,0,0.4,0.1c0.1,0.1,0.1,0.5,0,0.6c0,0.1-0.2,0.2-0.4,0.1C29.2,42.1,29.2,41.6,29.2,41.5z
		 M30.1,39.8c0.2-0.1,0.3,0.1,0.4,0.2c0.1,0.1,0.3,0,0.4,0c0.1,0,0.1-0.2,0.2-0.2c0.1,0,0.3-0.2,0.4-0.3c0.1,0,0.1-0.2,0.3-0.1
		c0.1,0,0.1,0.1,0.1,0.2c0,0.1-0.1,0.6-0.2,0.8c-0.1,0.3-0.4,0.6-0.5,0.7c-0.1,0.1-0.2,0.3-0.2,0.5c0,0.2-0.1,0.3-0.2,0.5
		c-0.1,0.2-0.3,0.2-0.3,0.2c-0.1,0-0.1-0.3,0-0.4c0.1-0.1,0-0.7,0-0.8c0-0.1-0.1-0.2-0.3-0.4c-0.1-0.2-0.3-0.5-0.4-0.6
		C29.8,40,30.1,39.8,30.1,39.8z M30.6,38.5c0-0.2,0.2-0.3,0.2-0.3c0.2,0,0.4,0,0.5,0.1c0.1,0.1,0,0.4,0,0.5c-0.1,0.1-0.4,0.1-0.5,0
		C30.7,38.9,30.6,38.7,30.6,38.5z M27.1,42.8c0.4,0.1,0.5-0.1,0.5-0.2c0-0.1,0.3-0.4,0.2-0.5c0-0.1,0.1-0.4,0.1-0.5
		c0.1-0.1,0.3-0.5,0.3-0.6c0-0.2,0-0.3,0-0.5c0-0.2-0.1-0.5,0.1-0.5c0.2,0,0.3,0.1,0.3,0.2c0,0.1,0.1,0.5,0,0.6
		c-0.1,0.1-0.1,0.2-0.1,0.3s0,0.4-0.1,0.5c0,0.1-0.1,0.6-0.1,0.7c0,0.1,0,0.4,0.1,0.4c0.1,0.1,0.2,0.1,0.3,0.1c0.1,0,0.3,0,0.4,0
		c0.1,0,0.3,0.1,0.4,0.1c0.1,0,0.2-0.1,0.3,0c0,0.1,0.2,0.2,0.4,0.3c0.2,0,0.3,0,0.3-0.1c0-0.1,0.1-0.2,0.2-0.2c0.1,0,0.2,0,0.3-0.1
		c0.1-0.1,0-0.2,0.2-0.4c0.2-0.2,0.2-0.2,0.3-0.2c0.2,0,0.2,0.1,0.2,0.2c0,0.1,0,0.2,0,0.2c0,0,0.2,0.2,0.2,0.2c0,0.1,0,0.3,0.1,0.4
		c0.1,0.1,0.4,0.1,0.4,0.1c0,0,0.1,0,0.1-0.2c0-0.2,0.1-0.4,0.2-0.5c0.1-0.1,0.3-0.3,0.3-0.5c0-0.2,0.2-0.4,0.2-0.5s0.3-0.5,0.4-0.6
		c0.1-0.2,0.3-0.4,0.4-0.7c0.1-0.3,0.1-0.5,0.1-0.6c0.1-0.1,0.3-0.3,0.3-0.4c0-0.2-0.1-0.4-0.3-0.3c-0.2,0-0.5,0.1-0.6,0.3
		c-0.1,0.1-0.1,0.2-0.2,0.4c0,0.1-0.2,0.5-0.4,0.8c-0.2,0.2-0.5,0.8-0.5,0.9c0,0.1-0.1,0.5,0,0.5c0,0-0.2,0.2-0.3,0.2
		c-0.1,0-0.2,0.2-0.4-0.1c-0.1-0.2-0.1-0.3,0-0.5c0.1-0.2,0.3-0.7,0.4-1c0.1-0.3,0.5-0.6,0.6-1c0.1-0.4,0.1-0.7,0.1-0.9
		c0-0.2,0-0.3-0.1-0.4c-0.1-0.1-0.3-0.5-0.6-0.7c-0.3-0.2-0.6-0.4-0.8-0.4c-0.2,0-0.5-0.1-0.8,0.2c-0.2,0.3-0.4,0.7-0.7,1
		c-0.2,0.3-0.3,0.5-0.4,0.6c-0.1,0.1-0.1,0.1-0.4,0.1c-0.3,0-0.4,0-0.4-0.3c0-0.2,0-0.3,0.1-0.4c0.1-0.1,0.4-0.3,0.4-0.5
		c0-0.2,0.1-0.4,0.2-0.6c0.1-0.1,0-0.3-0.1-0.4c-0.1-0.1-0.2-0.1-0.4-0.1s-0.4,0.2-0.4,0.3c0,0.1,0,0,0,0s-0.1,0.6-0.3,1
		c-0.2,0.4-0.5,0.8-0.7,0.9c-0.2,0.1-0.3,0.3-0.4,0.4c0,0.1,0,0.6-0.1,0.9c0,0.2-0.1,0.4-0.2,0.7c0,0.2-0.1,0.4-0.1,0.6
		c0,0.2-0.2,0.6-0.2,0.7C26.7,42.4,26.7,42.7,27.1,42.8z M38.7,69c0.7,0.1,1.5,0.5,1.5,0.5s0.7,0.3,0.7,0.6c0,0.5-0.4,0.8-0.4,0.9
		c-0.1,0.1-0.3,0.2-0.3,0.5c0,0.3-0.5,0.6-0.6,0.7c-0.1,0.2,0.2,0.5,0.4,0.8c0.3,0.3,0.3,0.3,0.5,0.1c0.2-0.2,0.3-0.8,0.5-1.3
		c0.2-0.5,1-1.9,1-1.9c0.1-0.3-0.4-0.9-0.4-1c0-0.2,0.2-0.5,0.6-0.9c0.4-0.3,1.1-0.7,1.3-0.9c0.2-0.2,0.2-0.3-0.2-0.4
		c-0.3-0.1-1,0.2-1.2,0.4c-0.2,0.2-0.6,0.8-0.9,1.1c-0.3,0.3-0.5,0.3-0.7,0.1c-0.2-0.2-0.2-0.4,0-0.6c0.2-0.3,0.8-0.8,1-0.9
		c0.2-0.1,0.8-0.8,1-0.9c0.2-0.1,0.4-0.2,0.5-0.4c0.2-0.3,0-0.4-0.2-0.5c-0.3-0.1-0.7,0.2-0.9,0.4c-0.2,0.2-0.4,0.4-0.7,0.6
		c-0.2,0.2-1.2,1.2-1.4,1.4c-0.2,0.2-0.5,0.3-0.7,0.2c-0.2-0.2-0.2-0.4,0-0.9c0.2-0.5,1.1-1.5,1.5-1.8c0.3-0.3,1.2-0.5,1.9-0.7
		c0.7-0.2,0.6-0.4,0.5-0.7c-0.1-0.3-0.6-0.3-1.8,0.1c-1.2,0.4-2.8,2-2.8,2s-0.6,0.5-0.6,0.7c0,0.5-0.4,0.8-0.7,1.1
		c-0.3,0.3-0.2,0.4,0,0.7C37.5,68.6,37.9,68.9,38.7,69z M42.9,71.5c0,0.3-0.2,0.9-0.4,0.9c-0.1,0-0.3,0.3-0.3,0.5c0,0.2,0,0.5,0,0.5
		s0.1,0.6,0.2,0.6c0.1,0,0.4,0.1,0.7-0.3c0.3-0.4,0.1-0.9,0.5-1.5c0.3-0.2,0.5-0.2,0.7-0.1c0.2,0.1,0.2,0.1,0.2,0.3
		c0,0.2,0,0.8,0,0.9c0,0.2,0.1,0.4,0.3,0.5c0.1,0.1,0.2,0.3,0.3,0.2c0.1-0.1,0.2-0.4,0.3-0.9c0.1-0.5,0.4-0.9,0.6-1.2
		c0.2-0.2,0.3-0.6,0-0.7c-0.3-0.1-1-0.2-1.2-0.3c-0.2-0.1-0.4-0.5-0.2-1c0.2-0.5,0.4-0.9,0.6-0.9c0.2-0.1,0.6-0.1,0.8,0
		c0.2,0,0.5,0.1,0.9-0.2c0.3-0.3,0.4-0.6,0.2-0.7c-0.2-0.1-0.3-0.1-0.6-0.1c-0.3,0-0.8,0-0.9-0.1c-0.1-0.1-0.2-0.4-0.1-0.6
		c0.1-0.2,0.8-1,0.9-1.1c0.1-0.2,0.4-0.5,0.2-0.8c-0.2-0.3-0.4-0.4-0.8-0.3c0,0-0.6,0.7-0.7,0.9c-0.1,0.2-0.3,0.6-0.4,1.1
		c-0.1,0.5-0.2,1.2-0.3,1.5c-0.2,0.3-0.3,0.8-0.4,1c-0.1,0.2-0.6,1-0.7,1.2C43.1,70.8,42.9,71.2,42.9,71.5z M32.4,70.2
		c0,0-0.1-0.2-0.3-0.5c0.4-0.3,0.6-0.6,0.7-0.9c0.6-0.2,0.8-0.5,1.2-1.2c0.6-0.1,1.1-0.7,1.2-1.1c0.7-0.2,1.1-1.1,1.1-1.1
		c0.9-0.4,1.1-1.1,1.1-1.1c0.8-0.3,1.2-1.1,1.2-1.1c0.8-0.4,0.7-0.8,1.2-1.1c0.6-0.3,0.8-0.8,1.1-1.1c0.1-0.2,0.6-0.3,0.8-0.6
		c0,0,0,0,0.1,0c0.1,0.5,0.7,0.9,1.4,1c0.2,0.4,1,0.8,1.5,0.8c0.3,0.3,0.8,0.6,1.5,0.5c0.2,0.2,1.1,0.7,1.6,0.3
		c0.3,0.2,0.7,0.3,1.1,0.3c-0.2,0.6-0.1,1.1,0,1.4c-0.1,0.3-0.3,1,0,1.6c-0.2,0.6-0.2,1,0,1.6c-0.2,0.3-0.3,0.8,0,1.7
		c-0.1,0.3-0.3,0.9,0,1.7c-0.1,0.3-0.3,0.9,0.1,1.6c-0.1,0.2-0.3,0.7,0,1.6c-0.1,0.2-0.3,0.8,0,1.6c-0.1,0.2-0.1,0.4-0.1,0.6
		c-0.4-0.1-1-0.1-1.7,0.1c0,0-0.7-0.6-2.3-0.3c0,0-0.6-0.7-2.3-0.6c0,0-0.7-0.8-2.2-0.7c0,0-0.6-0.8-2.1-0.9c0,0-0.7-0.9-2.1-1.1
		c0,0-0.7-1-1.9-1.2C34.3,71.7,33.8,70.8,32.4,70.2z M33.7,74.4c-0.6-0.1-1.2-0.6-1.4-1.2c-0.3-0.5,0.1-1.8,0.2-2
		c0.1-0.2,0.1-0.5,0.1-0.5c0.4,0.1,0.7,0.4,1.1,0.8c0.4,0.3,0.2,1.7,0.1,2.1C33.6,74,33.7,74.4,33.7,74.4z M31.9,69.5
		c-0.2-0.2-0.4-0.4-0.7-0.5c-0.1-0.1-0.1-0.1-0.2-0.2c-0.1-0.1-0.2-0.2-0.4-0.3c0-0.1-0.1-0.2-0.2-0.3c0,0,0.1-0.1,0.1-0.1
		c0.2-0.2,0.3-0.1,0.4-0.1c0.2,0,0.7,0.3,1,0.6c0,0,0.6,0.4,0.7,0.3c-0.1,0.2-0.3,0.5-0.5,0.6C32.1,69.4,32,69.5,31.9,69.5z
		 M31.7,72c-0.1,0.4-0.1,0.8-0.1,0.8c-0.6-0.2-1.1-0.7-1.3-1.3c-0.2-0.6,0.2-1.7,0.3-1.9c0.1-0.2,0.1-0.5,0.1-0.5
		c0.4,0.1,0.6,0.4,1,0.8C32,70.3,31.7,71.7,31.7,72z M29.8,70.4c-0.1,0.4-0.1,0.8-0.1,0.8c-0.6-0.2-1-0.8-1.2-1.4
		c-0.2-0.6,0.4-1.7,0.5-1.9c0.1-0.2,0.1-0.5,0.1-0.5c0.3,0.2,0.6,0.5,0.9,0.9C30.3,68.7,29.9,70,29.8,70.4z M28.1,68.6
		c-0.2,0.4-0.2,0.8-0.2,0.8c-0.5-0.3-0.9-0.9-1-1.5c-0.1-0.6,0.6-1.7,0.7-1.8c0.1-0.2,0.2-0.5,0.2-0.5c0.3,0.2,0.5,0.5,0.8,1
		C28.8,66.9,28.2,68.2,28.1,68.6z M26.3,67.3c-0.5-0.3-0.9-1-0.9-1.6c0-0.6,0.7-1.6,0.8-1.8c0.1-0.2,0.2-0.5,0.2-0.5
		c0.3,0.2,0.5,0.6,0.7,1c0.2,0.4-0.4,1.7-0.6,2C26.4,66.9,26.3,67.3,26.3,67.3z M24.9,65.2c-0.5-0.3-0.8-1-0.8-1.6
		c0-0.6,0.8-1.6,1-1.7c0.1-0.2,0.3-0.5,0.3-0.5c0.3,0.3,0.4,0.6,0.6,1.1c0.2,0.4-0.5,1.7-0.8,2C25,64.8,24.9,65.2,24.9,65.2z
		 M23.7,62.9c-0.4-0.4-0.7-1.1-0.6-1.7c0.1-0.6,1-1.5,1.1-1.6c0.2-0.1,0.3-0.4,0.3-0.4c0.3,0.3,0.4,0.6,0.5,1.1
		c0.2,0.5-0.7,1.6-0.9,1.9C23.8,62.6,23.7,62.9,23.7,62.9z M22.6,60.6c-0.4-0.4-0.6-1.1-0.5-1.7c0.1-0.6,1.1-1.4,1.3-1.5
		c0.2-0.1,0.3-0.4,0.3-0.4c0.2,0.3,0.3,0.7,0.4,1.1c0.1,0.5-0.8,1.5-1.1,1.8C22.8,60.2,22.6,60.6,22.6,60.6z M21.8,58.2
		c-0.4-0.5-0.5-1.2-0.3-1.8c0.2-0.6,1.2-1.3,1.4-1.4c0.2-0.1,0.4-0.4,0.4-0.4c0.2,0.3,0.2,0.7,0.3,1.2c0.1,0.5-0.9,1.5-1.2,1.7
		C22,57.8,21.8,58.2,21.8,58.2z M21.1,53.9c0.2-0.6,1.3-1.2,1.5-1.3c0.2-0.1,0.4-0.3,0.4-0.3c0.2,0.3,0.2,0.7,0.2,1.2
		c0,0.5-1.1,1.4-1.4,1.6c-0.3,0.2-0.6,0.6-0.6,0.6C20.9,55.2,20.8,54.5,21.1,53.9z M20.8,51.4c0.3-0.5,1.4-1.1,1.6-1.1
		c0.2-0.1,0.4-0.3,0.4-0.3c0.1,0.3,0.1,0.7,0.1,1.2c0,0.5-1.2,1.3-1.5,1.5c-0.3,0.2-0.6,0.5-0.6,0.5C20.6,52.7,20.6,51.9,20.8,51.4z
		 M20.8,48.9c0.3-0.5,1.5-0.9,1.7-1c0.2-0.1,0.4-0.3,0.4-0.3c0.1,0.4,0.1,0.7,0,1.2c-0.1,0.5-1.3,1.2-1.6,1.3
		c-0.3,0.2-0.6,0.5-0.6,0.5C20.5,50.1,20.5,49.4,20.8,48.9z M21,46.3c0.3-0.5,1.6-0.8,1.8-0.9c0.2-0.1,0.5-0.2,0.5-0.2
		c0.1,0.4,0,0.7-0.1,1.2c-0.1,0.5-1.4,1.1-1.8,1.2c-0.4,0.2-0.7,0.4-0.7,0.4C20.5,47.5,20.7,46.8,21,46.3z M21.5,43.8
		c0.4-0.5,1.6-0.7,1.8-0.7c0.2,0,0.5-0.2,0.5-0.2c0.1,0.4-0.1,0.7-0.2,1.2c-0.1,0.5-1.4,1-1.8,1.1c-0.4,0.1-0.7,0.4-0.7,0.4
		C20.9,45,21.1,44.3,21.5,43.8z M22.1,41.3c0.4-0.4,1.7-0.5,1.9-0.5c0.2,0,0.5-0.1,0.5-0.1c0,0.4-0.2,0.7-0.3,1.2
		c-0.2,0.5-1.6,0.8-1.9,0.8c-0.4,0.1-0.8,0.3-0.8,0.3C21.4,42.4,21.7,41.7,22.1,41.3z M23,38.9c0.5-0.4,1.7-0.4,2-0.4
		c0.2,0,0.5-0.1,0.5-0.1c0,0.4-0.2,0.7-0.4,1.1c-0.2,0.4-1.6,0.7-2,0.7c-0.4,0.1-0.8,0.2-0.8,0.2C22.2,40,22.5,39.3,23,38.9z
		 M24,36.6c0.5-0.3,1.7-0.2,2-0.2c0.2,0,0.5,0,0.5,0c0,0.4-0.3,0.7-0.5,1.1c-0.3,0.4-1.7,0.5-2,0.5c-0.4,0-0.8,0.1-0.8,0.1
		C23.2,37.6,23.6,37,24,36.6z M25.3,34.4c0.5-0.3,1.7-0.1,2,0c0.2,0,0.5,0,0.5,0c-0.1,0.4-0.3,0.7-0.6,1.1c-0.3,0.4-1.7,0.4-2.1,0.3
		c-0.4,0-0.8,0.1-0.8,0.1C24.4,35.3,24.8,34.7,25.3,34.4z M26.8,32.3c0.5-0.3,1.8,0.1,2,0.1c0.2,0.1,0.5,0,0.5,0
		c-0.1,0.4-0.4,0.6-0.7,1c-0.3,0.4-1.7,0.2-2.1,0.2c-0.4-0.1-0.8,0-0.8,0C25.7,33.1,26.2,32.6,26.8,32.3z M28.4,30.3
		c0.6-0.2,1.7,0.2,1.9,0.3c0.2,0.1,0.5,0.1,0.5,0.1c-0.1,0.3-0.4,0.6-0.8,0.9c-0.3,0.3-1.7,0.1-2.1,0c-0.4-0.1-0.8-0.1-0.8-0.1
		C27.3,31.1,27.9,30.6,28.4,30.3z M30.2,28.5c0.6-0.2,1.7,0.3,1.9,0.4c0.2,0.1,0.5,0.1,0.5,0.1c-0.2,0.3-0.5,0.6-0.8,0.9
		c-0.4,0.3-1.8,0-2.1-0.1c-0.4-0.1-0.8-0.1-0.8-0.1C29,29.2,29.6,28.7,30.2,28.5z M32.3,26.9c0.6-0.1,1.6,0.6,1.8,0.7
		c0.2,0.1,0.5,0.2,0.5,0.2c-0.2,0.3-0.5,0.5-0.9,0.8c-0.4,0.3-1.6-0.3-2-0.4c-0.3-0.2-0.7-0.2-0.7-0.2C31.1,27.4,31.7,27,32.3,26.9z
		 M34.3,25.4c0.6,0,1.6,0.7,1.7,0.8c0.2,0.1,0.4,0.2,0.4,0.2c-0.2,0.3-0.6,0.4-1,0.7c-0.4,0.2-1.6-0.4-2-0.6
		c-0.3-0.2-0.7-0.3-0.7-0.3C33.1,25.8,33.8,25.5,34.3,25.4z M36.5,24.2c0.6,0,1.5,0.8,1.7,1c0.2,0.1,0.4,0.3,0.4,0.3
		c-0.3,0.3-0.6,0.4-1,0.6c-0.4,0.2-1.6-0.5-1.9-0.8c-0.3-0.2-0.7-0.3-0.7-0.3C35.2,24.5,35.9,24.2,36.5,24.2z M38.7,23
		c0.6,0.1,1.5,1,1.6,1.1c0.1,0.2,0.4,0.3,0.4,0.3c-0.3,0.3-0.7,0.4-1.1,0.5c-0.5,0.2-1.6-0.7-1.9-0.9c-0.3-0.3-0.7-0.4-0.7-0.4
		C37.4,23.2,38.1,23,38.7,23z M41.2,22.3c0.6,0.1,1.4,1.1,1.5,1.2c0.1,0.2,0.4,0.3,0.4,0.3c-0.3,0.2-0.7,0.3-1.2,0.5
		c-0.5,0.1-1.6-0.8-1.9-1.1c-0.3-0.3-0.7-0.4-0.7-0.4C39.9,22.4,40.6,22.2,41.2,22.3z M43.6,21.5c0.6,0.2,1.3,1.2,1.4,1.4
		c0.1,0.2,0.4,0.4,0.4,0.4c-0.3,0.2-0.7,0.3-1.2,0.3c-0.5,0.1-1.5-1-1.7-1.3c-0.3-0.3-0.6-0.5-0.6-0.5C42.2,21.5,43,21.3,43.6,21.5z
		 M46.1,21c0.6,0.2,1.2,1.3,1.3,1.5c0.1,0.2,0.3,0.4,0.3,0.4c-0.3,0.2-0.7,0.2-1.2,0.2c-0.5,0-1.4-1.1-1.6-1.4
		c-0.2-0.3-0.6-0.6-0.6-0.6C44.8,20.9,45.5,20.8,46.1,21z M48.6,20.8c0.5,0.3,1,1.4,1.1,1.6c0.1,0.2,0.3,0.4,0.3,0.4
		C49.7,23,49.3,23,48.8,23c-0.5,0-1.3-1.2-1.5-1.5c-0.2-0.3-0.5-0.6-0.5-0.6C47.3,20.5,48.1,20.5,48.6,20.8z M51.2,20.8
		c0.5,0.3,0.9,1.5,0.9,1.7c0.1,0.2,0.2,0.5,0.2,0.5c-0.4,0.1-0.8,0-1.3,0c-0.5-0.1-1.1-1.3-1.3-1.7c-0.2-0.4-0.5-0.7-0.5-0.7
		C49.9,20.4,50.7,20.5,51.2,20.8z M53.7,21c0.5,0.3,0.8,1.6,0.8,1.8c0,0.2,0.2,0.5,0.2,0.5c-0.4,0.1-0.8,0-1.3-0.1
		c-0.5-0.1-1-1.4-1.2-1.8c-0.1-0.4-0.4-0.7-0.4-0.7C52.5,20.5,53.2,20.7,53.7,21z M56.2,21.5c0.5,0.4,0.6,1.6,0.6,1.8
		c0,0.2,0.2,0.5,0.2,0.5c-0.4,0-0.8-0.1-1.2-0.2c-0.5-0.1-0.9-1.5-1-1.9c-0.1-0.4-0.3-0.7-0.3-0.7C55,20.9,55.7,21.1,56.2,21.5z
		 M58.7,22.2c0.4,0.4,0.5,1.7,0.5,1.9c0,0.2,0.1,0.5,0.1,0.5c-0.4,0-0.8-0.2-1.2-0.3c-0.5-0.2-0.7-1.6-0.8-1.9
		c-0.1-0.4-0.3-0.8-0.3-0.8C57.6,21.4,58.3,21.7,58.7,22.2z M61.1,23c0.4,0.5,0.3,1.7,0.3,1.9c0,0.2,0.1,0.5,0.1,0.5
		c-0.4,0-0.8-0.2-1.2-0.4c-0.5-0.2-0.6-1.6-0.7-2c0-0.4-0.2-0.8-0.2-0.8C60,22.2,60.7,22.5,61.1,23z M63.4,24.1
		c0.4,0.5,0.2,1.7,0.1,2s0,0.5,0,0.5c-0.4-0.1-0.7-0.3-1.2-0.5c-0.5-0.3-0.5-1.7-0.5-2c0-0.4-0.1-0.8-0.1-0.8
		C62.4,23.2,63.1,23.6,63.4,24.1z M63.9,27.1c0,0,0.4,0.8,1.9,1.3c0,0,0.3,0.8,1.8,1.5c0,0,0.1,0.2,0.3,0.6c-0.5,0.3-0.9,0.7-1,1
		c-0.2,0.1-0.9,0.5-1.1,1.1c-0.6,0.3-0.8,0.5-1.1,1.1c-0.3,0.1-0.8,0.3-1.2,1.2c-0.3,0.1-0.8,0.4-1.2,1.1C62,36,61.5,36.3,61.3,37
		c-0.2,0.1-0.7,0.2-1.1,1.1c-0.2,0.1-0.8,0.4-1.2,1.1c-0.2,0.1-0.4,0.3-0.6,0.5c-0.1,0-0.1,0-0.2,0c-0.4-0.8-1.1-0.9-1.3-0.9
		c-0.2-0.6-0.9-0.9-1.5-0.8c-0.2-0.4-0.7-0.7-1.6-0.6c-0.2-0.1-0.9-0.7-1.7-0.4c-0.1-0.1-0.4-0.3-0.8-0.3c0,0,0,0-0.1,0
		c0.2-0.6,0-0.9-0.1-1.2c0.3-0.6,0.3-1,0-1.6c0.3-0.5,0.3-1.3,0-1.6c0.4-0.7,0-1.5,0-1.6c0.3-0.9,0-1.6,0-1.6c0.4-0.8,0-1.6,0-1.7
		c0.3-0.9-0.1-1.1,0.1-1.6c0.2-0.6,0-1.2,0-1.5c0-0.2,0.1-0.5,0.1-0.8c0.4,0.1,0.9,0.1,1.5-0.1c0,0,0.7,0.6,2.3,0.4
		c0,0,0.7,0.7,2.3,0.5c0,0,0.4,0.7,2.2,0.7c0,0,0.3,0.7,2.1,0.9C61.8,25.9,62.2,26.7,63.9,27.1z M65.6,25.3c0.3,0.5,0,1.8,0,2
		c-0.1,0.2,0,0.5,0,0.5c-0.4-0.1-0.7-0.3-1.1-0.6c-0.4-0.3-0.3-1.7-0.3-2.1c0-0.4-0.1-0.8-0.1-0.8C64.7,24.3,65.3,24.8,65.6,25.3z
		 M66.2,25.6c0.6,0.1,1.2,0.6,1.4,1.2c0.3,0.5-0.1,1.7-0.2,1.9c-0.1,0.2-0.1,0.5-0.1,0.5c-0.4-0.1-0.7-0.4-1-0.7
		c-0.4-0.3-0.2-1.7-0.1-2.1C66.3,26,66.2,25.6,66.2,25.6z M68.2,27.9c0.1-0.4,0.1-0.8,0.1-0.8c0.6,0.2,1.2,0.7,1.4,1.3
		c0.2,0.6-0.3,1.7-0.4,1.9c-0.1,0.2-0.1,0.5-0.1,0.5c-0.4-0.2-0.7-0.5-1-0.8C67.7,29.6,68.1,28.3,68.2,27.9z M70.1,29.6
		c0.1-0.4,0.1-0.8,0.1-0.8c0.6,0.2,1,0.8,1.2,1.4c0.2,0.6-0.4,1.7-0.5,1.9c-0.1,0.2-0.1,0.5-0.1,0.5c-0.4-0.2-0.6-0.5-0.9-0.9
		C69.5,31.3,69.9,29.9,70.1,29.6z M72,30.6c0.6,0.3,1,0.9,1.1,1.5c0.1,0.6-0.6,1.7-0.7,1.8c-0.1,0.2-0.2,0.5-0.2,0.5
		c-0.3-0.2-0.5-0.5-0.8-1c-0.3-0.4,0.3-1.7,0.4-2.1C71.9,31,72,30.6,72,30.6z M73.3,33.4c0.2-0.3,0.3-0.8,0.3-0.8
		c0.5,0.3,0.9,1,0.9,1.6c0,0.6-0.7,1.6-0.9,1.8c-0.1,0.2-0.2,0.5-0.2,0.5c-0.3-0.2-0.5-0.6-0.7-1C72.4,34.9,73.1,33.7,73.3,33.4z
		 M74.7,35.4c0.2-0.3,0.3-0.7,0.3-0.7c0.5,0.4,0.8,1.1,0.8,1.7c0,0.6-0.9,1.5-1,1.7c-0.1,0.2-0.3,0.4-0.3,0.4
		c-0.3-0.3-0.4-0.6-0.6-1.1C73.7,36.9,74.4,35.7,74.7,35.4z M76.2,37c0.5,0.4,0.7,1.1,0.6,1.7c-0.1,0.6-1,1.4-1.2,1.6
		c-0.2,0.1-0.3,0.4-0.3,0.4c-0.3-0.3-0.4-0.7-0.5-1.1c-0.2-0.5,0.7-1.6,1-1.9C76.1,37.4,76.2,37,76.2,37z M77.2,39.3
		c0.4,0.4,0.6,1.2,0.5,1.8c-0.1,0.6-1.1,1.4-1.3,1.5c-0.2,0.1-0.3,0.4-0.3,0.4c-0.2-0.3-0.3-0.7-0.5-1.2c-0.1-0.5,0.8-1.5,1.1-1.8
		C77.1,39.7,77.2,39.3,77.2,39.3z M78.1,41.7c0.4,0.5,0.5,1.2,0.3,1.8c-0.2,0.6-1.2,1.3-1.4,1.4c-0.2,0.1-0.4,0.4-0.4,0.4
		c-0.2-0.3-0.3-0.7-0.3-1.2c-0.1-0.5,1-1.4,1.3-1.7C77.8,42.1,78.1,41.7,78.1,41.7z M78.8,46c-0.2,0.6-1.3,1.1-1.5,1.2
		c-0.2,0.1-0.4,0.3-0.4,0.3c-0.2-0.3-0.2-0.7-0.2-1.2c0-0.5,1.1-1.4,1.4-1.6c0.3-0.2,0.6-0.6,0.6-0.6C79,44.7,79,45.5,78.8,46z
		 M79.1,48.6c-0.3,0.5-1.4,1-1.6,1.1C77.3,49.8,77,50,77,50c-0.1-0.4-0.1-0.7-0.1-1.2c0-0.5,1.2-1.3,1.5-1.5
		c0.3-0.2,0.6-0.5,0.6-0.5C79.4,47.3,79.3,48,79.1,48.6z M79.1,51.1c-0.3,0.5-1.5,0.9-1.7,1c-0.2,0.1-0.5,0.2-0.5,0.2
		c-0.1-0.4-0.1-0.8,0-1.2c0.1-0.5,1.3-1.2,1.7-1.3c0.4-0.2,0.7-0.5,0.7-0.5C79.5,49.9,79.4,50.6,79.1,51.1L79.1,51.1z M78.9,53.7
		c-0.4,0.5-1.6,0.8-1.8,0.8c-0.2,0-0.5,0.2-0.5,0.2c-0.1-0.4,0-0.8,0.1-1.3c0.1-0.5,1.4-1,1.8-1.2s0.7-0.4,0.7-0.4
		C79.4,52.4,79.2,53.2,78.9,53.7z M78.5,56.1c-0.4,0.5-1.7,0.7-1.9,0.7c-0.2,0-0.5,0.2-0.5,0.2c-0.1-0.4,0.1-0.8,0.2-1.3
		c0.1-0.5,1.5-0.9,1.9-1.1c0.4-0.1,0.7-0.3,0.7-0.3C79.1,55,78.8,55.7,78.5,56.1z M77.8,58.6c-0.4,0.4-1.7,0.5-1.9,0.5
		c-0.2,0-0.5,0.1-0.5,0.1c0-0.4,0.2-0.8,0.4-1.2c0.2-0.5,1.6-0.8,2-0.8c0.4-0.1,0.8-0.3,0.8-0.3C78.5,57.5,78.2,58.2,77.8,58.6z
		 M76.9,61c-0.5,0.4-1.8,0.4-2,0.4c-0.2,0-0.5,0.1-0.5,0.1c0-0.4,0.2-0.8,0.4-1.2c0.2-0.5,1.6-0.7,2-0.7c0.4,0,0.8-0.2,0.8-0.2
		C77.7,60,77.4,60.6,76.9,61z M75.9,63.3c-0.5,0.3-1.8,0.2-2,0.2c-0.2,0-0.5,0-0.5,0c0.1-0.4,0.3-0.7,0.6-1.2
		c0.3-0.4,1.7-0.5,2.1-0.5s0.8-0.1,0.8-0.1C76.8,62.3,76.4,63,75.9,63.3z M74.6,65.6c-0.5,0.3-1.8,0.1-2,0.1c-0.2,0-0.5,0-0.5,0
		c0.1-0.4,0.3-0.7,0.6-1.1c0.3-0.4,1.7-0.4,2.1-0.4s0.8-0.1,0.8-0.1C75.6,64.6,75.1,65.2,74.6,65.6z M73.1,67.7
		c-0.5,0.3-1.8-0.1-2-0.1c-0.2-0.1-0.5,0-0.5,0c0.1-0.4,0.4-0.7,0.7-1.1c0.3-0.4,1.8-0.2,2.1-0.2c0.4,0.1,0.8,0,0.8,0
		C74.2,66.8,73.7,67.4,73.1,67.7z M71.5,69.6c-0.6,0.2-1.8-0.2-2-0.3c-0.2-0.1-0.5-0.1-0.5-0.1c0.2-0.4,0.5-0.6,0.8-1
		c0.4-0.4,1.8-0.1,2.2,0c0.4,0.1,0.8,0.1,0.8,0.1C72.6,68.9,72.1,69.4,71.5,69.6z M69.7,71.4c-0.6,0.2-1.8-0.4-2-0.5
		c-0.2-0.1-0.5-0.1-0.5-0.1c0.2-0.4,0.5-0.6,0.9-0.9c0.4-0.3,1.8,0.1,2.1,0.2c0.4,0.1,0.8,0.1,0.8,0.1
		C70.9,70.8,70.3,71.2,69.7,71.4z M67.7,73.1c-0.6,0.1-1.7-0.6-1.9-0.7c-0.2-0.1-0.5-0.2-0.5-0.2c0.2-0.3,0.6-0.5,1-0.8
		c0.4-0.3,1.8,0.3,2.1,0.4c0.4,0.2,0.8,0.2,0.8,0.2C69,72.5,68.3,73,67.7,73.1z M65.7,74.5c-0.6,0.1-1.7-0.7-1.8-0.8
		c-0.2-0.1-0.5-0.2-0.5-0.2c0.3-0.3,0.6-0.5,1.1-0.7c0.5-0.2,1.7,0.4,2.1,0.6c0.3,0.2,0.8,0.3,0.8,0.3
		C66.9,74.1,66.3,74.5,65.7,74.5z M63.5,75.8c-0.6,0-1.6-0.9-1.7-1c-0.2-0.1-0.5-0.3-0.5-0.3c0.3-0.3,0.7-0.4,1.2-0.6
		c0.5-0.2,1.7,0.6,2,0.8c0.3,0.2,0.7,0.3,0.7,0.3C64.8,75.5,64.1,75.8,63.5,75.8z M61.2,76.9c-0.6,0-1.5-1-1.6-1.1
		c-0.1-0.2-0.4-0.3-0.4-0.3c0.3-0.3,0.7-0.4,1.2-0.5c0.5-0.2,1.6,0.7,1.9,0.9c0.3,0.2,0.7,0.4,0.7,0.4
		C62.5,76.7,61.8,76.9,61.2,76.9z M58.8,77.8c-0.6-0.1-1.4-1.1-1.5-1.3c-0.1-0.2-0.4-0.3-0.4-0.3c0.3-0.2,0.7-0.3,1.2-0.4
		c0.5-0.1,1.6,0.8,1.8,1.1c0.3,0.3,0.7,0.4,0.7,0.4C60.1,77.7,59.4,77.9,58.8,77.8z M56.3,78.5c-0.6-0.2-1.3-1.2-1.4-1.4
		c-0.1-0.2-0.4-0.4-0.4-0.4c0.4-0.2,0.8-0.2,1.3-0.3c0.5-0.1,1.5,1,1.7,1.3c0.3,0.3,0.6,0.5,0.6,0.5C57.7,78.5,56.9,78.6,56.3,78.5z
		 M53.8,78.9c-0.6-0.2-1.2-1.3-1.3-1.5c-0.1-0.2-0.3-0.4-0.3-0.4c0.4-0.2,0.8-0.2,1.3-0.2c0.5,0,1.4,1.1,1.6,1.4
		c0.2,0.3,0.6,0.6,0.6,0.6C55.2,79.1,54.4,79.2,53.8,78.9z M51.3,79.2c-0.6-0.3-1-1.4-1.1-1.6c-0.1-0.2-0.3-0.4-0.3-0.4
		c0.4-0.1,0.8-0.1,1.3-0.1c0.5,0,1.3,1.2,1.5,1.6c0.2,0.3,0.5,0.6,0.5,0.6C52.6,79.5,51.8,79.4,51.3,79.2z M49.3,69.7
		c0.7-0.3,0.9-0.2,1.3-0.3c0.2,0,0.4-0.1,0.5-0.2c0,0.2,0.1,0.6,0,1c-0.1,0.3-0.5,0.5-1.4,0.5c-0.4,0-0.6,0.2-0.6,0.2
		C49.1,70.5,48.9,69.8,49.3,69.7z M47.6,61.7c0-0.1-0.1-0.3-0.1-0.3c0.3-0.1,0.5,0,0.8,0c0.3,0,0.7,0.9,0.8,1.1
		c0.1,0.2,0.3,0.4,0.3,0.4c-0.4,0.2-0.9,0.1-1.2-0.1C47.8,62.6,47.6,61.8,47.6,61.7z M46,60.9c0.3,0,0.5,0,0.9,0.1
		c0.3,0.1,0.6,1,0.7,1.2c0.1,0.3,0.2,0.5,0.2,0.5c-0.4,0.1-0.9,0-1.2-0.3c-0.3-0.3-0.4-1.1-0.4-1.2C46.1,61.1,46,60.9,46,60.9z
		 M60.1,40.1c0,0,0.6,0.4,0.7,0.3c-0.1,0.1-0.3,0.5-0.5,0.6c-0.1,0.1-0.2,0.1-0.2,0.1c-0.2-0.2-0.4-0.3-0.5-0.3
		c0-0.1-0.1-0.1-0.1-0.2c-0.1-0.3-0.5-0.7-0.8-0.9c0.1-0.1,0.1-0.1,0.1-0.1c0.2-0.2,0.3-0.1,0.4-0.1C59.4,39.5,59.8,39.8,60.1,40.1z
		 M61.4,39.1c0.2,0.1,0.3,0.2,0.5,0.2c-0.1,0.1-0.3,0.5-0.7,0.7c-0.2,0.1-0.7,0-1.4-0.6c-0.3-0.3-0.6-0.3-0.6-0.3
		c0.2-0.3,0.7-0.9,1.1-0.8C61,38.7,61.1,38.9,61.4,39.1z M62.6,38c0.2,0.1,0.4,0.2,0.5,0.2c-0.1,0.1-0.3,0.5-0.7,0.7
		c-0.2,0.1-0.7,0-1.3-0.6C60.7,38,60.5,38,60.5,38c0.2-0.3,0.6-0.9,1-0.8C62.2,37.6,62.2,37.7,62.6,38z M63.7,36.9
		c0.2,0.1,0.4,0.2,0.5,0.2c-0.1,0.1-0.3,0.5-0.7,0.7c-0.2,0.1-0.7,0-1.3-0.6c-0.3-0.3-0.5-0.3-0.5-0.3c0.2-0.3,0.6-0.9,1-0.8
		C63.3,36.5,63.3,36.7,63.7,36.9z M64.8,35.7c0.2,0.1,0.4,0.2,0.5,0.2c-0.1,0.1-0.3,0.5-0.7,0.7c-0.2,0.1-0.7,0-1.4-0.6
		c-0.3-0.3-0.5-0.3-0.5-0.3c0.2-0.3,0.6-0.9,1-0.8C64.4,35.3,64.5,35.5,64.8,35.7z M66,34.6c0.2,0.1,0.4,0.2,0.5,0.2
		c-0.1,0.1-0.3,0.5-0.7,0.7c-0.2,0.1-0.7,0-1.4-0.6c-0.3-0.3-0.5-0.3-0.5-0.3c0.2-0.3,0.6-0.9,1-0.8C65.6,34.2,65.7,34.4,66,34.6z
		 M67.1,33.6c0.2,0.1,0.4,0.2,0.5,0.2c-0.1,0.1-0.3,0.5-0.7,0.7c-0.2,0.1-0.7,0-1.3-0.6c-0.3-0.3-0.5-0.3-0.5-0.3
		c0.2-0.3,0.6-0.9,1-0.8C66.7,33.2,66.8,33.3,67.1,33.6z M68.2,32.5c0.1,0.1,0.4,0.2,0.5,0.2c-0.1,0.1-0.3,0.5-0.7,0.7
		c-0.2,0.1-0.7,0-1.3-0.6c-0.3-0.3-0.5-0.3-0.5-0.3c0.2-0.3,0.6-0.9,1-0.8C67.8,32.1,67.8,32.3,68.2,32.5z M69,32.4
		c-0.2,0.1-0.7-0.1-1.3-0.6c-0.3-0.3-0.5-0.3-0.5-0.3c0.3-0.6,0.8-1,1-0.9c0.1,0.1,0.3,0.3,0.4,0.4c0.2,0.2,0.4,0.4,0.8,0.7
		c0,0.1,0.1,0.2,0.2,0.4C69.5,32.1,69.2,32.3,69,32.4z M76.5,50.8c0,0.1,0,0.2,0,0.4c0,0.1-0.5-0.1-0.6-0.1
		c-0.2-0.2-0.3-0.7-0.4-1.2c0-0.1-0.2-0.8-0.3-0.7c0.5-0.1,1.2-0.3,1.2,0.3c0,0.3,0.2,0.7,0.2,0.9C76.6,50.5,76.6,50.5,76.5,50.8z
		 M65.8,50.6c0,0.4,0.2,0.6,0.2,0.6c-0.4,0.1-1.1,0.2-1.3-0.2c-0.3-0.7-0.2-0.9-0.3-1.3c0-0.2-0.1-0.4-0.2-0.5c0.2,0,0.6-0.1,1,0
		C65.5,49.3,65.7,49.7,65.8,50.6z M67.3,50.6c0,0.4,0.2,0.6,0.2,0.6c-0.3,0.1-1.1,0.3-1.3-0.2c-0.3-0.7-0.2-0.9-0.3-1.3
		c0-0.2-0.1-0.4-0.2-0.5c0.2,0,0.6-0.1,1,0C67,49.2,67.2,49.7,67.3,50.6z M69,51.2c-0.4,0.1-1.1,0.2-1.3-0.2
		c-0.3-0.7-0.2-0.9-0.3-1.3c0-0.2-0.1-0.4-0.2-0.5c0.2,0,0.6-0.1,1,0c0.3,0.1,0.5,0.5,0.5,1.4C68.9,51,69,51.2,69,51.2z M70.7,51.2
		c-0.4,0.1-1.1,0.2-1.3-0.2c-0.3-0.7-0.2-0.9-0.3-1.3c0-0.2-0.1-0.4-0.2-0.5c0.2,0,0.6-0.1,1,0c0.3,0.1,0.5,0.5,0.5,1.4
		C70.5,51.1,70.7,51.2,70.7,51.2z M72.1,50.6c0,0.4,0.2,0.6,0.2,0.6c-0.3,0.1-1,0.3-1.3-0.2c-0.3-0.7-0.2-0.9-0.3-1.3
		c0-0.2-0.1-0.4-0.2-0.5c0.2,0,0.6-0.1,1,0C71.8,49.2,72,49.7,72.1,50.6z M73.7,49.2c0.2,0,0.5-0.1,1,0c0.3,0.1,0.5,0.5,0.5,1.4
		c0,0.4,0.2,0.6,0.2,0.6c-0.4,0.1-1.1,0.2-1.3-0.2c-0.3-0.7-0.2-0.9-0.3-1.3C73.8,49.5,73.8,49.3,73.7,49.2z M73.8,51.2
		c-0.4,0.1-1.1,0.2-1.3-0.2c-0.3-0.7-0.2-0.9-0.3-1.3c0-0.2-0.1-0.4-0.2-0.5c0.2,0,0.6-0.1,1,0c0.3,0.1,0.5,0.5,0.5,1.4
		C73.6,51,73.8,51.2,73.8,51.2z M63.4,50c0-0.1,0-0.1,0-0.2c0-0.1,0-0.3,0-0.5c0-0.1,0-0.1,0-0.2c0.1,0-0.1,0,0.3,0.1
		c0.3,0.1,0.5,0.5,0.5,1.4c0,0.4,0.2,0.6,0.2,0.6c-0.7,0.2-1.1,0.2-1.2,0c0-0.1,0-0.1,0-0.2C63.5,50.7,63.5,50.3,63.4,50z M53.7,62
		c0.2,0.2,0.4,0.3,0.4,0.3c-0.3,0.3-0.8,0.4-1.2,0.3c-0.4-0.1-0.8-0.8-0.9-0.9s-0.2-0.2-0.2-0.2c0.2-0.2,0.5-0.2,0.8-0.3
		C52.9,61.2,53.5,61.8,53.7,62z M55.2,61.5c0.2,0.2,0.4,0.3,0.4,0.3c-0.3,0.3-0.7,0.5-1.1,0.4s-0.9-0.7-1-0.8
		c-0.1-0.1-0.3-0.2-0.3-0.2c0.2-0.2,0.4-0.2,0.7-0.3C54.3,60.7,55,61.3,55.2,61.5z M56.6,60.7c0.2,0.1,0.5,0.2,0.5,0.2
		c-0.2,0.3-0.7,0.6-1.1,0.6c-0.4,0-1-0.6-1.1-0.6c-0.1-0.1-0.3-0.2-0.3-0.2c0.2-0.2,0.4-0.3,0.7-0.4C55.6,60.1,56.4,60.6,56.6,60.7z
		 M57.9,59.8c0.2,0.1,0.5,0.2,0.5,0.2c-0.2,0.4-0.6,0.6-1,0.7c-0.4,0.1-1.1-0.4-1.2-0.5c-0.1-0.1-0.3-0.1-0.3-0.1
		c0.1-0.2,0.4-0.4,0.6-0.5C56.8,59.3,57.7,59.7,57.9,59.8z M59,58.7c0.3,0.1,0.5,0.1,0.5,0.1c-0.1,0.4-0.5,0.7-0.8,0.9
		c-0.4,0.1-1.1-0.2-1.3-0.3c-0.1-0.1-0.3-0.1-0.3-0.1c0.1-0.2,0.3-0.4,0.5-0.6C57.9,58.4,58.8,58.6,59,58.7z M60.2,60.6
		c-0.3,0.3-0.3,0.5-0.3,0.5c-0.6-0.3-1-0.8-0.9-1c0-0.1,0.2-0.2,0.5-0.5c0,0,0,0,0,0c0.2-0.2,0.3-0.4,0.5-0.7
		c0.1-0.1,0.2-0.2,0.2-0.3c0.1,0,0.4,0.4,0.5,0.6C60.9,59.5,60.7,60,60.2,60.6z M61.2,61.6c-0.3,0.3-0.3,0.5-0.3,0.5
		c-0.3-0.2-0.9-0.6-0.8-1c0.3-0.7,0.5-0.7,0.7-1.1c0.1-0.2,0.2-0.4,0.2-0.5c0.1,0.1,0.5,0.3,0.7,0.7C61.9,60.5,61.8,60.9,61.2,61.6z
		 M62.2,62.6C62,62.9,62,63.2,62,63.2c-0.3-0.2-0.9-0.5-0.7-1c0.3-0.7,0.5-0.7,0.7-1.1c0.1-0.2,0.2-0.4,0.2-0.5
		c0.1,0.1,0.5,0.3,0.7,0.7C63,61.5,62.8,61.9,62.2,62.6z M63.3,63.7C63,64,63,64.2,63,64.2c-0.3-0.2-0.9-0.6-0.7-1
		c0.3-0.7,0.5-0.7,0.7-1.1c0.1-0.2,0.2-0.4,0.2-0.5c0.1,0.1,0.5,0.3,0.7,0.7C64,62.6,63.9,63,63.3,63.7z M64.4,64.9
		c-0.3,0.3-0.3,0.5-0.3,0.5c-0.3-0.2-0.9-0.6-0.7-1c0.3-0.7,0.5-0.7,0.7-1.1c0.1-0.2,0.2-0.4,0.2-0.5c0.1,0.1,0.5,0.3,0.7,0.7
		C65.1,63.7,65,64.2,64.4,64.9z M65.5,65.9c-0.3,0.3-0.3,0.5-0.3,0.5c-0.3-0.1-0.9-0.5-0.7-1c0.3-0.7,0.5-0.7,0.7-1.1
		c0.1-0.1,0.2-0.4,0.2-0.5c0.1,0.1,0.5,0.3,0.7,0.7C66.2,64.8,66.1,65.2,65.5,65.9z M67.4,66.5c0.1-0.2,0.2-0.3,0.2-0.5
		c0.1,0.1,0.5,0.3,0.7,0.7c0.1,0.2,0,0.6-0.6,1.3c-0.3,0.3-0.3,0.6-0.3,0.6c-0.3-0.2-0.9-0.6-0.7-1C67,66.9,67.2,66.9,67.4,66.5z
		 M66.6,67c-0.3,0.3-0.3,0.5-0.3,0.5c-0.3-0.2-0.9-0.6-0.7-1c0.3-0.7,0.5-0.7,0.7-1.1c0.1-0.1,0.2-0.4,0.2-0.5
		c0.1,0.1,0.5,0.3,0.7,0.7C67.3,65.9,67.2,66.3,66.6,67z M60.1,57.5c0.3,0,0.5,0,0.5,0c-0.1,0.4-0.4,0.8-0.7,1
		c-0.3,0.2-1.2-0.1-1.3-0.1c-0.1,0-0.3,0-0.3,0c0.1-0.3,0.2-0.4,0.4-0.7C58.9,57.3,59.8,57.4,60.1,57.5z M61,56.2c0.3,0,0.5,0,0.5,0
		c0,0.4-0.3,0.8-0.7,1c-0.3,0.2-1.2,0-1.3,0c-0.1,0-0.3,0-0.3,0c0.1-0.3,0.2-0.5,0.4-0.7C59.8,56.1,60.7,56.2,61,56.2z M61.7,54.8
		c0.3,0,0.5-0.1,0.5-0.1c0,0.4-0.2,0.8-0.5,1.1c-0.3,0.2-1.2,0.1-1.3,0.1c-0.1,0-0.3,0-0.3,0c0-0.3,0.2-0.5,0.3-0.8
		C60.5,54.9,61.4,54.8,61.7,54.8z M62.3,53.3c0.3,0,0.5-0.1,0.5-0.1c0,0.4-0.2,0.8-0.5,1.1c-0.3,0.2-1.1,0.2-1.3,0.2
		c-0.1,0-0.3,0-0.3,0c0-0.3,0.1-0.5,0.3-0.8C61.1,53.5,62,53.4,62.3,53.3z M62.5,51.8c0.2-0.1,0.5-0.2,0.5-0.2
		c0.1,0.4,0,0.9-0.3,1.2c-0.2,0.3-1.1,0.4-1.2,0.4c-0.1,0-0.3,0.1-0.3,0.1c0-0.3,0-0.5,0.1-0.8C61.3,52.1,62.2,51.9,62.5,51.8z
		 M63,49.5c-0.2,0.3-0.9,0.7-1,0.7c-0.1,0.1-0.3,0.2-0.3,0.2c-0.1-0.2-0.1-0.5-0.1-0.8c0-0.3,0.8-0.8,1-0.9c0.2-0.1,0.4-0.3,0.4-0.3
		C63.1,48.7,63.1,49.2,63,49.5z M63.1,50.7c0,0.2-0.1,0.3-0.2,0.5c-0.2,0.3-1,0.5-1.1,0.6c-0.1,0-0.3,0.1-0.3,0.1
		c-0.1-0.3,0-0.5,0-0.8c0-0.3,0.9-0.7,1.1-0.8c0.2-0.1,0.4-0.3,0.4-0.3c0,0,0,0,0,0c0,0,0,0.1,0,0.1C63.1,50.2,63.1,50.4,63.1,50.7z
		 M62.3,47.1c0.2-0.1,0.4-0.4,0.4-0.4c0.2,0.3,0.3,0.8,0.2,1.2c-0.1,0.4-0.9,0.7-1,0.8c-0.1,0.1-0.3,0.2-0.3,0.2
		c-0.1-0.2-0.1-0.5-0.2-0.8C61.4,47.8,62.1,47.2,62.3,47.1z M61.8,45.6c0.2-0.2,0.3-0.4,0.3-0.4c0.3,0.3,0.4,0.8,0.3,1.2
		c-0.1,0.4-0.8,0.8-0.9,0.9c-0.1,0.1-0.2,0.2-0.2,0.2c-0.2-0.2-0.2-0.5-0.3-0.8C61,46.4,61.6,45.8,61.8,45.6z M61.2,44.1
		c0.2-0.2,0.3-0.4,0.3-0.4c0.3,0.3,0.5,0.7,0.4,1.1c0,0.4-0.7,0.9-0.8,1c-0.1,0.1-0.2,0.3-0.2,0.3c-0.2-0.2-0.3-0.4-0.4-0.7
		C60.5,45,61.1,44.3,61.2,44.1z M59.8,43.2c-0.1,0.1-0.1,0.3-0.1,0.3c-0.2-0.1-0.4-0.3-0.6-0.6c-0.2-0.3,0.1-1.1,0.2-1.3
		c0.1-0.2,0.1-0.5,0.1-0.5c0.4,0.2,0.7,0.5,0.8,0.9C60.3,42.3,59.8,43,59.8,43.2z M60.4,42.8c0.1-0.2,0.2-0.5,0.2-0.5
		c0.3,0.2,0.6,0.7,0.6,1c0,0.4-0.5,1-0.6,1.1c-0.1,0.1-0.2,0.3-0.2,0.3c-0.2-0.2-0.3-0.4-0.5-0.7C59.8,43.8,60.2,43,60.4,42.8z
		 M50.6,61.9c-0.1-0.1-0.2-0.3-0.2-0.3c0.2-0.1,0.5-0.1,0.8-0.1c0.3,0,0.9,0.7,1,0.9c0.1,0.2,0.4,0.4,0.4,0.4
		c-0.3,0.2-0.8,0.3-1.2,0.1C51,62.7,50.6,62,50.6,61.9z M49.1,61.9c0-0.1-0.2-0.3-0.2-0.3c0.2-0.1,0.5-0.1,0.8-0.1
		c0.3,0,0.8,0.8,0.9,1.1C50.8,62.8,51,63,51,63c-0.2,0-0.5,0.1-0.7,0.1c-0.2,0-0.3,0-0.5-0.1C49.4,62.8,49.1,62,49.1,61.9z M51.1,64
		c-0.1,0.3-0.6,0.4-1.4,0.5c-0.4,0-0.6,0.2-0.6,0.2c-0.2-0.7-0.1-1.4,0.1-1.4c0.1,0,0.3,0,0.6,0c0.4,0.1,0.9,0.1,1.3-0.1
		c0,0,0,0,0,0C51.3,63.3,51.2,63.7,51.1,64z M49.1,76.5c0-0.3,0.1-0.3,0.2-0.4c0.2-0.2,0.7-0.3,1.2-0.3c0.1,0,0.8-0.2,0.7-0.3
		c0,0.2,0.1,0.7-0.1,1.1c-0.3,0-0.6,0-1,0.1c-0.1,0-0.1,0-0.2,0c-0.2,0-0.5,0.1-0.6,0.1c-0.1,0-0.1-0.1-0.3-0.1
		C49.1,76.6,49.1,76.5,49.1,76.5z M49.4,72.8c0.7-0.3,0.9-0.2,1.3-0.3c0.2,0,0.4-0.1,0.5-0.2c0,0.2,0.1,0.6,0,1
		c-0.1,0.3-0.5,0.5-1.4,0.5c-0.4,0-0.6,0.2-0.6,0.2C49.1,73.7,48.9,73,49.4,72.8z M51.2,71.8c-0.1,0.3-0.5,0.5-1.4,0.5
		c-0.4,0-0.6,0.2-0.6,0.2c-0.1-0.3-0.3-1.1,0.2-1.3c0.7-0.3,0.9-0.2,1.3-0.3c0.2,0,0.4-0.1,0.5-0.2C51.2,71,51.3,71.3,51.2,71.8z
		 M51.2,75c-0.1,0.3-0.5,0.5-1.4,0.5c-0.4,0-0.6,0.2-0.6,0.2c-0.1-0.4-0.2-1.1,0.2-1.3c0.7-0.3,0.9-0.2,1.3-0.3
		c0.2,0,0.4-0.1,0.5-0.2C51.2,74.1,51.3,74.5,51.2,75z M49.4,68c0.7-0.3,0.9-0.2,1.3-0.3c0.2,0,0.4-0.1,0.5-0.2c0,0.2,0.1,0.6,0,1
		c-0.1,0.3-0.5,0.5-1.4,0.5c-0.4,0-0.6,0.2-0.6,0.2C49.1,68.9,49,68.2,49.4,68z M49.3,65c0.7-0.3,0.9-0.2,1.3-0.3
		c0.2,0,0.4-0.1,0.5-0.2c0,0.2,0.1,0.6,0,1c-0.1,0.3-0.5,0.5-1.4,0.5c-0.4,0-0.6,0.2-0.6,0.2C49.1,65.8,48.9,65.1,49.3,65z
		 M49.4,66.4c0.7-0.3,0.9-0.2,1.3-0.3c0.2,0,0.4-0.1,0.5-0.2c0,0.2,0.1,0.6,0,1c-0.1,0.3-0.5,0.5-1.4,0.5c-0.4,0-0.6,0.2-0.6,0.2
		C49.1,67.4,48.9,66.7,49.4,66.4z M51.3,75.4c0.3-0.6,0.3-1,0-1.6c0.3-0.5,0.3-1.3,0-1.6c0.4-0.7,0-1.5,0-1.6c0.3-0.9,0-1.6,0-1.6
		c0.4-0.8,0-1.6,0-1.7c0.3-0.9-0.1-1.1,0.1-1.6c0.2-0.6,0-1.2,0-1.5c0-0.2,0.1-0.5,0.1-0.9c0.4,0.1,1.1,0,1.3-0.4
		c0.2,0.1,1.4,0.2,1.6-0.5c0.3,0,1.2,0.2,1.6-0.6c0.4,0,1.1,0,1.3-0.8c0.5,0,1.1-0.1,1.4-0.9c0.3,0.7,0.8,1.2,1.1,1.3
		c0.1,0.2,0.5,0.9,1.1,1.1c0.3,0.6,0.5,0.8,1.1,1c0.1,0.3,0.3,0.8,1.1,1.2c0.1,0.3,0.4,0.8,1.1,1.2c0.2,0.3,0.4,0.8,1.1,1
		c0.1,0.2,0.2,0.7,1.1,1.1c0.1,0.2,0.4,0.8,1.1,1.1c0.1,0.2,0.2,0.4,0.4,0.6c0.1,0,0.1-0.1,0.2-0.1c-0.4,0.2-0.9,0.8-1.3,1.3
		c0,0-0.1,0-0.5,0.2c-0.4,0.2-1,0.6-1.4,1.2c0,0-1.1,0.1-2,1.2c0,0-1-0.1-2.1,1c0,0-1.1-0.1-2.2,0.9c0,0-1-0.3-2.2,0.7
		c0,0-1.1-0.3-2.3,0.5c0,0-0.9-0.4-2.3,0.3c0,0-0.1,0-0.3-0.1C51.6,76.1,51.5,75.7,51.3,75.4z M68.6,69.2
		C68.6,69.2,68.6,69.2,68.6,69.2C68.6,69.2,68.6,69.2,68.6,69.2C68.5,69.3,68.6,69.2,68.6,69.2z M68.2,69.4c0,0-0.2-0.1-0.3-0.2
		c-0.2-0.2-0.1-0.3-0.1-0.4c0-0.2,0.3-0.7,0.6-1c0,0,0.4-0.6,0.3-0.7c0.2,0.2,0.7,0.6,0.7,1c-0.1,0.1-0.3,0.3-0.4,0.5
		c-0.1,0.1-0.2,0.2-0.3,0.3C68.5,69.2,68.2,69.4,68.2,69.4z M76.3,55.1c0,0-0.6,0.8-0.5,2.2c0,0-0.7,0.8-0.7,2.3
		c0,0-0.8,0.6-0.9,2.1c0,0-0.8,0.5-1.1,2.1c0,0-0.9,0.6-1.3,1.9c0,0-1,0.5-1.5,1.9c0,0-0.2,0.1-0.4,0.2c-0.3-0.5-0.7-0.8-1-0.9
		c-0.2-0.6-0.5-0.8-1.1-1.1c-0.1-0.6-0.7-1.1-1.1-1.2c-0.2-0.7-1.1-1-1.1-1.1c-0.4-0.8-1.1-1.1-1.1-1.1c-0.3-0.8-1.1-1.1-1.1-1.2
		c-0.4-0.8-0.8-0.7-1.1-1.2c-0.3-0.5-0.8-0.8-1.1-1c-0.2-0.1-0.3-0.5-0.5-0.7c0.2-0.2,0.4-0.5,0.4-1c0.7-0.3,0.9-1.1,0.9-1.4
		c0.5-0.2,0.9-1,0.6-1.5c0.6-0.4,0.8-1.1,0.6-1.6c0.4-0.4,0.5-1.1,0.3-1.5c0.6,0.2,1,0.1,1.3,0c0.3,0.1,1,0.3,1.6,0
		c0.6,0.3,1,0.2,1.6,0c0.3,0.2,0.8,0.3,1.7,0c0.3,0.1,0.9,0.3,1.7,0c0.3,0.1,0.9,0.3,1.6-0.1c0.2,0.1,0.7,0.3,1.6,0
		c0.2,0.1,0.8,0.3,1.6,0c0.2,0.1,0.5,0.1,0.7,0.1c0,0.4,0,0.8,0.1,1.4C76.6,52.9,76,53.5,76.3,55.1z M75.3,41.3c0,0-0.1,1.4,0.7,2.2
		c0,0-0.3,1.1,0.4,2.3c0,0-0.3,1,0.3,2.3c0,0-0.1,0.3-0.2,0.8c-0.6-0.2-1.1-0.1-1.4,0.1c-0.6-0.3-1-0.3-1.6,0
		c-0.5-0.3-1.3-0.3-1.6,0c-0.7-0.4-1.5,0-1.6,0c-0.9-0.4-1.6,0-1.6,0c-0.8-0.4-1.6,0-1.7,0c-0.9-0.3-1.1,0.1-1.6-0.1
		c-0.6-0.2-1.2,0-1.5,0c-0.1,0-0.3,0-0.4-0.1c0-0.3-0.1-0.7-0.3-0.9c0.2-0.6,0-1.2-0.3-1.6c0.1-0.8-0.3-1.3-0.6-1.5
		c0-0.8-0.3-1.2-0.7-1.5c0-0.4-0.3-1.1-0.9-1.3c0-0.2-0.1-0.4-0.3-0.6c0.5-0.3,0.6-0.6,0.7-0.9c0.6-0.2,0.9-0.5,1.2-1.2
		c0.6-0.1,1.1-0.7,1.2-1.1c0.7-0.2,1.1-1.1,1.1-1.1c0.9-0.4,1.1-1.1,1.1-1.1c0.8-0.3,1.2-1.1,1.2-1.1c0.8-0.4,0.7-0.8,1.2-1.1
		c0.6-0.3,0.8-0.8,1.1-1.1c0.1-0.1,0.4-0.2,0.6-0.4c0.2,0.3,0.6,0.6,1.1,1c0,0,0.1,0.9,1.4,1.9c0,0,0.1,1.1,1.2,2c0,0,0,1.2,1,2.1
		C74.5,39.1,74.4,40.2,75.3,41.3L75.3,41.3z M58.3,39.9c0.4,0.1,0.7,0.5,0.9,0.8c0.1,0.4-0.2,1.1-0.3,1.2c-0.1,0.1-0.1,0.3-0.1,0.3
		c-0.2-0.1-0.4-0.3-0.6-0.5c-0.2-0.2,0-1.1,0.1-1.4C58.3,40.2,58.3,39.9,58.3,39.9z M57,39c0.4,0.1,0.8,0.4,1,0.7
		c0.2,0.3-0.1,1.1-0.1,1.3c0,0.1,0,0.3,0,0.3c-0.3-0.1-0.4-0.2-0.7-0.4c-0.3-0.2-0.1-1.1-0.1-1.4C57,39.3,57,39,57,39z M56.6,40.4
		c-0.3,0-0.5-0.2-0.8-0.4c-0.3-0.2-0.2-1.1-0.2-1.3c0-0.3,0-0.5,0-0.5c0.4,0,0.9,0.3,1.1,0.6c0.2,0.3,0,1.1,0,1.3
		C56.5,40.2,56.6,40.4,56.6,40.4z M55.3,39.7c-0.3,0-0.5-0.1-0.8-0.3c-0.3-0.1-0.4-1-0.4-1.3c0-0.3-0.1-0.5-0.1-0.5
		c0.4,0,0.8,0.2,1.1,0.5c0.2,0.3,0.2,1.1,0.2,1.3C55.2,39.5,55.3,39.7,55.3,39.7z M39.5,60.1c-0.3-0.3-0.5-0.3-0.5-0.3
		c0.3-0.6,0.7-0.9,1-0.9c0.1,0.1,0.2,0.2,0.3,0.2c0.1,0.1,0.2,0.3,0.4,0.4c0.1,0.3,0.4,0.5,0.7,0.7c-0.1,0.1-0.4,0.3-0.6,0.5
		C40.6,60.9,40.1,60.7,39.5,60.1z M38.4,61.1c-0.3-0.3-0.5-0.3-0.5-0.3c0.2-0.3,0.6-0.9,1-0.8c0.7,0.3,0.7,0.5,1.1,0.7
		c0.2,0.1,0.4,0.2,0.5,0.2c-0.1,0.1-0.3,0.5-0.7,0.7C39.5,61.9,39.1,61.7,38.4,61.1z M37.4,62.2c-0.3-0.3-0.5-0.3-0.5-0.3
		c0.2-0.3,0.6-0.9,1-0.8c0.7,0.3,0.7,0.5,1.1,0.7c0.2,0.1,0.4,0.2,0.5,0.2c-0.1,0.1-0.3,0.5-0.7,0.7C38.5,63,38,62.8,37.4,62.2z
		 M36.2,63.3C35.9,63,35.7,63,35.7,63c0.2-0.3,0.6-0.9,1-0.8c0.7,0.3,0.7,0.5,1.1,0.7c0.2,0.1,0.4,0.2,0.5,0.2
		c-0.1,0.1-0.3,0.5-0.7,0.7C37.4,64.1,36.9,63.9,36.2,63.3z M35,64.4c-0.3-0.3-0.5-0.3-0.5-0.3c0.2-0.3,0.6-0.9,1-0.8
		c0.7,0.3,0.7,0.5,1.1,0.7c0.1,0.1,0.4,0.2,0.5,0.2c-0.1,0.1-0.3,0.5-0.7,0.7C36.2,65.2,35.7,65,35,64.4z M33.9,65.5
		c-0.3-0.3-0.5-0.3-0.5-0.3c0.2-0.3,0.6-0.9,1-0.8c0.7,0.3,0.7,0.5,1.1,0.7c0.2,0.1,0.4,0.2,0.5,0.2c-0.1,0.1-0.3,0.5-0.7,0.7
		C35,66.3,34.6,66.2,33.9,65.5z M32.8,66.6c-0.3-0.3-0.5-0.3-0.5-0.3c0.2-0.3,0.6-0.9,1-0.8c0.7,0.3,0.7,0.5,1.1,0.7
		c0.1,0.1,0.4,0.2,0.5,0.2c-0.1,0.1-0.3,0.5-0.7,0.7C33.9,67.4,33.5,67.2,32.8,66.6z M32.2,66.7c0.7,0.3,0.7,0.5,1.1,0.7
		c0.2,0.1,0.3,0.2,0.5,0.2c-0.1,0.1-0.3,0.5-0.7,0.7c-0.2,0.1-0.7,0-1.4-0.6c-0.3-0.3-0.6-0.3-0.6-0.3
		C31.3,67.2,31.8,66.6,32.2,66.7z M23.9,49.3c0.3,0.1,0.5,0.5,0.5,1.4c0,0.4,0.2,0.6,0.2,0.6c-0.6,0.2-1,0.2-1.1,0
		c0.1-0.4,0.1-1-0.2-1.8c0,0,0,0,0,0c0,0,0.1-0.1,0.1-0.3C23.5,49.2,23.5,49.2,23.9,49.3z M35.5,49.2c0.3,0,0.6-0.1,0.8,0
		c0.1,0.1,0.2,0.1,0.2,0.3c0,0.3,0.1,0.7,0.2,0.9c0,0.1,0,0.1-0.1,0.5c0,0.1,0,0.2,0,0.4c0,0.1-0.4-0.1-0.5-0.1
		c-0.2-0.2-0.3-0.7-0.3-1.2C35.8,49.9,35.6,49.2,35.5,49.2z M33.9,49.3c0.2,0,0.5-0.1,1,0c0.3,0.1,0.5,0.5,0.5,1.4
		c0,0.4,0.2,0.6,0.2,0.6c-0.4,0.1-1.1,0.2-1.3-0.2c-0.3-0.7-0.2-0.9-0.3-1.3C34.1,49.6,34,49.4,33.9,49.3z M32.3,49.3
		c0.2,0,0.6-0.1,1,0c0.3,0.1,0.5,0.5,0.5,1.4c0,0.4,0.2,0.6,0.2,0.6c-0.4,0.1-1.1,0.2-1.3-0.2c-0.3-0.7-0.2-0.9-0.3-1.3
		C32.5,49.6,32.4,49.4,32.3,49.3z M30.7,49.3c0.2,0,0.6-0.1,1,0c0.3,0.1,0.5,0.5,0.6,1.4c0,0.4,0.2,0.6,0.2,0.6
		c-0.3,0.1-1.1,0.3-1.3-0.2c-0.3-0.7-0.2-0.9-0.3-1.3C30.9,49.6,30.8,49.4,30.7,49.3z M29.1,49.3c0.2,0,0.6-0.1,1,0
		c0.3,0.1,0.5,0.5,0.6,1.4c0,0.4,0.2,0.6,0.2,0.6c-0.4,0.1-1.1,0.2-1.3-0.2c-0.3-0.7-0.2-0.9-0.3-1.3C29.3,49.7,29.2,49.4,29.1,49.3
		z M27.4,49.3c0.2,0,0.6-0.1,1,0c0.3,0.1,0.5,0.5,0.5,1.4c0,0.4,0.2,0.6,0.2,0.6c-0.4,0.1-1.1,0.2-1.3-0.2c-0.3-0.7-0.2-0.9-0.3-1.3
		C27.6,49.6,27.5,49.4,27.4,49.3z M26.1,51.3c-0.4,0.1-1.1,0.2-1.3-0.2c-0.3-0.7-0.2-0.9-0.3-1.3c0-0.2-0.1-0.4-0.2-0.5
		c0.2,0,0.6-0.1,1,0c0.3,0.1,0.5,0.5,0.5,1.4C25.9,51.2,26.1,51.3,26.1,51.3z M26.1,49.8c0-0.2-0.1-0.4-0.2-0.5c0.2,0,0.6-0.1,1,0
		c0.3,0.1,0.5,0.5,0.5,1.4c0,0.4,0.2,0.6,0.2,0.6c-0.3,0.1-1.1,0.3-1.3-0.2C26.1,50.4,26.2,50.2,26.1,49.8z M32.1,31.1
		c0.1,0.2-0.1,0.7-0.6,1.4c-0.3,0.3-0.3,0.6-0.3,0.5c-0.5-0.2-0.8-0.6-0.9-0.8c0.2-0.1,0.4-0.3,0.5-0.5c0.2-0.3,0.3-0.5,0.4-0.7
		c0.1-0.2,0.2-0.3,0.2-0.3s0.1,0,0.3-0.1C31.9,30.7,32,30.9,32.1,31.1z M46.3,38c-0.2-0.2-0.4-0.3-0.4-0.3c0.3-0.3,0.8-0.4,1.2-0.3
		c0.4,0.1,0.8,0.8,0.9,0.9c0.1,0.1,0.2,0.2,0.2,0.2c-0.2,0.2-0.5,0.2-0.8,0.3C47.1,38.8,46.5,38.2,46.3,38z M44.8,38.5
		c-0.2-0.2-0.4-0.3-0.4-0.3c0.3-0.3,0.7-0.4,1.1-0.4c0.4,0,0.9,0.7,1,0.8c0.1,0.1,0.3,0.2,0.3,0.2c-0.2,0.2-0.4,0.2-0.8,0.3
		C45.7,39.3,45,38.7,44.8,38.5z M43.4,39.2C43.2,39.1,43,39,43,39c0.2-0.3,0.7-0.5,1.1-0.5c0.4,0,1,0.6,1.1,0.7
		c0.1,0.1,0.3,0.2,0.3,0.2c-0.2,0.2-0.4,0.3-0.7,0.4C44.4,39.9,43.7,39.4,43.4,39.2z M42.2,40.2c-0.2-0.1-0.5-0.2-0.5-0.2
		c0.2-0.4,0.6-0.6,1-0.7c0.4,0,1.1,0.5,1.2,0.6c0.1,0.1,0.3,0.1,0.3,0.1c-0.1,0.2-0.4,0.3-0.6,0.5C43.3,40.7,42.4,40.3,42.2,40.2z
		 M41,41.3c-0.3-0.1-0.5-0.1-0.5-0.1c0.1-0.2,0.2-0.3,0.3-0.4c0,0,0.1-0.1,0.1-0.1c0.2-0.1,0.3-0.2,0.5-0.3c0.4-0.1,1.2,0.3,1.3,0.3
		c0.1,0.1,0.3,0.1,0.3,0.1c-0.1,0.2-0.3,0.4-0.6,0.6C42.1,41.6,41.2,41.3,41,41.3z M39.4,40.9c0-0.3,0.3-0.7,0.6-1
		c0,0,0.4-0.7,0.3-0.7c0.2,0.2,0.6,0.5,0.7,0.9c-0.4,0.2-0.9,0.6-1,0.9c0,0-0.1,0.1-0.1,0.1c0,0,0,0,0,0c-0.1,0.1-0.2,0.2-0.3,0.3
		c0,0-0.1-0.1-0.1-0.1C39.4,41.1,39.4,41,39.4,40.9z M38.3,39.7c0.3-0.7,0.5-0.7,0.7-1.1c0.1-0.2,0.2-0.3,0.2-0.5
		c0.1,0.1,0.5,0.3,0.8,0.7c0.1,0.2,0,0.7-0.6,1.4c-0.3,0.3-0.3,0.6-0.3,0.6C38.7,40.5,38.1,40.1,38.3,39.7z M37.1,38.6
		c0.3-0.7,0.5-0.7,0.7-1.1c0.1-0.2,0.2-0.4,0.2-0.5c0.1,0.1,0.5,0.3,0.7,0.7c0.1,0.2,0,0.7-0.6,1.4c-0.3,0.3-0.3,0.6-0.3,0.5
		C37.6,39.4,37,39,37.1,38.6z M36,37.5c0.3-0.7,0.5-0.7,0.7-1.1c0.1-0.2,0.2-0.4,0.2-0.5c0.1,0.1,0.5,0.3,0.7,0.7
		c0.2,0.2,0,0.7-0.6,1.4c-0.3,0.3-0.3,0.6-0.3,0.5C36.5,38.3,35.9,37.9,36,37.5z M34.9,36.4c0.3-0.7,0.5-0.7,0.7-1.1
		c0.1-0.2,0.2-0.4,0.2-0.5c0.1,0.1,0.5,0.3,0.7,0.7c0.1,0.2,0,0.7-0.6,1.4c-0.3,0.3-0.3,0.6-0.3,0.5C35.3,37.2,34.7,36.8,34.9,36.4z
		 M33.7,35.2c0.3-0.7,0.5-0.7,0.7-1.1c0.1-0.2,0.2-0.4,0.2-0.5c0.1,0.1,0.5,0.3,0.7,0.7c0.1,0.2,0,0.7-0.6,1.4
		c-0.3,0.3-0.3,0.6-0.3,0.5C34.2,36,33.6,35.6,33.7,35.2z M32.6,33.5c-0.3,0.3-0.3,0.6-0.3,0.5c-0.3-0.2-0.9-0.6-0.8-1
		c0.3-0.7,0.5-0.7,0.7-1.1c0.1-0.2,0.2-0.4,0.2-0.5c0.1,0.1,0.5,0.3,0.7,0.7C33.3,32.3,33.2,32.8,32.6,33.5z M32.6,34.1
		c0.3-0.7,0.5-0.7,0.7-1.1c0.1-0.2,0.2-0.4,0.2-0.5c0.1,0.1,0.5,0.3,0.7,0.7c0.1,0.2,0,0.7-0.6,1.4c-0.3,0.3-0.3,0.6-0.3,0.5
		C33.1,34.9,32.5,34.5,32.6,34.1z M39.9,42.5c-0.3,0-0.5,0-0.5,0c0.1-0.4,0.4-0.8,0.8-0.9c0.4-0.2,1.2,0.1,1.3,0.2
		c0.1,0,0.3,0,0.3,0c-0.1,0.2-0.2,0.4-0.5,0.7C41.2,42.7,40.2,42.5,39.9,42.5z M39,43.8c-0.3,0-0.5,0-0.5,0c0-0.4,0.3-0.8,0.7-1
		c0.3-0.2,1.2,0,1.3,0c0.1,0,0.4,0,0.4,0c0,0.3-0.2,0.5-0.4,0.7C40.2,43.9,39.3,43.8,39,43.8z M38.4,45.2c-0.3,0-0.5,0.1-0.5,0.1
		c0-0.4,0.2-0.8,0.6-1.1c0.3-0.2,1.1-0.1,1.3-0.1c0.1,0,0.3,0,0.3,0c0,0.3-0.2,0.5-0.3,0.8C39.5,45.2,38.6,45.2,38.4,45.2z
		 M37.8,46.7c-0.3,0-0.5,0.1-0.5,0.1c-0.1-0.4,0.2-0.9,0.4-1.1c0.3-0.3,1.2-0.2,1.3-0.2c0.1,0,0.3-0.1,0.3-0.1
		c0,0.3-0.1,0.5-0.2,0.8C39,46.5,38.1,46.6,37.8,46.7z M37.4,48.3c-0.3,0.1-0.4,0.2-0.4,0.2c-0.1-0.4,0.1-0.9,0.3-1.2
		c0.3-0.3,1.1-0.3,1.2-0.3c0.1,0,0.3-0.1,0.3-0.1c0,0.3-0.1,0.5-0.2,0.8C38.6,47.9,37.7,48.2,37.4,48.3z M37.2,52.2
		c0.1-0.4,0.9-0.8,1-0.8c0.1-0.1,0.3-0.2,0.3-0.2c0.1,0.2,0.2,0.5,0.2,0.8s-0.7,0.9-0.9,1.1c-0.2,0.2-0.4,0.4-0.4,0.4
		C37.1,53,37,52.5,37.2,52.2z M37.1,48.9c0.2-0.3,1-0.5,1.2-0.6c0.1,0,0.3-0.1,0.3-0.1c0.1,0.3,0,0.5,0,0.8c0,0.3-0.9,0.7-1.1,0.8
		c-0.2,0.1-0.5,0.3-0.5,0.3C36.8,49.7,36.8,49.2,37.1,48.9z M37,50.5c0.2-0.3,1-0.6,1.1-0.7c0.1,0,0.3-0.2,0.3-0.2
		c0.1,0.2,0.1,0.5,0.1,0.8c0,0.3-0.8,0.8-1,0.9c-0.2,0.1-0.4,0.3-0.4,0.3C36.8,51.3,36.9,50.8,37,50.5z M38.2,54.4
		c-0.2,0.2-0.3,0.4-0.3,0.4c-0.3-0.3-0.4-0.8-0.3-1.2c0.1-0.4,0.8-0.9,0.9-0.9c0.1-0.1,0.2-0.2,0.2-0.2c0.2,0.2,0.2,0.5,0.3,0.8
		C39,53.6,38.4,54.3,38.2,54.4z M38.9,55.9c-0.2,0.2-0.3,0.5-0.3,0.5c-0.3-0.3-0.5-0.7-0.5-1.1c0-0.4,0.7-1,0.8-1
		c0.1-0.1,0.2-0.3,0.2-0.3c0.2,0.2,0.3,0.4,0.4,0.7C39.6,55,39,55.7,38.9,55.9z M40.2,56.9c0.1-0.1,0.1-0.3,0.1-0.3
		c0.2,0.1,0.4,0.3,0.6,0.6c0.2,0.3-0.1,1.1-0.2,1.4c-0.1,0.2-0.1,0.5-0.1,0.5c-0.4-0.1-0.7-0.5-0.8-0.9C39.7,57.7,40.2,57,40.2,56.9
		z M39.7,57.3c-0.1,0.2-0.2,0.5-0.2,0.5c-0.4-0.2-0.6-0.6-0.6-1c0-0.4,0.5-1,0.6-1.1c0.1-0.1,0.2-0.3,0.2-0.3
		c0.2,0.2,0.3,0.4,0.5,0.7C40.2,56.2,39.8,57,39.7,57.3z M49.4,38.1c0.1,0.1,0.2,0.3,0.2,0.3c-0.2,0.1-0.5,0.1-0.8,0.2
		c-0.3,0-0.9-0.7-1-0.9c-0.1-0.2-0.4-0.4-0.4-0.4c0.3-0.2,0.8-0.3,1.2-0.1C49,37.2,49.4,38,49.4,38.1z M49.2,29.7
		c0.7-0.3,0.9-0.2,1.3-0.3c0.2,0,0.4-0.1,0.5-0.2c0,0.2,0.1,0.6,0,1c-0.1,0.3-0.5,0.5-1.4,0.5C49.1,30.8,49,31,49,31
		C48.9,30.6,48.8,29.9,49.2,29.7z M51,24.1c-0.1,0.3-0.6,0.4-1.4,0.5c-0.4,0-0.6,0.2-0.6,0.2c-0.2-0.6-0.1-1.2,0-1.4
		c0.2,0,0.5,0,0.8-0.1c0.2,0,0.5,0,0.9-0.1c0,0,0,0,0,0c0.1,0,0.2,0.1,0.4,0.1C51.1,23.6,51.1,23.9,51,24.1z M50.3,37.1
		c0.3,0.2,0.6,0.9,0.7,1.1c0,0.1,0.2,0.3,0.2,0.3c-0.2,0.1-0.5,0.1-0.8,0.1c-0.3,0-0.8-0.8-0.9-1c-0.1-0.2-0.3-0.4-0.3-0.4
		C49.5,36.9,50,36.9,50.3,37.1z M49,36.5c0-0.3,0.1-0.3,0.2-0.4c0.2-0.2,0.7-0.3,1.2-0.3c0.1,0,0.8-0.2,0.7-0.3
		c0,0.3,0.1,0.8-0.1,1.1c-0.2,0-0.4,0-0.4,0.1c-0.3-0.1-0.8-0.3-1.5,0C49,36.7,49,36.6,49,36.5z M49.2,34.5c0.7-0.3,0.9-0.2,1.3-0.3
		c0.2,0,0.4-0.1,0.5-0.2c0,0.2,0.1,0.5,0,1c-0.1,0.3-0.5,0.5-1.4,0.5c-0.4,0-0.6,0.2-0.6,0.2C49,35.4,48.8,34.7,49.2,34.5z
		 M49.2,32.9c0.7-0.3,0.9-0.2,1.3-0.3c0.2,0,0.4-0.1,0.5-0.2c0,0.2,0.1,0.6,0,1c-0.1,0.3-0.5,0.5-1.4,0.5c-0.4,0-0.6,0.2-0.6,0.2
		C49,33.8,48.8,33.1,49.2,32.9z M51,31.9c-0.1,0.3-0.5,0.5-1.4,0.5c-0.4,0-0.6,0.2-0.6,0.2c-0.1-0.3-0.3-1.1,0.2-1.3
		c0.7-0.3,0.9-0.2,1.3-0.3c0.2,0,0.4-0.1,0.5-0.2C51,31,51.1,31.4,51,31.9z M49.2,28.1c0.7-0.3,0.9-0.2,1.3-0.3
		c0.2,0,0.4-0.1,0.5-0.2c0,0.2,0.1,0.6,0,1c-0.1,0.3-0.5,0.5-1.4,0.5c-0.4,0-0.6,0.2-0.6,0.2C49,29,48.8,28.3,49.2,28.1z M49.2,25
		c0.7-0.3,0.9-0.2,1.3-0.3c0.2,0,0.4-0.1,0.5-0.2c0,0.2,0.1,0.6,0,1c-0.1,0.3-0.5,0.5-1.4,0.5c-0.4,0-0.6,0.2-0.6,0.2
		C48.9,25.9,48.8,25.2,49.2,25z M49.2,26.5c0.7-0.3,0.9-0.2,1.3-0.3c0.2,0,0.4-0.1,0.5-0.2c0,0.2,0.1,0.6,0,1
		c-0.1,0.3-0.5,0.5-1.4,0.5c-0.4,0-0.6,0.2-0.6,0.2C48.9,27.5,48.8,26.7,49.2,26.5z M52.4,37.2c0.4-0.1,0.9,0.1,1.1,0.3
		c0.3,0.3,0.3,1.1,0.3,1.2c0,0.1,0.1,0.3,0.1,0.3c-0.3,0-0.5-0.1-0.8-0.2c-0.3-0.1-0.5-1-0.6-1.2C52.6,37.4,52.4,37.2,52.4,37.2z
		 M52.5,38.4c0,0.1,0.1,0.3,0.1,0.3c-0.3,0.1-0.5,0-0.8-0.1c-0.3-0.1-0.6-0.9-0.7-1.1c-0.1-0.2-0.3-0.5-0.3-0.5
		c0.4-0.1,0.9,0,1.2,0.2C52.3,37.4,52.4,38.3,52.5,38.4z M48.8,24.8c-0.1,0.3-0.3,1,0,1.6c-0.2,0.6-0.2,1,0,1.6
		c-0.2,0.3-0.3,0.8,0,1.7c-0.1,0.3-0.3,0.9,0,1.6c-0.1,0.3-0.3,0.9,0.1,1.6c-0.1,0.2-0.3,0.7,0,1.6c-0.1,0.2-0.3,0.8,0,1.6
		c-0.1,0.2-0.1,0.5-0.1,0.7c-1-0.2-1.4,0.3-1.5,0.3c-0.7-0.2-1.3,0.1-1.7,0.4c-0.4-0.1-1.2,0.1-1.5,0.7c-0.4,0-1.3,0.4-1.5,0.9
		c-0.3,0-1,0.3-1.2,0.8c-0.3-0.6-0.7-0.8-1-0.9c-0.2-0.6-0.5-0.9-1.2-1.1c-0.1-0.6-0.7-1.1-1.1-1.2c-0.2-0.7-1.1-1.1-1.1-1.1
		c-0.4-0.9-1.1-1.1-1.2-1.1c-0.3-0.8-1.1-1.2-1.1-1.2c-0.4-0.8-0.8-0.7-1.1-1.2c-0.3-0.6-0.8-0.8-1.1-1c-0.1-0.1-0.2-0.3-0.4-0.5
		c0.4-0.2,0.8-0.6,1.3-1.3c0,0,1-0.1,1.9-1.4c0,0,1-0.1,2-1.2c0,0,1.1,0,2.1-1.1c0,0,1.1,0.2,2.2-0.9c0,0,1,0.3,2.3-0.7
		c0,0,0.9,0.4,2.3-0.4c0,0,0.8,0.4,2.3-0.3c0,0,0.2,0.1,0.5,0.2C48.6,24,48.6,24.5,48.8,24.8z M23.8,44.8c0,0,0.6-0.5,0.5-2.2
		c0,0,0.7-0.4,0.8-2.2c0,0,0.8-0.6,0.9-2.2c0,0,0.8-0.3,1.1-2c0,0,0.9-0.4,1.3-1.9c0,0,0.5-0.3,0.7-0.6c0.3-0.3,0.6-0.8,0.8-1.2
		c0,0,0.1-0.1,0.2-0.1c0.3,0.5,0.7,0.8,1,0.9c0.1,0.2,0.5,0.9,1.2,1.1c0.3,0.6,0.6,0.8,1.1,1.1c0.1,0.3,0.4,0.8,1.2,1.2
		c0.1,0.3,0.4,0.9,1.1,1.2c0.2,0.3,0.4,0.9,1.1,1.1c0.1,0.2,0.2,0.7,1.1,1.1c0.1,0.2,0.4,0.8,1.1,1.2c0.1,0.2,0.2,0.3,0.4,0.5
		c-0.2,0.3-0.4,0.6-0.4,0.9c-0.3,0.2-0.9,0.7-0.9,1.4c-0.3,0.1-0.8,1.2-0.6,1.6c-0.3,0.1-0.6,0.8-0.5,1.5c-0.2,0.1-0.6,1-0.3,1.7
		c-0.1,0-0.1,0.1-0.2,0.3c-0.6-0.2-1,0-1.3,0.1c-0.6-0.3-1-0.3-1.7,0c-0.5-0.3-1.3-0.3-1.7,0c-0.7-0.4-1.5,0-1.6,0
		c-0.9-0.4-1.6,0-1.6,0c-0.8-0.4-1.6,0-1.7,0c-0.9-0.3-1.1,0.1-1.7-0.1c-0.6-0.2-1.2,0-1.5,0c-0.1,0-0.3,0-0.5-0.1
		c0.1-0.4,0.2-1,0-1.8C23.4,47.1,24,46.4,23.8,44.8z M25.5,60.9c0,0,0-1.3-0.8-2.2c0,0,0.1-1.4-0.7-2.2c0,0,0.2-1.2-0.4-2.2
		c-0.2-0.3,0.1-0.4,0.1-0.8s-0.1-1.2-0.4-1.7c0,0,0-0.1,0.1-0.2c0.6,0.2,0.9,0.1,1.2-0.1c0.3,0.1,1,0.3,1.6,0c0.6,0.2,1,0.2,1.6,0
		c0.3,0.2,0.8,0.3,1.7,0c0.3,0.1,0.9,0.3,1.7,0c0.3,0.1,0.9,0.3,1.6-0.1c0.2,0.1,0.7,0.3,1.6,0c0.2,0.1,0.9,0.3,1.6,0
		c0.2,0.1,0.4,0.1,0.7,0.1c0,0.2,0.1,0.3,0.2,0.4c-0.2,0.3-0.1,1.5,0.3,1.6c0,0.4,0.1,1.5,0.6,1.5c-0.2,0.5,0.3,1.4,0.8,1.4
		c0,0.6,0.3,1.2,0.9,1.5c0,0.2,0.1,0.4,0.2,0.6c-0.6,0.3-0.9,0.7-1,1c-0.2,0.1-0.9,0.5-1.1,1.1c-0.6,0.3-0.8,0.5-1.1,1.1
		c-0.3,0.1-0.8,0.3-1.2,1.2c-0.3,0.1-0.9,0.4-1.2,1.1c-0.3,0.2-0.9,0.4-1.1,1.1c-0.2,0.1-0.7,0.2-1.1,1.1c-0.2,0.1-0.8,0.4-1.2,1.1
		c-0.1,0.1-0.3,0.2-0.4,0.4c-0.2-0.3-0.6-0.7-1.2-1c0,0-0.2-1-1.4-1.9c0,0-0.1-1.1-1.2-2C26.6,63,26.6,62,25.5,60.9z M41.8,60.1
		c-0.1,0-0.2-0.1-0.3-0.2c-0.1,0-0.2-0.1-0.2-0.2c-0.1-0.1-0.2-0.3-0.3-0.5c-0.1-0.4,0.2-1.1,0.2-1.3c0-0.1,0.1-0.3,0.1-0.3
		c0.2,0.1,0.4,0.3,0.7,0.5c0.2,0.2,0,1.1,0,1.4C41.8,59.8,41.8,60.1,41.8,60.1L41.8,60.1z M43.2,61.1c-0.4,0-0.8-0.3-1-0.7
		c-0.2-0.3,0-1.2,0.1-1.3c0-0.1,0-0.3,0-0.3c0.3,0.1,0.5,0.2,0.7,0.4c0.3,0.2,0.2,1.1,0.2,1.4C43.1,60.8,43.2,61.1,43.2,61.1z
		 M44.2,59.6c-0.3-0.2-0.7-0.4-0.7-0.4s-0.2-0.3-0.5-0.5c-0.3-0.2-0.6-0.4-0.6-0.4s-0.1-0.3-0.3-0.5c-0.3-0.3-0.7-0.6-0.7-0.6
		s-0.1-0.2-0.3-0.5c-0.2-0.3-0.6-0.7-0.6-0.7s0-0.2-0.1-0.5c-0.2-0.4-0.6-0.8-0.6-0.8s0-0.2-0.1-0.5c-0.2-0.4-0.5-0.8-0.5-0.8
		s0-0.3,0-0.6c-0.1-0.4-0.3-0.8-0.3-0.8s0.1-0.2,0.1-0.6c0-0.4-0.2-0.9-0.2-0.9s0.1-0.2,0.1-0.6c0-0.4-0.1-0.8-0.1-0.8
		s0.2-0.3,0.2-0.6c0-0.4,0-0.9,0-0.9s0.2-0.2,0.2-0.5c0.1-0.4,0.1-0.8,0.1-0.8s0.2-0.2,0.3-0.5c0.1-0.3,0.2-0.8,0.2-0.8
		s0.2-0.2,0.4-0.5c0.2-0.3,0.3-0.8,0.3-0.8s0.3-0.2,0.5-0.5c0.2-0.3,0.3-0.7,0.3-0.7s0.3-0.2,0.6-0.4c0.3-0.3,0.5-0.7,0.5-0.7
		s0.3-0.1,0.5-0.3c0.3-0.2,0.6-0.6,0.6-0.6s0.3-0.1,0.6-0.3c0.3-0.2,0.5-0.5,0.5-0.5s0.4,0,0.7-0.2c0.3-0.2,0.6-0.4,0.6-0.4
		s0.3,0,0.6-0.1c0.4-0.1,0.7-0.4,0.7-0.4s0.3,0.1,0.6,0c0.4-0.1,0.8-0.3,0.8-0.3s0.3,0.1,0.7,0.1c0.4,0,0.7-0.2,0.7-0.2
		s0.3,0.2,0.6,0.2c0.4,0,0.9-0.1,0.9-0.1s0.3,0.2,0.6,0.2c0.4,0.1,0.8,0,0.8,0s0.2,0.2,0.6,0.3c0.3,0.1,0.7,0.1,0.7,0.1
		s0.2,0.3,0.5,0.4c0.4,0.2,0.8,0.2,0.8,0.2s0.2,0.3,0.4,0.4c0.3,0.2,0.7,0.4,0.7,0.4s0.2,0.3,0.4,0.5c0.3,0.2,0.7,0.4,0.7,0.4
		s0.1,0.3,0.3,0.5c0.3,0.3,0.7,0.5,0.7,0.5s0.1,0.3,0.2,0.6c0.2,0.3,0.6,0.6,0.6,0.6s0,0.3,0.2,0.6c0.2,0.4,0.5,0.7,0.5,0.7
		s0,0.3,0.1,0.6c0.2,0.4,0.4,0.7,0.4,0.7s-0.1,0.3,0,0.6c0.1,0.4,0.3,0.8,0.3,0.8s-0.1,0.4,0,0.8c0.1,0.4,0.3,0.7,0.3,0.7
		s-0.1,0.3-0.1,0.6c0,0.4,0.1,0.9,0.1,0.9s-0.2,0.2-0.2,0.5c-0.1,0.4,0,0.9,0,0.9s-0.2,0.2-0.3,0.6c-0.1,0.4,0,0.8,0,0.8
		s-0.2,0.2-0.4,0.6c-0.1,0.3-0.2,0.8-0.2,0.8s-0.3,0.2-0.4,0.5c-0.2,0.3-0.3,0.7-0.3,0.7s-0.3,0.2-0.5,0.5c-0.2,0.3-0.4,0.7-0.4,0.7
		s-0.3,0.2-0.5,0.4c-0.3,0.3-0.5,0.6-0.5,0.6s-0.3,0.1-0.6,0.3c-0.3,0.2-0.5,0.6-0.5,0.6s-0.3,0.1-0.6,0.3c-0.3,0.2-0.6,0.5-0.6,0.5
		s-0.4,0-0.7,0.2c-0.3,0.2-0.6,0.4-0.6,0.4s-0.4,0-0.7,0.1C53.3,60.7,53,61,53,61s-0.4-0.1-0.7,0c-0.4,0.1-0.8,0.3-0.8,0.3
		s-0.3-0.1-0.7-0.1c-0.4,0-0.7,0.2-0.7,0.2s-0.3-0.1-0.6-0.2c-0.4,0-0.8,0.1-0.8,0.1s-0.2-0.2-0.6-0.2c-0.4-0.1-0.9,0-0.9,0
		s-0.2-0.2-0.5-0.3c-0.3-0.1-0.8-0.1-0.8-0.1s-0.2-0.2-0.5-0.3c-0.3-0.2-0.8-0.2-0.8-0.2S44.5,59.8,44.2,59.6z M43.5,59.6
		c0.3,0,0.5,0.2,0.7,0.3c0.3,0.2,0.3,1.1,0.3,1.4c0,0.3,0.1,0.5,0.1,0.5c-0.4,0-0.8-0.3-1-0.6c-0.2-0.3-0.1-1.2-0.1-1.3
		C43.5,59.8,43.5,59.6,43.5,59.6z M44.7,60.3c0.3,0,0.5,0.1,0.8,0.3c0.3,0.1,0.4,1.1,0.4,1.3c0,0.3,0.1,0.5,0.1,0.5
		c-0.4,0-0.9-0.2-1.1-0.5c-0.3-0.3-0.2-1.1-0.2-1.3C44.8,60.5,44.7,60.3,44.7,60.3z M48.7,79.2c-0.5-0.3-0.9-1.5-1-1.7
		c-0.1-0.2-0.3-0.5-0.3-0.5c0.4-0.1,0.8,0,1.3,0c0.5,0.1,1.1,1.3,1.3,1.7c0.2,0.4,0.5,0.7,0.5,0.7C50,79.6,49.2,79.5,48.7,79.2z
		 M46.2,79c-0.5-0.4-0.8-1.6-0.8-1.8c0-0.2-0.2-0.5-0.2-0.5c0.4-0.1,0.8,0,1.3,0.2c0.5,0.1,1,1.4,1.2,1.8c0.1,0.4,0.4,0.7,0.4,0.7
		C47.4,79.5,46.7,79.3,46.2,79z M43.7,78.5c-0.5-0.4-0.7-1.7-0.7-1.9c0-0.2-0.2-0.5-0.2-0.5c0.4,0,0.8,0.1,1.3,0.3
		c0.5,0.1,0.9,1.5,1,1.9c0.1,0.4,0.3,0.7,0.3,0.7C44.9,79.1,44.2,78.9,43.7,78.5z M41.2,77.8c-0.4-0.4-0.5-1.7-0.5-1.9
		c0-0.2-0.1-0.5-0.1-0.5c0.4,0,0.8,0.2,1.3,0.4c0.5,0.2,0.8,1.6,0.8,2c0.1,0.4,0.3,0.7,0.3,0.7C42.3,78.6,41.6,78.3,41.2,77.8z
		 M38.8,77c-0.4-0.5-0.3-1.7-0.3-2c0-0.2-0.1-0.5-0.1-0.5c0.4,0,0.8,0.2,1.2,0.5c0.5,0.2,0.6,1.6,0.7,2c0,0.4,0.2,0.8,0.2,0.8
		C39.9,77.8,39.2,77.5,38.8,77z M36.5,75.9c-0.3-0.5-0.2-1.8-0.1-2c0-0.2,0-0.5,0-0.5c0.4,0.1,0.7,0.3,1.2,0.6
		c0.4,0.3,0.5,1.7,0.5,2.1c0,0.4,0.1,0.8,0.1,0.8C37.5,76.8,36.9,76.4,36.5,75.9z M34.3,74.6c-0.3-0.5,0-1.8,0-2c0-0.2,0-0.5,0-0.5
		c0.4,0.1,0.7,0.4,1.1,0.7c0.4,0.3,0.3,1.7,0.3,2.1c0,0.4,0.1,0.8,0.1,0.8C35.2,75.6,34.6,75.2,34.3,74.6z M34.8,75.6
		c0.6,0.4,1.5,0.6,1.5,0.6s0.4,0.4,0.9,0.7c0.6,0.3,1.4,0.4,1.4,0.4s0.4,0.4,1,0.6c0.6,0.2,1.4,0.3,1.4,0.3s0.4,0.4,1,0.5
		c0.7,0.2,1.5,0.2,1.5,0.2s0.4,0.3,0.9,0.4c0.7,0.1,1.6,0,1.6,0s0.5,0.3,1,0.3c0.7,0.1,1.5-0.1,1.5-0.1s0.5,0.2,1.1,0.2
		c0.7,0,1.5-0.2,1.5-0.2s0.7,0.1,1.3,0.1c0.7-0.1,1.3-0.3,1.3-0.3s0.6,0.1,1.2,0c0.7-0.1,1.4-0.5,1.4-0.5s0.5,0.1,1.1-0.1
		c0.7-0.2,1.4-0.6,1.4-0.6s0.6,0,1.2-0.2c0.6-0.2,1.2-0.7,1.2-0.7s0.6,0,1.1-0.3c0.6-0.3,1.2-0.8,1.2-0.8s0.6-0.1,1.1-0.4
		c0.6-0.4,1.2-0.9,1.2-0.9s0.6-0.1,1-0.5c0.6-0.4,1.1-1,1.1-1s0.6-0.2,1-0.5c0.5-0.4,1-1.1,1-1.1s0.6-0.2,1-0.7
		c0.5-0.5,0.9-1.2,0.9-1.2s0.5-0.3,0.9-0.8c0.4-0.5,0.8-1.2,0.8-1.2s0.5-0.3,0.8-0.8c0.4-0.6,0.6-1.3,0.6-1.3s0.5-0.4,0.8-0.9
		c0.4-0.6,0.6-1.4,0.6-1.4s0.4-0.4,0.7-0.9c0.3-0.6,0.4-1.5,0.4-1.5s0.4-0.4,0.6-0.9c0.2-0.6,0.2-1.3,0.2-1.3s0.4-0.5,0.5-1.1
		c0.2-0.7,0.2-1.5,0.2-1.5s0.3-0.4,0.4-1c0.1-0.7,0-1.6,0-1.6s0.2-0.5,0.3-1.1c0.1-0.7-0.1-1.5-0.1-1.5s0.2-0.5,0.2-1
		c0-0.7-0.2-1.5-0.2-1.5s0.1-0.5,0.1-1.1c0-0.6-0.3-1.3-0.3-1.3s0.1-0.7,0-1.4c-0.1-0.7-0.4-1.4-0.4-1.4s0.1-0.6-0.1-1.2
		c-0.2-0.6-0.6-1.3-0.6-1.3s0-0.6-0.2-1.2c-0.2-0.6-0.7-1.3-0.7-1.3s0-0.6-0.3-1.1c-0.3-0.6-0.8-1.2-0.8-1.2s-0.1-0.5-0.3-1
		c-0.4-0.6-1-1.3-1-1.3s-0.2-0.5-0.5-1c-0.4-0.6-1.1-1.2-1.1-1.2s-0.1-0.4-0.4-0.8c-0.4-0.5-1.2-1.2-1.2-1.2s-0.2-0.5-0.7-0.9
		c-0.5-0.4-1.1-0.8-1.1-0.8c-0.3-0.5-0.7-0.9-1-1.1c-0.3-0.2-1-0.6-1-0.6s-0.2-0.4-0.7-0.7c-0.6-0.4-1.4-0.7-1.4-0.7
		c-0.3-0.4-0.6-0.6-1-0.9c-0.5-0.3-1-0.4-1.1-0.4c-0.1,0-0.4-0.4-0.9-0.7c-0.5-0.3-1.5-0.5-1.5-0.5s-0.4-0.4-1-0.6
		c-0.6-0.2-1.5-0.3-1.5-0.3s-0.4-0.3-0.9-0.5c-0.7-0.2-1.6-0.2-1.6-0.2s-0.4-0.3-1-0.5c-0.7-0.1-1.6-0.1-1.6-0.1s-0.6-0.3-1.2-0.3
		c-0.7-0.1-1.4,0.1-1.4,0.1s-0.5-0.2-1.1-0.2c-0.7,0-1.4,0.1-1.4,0.1s-0.6-0.1-1.2-0.1c-0.7,0.1-1.3,0.3-1.3,0.3s-0.7-0.1-1.3,0
		c-0.7,0.1-1.3,0.4-1.3,0.4s-0.6,0-1.2,0.1c-0.7,0.2-1.3,0.6-1.3,0.6s-0.7,0-1.3,0.2c-0.6,0.2-1.2,0.7-1.2,0.7s-0.6,0-1.1,0.2
		c-0.6,0.3-1.2,0.8-1.2,0.8s-0.5,0-1.1,0.3c-0.6,0.4-1.3,1-1.3,1s-0.6,0.2-1,0.5c-0.6,0.4-1.1,1-1.1,1s-0.5,0.1-0.9,0.5
		c-0.5,0.4-1,1.1-1,1.1s-0.6,0.3-1,0.7c-0.5,0.5-0.9,1.2-0.9,1.2s-0.5,0.3-0.9,0.7c-0.4,0.5-0.7,1.1-0.7,1.1s-0.5,0.4-0.9,0.9
		c-0.4,0.6-0.6,1.2-0.6,1.2s-0.5,0.4-0.8,1c-0.4,0.6-0.6,1.4-0.6,1.4s-0.4,0.4-0.7,0.9c-0.3,0.6-0.4,1.3-0.4,1.3s-0.4,0.5-0.6,1
		c-0.2,0.6-0.3,1.3-0.3,1.3s-0.4,0.5-0.5,1.1c-0.2,0.7-0.1,1.4-0.1,1.4s-0.3,0.5-0.4,1.1c-0.1,0.6-0.1,1.4-0.1,1.4s-0.3,0.6-0.3,1.2
		c-0.1,0.6,0.1,1.3,0.1,1.3s-0.2,0.7-0.2,1.3c0,0.7,0.2,1.3,0.2,1.3s-0.2,0.6-0.1,1.3c0.1,0.7,0.3,1.3,0.3,1.3s-0.1,0.6,0,1.2
		c0.1,0.7,0.5,1.4,0.5,1.4s0,0.7,0.1,1.2c0.2,0.6,0.5,1.2,0.5,1.2s0,0.6,0.2,1.2c0.2,0.7,0.7,1.3,0.7,1.3s0,0.6,0.2,1.1
		c0.3,0.6,0.8,1.3,0.8,1.3s0,0.6,0.3,1.1c0.4,0.6,1,1.2,1,1.2s0.1,0.6,0.4,1c0.4,0.5,1,1,1,1s0.2,0.5,0.5,1c0.5,0.6,1.2,1.1,1.2,1.1
		s0.2,0.4,0.5,0.8c0.5,0.5,1.2,1,1.2,1s0.2,0.5,0.7,0.8c0.6,0.5,1.4,0.8,1.4,0.8s0.3,0.5,0.8,0.8c0.6,0.4,1.3,0.6,1.3,0.6
		S34.3,75.3,34.8,75.6z M40.4,83.9l0.5,0.9l0.9-0.4L41.1,88l1.2,0.2l1-4.8l-1-0.2L40.4,83.9z M34.2,83.9l3.8,1.5l0.4-1.2l-3.8-1.5
		L34.2,83.9z M98.7,51.8c-0.5,0.9-2.5,1.5-2.9,1.6c-0.3,0.1-0.8,0.4-0.8,0.4c-0.2-0.6-0.1-1.3,0-2.1c0.1-0.8,2.2-1.9,2.8-2.2
		c0.6-0.3,1.1-0.8,1.1-0.8C99.3,49.7,99.2,50.9,98.7,51.8z M98.3,56c-0.6,0.8-2.7,1.3-3.1,1.4c-0.4,0.1-0.8,0.4-0.8,0.4
		c-0.1-0.7,0-1.3,0.2-2.1c0.2-0.8,2.4-1.7,3-1.9c0.6-0.2,1.2-0.7,1.2-0.7C99.2,54,98.9,55.2,98.3,56z M97.7,60.2
		c-0.6,0.8-2.8,1.1-3.1,1.2c-0.4,0.1-0.8,0.3-0.8,0.3c-0.1-0.7,0.1-1.3,0.4-2.1c0.2-0.8,2.5-1.6,3.1-1.8c0.6-0.2,1.2-0.6,1.2-0.6
		C98.7,58.2,98.3,59.4,97.7,60.2L97.7,60.2z M96.6,64.3c-0.7,0.7-2.9,0.8-3.3,0.8c-0.4,0-0.9,0.2-0.9,0.2c0-0.7,0.3-1.3,0.6-2.1
		c0.3-0.8,2.7-1.3,3.3-1.4c0.7-0.1,1.3-0.5,1.3-0.5C97.8,62.4,97.3,63.6,96.6,64.3z M95.1,68.3C94.3,69,92.1,69,91.8,69
		c-0.4,0-0.9,0.2-0.9,0.2c0-0.7,0.4-1.3,0.7-2c0.4-0.8,2.8-1.1,3.4-1.2c0.7-0.1,1.3-0.4,1.3-0.4C96.4,66.5,95.8,67.7,95.1,68.3z
		 M93.3,72.2c-0.8,0.6-3,0.3-3.4,0.3c-0.4,0-0.9,0.1-0.9,0.1c0.1-0.7,0.5-1.2,0.9-1.9c0.5-0.7,2.8-0.8,3.5-0.9
		c0.7,0,1.3-0.2,1.3-0.2C94.8,70.5,94.1,71.6,93.3,72.2z M91.2,75.9c-0.9,0.5-3,0.2-3.4,0.1c-0.4-0.1-0.9,0-0.9,0
		c0.1-0.7,0.6-1.2,1.1-1.9c0.5-0.7,2.9-0.7,3.6-0.6c0.7,0,1.3-0.2,1.3-0.2C92.8,74.3,92.1,75.4,91.2,75.9L91.2,75.9z M88.7,79.4
		c-0.9,0.4-3-0.1-3.4-0.2c-0.3-0.1-0.9-0.1-0.9-0.1c0.2-0.6,0.7-1.1,1.2-1.8c0.6-0.6,2.9-0.4,3.6-0.3c0.7,0.1,1.3,0,1.3,0
		C90.5,78,89.6,79,88.7,79.4z M86,82.7c-0.9,0.4-3-0.4-3.3-0.5C82.4,82,81.8,82,81.8,82c0.3-0.6,0.8-1.1,1.4-1.6
		c0.6-0.6,3-0.1,3.6,0c0.6,0.2,1.3,0.1,1.3,0.1C87.9,81.4,87,82.3,86,82.7z M83,85.7c-1,0.3-2.9-0.7-3.3-0.8
		c-0.3-0.2-0.9-0.2-0.9-0.2c0.3-0.6,0.9-1,1.5-1.5c0.7-0.5,3,0.2,3.6,0.4c0.6,0.2,1.3,0.2,1.3,0.2C85,84.6,84,85.4,83,85.7z
		 M79.7,88.4c-1,0.2-2.9-0.9-3.2-1.1c-0.3-0.2-0.8-0.3-0.8-0.3c0.4-0.6,1-0.9,1.7-1.4c0.7-0.5,2.9,0.4,3.5,0.7
		c0.6,0.3,1.3,0.3,1.3,0.3C81.8,87.6,80.7,88.3,79.7,88.4z M76.3,90.8c-1,0.1-2.8-1.2-3.1-1.4c-0.3-0.2-0.8-0.4-0.8-0.4
		c0.4-0.5,1-0.8,1.8-1.2c0.8-0.4,2.9,0.7,3.5,1c0.6,0.3,1.3,0.4,1.3,0.4C78.4,90.1,77.3,90.7,76.3,90.8z M72.6,93
		c-1,0-2.6-1.4-2.9-1.7c-0.3-0.2-0.8-0.5-0.8-0.5c0.5-0.5,1.1-0.7,1.9-1c0.8-0.3,2.8,1,3.3,1.3c0.5,0.4,1.2,0.6,1.2,0.6
		C74.8,92.5,73.6,93,72.6,93z M68.7,94.8c-1-0.1-2.5-1.6-2.7-1.9c-0.2-0.3-0.7-0.5-0.7-0.5c0.5-0.4,1.2-0.6,2-0.9
		c0.8-0.3,2.7,1.2,3.2,1.6c0.5,0.4,1.2,0.7,1.2,0.7C70.9,94.5,69.7,94.9,68.7,94.8z M64.8,96.3c-1-0.2-2.4-1.8-2.6-2.1
		c-0.2-0.3-0.7-0.6-0.7-0.6c0.5-0.4,1.2-0.5,2.1-0.7c0.8-0.2,2.6,1.4,3.1,1.8c0.5,0.4,1.1,0.7,1.1,0.7C67,96.2,65.8,96.5,64.8,96.3z
		 M60.6,97.4c-1-0.3-2.1-2.1-2.3-2.4c-0.2-0.3-0.6-0.6-0.6-0.6c0.6-0.3,1.3-0.4,2.1-0.5c0.9-0.1,2.4,1.7,2.9,2.2
		c0.4,0.5,1,0.9,1,0.9C62.9,97.6,61.6,97.7,60.6,97.4z M56.4,98.2c-1-0.4-1.9-2.2-2.1-2.6c-0.2-0.3-0.6-0.7-0.6-0.7
		c0.6-0.3,1.3-0.3,2.2-0.3c0.9,0,2.3,1.9,2.7,2.4c0.4,0.5,0.9,0.9,0.9,0.9C58.7,98.5,57.4,98.6,56.4,98.2z M52.2,98.6
		c-0.9-0.4-1.7-2.4-1.9-2.7c-0.1-0.3-0.5-0.7-0.5-0.7c0.6-0.2,1.3-0.2,2.2-0.1c0.9,0,2.1,2.1,2.4,2.6c0.3,0.6,0.9,1,0.9,1
		C54.4,99.1,53.1,99.1,52.2,98.6z M47.9,98.6c-0.9-0.5-1.5-2.6-1.6-2.9c-0.1-0.3-0.4-0.8-0.4-0.8c0.7-0.2,1.3,0,2.2,0.1
		c0.9,0.1,1.9,2.2,2.2,2.8c0.3,0.6,0.8,1.1,0.8,1.1C50,99.3,48.8,99.1,47.9,98.6z M43.7,98.3c-0.8-0.6-1.3-2.7-1.4-3
		c-0.1-0.3-0.4-0.8-0.4-0.8c0.7-0.1,1.3,0.1,2.2,0.3c0.8,0.2,1.7,2.4,2,3c0.2,0.6,0.7,1.2,0.7,1.2C45.8,99.1,44.5,98.9,43.7,98.3z
		 M39.5,97.5c-0.8-0.6-1.1-2.8-1.1-3.1c-0.1-0.4-0.3-0.8-0.3-0.8c0.7-0.1,1.3,0.2,2.2,0.4c0.8,0.3,1.5,2.5,1.7,3.1
		c0.2,0.6,0.6,1.2,0.6,1.2C41.5,98.5,40.3,98.2,39.5,97.5z M35.4,96.4c-0.7-0.7-0.8-2.9-0.8-3.2c0-0.4-0.2-0.9-0.2-0.9
		c0.7,0,1.3,0.3,2.1,0.6c0.8,0.3,1.3,2.6,1.4,3.3c0.1,0.6,0.5,1.3,0.5,1.3C37.3,97.6,36.1,97.1,35.4,96.4z M31.4,95
		c-0.7-0.8-0.6-2.9-0.6-3.3c0-0.4-0.1-0.9-0.1-0.9c0.7,0.1,1.3,0.4,2,0.8c0.8,0.4,1.1,2.7,1.1,3.4c0.1,0.6,0.3,1.3,0.3,1.3
		C33.2,96.4,32,95.8,31.4,95z M26.9,88c0,0-1.2-1.7-3.2-2.1c0,0-0.7-1.6-3.1-2.4c0,0-0.5-1.7-2.8-2.6c0,0-0.2-1.5-2.6-3
		c0,0-0.3-1.6-2.3-3.1c0,0-0.2-1.9-2-3.3c0,0,0.1-1.6-1.7-3.6c0,0,0-2.1-1.4-3.6c0,0,0.2-2.3-1.1-3.7c0,0,0.4-1.9-0.7-3.7
		c-0.3-0.4,0.2-0.7,0.1-1.3c0-0.6-0.2-2-0.6-2.8c0,0,0.8-1.5-0.1-3.8c0,0,0.9-1.3,0.3-3.9c0,0,1-1.3,0.6-3.9c0,0,1-0.8,0.9-3.7
		c0,0,1.1-0.7,1.3-3.7c0,0,1.4-0.9,1.6-3.6c0,0,1.3-0.5,1.8-3.4c0,0,1.5-0.7,2.2-3.1c0,0,0.8-0.5,1.2-1.1c0.4-0.5,1-1.4,1.2-2.1
		c0,0,1-0.4,1.6-1.3c0.6-0.8,1-1.6,1-1.6s1.7-0.4,3-2.6c0,0,1.7-0.1,3.1-2.3c0,0,1.6-0.1,3.3-2c0,0,1.8,0,3.5-1.8
		c0,0,1.8,0.3,3.6-1.4c0,0,1.6,0.4,3.7-1.1c0,0,1.5,0.6,3.8-0.7c0,0,1.4,0.6,3.9-0.5c0,0,1.2,0.9,3.9-0.1c0,0,1.6,0.9,3.8,0.2
		c0,0,1.2,0.9,3.8,0.6c0,0,1.2,1.2,3.8,0.9c0,0,0.7,1.1,3.7,1.2c0,0,0.6,1.2,3.5,1.5c0,0,0.7,1.3,3.5,1.9c0,0,0.6,1.3,3.2,2.1
		c0,0,0.4,1.4,3,2.4c0,0,0.7,1.7,2.8,2.6c0,0,0.2,1.4,2.6,2.9c0,0,0.2,1.5,2.3,3.1c0,0,0.2,1.8,2,3.3c0,0,0.1,2,1.7,3.5
		c0,0-0.2,1.8,1.4,3.6c0,0-0.1,2.3,1.1,3.7c0,0-0.4,1.8,0.7,3.8c0,0-0.6,1.7,0.4,3.8c0,0-0.8,1.7,0.1,3.9c0,0-0.8,1-0.3,4
		c0,0-0.9,1.1-0.6,3.7c0,0-1.1,1.4-0.9,3.7c0,0-1.1,1.3-1.2,3.8c0,0-1.4,1-1.6,3.6c0,0-1.2,0.8-1.9,3.4c0,0-1.5,1.1-2.1,3.2
		c0,0-1.7,0.9-2.5,3.2c0,0-1.5,0.4-2.6,2.7c0,0,0,0-0.7,0.4c-0.7,0.3-1.7,1.3-2.3,2.3c0,0-0.2,0.1-0.9,0.4c-0.7,0.3-1.6,1-2.2,2
		c0,0-1.9,0.2-3.3,2c0,0-1.6-0.1-3.5,1.7c0,0-1.8-0.2-3.7,1.5c0,0-1.7-0.4-3.6,1.1c0,0-1.8-0.5-3.9,0.8c0,0-1.6-0.7-3.9,0.4
		c0,0-1.5-0.8-3.9,0.1c0,0-1.5-0.9-3.9-0.2c0,0-1.2-1-3.8-0.5c0,0-1-1.1-3.8-0.9c0,0-1.1-1.3-3.7-1.2c0,0-1-1.4-3.4-1.6
		C30.3,89.9,29.2,88.3,26.9,88z M27.5,93.2c-0.6-0.8-0.3-3-0.2-3.3c0-0.4-0.1-0.9-0.1-0.9c0.7,0.1,1.2,0.5,2,1
		c0.7,0.5,0.8,2.8,0.8,3.5c0,0.6,0.2,1.3,0.2,1.3C29.2,94.7,28.1,94.1,27.5,93.2z M23.8,91.1c-0.5-0.9-0.1-3,0-3.3
		c0.1-0.3,0-0.9,0-0.9c0.7,0.2,1.2,0.6,1.9,1.1c0.7,0.5,0.6,2.9,0.5,3.5c-0.1,0.6,0.1,1.3,0.1,1.3C25.3,92.7,24.3,92,23.8,91.1
		L23.8,91.1z M22.7,90.7c-1-0.2-2-1.1-2.4-2c-0.4-0.9,0.2-3,0.3-3.3c0.1-0.3,0.1-0.9,0.1-0.9c0.6,0.2,1.1,0.7,1.8,1.3
		c0.6,0.6,0.3,2.9,0.2,3.5C22.6,90,22.7,90.7,22.7,90.7z M19.4,86.7c-0.1,0.6-0.1,1.3-0.1,1.3c-0.9-0.3-1.8-1.2-2.2-2.1
		c-0.3-0.9,0.4-2.9,0.5-3.2c0.1-0.3,0.1-0.9,0.1-0.9c0.6,0.2,1,0.7,1.6,1.3C20,83.8,19.5,86.1,19.4,86.7z M16.3,83.9
		c-0.2,0.6-0.2,1.3-0.2,1.3c-0.9-0.3-1.7-1.3-1.9-2.3c-0.2-1,0.7-2.9,0.8-3.2c0.2-0.3,0.2-0.8,0.2-0.8c0.6,0.3,0.9,0.8,1.5,1.4
		C17.1,81.1,16.5,83.3,16.3,83.9z M13.1,82.3c-0.9-0.4-1.6-1.5-1.7-2.5c-0.2-1,1-2.8,1.1-3.1c0.2-0.3,0.3-0.8,0.3-0.8
		c0.5,0.3,0.9,0.9,1.3,1.6c0.5,0.7-0.4,2.9-0.7,3.5C13.1,81.5,13.1,82.3,13.1,82.3z M10.8,77.6c-0.3,0.6-0.4,1.3-0.4,1.3
		c-0.8-0.5-1.4-1.6-1.5-2.6c-0.1-1,1.2-2.7,1.4-3c0.2-0.3,0.4-0.8,0.4-0.8c0.5,0.4,0.8,1,1.2,1.7C12.2,74.9,11.2,77,10.8,77.6
		L10.8,77.6z M8.6,74C8.2,74.6,8,75.3,8,75.3c-0.8-0.6-1.3-1.7-1.3-2.7c0-1,1.4-2.6,1.6-2.9c0.2-0.3,0.4-0.8,0.4-0.8
		c0.5,0.4,0.7,1,1,1.8C10.2,71.5,9,73.5,8.6,74L8.6,74z M6,71.5c-0.7-0.6-1.1-1.8-1-2.8c0.1-1,1.6-2.5,1.9-2.7
		c0.3-0.2,0.5-0.7,0.5-0.7c0.4,0.5,0.6,1.1,0.9,1.9c0.3,0.8-1.2,2.7-1.6,3.2C6.3,70.9,6,71.5,6,71.5z M4.2,67.6
		c-0.7-0.7-1-1.9-0.8-2.9c0.2-1,1.8-2.3,2.1-2.5c0.3-0.2,0.6-0.7,0.6-0.7c0.4,0.5,0.5,1.1,0.7,1.9C7,64.2,5.5,66,5,66.5
		C4.6,67,4.2,67.6,4.2,67.6z M2.4,60.6c0.3-1,2.1-2.1,2.4-2.3c0.3-0.2,0.6-0.6,0.6-0.6c0.3,0.5,0.4,1.2,0.5,2
		c0.1,0.8-1.6,2.4-2.1,2.9c-0.5,0.4-0.9,1-0.9,1C2.3,62.8,2.1,61.6,2.4,60.6z M1.6,56.5c0.3-0.9,2.2-2,2.5-2.2
		c0.3-0.2,0.7-0.6,0.7-0.6c0.3,0.6,0.3,1.2,0.4,2c0.1,0.8-1.8,2.3-2.3,2.7c-0.5,0.4-0.9,1-0.9,1C1.4,58.7,1.3,57.4,1.6,56.5z
		 M1.2,55.2c-0.5-0.8-0.4-2.1,0-3c0.4-0.9,2.4-1.8,2.7-1.9c0.3-0.1,0.7-0.5,0.7-0.5c0.2,0.6,0.2,1.2,0.2,2c0,0.8-2,2.1-2.6,2.5
		C1.7,54.7,1.2,55.2,1.2,55.2z M1.2,48c0.5-0.9,2.5-1.6,2.9-1.7c0.3-0.1,0.8-0.4,0.8-0.4c0.2,0.6,0.1,1.2,0,2
		c-0.1,0.8-2.2,1.9-2.8,2.3C1.5,50.5,1,51,1,51C0.6,50.1,0.7,48.9,1.2,48z M1.6,43.7c0.6-0.8,2.6-1.4,3-1.5c0.3-0.1,0.8-0.4,0.8-0.4
		c0.1,0.6,0,1.2-0.2,2c-0.2,0.8-2.3,1.8-2.9,2c-0.6,0.3-1.2,0.7-1.2,0.7C0.8,45.8,1,44.6,1.6,43.7z M2.2,39.6
		c0.6-0.8,2.7-1.2,3.1-1.2C5.7,38.3,6.1,38,6.1,38c0.1,0.6-0.1,1.2-0.3,2c-0.2,0.8-2.5,1.6-3.1,1.8c-0.6,0.2-1.2,0.6-1.2,0.6
		C1.3,41.5,1.6,40.3,2.2,39.6z M3.4,35.4c0.7-0.7,2.9-0.8,3.2-0.8c0.4,0,0.8-0.2,0.8-0.2c0,0.6-0.3,1.2-0.6,2
		c-0.3,0.8-2.6,1.3-3.3,1.4c-0.7,0.1-1.3,0.5-1.3,0.5C2.2,37.2,2.7,36.1,3.4,35.4z M4.8,31.4c0.8-0.6,2.9-0.6,3.3-0.6
		c0.4,0,0.9-0.2,0.9-0.2c0,0.6-0.3,1.2-0.7,1.9c-0.4,0.7-2.7,1.1-3.4,1.2c-0.7,0.1-1.3,0.4-1.3,0.4C3.5,33.2,4.1,32.1,4.8,31.4z
		 M6.6,27.6c0.8-0.6,3-0.3,3.3-0.3c0.4,0,0.9-0.1,0.9-0.1c-0.1,0.6-0.5,1.1-0.9,1.8c-0.4,0.7-2.8,0.8-3.5,0.8
		c-0.7,0-1.3,0.2-1.3,0.2C5.1,29.2,5.7,28.1,6.6,27.6z M8.7,23.9c0.9-0.5,3-0.1,3.3,0c0.4,0.1,0.9,0,0.9,0c-0.1,0.6-0.5,1.1-1,1.8
		c-0.5,0.7-2.9,0.6-3.5,0.6c-0.7,0-1.4,0.1-1.4,0.1C7.1,25.4,7.8,24.4,8.7,23.9z M11.1,20.4c0.9-0.4,3,0.1,3.3,0.2
		c0.3,0.1,0.9,0.1,0.9,0.1c-0.2,0.6-0.6,1.1-1.2,1.7c-0.5,0.6-2.9,0.4-3.6,0.3s-1.4,0-1.4,0C9.4,21.7,10.2,20.8,11.1,20.4L11.1,20.4
		z M13.9,17.1c0.9-0.3,2.9,0.4,3.3,0.5c0.3,0.1,0.9,0.1,0.9,0.1c-0.2,0.6-0.7,1-1.3,1.6c-0.6,0.6-2.9,0.1-3.6,0
		c-0.7-0.1-1.4-0.1-1.4-0.1C12,18.3,12.9,17.4,13.9,17.1z M16.8,14.1c1-0.2,2.9,0.7,3.2,0.8c0.3,0.2,0.8,0.2,0.8,0.2
		c-0.3,0.6-0.8,0.9-1.5,1.4c-0.6,0.5-2.9-0.2-3.6-0.4C15.2,16,14.5,16,14.5,16C14.9,15.1,15.9,14.3,16.8,14.1z M20.1,11.3
		c1-0.2,2.8,0.9,3.1,1.1c0.3,0.2,0.8,0.3,0.8,0.3c-0.3,0.5-0.9,0.9-1.6,1.3c-0.7,0.4-2.9-0.4-3.5-0.7c-0.6-0.3-1.3-0.3-1.3-0.3
		C18.1,12.1,19.1,11.5,20.1,11.3z M23.6,8.9c1-0.1,2.7,1.2,3,1.4c0.3,0.2,0.8,0.4,0.8,0.4c-0.4,0.5-1,0.8-1.7,1.2
		c-0.7,0.4-2.9-0.7-3.4-1c-0.6-0.3-1.3-0.4-1.3-0.4C21.5,9.5,22.6,9,23.6,8.9L23.6,8.9z M27.3,6.8c1,0,2.6,1.4,2.9,1.7
		c0.3,0.2,0.8,0.4,0.8,0.4c-0.4,0.5-1,0.7-1.8,1c-0.8,0.3-2.8-0.9-3.3-1.3C25.2,8.2,24.6,8,24.6,8C25.1,7.2,26.3,6.7,27.3,6.8z
		 M31.1,4.9c1,0.1,2.5,1.6,2.7,1.9c0.2,0.3,0.7,0.5,0.7,0.5c-0.5,0.4-1.1,0.6-1.9,0.9C31.9,8.5,30,7,29.5,6.6
		C28.9,6.2,28.3,6,28.3,6C28.9,5.2,30.1,4.8,31.1,4.9z M35.3,3.4c1,0.2,2.3,1.9,2.5,2.2c0.2,0.3,0.6,0.6,0.6,0.6
		c-0.5,0.4-1.2,0.5-2,0.7c-0.8,0.2-2.6-1.4-3-1.9c-0.5-0.5-1.1-0.8-1.1-0.8C33,3.5,34.3,3.3,35.3,3.4z M39.3,2.3
		c1,0.3,2.1,2,2.3,2.3c0.2,0.3,0.6,0.6,0.6,0.6c-0.6,0.4-1.2,0.4-2,0.6c-0.8,0.1-2.5-1.6-2.9-2.1c-0.4-0.5-1.1-0.9-1.1-0.9
		C37.1,2.2,38.3,2.1,39.3,2.3z M43.5,1.5c0.9,0.3,1.9,2.2,2.1,2.5c0.2,0.3,0.5,0.7,0.5,0.7c-0.6,0.3-1.2,0.3-2.1,0.4
		c-0.8,0.1-2.3-1.8-2.7-2.3c-0.4-0.5-1-1-1-1C41.3,1.3,42.6,1.2,43.5,1.5z M47.7,1.1c0.9,0.4,1.7,2.4,1.9,2.7
		c0.1,0.3,0.5,0.7,0.5,0.7c-0.6,0.3-1.3,0.2-2.1,0.2c-0.8,0-2.1-2-2.5-2.6c-0.3-0.6-0.9-1-0.9-1C45.5,0.7,46.8,0.7,47.7,1.1z
		 M52,1.2c0.9,0.5,1.5,2.5,1.6,2.9C53.7,4.4,54,4.8,54,4.8c-0.6,0.2-1.3,0.1-2.1,0C51.1,4.6,50,2.6,49.7,2C49.4,1.4,49,0.9,49,0.9
		C49.9,0.5,51.2,0.7,52,1.2z M56.2,1.5c0.8,0.6,1.3,2.6,1.4,3C57.7,4.9,58,5.3,58,5.3c-0.6,0.1-1.3,0-2.1-0.2
		c-0.8-0.2-1.7-2.3-2-2.9C53.6,1.6,53.2,1,53.2,1C54.2,0.7,55.4,1,56.2,1.5z M60.4,2.3c0.8,0.6,1,2.7,1.1,3.1c0,0.3,0.3,0.8,0.3,0.8
		c-0.7,0.1-1.3-0.1-2.1-0.4c-0.8-0.2-1.5-2.5-1.7-3.1c-0.2-0.6-0.6-1.2-0.6-1.2C58.4,1.3,59.7,1.6,60.4,2.3z M64.6,3.4
		c0.7,0.7,0.7,2.8,0.8,3.2c0,0.3,0.2,0.8,0.2,0.8c-0.7,0-1.3-0.3-2-0.6c-0.8-0.3-1.2-2.6-1.4-3.2c-0.1-0.7-0.4-1.3-0.4-1.3
		C62.7,2.2,63.9,2.7,64.6,3.4z M68.5,4.8C69.2,5.6,69.1,7.7,69,8c0,0.3,0.1,0.8,0.1,0.8c-0.7,0-1.2-0.4-2-0.7
		c-0.8-0.4-1-2.7-1.1-3.3c-0.1-0.7-0.3-1.3-0.3-1.3C66.8,3.4,67.9,4,68.5,4.8z M72.4,6.6c0.6,0.8,0.3,2.9,0.2,3.3
		c0,0.3,0.1,0.9,0.1,0.9c-0.7-0.1-1.2-0.5-1.9-0.9C70.1,9.4,70,7.1,70,6.4c0-0.7-0.2-1.3-0.2-1.3C70.7,5.1,71.8,5.8,72.4,6.6z
		 M76.1,8.7c0.5,0.9,0,2.9-0.1,3.3c-0.1,0.3,0,0.9,0,0.9c-0.6-0.2-1.1-0.6-1.8-1.1c-0.7-0.5-0.5-2.8-0.5-3.5
		c0.1-0.7-0.1-1.3-0.1-1.3C74.6,7.1,75.7,7.8,76.1,8.7z M77.2,9.1c1,0.2,2,1,2.4,2c0.4,0.9-0.2,2.9-0.3,3.2
		c-0.1,0.3-0.1,0.9-0.1,0.9c-0.6-0.2-1.1-0.7-1.7-1.2c-0.6-0.5-0.3-2.9-0.2-3.5C77.3,9.8,77.2,9.1,77.2,9.1z M80.6,13
		c0.2-0.6,0.1-1.3,0.1-1.3c1,0.3,1.8,1.2,2.2,2.2c0.3,0.9-0.5,2.9-0.6,3.2c-0.1,0.3-0.2,0.8-0.2,0.8c-0.6-0.3-1-0.8-1.6-1.4
		C79.9,15.9,80.4,13.6,80.6,13z M83.6,15.8c0.2-0.6,0.2-1.3,0.2-1.3c1,0.4,1.7,1.4,2,2.3c0.3,1-0.7,2.8-0.9,3.1
		c-0.2,0.3-0.2,0.8-0.2,0.8c-0.6-0.3-1-0.8-1.5-1.5C82.7,18.6,83.4,16.4,83.6,15.8z M86.8,17.5c0.9,0.4,1.6,1.5,1.8,2.5
		c0.2,1-1,2.8-1.1,3.1c-0.2,0.3-0.3,0.8-0.3,0.8c-0.6-0.4-0.9-0.9-1.4-1.6c-0.5-0.7,0.4-2.9,0.7-3.5C86.7,18.2,86.8,17.5,86.8,17.5z
		 M89,22.1c0.3-0.6,0.5-1.3,0.5-1.3c0.9,0.5,1.5,1.7,1.5,2.7c0.1,1-1.2,2.7-1.5,2.9c-0.2,0.3-0.4,0.8-0.4,0.8
		c-0.5-0.4-0.8-1-1.2-1.7C87.6,24.7,88.7,22.7,89,22.1z M91.3,25.6c0.4-0.5,0.6-1.2,0.6-1.2c0.8,0.6,1.3,1.8,1.3,2.8
		c0,1-1.5,2.5-1.7,2.8c-0.2,0.3-0.5,0.7-0.5,0.7c-0.5-0.4-0.7-1.1-1-1.8C89.6,28.1,90.9,26.1,91.3,25.6z M93.9,28.2
		c0.8,0.7,1.2,1.9,1.1,2.9c-0.1,1-1.7,2.4-1.9,2.6c-0.3,0.2-0.5,0.7-0.5,0.7c-0.4-0.5-0.6-1.1-0.9-1.9c-0.3-0.8,1.2-2.6,1.6-3.1
		C93.7,28.8,93.9,28.2,93.9,28.2L93.9,28.2z M95.6,32c0.7,0.7,1,1.9,0.9,2.9c-0.2,1-1.8,2.3-2.1,2.5c-0.3,0.2-0.6,0.7-0.6,0.7
		c-0.4-0.5-0.5-1.1-0.8-1.9c-0.2-0.8,1.3-2.6,1.8-3C95.3,32.7,95.6,32,95.6,32z M97.6,39.1c-0.3,1-2,2.1-2.3,2.3
		c-0.3,0.2-0.6,0.6-0.6,0.6c-0.4-0.5-0.4-1.2-0.6-2c-0.1-0.8,1.6-2.4,2.1-2.8c0.5-0.4,0.9-1,0.9-1C97.6,36.9,97.8,38.2,97.6,39.1z
		 M98.3,43.3c-0.3,0.9-2.2,1.9-2.5,2.1c-0.3,0.2-0.7,0.5-0.7,0.5c-0.3-0.6-0.3-1.2-0.4-2.1c-0.1-0.8,1.8-2.3,2.3-2.7
		c0.5-0.4,1-1,1-1C98.6,41.1,98.6,42.3,98.3,43.3z M98.7,44.5c0.5,0.9,0.5,2.1,0,3.1c-0.4,0.9-2.4,1.7-2.7,1.9
		c-0.3,0.1-0.7,0.5-0.7,0.5c-0.3-0.6-0.2-1.3-0.2-2.1c0-0.8,2-2.1,2.6-2.4C98.2,45,98.7,44.5,98.7,44.5z M100,50.3
		c0-1.2-0.4-2.5-0.4-2.5s0.2-0.9,0.2-1.8c-0.1-1.1-0.5-2.2-0.5-2.2s0.1-1.2,0-2.3c-0.2-1.2-0.7-2.3-0.7-2.3s0.1-1-0.1-2
		c-0.3-1-1-2.1-1-2.1s0-1-0.3-1.9C96.7,32.1,96,31,96,31s0-1-0.4-1.9C95.1,28,94.2,27,94.2,27s-0.1-0.9-0.5-1.7
		C93,24.3,92,23.2,92,23.2s-0.3-0.9-0.8-1.7c-0.7-1-1.8-2-1.8-2s-0.1-0.6-0.7-1.3c-0.8-0.9-2-2-2-2s-0.4-0.8-1.1-1.5
		c-0.8-0.8-1.9-1.4-1.9-1.4c-0.5-0.9-1.1-1.5-1.7-1.9c-0.6-0.4-1.7-0.9-1.7-0.9s-0.4-0.7-1.1-1.2c-0.9-0.7-2.3-1.2-2.3-1.2
		c-0.5-0.7-1-1-1.7-1.5c-0.8-0.5-1.7-0.6-1.9-0.7c-0.1-0.1-0.7-0.7-1.5-1.1c-0.8-0.5-2.5-0.8-2.5-0.8s-0.7-0.7-1.6-1
		c-1.1-0.4-2.5-0.4-2.5-0.4s-0.6-0.6-1.5-0.8C62.5,1.5,61,1.6,61,1.6S60.2,1,59.2,0.8c-1.2-0.2-2.6-0.1-2.6-0.1s-1-0.4-2-0.5
		c-1.1-0.1-2.3,0.2-2.3,0.2S51.5,0,50.5,0C49.4,0,48,0.2,48,0.2S47,0,46,0.1c-1.1,0.1-2.2,0.5-2.2,0.5s-1.2-0.2-2.1,0
		c-1.2,0.2-2.2,0.7-2.2,0.7s-1.1-0.1-2,0.2c-1.1,0.3-2.1,0.9-2.1,0.9s-1.1,0-2.1,0.4c-1.1,0.4-2,1.2-2,1.2S30.2,4,29.3,4.4
		c-1,0.5-2,1.4-2,1.4s-0.9,0.1-1.8,0.6C24.4,7,23.4,8,23.4,8s-0.9,0.3-1.7,0.9c-1,0.7-1.8,1.6-1.8,1.6s-0.8,0.2-1.6,0.9
		c-0.9,0.7-1.7,1.8-1.7,1.8s-0.9,0.4-1.7,1.2c-0.8,0.8-1.5,2-1.5,2s-0.8,0.5-1.5,1.2c-0.7,0.8-1.2,1.9-1.2,1.9S9.8,20.1,9.2,21
		c-0.7,0.9-1,2.1-1,2.1s-0.8,0.7-1.3,1.6c-0.6,1-0.9,2.3-0.9,2.3s-0.7,0.7-1.1,1.5c-0.5,1-0.7,2.3-0.7,2.3s-0.7,0.8-1,1.7
		c-0.4,1-0.5,2.3-0.5,2.3S2,35.7,1.8,36.7C1.5,37.8,1.5,39,1.5,39S1,39.9,0.8,40.9c-0.2,1.1-0.1,2.4-0.1,2.4s-0.4,1-0.5,2
		c-0.1,1.1,0.1,2.2,0.1,2.2S0,48.7,0,49.8C0,50.9,0.3,52,0.3,52S0,53.1,0.1,54.1c0.1,1.1,0.6,2.2,0.6,2.2s-0.2,1,0,2
		c0.2,1.1,0.8,2.3,0.8,2.3s-0.1,1.1,0.2,2.1c0.3,1.1,0.9,2,0.9,2s0,1.1,0.3,2C3.2,67.9,4,69,4,69s0,0.9,0.4,1.8
		c0.5,1.1,1.4,2.1,1.4,2.1s0.1,0.9,0.5,1.8C7,75.7,8,76.7,8,76.7s0.2,1,0.7,1.8c0.7,0.9,1.7,1.7,1.7,1.7s0.3,0.9,0.8,1.6
		c0.8,1,2,1.8,2,1.8s0.3,0.8,0.9,1.4c0.8,0.8,2.1,1.6,2.1,1.6s0.4,0.8,1.1,1.4c0.9,0.8,2.3,1.4,2.3,1.4s0.5,0.8,1.3,1.3
		c0.9,0.7,2.1,1,2.1,1s0.6,0.8,1.5,1.4c1.1,0.6,2.4,1,2.4,1s0.7,0.7,1.6,1.1c1.1,0.5,2.3,0.7,2.3,0.7s0.7,0.7,1.7,1
		c1.1,0.4,2.4,0.4,2.4,0.4s0.7,0.6,1.6,0.9c1.2,0.3,2.6,0.3,2.6,0.3s0.7,0.5,1.5,0.7c1.2,0.2,2.7,0.1,2.7,0.1s0.8,0.5,1.7,0.6
		c1.2,0.1,2.6-0.2,2.6-0.2s0.8,0.4,1.8,0.4c1.1,0,2.4-0.3,2.4-0.3s1.1,0.2,2.1,0.1c1.1-0.1,2.2-0.5,2.2-0.5s1,0.2,2,0.1
		c1.2-0.2,2.3-0.8,2.3-0.8s0.9,0.2,1.8-0.1c1.2-0.3,2.4-1,2.4-1s1.1,0,2-0.3c1.1-0.4,2-1.2,2-1.2s1,0,1.9-0.4c1-0.5,2.1-1.4,2.1-1.4
		s0.9-0.1,1.8-0.6c1-0.6,2-1.6,2-1.6s1-0.2,1.7-0.8c1-0.7,1.9-1.8,1.9-1.8s0.9-0.3,1.7-0.9c0.9-0.7,1.6-1.8,1.6-1.8s0.9-0.4,1.6-1.1
		c0.8-0.8,1.5-2,1.5-2s0.8-0.5,1.5-1.3c0.7-0.9,1.3-2,1.3-2s0.8-0.6,1.4-1.3c0.7-0.9,1.1-2.1,1.1-2.1s0.8-0.6,1.3-1.5
		c0.6-1.1,1-2.4,1-2.4s0.7-0.6,1.1-1.5c0.5-1.1,0.7-2.5,0.7-2.5s0.6-0.6,1-1.6c0.4-1,0.4-2.2,0.4-2.2s0.6-0.9,0.9-1.9
		c0.3-1.2,0.3-2.6,0.3-2.6s0.5-0.7,0.7-1.6c0.2-1.2,0.1-2.7,0.1-2.7s0.4-0.8,0.5-1.9c0.1-1.1-0.1-2.5-0.1-2.5S100,51.2,100,50.3"/>
</g>
</svg>
